<?xml version="1.0" encoding="utf-8"?>
<!-- Generator: Adobe Illustrator 15.0.0, SVG Export Plug-In . SVG Version: 6.00 Build 0)  -->
<!DOCTYPE svg PUBLIC "-//W3C//DTD SVG 1.1//EN" "http://www.w3.org/Graphics/SVG/1.1/DTD/svg11.dtd">
<svg version="1.1" id="Layer_1" xmlns="http://www.w3.org/2000/svg" xmlns:xlink="http://www.w3.org/1999/xlink" x="0px" y="0px"
	 width="1223px" height="601px" viewBox="0 0 1223 601" enable-background="new 0 0 1223 601" xml:space="preserve">
<rect fill="#F6F6F6" width="1223" height="601"/>
<g>
	<path d="M33.408,58.728c0-18.458,13.708-28.739,27.414-28.739c12.617,0,21.496,6.854,24.301,17.524l-7.088,2.493
		C75.931,41.671,69.857,37,60.822,37c-10.047,0-19.625,7.32-19.625,21.728c0,14.409,9.578,21.808,19.625,21.808
		c9.424,0,15.344-5.686,17.603-13.239l6.774,2.491c-2.958,10.358-11.683,17.756-24.377,17.756
		C46.571,87.543,33.408,77.185,33.408,58.728"/>
	<polygon points="95.318,86.375 95.318,31.157 128.885,31.157 128.885,38.246 102.949,38.246 102.949,56 126.472,56 126.472,63.168 
		102.949,63.168 102.949,86.375 	"/>
	<path d="M134.254,75.938c3.039,0,5.453,2.415,5.453,5.453c0,3.037-2.415,5.374-5.453,5.374c-3.037,0-5.375-2.337-5.375-5.374
		C128.88,78.354,131.217,75.938,134.254,75.938"/>
	<path d="M944.128,86.377l-0.7-7.788c-2.414,4.362-8.412,8.956-17.679,8.956c-13.864,0-26.792-10.123-26.792-28.814
		c0-18.693,13.709-28.74,27.336-28.74c11.994,0,21.264,6.697,24.455,16.666l-6.932,2.96C941.325,41.671,934.861,37,926.293,37
		c-9.891,0-19.547,7.087-19.547,21.731c0,14.64,9.346,21.883,19.238,21.883c12.303,0,16.742-8.724,17.054-14.407H923.88v-6.854
		h26.401v27.025H944.128z"/>
	<path d="M993.345,67.608c0,11.446-7.946,19.938-19.162,19.938s-19.157-8.491-19.157-19.938c0-11.371,7.941-19.86,19.157-19.86
		S993.345,56.237,993.345,67.608 M985.866,67.608c0-8.646-5.452-13.319-11.684-13.319c-6.229,0-11.682,4.673-11.682,13.319
		c0,8.723,5.452,13.395,11.682,13.395C980.414,81.003,985.866,76.331,985.866,67.608"/>
	<rect x="999.567" y="29.99" width="7.322" height="56.387"/>
	<path d="M1042.479,80.691c-1.788,3.583-5.762,6.698-11.604,6.698c-10.981,0-17.758-8.723-17.758-19.858
		c0-10.594,7.166-19.627,17.758-19.627c6.62,0,10.202,3.27,11.447,6.307V29.99h7.246v49.456c0,3.582,0.31,6.309,0.388,6.932h-7.086
		c-0.157-0.856-0.392-2.806-0.392-5.062V80.691z M1031.577,80.926c6.696,0,10.826-5.841,10.826-13.552
		c0-7.71-4.051-13.006-10.748-13.006c-6.699,0-11.061,5.451-11.061,13.163C1020.595,75.239,1024.567,80.926,1031.577,80.926"/>
	<path d="M1058.907,86.377v-37.46h7.01V53.9c2.338-4.127,7.009-6.076,11.369-6.076c4.675,0,9.193,2.261,11.216,7.087
		c2.961-5.373,7.787-7.087,12.541-7.087c6.542,0,12.928,4.44,12.928,14.252v24.3h-7.244V62.855c0-4.907-2.415-8.565-7.945-8.565
		c-5.138,0-8.644,4.051-8.644,9.424v22.663h-7.319V62.855c0-4.826-2.339-8.565-7.943-8.565c-5.222,0-8.723,3.894-8.723,9.502v22.585
		H1058.907z"/>
	<path d="M1131.562,64.959l10.128-1.479c2.257-0.312,2.88-1.481,2.88-2.806c0-3.661-2.415-6.696-8.101-6.696
		c-5.139,0-8.021,3.193-8.488,7.554l-7.008-1.635c0.778-7.166,7.24-12.149,15.343-12.149c11.214,0,15.573,6.385,15.573,13.706
		v18.771c0,3.271,0.313,5.218,0.467,6.152h-7.163c-0.154-0.935-0.39-2.337-0.39-5.062c-1.636,2.646-5.375,6.23-12.071,6.23
		c-7.632,0-12.54-5.298-12.54-11.215C1120.192,69.634,1125.101,65.895,1131.562,64.959 M1144.57,70.332v-1.713l-11.449,1.713
		c-3.115,0.469-5.45,2.261-5.45,5.609c0,2.804,2.335,5.451,6.072,5.451C1139.741,81.393,1144.57,78.511,1144.57,70.332"/>
	<path d="M1165.905,86.377h-7.321v-37.46h7.166v5.374c2.725-4.673,7.165-6.465,11.524-6.465c8.958,0,13.398,6.465,13.398,14.798
		v23.754h-7.321V63.869c0-5.217-2.181-9.424-8.724-9.424c-5.764,0-8.723,4.595-8.723,10.28V86.377z"/>
</g>
</svg>
