<?xml version="1.0" encoding="utf-8"?>
<!-- Generator: Adobe Illustrator 16.0.0, SVG Export Plug-In . SVG Version: 6.00 Build 0)  -->
<!DOCTYPE svg PUBLIC "-//W3C//DTD SVG 1.1//EN" "http://www.w3.org/Graphics/SVG/1.1/DTD/svg11.dtd">
<svg version="1.1" id="Layer_1" xmlns="http://www.w3.org/2000/svg" xmlns:xlink="http://www.w3.org/1999/xlink" x="0px" y="0px"
	 width="2397.92px" height="1591.175px" viewBox="0 0 2397.92 1591.175" enable-background="new 0 0 2397.92 1591.175"
	 xml:space="preserve">
<rect fill="#F8F8F9" width="2397.92" height="1591.175"/>
<path fill="#6D6E70" d="M872.6,785.855l67.438-165.522c24.525-69.484,51.091-122.616,51.091-156.334
	c0-39.847-18.396-44.955-129.768-44.955v-2.048h198.22v2.048c-34.737,0-40.862,24.526-61.3,74.585L876.688,794.024l121.593,286.094
	l186.977-459.786c24.521-69.484,51.091-122.616,51.091-156.334c0-39.847-18.394-44.955-129.765-44.955v-2.048h198.221v2.048
	c-34.738,0-40.866,24.526-61.3,74.585l-241.135,595.681c-5.108,6.139-10.226,14.307-13.285,19.414l-1.028-1.02L865.447,820.585
	L757.148,1089.31c-5.112,6.137-10.222,14.305-13.289,19.412l-1.021-1.02L482.291,493.628
	c-20.434-48.022-40.866-71.517-81.732-72.545v-4.088h156.325v4.088c-48.021,0-75.612,19.413-54.15,69.48l250.331,589.553
	L862.387,811.39L727.515,493.628c-20.434-48.022-40.87-71.517-81.74-72.545v-4.088H802.1v4.088c-48.02,0-75.608,19.414-54.15,69.48
	L872.6,785.855z"/>
<path fill="#6D6E70" d="M1628.695,684.643h44.813V579.401c3.068-2.04,14.311-12.262,19.414-22.481h1.028v127.724h154.285v7.148
	h-154.285v312.661c0,73.561,22.473,99.104,68.451,99.104c49.048,0,77.656-25.545,94.002-37.801l1.023,1.016
	c-21.457,19.412-58.239,47.004-99.114,47.004c-66.407,0-84.806-35.764-84.806-115.455V691.792h-44.814v-7.149H1628.695z"/>
<path fill="#6D6E70" d="M1596.664,1016.716c-22.486,28.605-100.135,81.732-179.832,81.732
	c-108.948,0-188.304-74.672-203.643-180.602c1.982-20.639,9.058-60.855,34.323-89.211c16.274-18.266,36.336-31.604,74.968-31.604
	h242.505v-5.108c-8.178-95.021-98.091-128.745-158.366-128.745c-118.527,0-212.529,102.176-212.529,230.919
	c0,142.021,101.15,219.674,211.502,219.674c92.981,0,171.654-70.496,193.111-96.041L1596.664,1016.716z M1225.77,797.035
	l2.043-5.108c29.627-72.545,89.909-122.611,172.676-122.611c86.85,0,140.997,53.136,140.997,104.219
	c0,12.265-4.085,18.394-23.498,18.394c0,0-146.655,1.491-195.507,0c-20.776-0.634-44.178-2.697-76.555,32.451
	c-16.859,18.303-30.48,46.926-33.039,91.477c-1.592-11.672-2.442-23.697-2.442-36.059
	C1210.443,850.166,1215.548,822.576,1225.77,797.035z"/>
</svg>
