<?xml version="1.0" encoding="utf-8"?>
<!-- Generator: Adobe Illustrator 16.0.0, SVG Export Plug-In . SVG Version: 6.00 Build 0)  -->
<!DOCTYPE svg PUBLIC "-//W3C//DTD SVG 1.1//EN" "http://www.w3.org/Graphics/SVG/1.1/DTD/svg11.dtd">
<svg version="1.1" id="Layer_1" xmlns="http://www.w3.org/2000/svg" xmlns:xlink="http://www.w3.org/1999/xlink" x="0px" y="0px"
	 width="3040px" height="1963.5px" viewBox="0 0 3040 1963.5" enable-background="new 0 0 3040 1963.5" xml:space="preserve">
<rect fill="#FAFAFA" width="3040" height="1963.5"/>
<g>
	<path fill="#7C7C7C" d="M2530.002,727.75v-2c-72,24-94,89-94,142c0,63,31,95,76,134s75,57,75,107c0,24-7,54-60,100v2
		c56-48,62-78,62-103c0-55-29-79-79-125c-58-52-72-81-72-118C2438.002,819.75,2458.002,751.75,2530.002,727.75z"/>
	<path fill="#7C7C7C" d="M2698.002,719.75c-53,0-104-21-205-57c-120-43-163.002-55-204.002-55c-60,0-165,26-165,136
		c0,89,70,136,138,149v-2c-78-16-136-65-136-148c0-110,103-130,151-130c59,0,124.002,31,204.002,58c74,25,153,54,213,54
		c66,0,157-36,175-125v-2C2844.002,693.75,2758.002,719.75,2698.002,719.75z"/>
	<path fill="#7C7C7C" d="M1686.004,1327.75c-213,0-339-160-339-396c0-153,50-324,171-324c55.583,0,79.029,28.477,110.81,65.174
		c-26.615,36.028-47.811,86.504-47.811,150.826c0,200,139,189,139,312c0,22-12,53-53,84v2c42-32,55-62,55-86c0-123-127-112-127-313
		c0-120,66-190,106-209c22,37,74,83,136,83c64,0,102-39,113-68h-2c-13,34-54,66-111,66c-62,0-114-48-136-83
		c-20.785,8.776-47.969,28.87-71.209,59.869c-29.025-37.034-59.678-65.869-110.791-65.869c-125,0-186,173-186,328
		c0,236,141,396,353,396c166,0,261-104,268-172h-2C1944.004,1224.75,1852.004,1327.75,1686.004,1327.75z"/>
	<path fill="#7C7C7C" d="M1100,997.75c-41-32-73-66-73-100c0-80,83-87,109-88v-2c-2,0-48,6-48-77c0-66-56-128-140-128.001
		c-105,0-149,65-149,123c0,60,51,135,113,135v-2c-62,0-111-74-111-134c0-57,43-120,148-120c84,0.001,128,68.001,128,135.001
		c0,65.856,29.879,69.863,45.615,69.373c-29.032,1.996-97.615,14.369-97.615,88.627c0,48,28,80,72,114c28,22,69,47,69,133
		c0,92-80,175-191,175c-47,0-85-27-115-44c-31-18-51-31-112-31c-30.868,0-53.551,9.822-74.664,22.492
		C736.344,1215.463,814,1105.126,814,942.75c0-164.001-58-330.001-203-330.001c-75,0-166,44-166,162
		c0,114.001,64,145.001,88,162.001c57,41,94,59,94,108c0,29-24,60-56,77v2c32-17,58-45,58-79c0-50-35-81-96-125
		c-22-16-86-53.001-86-147.001c0-118,94-158,164-158c147,0,190,166,190,335.001c0,198-91,295-155,335v0.153
		c-29.012,19.108-60.536,37.847-112,37.847c-49,0-82-25-111-45c-24.036-16.311-51.024-36.291-82.221-41.626
		c42.4-3.997,88.221-26.972,88.221-92.374c0-7,0-323.001,0-431.001c0-82-83-89-106.001-89c-47,0-87,30-87,89c0,60,32,98,60,137
		C335,903.75,347,922.75,347,956.75c0,81-87.001,117.999-94.001,127.999v2c9-13,96.001-48.999,96.001-130.999
		c0-50-28.001-91.001-49.001-122.001c-36-54-62-89-62-130c0-35,29-78,85-78c17,0,95.001,4,95.001,95v430.001
		c0,51-27,83.999-88.001,83.999v0.154c-1.656-0.091-3.32-0.154-5-0.154c-62,0-90,43-100,76v2c11-34,39-76,96-76
		c35.001,0,67.001,35,84.001,45.001c28,17,61,43,125,43c57.287,0,89.642-20.047,118.958-39.814
		c3.763-2.355,7.647-4.978,11.617-7.842c24.249-16.224,48.411-30.344,85.425-30.344c43,0,73,21,96,34c28,16,70,41,129,41
		c120,0,197-85,197-179C1168,1052.75,1138,1027.75,1100,997.75z M1130,808.75h3c-1.343,0-3.23,0.022-5.543,0.112
		C1128.446,808.799,1129.305,808.75,1130,808.75z"/>
	<path fill="#7C7C7C" d="M2712.002,1317.75c-47,0-88-18-199-76c-38-20-101-53-171.002-53c-77,0-125,41-165,117v3
		c41-83,94-114,152-114c58.002,0,124.002,31,169.002,54c74,38,133,73,205,73c106,0,147-75,165-133.998v-3
		C2849.002,1244.75,2807.002,1317.75,2712.002,1317.75z"/>
	<path fill="#7C7C7C" d="M1831.004,825.75c-112,0-83,132-157,154v2c72-19,43-145,165-145c65,0,88,35,101,78h2
		C1933.004,878.75,1902.004,825.75,1831.004,825.75z"/>
</g>
</svg>
