<?xml version="1.0" encoding="utf-8"?>
<!-- Generator: Adobe Illustrator 20.0.0, SVG Export Plug-In . SVG Version: 6.00 Build 0)  -->
<svg version="1.1" id="Layer_1" xmlns="http://www.w3.org/2000/svg" xmlns:xlink="http://www.w3.org/1999/xlink" x="0px" y="0px"
	 viewBox="0 0 1223 361.5" style="enable-background:new 0 0 1223 361.5;" xml:space="preserve">
<g>
	<path d="M33.4,188.7c0-18.5,13.7-28.7,27.4-28.7c12.6,0,21.5,6.9,24.3,17.5L78,180c-2.1-8.3-8.2-13-17.2-13
		c-10,0-19.6,7.3-19.6,21.7s9.6,21.8,19.6,21.8c9.4,0,15.3-5.7,17.6-13.2l6.8,2.5c-3,10.4-11.7,17.8-24.4,17.8
		C46.6,217.5,33.4,207.2,33.4,188.7"/>
	<polygon points="95.3,216.4 95.3,161.2 128.9,161.2 128.9,168.2 102.9,168.2 102.9,186 126.5,186 126.5,193.2 102.9,193.2 
		102.9,216.4 	"/>
	<path d="M134.3,205.9c3,0,5.5,2.4,5.5,5.5c0,3-2.4,5.4-5.5,5.4c-3,0-5.4-2.3-5.4-5.4C128.9,208.4,131.2,205.9,134.3,205.9"/>
	<path d="M944.1,216.4l-0.7-7.8c-2.4,4.4-8.4,9-17.7,9c-13.9,0-26.8-10.1-26.8-28.8c0-18.7,13.7-28.7,27.3-28.7
		c12,0,21.3,6.7,24.5,16.7l-6.9,3c-2.5-7.9-9-12.6-17.5-12.6c-9.9,0-19.5,7.1-19.5,21.7c0,14.6,9.3,21.9,19.2,21.9
		c12.3,0,16.7-8.7,17.1-14.4h-19.2v-6.9h26.4v27L944.1,216.4L944.1,216.4z"/>
	<path d="M993.3,197.6c0,11.4-7.9,19.9-19.2,19.9s-19.2-8.5-19.2-19.9c0-11.4,7.9-19.9,19.2-19.9S993.3,186.2,993.3,197.6
		 M985.9,197.6c0-8.6-5.5-13.3-11.7-13.3c-6.2,0-11.7,4.7-11.7,13.3c0,8.7,5.5,13.4,11.7,13.4C980.4,211,985.9,206.3,985.9,197.6"/>
	<rect x="999.6" y="160" width="7.3" height="56.4"/>
	<path d="M1042.5,210.7c-1.8,3.6-5.8,6.7-11.6,6.7c-11,0-17.8-8.7-17.8-19.9c0-10.6,7.2-19.6,17.8-19.6c6.6,0,10.2,3.3,11.4,6.3V160
		h7.2v49.5c0,3.6,0.3,6.3,0.4,6.9h-7.1c-0.2-0.9-0.4-2.8-0.4-5.1L1042.5,210.7L1042.5,210.7z M1031.6,210.9
		c6.7,0,10.8-5.8,10.8-13.6s-4.1-13-10.7-13c-6.7,0-11.1,5.5-11.1,13.2C1020.6,205.2,1024.6,210.9,1031.6,210.9"/>
	<path d="M1058.9,216.4v-37.5h7v5c2.3-4.1,7-6.1,11.4-6.1c4.7,0,9.2,2.3,11.2,7.1c3-5.4,7.8-7.1,12.5-7.1c6.5,0,12.9,4.4,12.9,14.3
		v24.3h-7.2v-23.5c0-4.9-2.4-8.6-7.9-8.6c-5.1,0-8.6,4.1-8.6,9.4v22.7h-7.3v-23.5c0-4.8-2.3-8.6-7.9-8.6c-5.2,0-8.7,3.9-8.7,9.5
		v22.6L1058.9,216.4L1058.9,216.4z"/>
	<path d="M1131.6,195l10.1-1.5c2.3-0.3,2.9-1.5,2.9-2.8c0-3.7-2.4-6.7-8.1-6.7c-5.1,0-8,3.2-8.5,7.6l-7-1.6
		c0.8-7.2,7.2-12.1,15.3-12.1c11.2,0,15.6,6.4,15.6,13.7v18.8c0,3.3,0.3,5.2,0.5,6.2h-7.2c-0.2-0.9-0.4-2.3-0.4-5.1
		c-1.6,2.6-5.4,6.2-12.1,6.2c-7.6,0-12.5-5.3-12.5-11.2C1120.2,199.6,1125.1,195.9,1131.6,195 M1144.6,200.3v-1.7l-11.4,1.7
		c-3.1,0.5-5.4,2.3-5.4,5.6c0,2.8,2.3,5.5,6.1,5.5C1139.7,211.4,1144.6,208.5,1144.6,200.3"/>
	<path d="M1165.9,216.4h-7.3v-37.5h7.2v5.4c2.7-4.7,7.2-6.5,11.5-6.5c9,0,13.4,6.5,13.4,14.8v23.8h-7.3v-22.5c0-5.2-2.2-9.4-8.7-9.4
		c-5.8,0-8.7,4.6-8.7,10.3L1165.9,216.4L1165.9,216.4z"/>
</g>
</svg>
