<?xml version="1.0" encoding="utf-8"?>
<!-- Generator: Adobe Illustrator 20.0.0, SVG Export Plug-In . SVG Version: 6.00 Build 0)  -->
<svg version="1.1" id="Layer_1" xmlns="http://www.w3.org/2000/svg" xmlns:xlink="http://www.w3.org/1999/xlink" x="0px" y="0px"
	 viewBox="0 0 424.1 362.2" style="enable-background:new 0 0 424.1 362.2;" xml:space="preserve">
<style type="text/css">
	.st0{fill:#020202;}
</style>
<path class="st0" d="M258,87.6c2.2,0.2,2.9,1,2.9,1.6c0,0.5-0.4,0.9-0.9,0.9c-0.2,0-0.5-0.1-0.7-0.3c-0.2-0.8-0.7-1.7-1.4-2.2
	L258,87.6z M271.8,86.3l1.8,1.4c-0.1,0.2-0.3,0.3-0.8,0.3h-1.3c-0.4,2.6-0.9,4.8-2,6.4c2.4,1.2,3.2,2.5,3.2,3.4
	c0,0.5-0.3,0.9-0.8,0.9c-0.2,0-0.4,0-0.6-0.2c-0.5-0.8-1.4-1.9-2.7-3c-1.4,1.5-3.5,2.5-6.8,3.1l-0.1-0.2c2.7-0.9,4.5-2.2,5.7-3.8
	c-0.7-0.4-1.4-0.9-2.3-1.3l-0.3,1.1c-0.2,0.1-0.5,0.2-0.8,0.2c-0.3,0-0.7-0.1-1.1-0.2c0.5-1.4,1.3-4,2-6.5h-2.4l0-0.1
	c-0.6,2-1.3,4.2-1.5,4.9c-0.1,0.5-0.2,1.1-0.2,1.5v0.1c0,0.8,0.6,1.4,0.6,2.8c0,1.2-0.8,1.5-1.3,1.5c-0.4,0-0.7-0.2-0.8-0.9
	c0.1-0.7,0.2-1.4,0.2-1.9c0-1.5-0.3-1.7-1.2-1.8v-0.3c0.6,0,0.7,0,0.7,0v0c0.2,0,0.3,0,0.5-0.3c0.2-0.4,0.4-0.6,3.5-7.7l0.3,0.1
	l-0.6,1.9h2.4c0.5-1.9,1-3.6,1.2-4.6l2.4,0.3c-0.1,0.2-0.2,0.4-0.7,0.4c-0.2,0.8-0.6,2.3-1.1,3.9h4L271.8,86.3z M258.8,83.3
	c2.3,0.1,3.1,1,3.1,1.7c0,0.5-0.4,1-0.9,1c-0.2,0-0.4-0.1-0.6-0.3c-0.3-0.8-0.9-1.8-1.6-2.3L258.8,83.3z M266.7,88
	c-0.5,1.7-1,3.5-1.5,5c1,0.2,1.9,0.5,2.7,0.8c0.9-1.5,1.3-3.4,1.6-5.8H266.7z"/>
<path class="st0" d="M265.8,113.9c1.2,0,2.2,1,2.2,2.2c0,1.2-1,2.2-2.2,2.2c-1.2,0-2.2-1-2.2-2.2
	C263.6,114.8,264.6,113.9,265.8,113.9z M267.5,116.1c0-0.9-0.8-1.7-1.7-1.7s-1.7,0.8-1.7,1.7c0,0.9,0.8,1.7,1.7,1.7
	C266.8,117.8,267.5,117,267.5,116.1z"/>
<path class="st0" d="M263.9,132.4l0.7-0.9l1.8,1.3c-0.1,0.1-0.3,0.3-0.7,0.3v8.7c0,0-0.4,0.5-1.7,0.5v-0.8h-3.3v0.6
	c0,0-0.1,0.1-0.2,0.2l2,0.9c-0.1,0.2-0.3,0.3-0.7,0.2c-1,1.4-2.4,2.5-3.7,3.1l-0.2-0.2c0.8-0.8,1.6-2.3,2.2-3.9
	c-0.3,0.1-0.6,0.1-1.1,0.1v-11l1.8,0.7H263.9z M264.1,132.7h-3.3v2.6h3.3V132.7z M264.1,135.6h-3.3v2.6h3.3V135.6z M260.7,141.1h3.3
	v-2.6h-3.3V141.1z M263.2,142.4c2.5,0.6,3.3,1.7,3.3,2.5c0,0.6-0.4,1.1-1,1.1c-0.2,0-0.5-0.1-0.7-0.3c-0.2-1.1-0.9-2.4-1.7-3.1
	L263.2,142.4z M269.7,133.2c0,0.2-0.2,0.4-0.7,0.4v8.5c0,0-0.3,0.5-1.7,0.5V133L269.7,133.2z M271.2,131.1l2.5,0.2
	c0,0.2-0.1,0.4-0.7,0.4v12.5c0,1.2-0.3,2.1-2.4,2.3c0-1.3-0.5-1.6-1.9-1.8v-0.2h2.2c0.2,0,0.3-0.1,0.3-0.3V131.1z"/>
<path class="st0" d="M271.7,157.1l1.9,1.3c-0.1,0.2-0.3,0.3-0.8,0.3h-14.6l-0.1-0.3h12.6L271.7,157.1z M268.8,165.2l0.7-1l2,1.4
	c-0.1,0.1-0.4,0.3-0.7,0.4v3.9c0,0-0.5,0.4-1.8,0.4v-1.1h-6.5v0.6c0,0-0.3,0.6-1.8,0.6v-6l1.9,0.8H268.8z M270.9,156.1
	c-0.1,0.2-0.3,0.3-0.8,0.3h-9.2l-0.1-0.3h7.3l1-1.2L270.9,156.1z M268.3,160.6l0.9-1.1l1.8,1.2c-0.1,0.2-0.3,0.3-0.8,0.3h-9.3
	l-0.1-0.3H268.3z M268.4,163l0.9-1.2l1.7,1.2c-0.1,0.2-0.3,0.3-0.8,0.3h-9.3l-0.1-0.3H268.4z M262.5,168.9h6.5v-3.4h-6.5V168.9z"/>
<path class="st0" d="M258,190.6c1.1-1.3,2.1-3.5,2.7-6l2.3,0.7c-0.1,0.2-0.2,0.3-0.6,0.3c-1,2.3-2.4,4-4.1,5.1L258,190.6z
	 M271.7,180.9l2,1.4c-0.1,0.2-0.3,0.3-0.8,0.3h-4.2v9.6c0,1.2-0.3,2-2.4,2.2c0-1.4-0.8-1.6-2.1-1.8v-0.2h2.4c0.2,0,0.3,0,0.3-0.2
	v-9.6H265c-0.1,5.2-0.3,9.2-6,11.8l-0.2-0.2c4.4-3,4.4-6.8,4.4-11.6h-5l-0.1-0.3h6.9v-3.5l2.5,0.2c0,0.2-0.2,0.3-0.7,0.4v2.8h3.9
	L271.7,180.9z M269.4,184.9c3,1.3,4,3,4,4.1c0,0.8-0.4,1.3-1,1.3c-0.2,0-0.5-0.1-0.8-0.4c-0.1-1.6-1.2-3.7-2.4-4.9L269.4,184.9z"/>
<path class="st0" d="M270.3,205.9l1.7,1.6c-0.1,0.2-0.3,0.2-0.7,0.2c-2.1,2.9-5.3,5.6-9.2,7.4c1.2,0.9,2.8,1,5.5,1
	c1.3,0,4.5,0,5.9,0v0.2c-0.6,0.1-0.9,0.8-0.9,1.5h-5c-3.5,0-5.3-0.6-6.5-3.4c-0.4,0.9-1.1,2.3-1.5,3c0.1,0.1,0.1,0.2,0.1,0.3
	c0,0.1-0.1,0.2-0.1,0.3l-1.4-1.4c0.7-0.6,1.9-1.8,2.7-2.6l0.3-1.3l0.9,0.2l-0.8,1.2c0.2,0.3,0.4,0.6,0.7,0.8c3-1.9,5.8-4.9,7.4-7.6
	h-10.2l-0.1-0.3h5.8v-4.1l2.5,0.2c0,0.2-0.2,0.3-0.7,0.4v3.4h2.6L270.3,205.9z"/>
<path class="st0" d="M258,231.2c2.2,0.2,2.9,1,2.9,1.6c0,0.5-0.4,0.9-0.9,0.9c-0.2,0-0.5-0.1-0.7-0.3c-0.2-0.8-0.7-1.7-1.4-2.2
	L258,231.2z M271.8,229.9l1.8,1.4c-0.1,0.2-0.3,0.3-0.8,0.3h-1.3c-0.4,2.6-0.9,4.8-2,6.4c2.4,1.2,3.2,2.5,3.2,3.4
	c0,0.5-0.3,0.9-0.8,0.9c-0.2,0-0.4,0-0.6-0.2c-0.5-0.8-1.4-1.9-2.7-3c-1.4,1.5-3.5,2.5-6.8,3.1l-0.1-0.2c2.7-0.9,4.5-2.2,5.7-3.8
	c-0.7-0.4-1.4-0.9-2.3-1.3l-0.3,1.1c-0.2,0.1-0.5,0.2-0.8,0.2c-0.3,0-0.7-0.1-1.1-0.2c0.5-1.4,1.3-4,2-6.5h-2.4l0-0.1
	c-0.6,2-1.3,4.2-1.5,4.9c-0.1,0.5-0.2,1.1-0.2,1.5v0.1c0,0.8,0.6,1.4,0.6,2.8c0,1.2-0.8,1.5-1.3,1.5c-0.4,0-0.7-0.2-0.8-0.9
	c0.1-0.7,0.2-1.4,0.2-1.9c0-1.5-0.3-1.7-1.2-1.8v-0.3c0.6,0,0.7,0,0.7,0v0c0.2,0,0.3,0,0.5-0.3c0.2-0.4,0.4-0.6,3.5-7.7l0.3,0.1
	l-0.6,1.9h2.4c0.5-1.9,1-3.6,1.2-4.6l2.4,0.3c-0.1,0.2-0.2,0.4-0.7,0.4c-0.2,0.8-0.6,2.3-1.1,3.9h4L271.8,229.9z M258.8,226.9
	c2.3,0.1,3.1,1,3.1,1.7c0,0.5-0.4,1-0.9,1c-0.2,0-0.4-0.1-0.6-0.3c-0.3-0.8-0.9-1.8-1.6-2.3L258.8,226.9z M266.7,231.6
	c-0.5,1.7-1,3.5-1.5,5c1,0.2,1.9,0.5,2.7,0.8c0.9-1.5,1.3-3.4,1.6-5.8H266.7z"/>
<g>
	<path class="st0" d="M111.3,89.2l1.7,1.3c-0.1,0.2-0.3,0.3-0.8,0.3H97.5l-0.1-0.3h4c0.2-0.8,0.5-1.9,0.7-3h-2.6l-0.1-0.3h2.7
		c0.2-0.9,0.3-1.7,0.5-2.4h-4.1l-0.1-0.3h10.7l1-1.2l1.8,1.3c-0.1,0.2-0.3,0.3-0.8,0.3h-6.6c-0.1,0.7-0.3,1.5-0.5,2.4h3.6l0.7-0.9
		l2,1.3c-0.1,0.1-0.4,0.3-0.7,0.3v2.6h0.6L111.3,89.2z M108.4,92.7l0.7-1l2,1.4c-0.1,0.1-0.4,0.3-0.7,0.4v4.5c0,0-0.5,0.4-1.8,0.4
		v-1.1h-6.8V98c0,0-0.2,0.6-1.7,0.6V92l1.9,0.7H108.4z M101.8,97.1h6.8v-4h-6.8V97.1z M107.9,87.4h-3.8c-0.2,1.1-0.5,2.2-0.7,3h4.6
		V87.4z"/>
	<path class="st0" d="M113,116c-0.1,0.2-0.3,0.3-0.8,0.3h-6.5c1.2,2.7,4,3.9,7.2,4.5l0,0.2c-0.7,0.2-1.2,0.8-1.4,1.6
		c-3.1-1.1-5.1-2.8-6.1-6.3h0c-0.6,2.7-2.2,4.8-7.8,6.3l-0.1-0.3c4.1-1.7,5.5-3.6,6.1-6h-6l-0.1-0.3h6.2c0.2-0.9,0.2-1.9,0.2-2.9
		l2.1,0.2v-5.7l1.7,0.7h2.1l0.7-0.9l1.9,1.3c-0.1,0.1-0.3,0.3-0.7,0.3v3.8c0,0-0.5,0.4-1.7,0.4v-1h-2.4v0.6c0,0.2-0.5,0.5-1.2,0.6
		c0,0.2-0.2,0.3-0.7,0.4c-0.1,0.8-0.1,1.6-0.3,2.3h4.8l1-1.2L113,116z M100.3,112.2v0.8c0,0-0.2,0.6-1.6,0.6v-6l1.7,0.7h2.1l0.6-0.8
		l1.8,1.2c-0.1,0.1-0.3,0.3-0.6,0.3v3.7c0,0-0.5,0.4-1.6,0.4v-0.9H100.3z M102.6,108.6h-2.3v3.3h2.3V108.6z M107.5,113.2
		c2.2,0,2.9,0.8,2.9,1.4c0,0.5-0.4,0.9-0.9,0.9c-0.2,0-0.4-0.1-0.6-0.2c-0.2-0.7-0.9-1.5-1.5-1.9L107.5,113.2z M110,108.6h-2.4v3.3
		h2.4V108.6z"/>
	<path class="st0" d="M111,138.2l2,1.4c-0.1,0.2-0.3,0.3-0.8,0.3h-6.2v6.1c0,0.1-0.5,0.5-1.5,0.5h-0.3v-6.6h-6.7l-0.1-0.3h6.8v-6.8
		h-5.7l-0.1-0.3H109l1.1-1.4l2,1.4c-0.1,0.2-0.3,0.3-0.8,0.3h-5.3v6.8h3.8L111,138.2z M99.8,133.8c2.1,1.2,2.8,2.5,2.8,3.5
		c0,0.8-0.5,1.4-1,1.4c-0.3,0-0.5-0.1-0.8-0.4c0.1-1.4-0.5-3.2-1.2-4.3L99.8,133.8z M111.4,134.4c-0.1,0.2-0.2,0.3-0.6,0.3
		c-0.9,1.6-2,3.2-3.2,4.2l-0.2-0.1c0.5-1.2,1.2-3.4,1.6-5.2L111.4,134.4z"/>
	<path class="st0" d="M98.7,157.5h-1.3l-0.1-0.3h3.2v-2.3l2.4,0.2c0,0.2-0.2,0.4-0.7,0.4v1.7h0.9l0.9-1.1l1.6,1.2
		c-0.1,0.2-0.3,0.3-0.8,0.3h-4.5v3.1c0,0.4,0,0.4,0.4,0.4h2.5c0.1,0,0.5,0,0.6,0c0.7,0.3,0.7,0.4,0.7,0.6c0,0.6-0.5,0.9-1.8,0.9
		h-2.2c-1.7,0-1.9-0.2-1.9-1.8V157.5z M111.1,168.3l1.8,1.3c-0.1,0.2-0.3,0.3-0.8,0.3H97.5l-0.1-0.3h6.8v-2.3h-4.9l-0.1-0.3h4.9
		v-2.1h-5.6l-0.1-0.3h10.5l0.8-1c-0.2,0-0.4,0-0.7,0c0-1-0.2-1.3-1.2-1.5v-0.2c0.3,0,1.1,0,1.4,0c0.2,0,0.3,0,0.5-0.1
		c0.2-0.2,0.3-0.6,0.4-1.4h-2.9c-0.5,1.3-1.4,2.7-3.2,3.7l-0.2-0.2c2-2.2,2.3-5,2.3-6.9v-1.3l1.9,0.7h2.2l0.7-0.9l1.7,1.3
		c-0.1,0.1-0.3,0.2-0.6,0.3c-0.2,5.2-0.6,6.1-2,6.5l1.6,1.1c-0.1,0.2-0.3,0.3-0.8,0.3h-4.9v2.1h2.5l0.9-1.2l1.7,1.2
		c-0.1,0.2-0.3,0.3-0.8,0.3h-4.4v2.3h4.1L111.1,168.3z M107.8,158.3c-0.1,0.5-0.2,1-0.4,1.5h2.8c0-0.4,0.1-0.9,0.1-1.5H107.8z
		 M110.4,157.9c0-0.4,0-1,0.1-1.5h-2.6c0,0.5,0,0.9-0.1,1.5H110.4z"/>
	<path class="st0" d="M100,185.5c0.4,1.1,0.6,2.1,0.6,2.9c0,1.7-0.8,3.3-2.2,3.3c-0.6,0-0.9-0.4-0.9-0.8c0-0.3,0.2-0.7,0.5-0.9
		c0.9-0.7,1.8-2.4,1.7-4.5H100z M101.7,179.4c0.3,0,0.5,0,0.8,0c3.7,0,5,1.4,5,2.4c0,0.5-0.4,1-0.9,1c-0.1,0-0.3,0-0.5-0.1
		c-0.6-0.9-2.1-2.2-4.3-3L101.7,179.4z M102,183.7l2.4,0.2c0,0.2-0.1,0.3-0.6,0.4v7.5c0,0.5,0.1,0.6,0.6,0.6h2.8
		c0.3,0,0.5,0,0.7-0.3c0.2-0.3,0.5-1.2,0.8-2.3h0.1l0,2.5c0.6,0.3,0.7,0.4,0.7,0.6c0,0.7-0.5,1.1-2.3,1.1h-2.8
		c-1.9,0-2.4-0.4-2.4-2.2V183.7z M109,184.9c3,1.5,4,3.5,4,5c0,1.1-0.6,1.9-1.2,1.9c-0.3,0-0.6-0.2-0.8-0.5c0.1-1.7-0.3-4.4-2.1-6.2
		L109,184.9z"/>
	<path class="st0" d="M98.7,205.4h-1.3l-0.1-0.3h3.2v-2.3l2.4,0.2c0,0.2-0.2,0.4-0.7,0.4v1.7h0.9l0.9-1.1l1.6,1.2
		c-0.1,0.2-0.3,0.3-0.8,0.3h-4.5v3.1c0,0.4,0,0.4,0.4,0.4h2.5c0.1,0,0.5,0,0.6,0c0.7,0.3,0.7,0.4,0.7,0.6c0,0.6-0.5,0.9-1.8,0.9
		h-2.2c-1.7,0-1.9-0.2-1.9-1.8V205.4z M111.1,216.1l1.8,1.3c-0.1,0.2-0.3,0.3-0.8,0.3H97.5l-0.1-0.3h6.8V215h-4.9l-0.1-0.3h4.9v-2.1
		h-5.6l-0.1-0.3h10.5l0.8-1c-0.2,0-0.4,0-0.7,0c0-1-0.2-1.3-1.2-1.5v-0.2c0.3,0,1.1,0,1.4,0c0.2,0,0.3,0,0.5-0.1
		c0.2-0.2,0.3-0.6,0.4-1.4h-2.9c-0.5,1.3-1.4,2.7-3.2,3.7l-0.2-0.2c2-2.2,2.3-5,2.3-6.9v-1.3l1.9,0.7h2.2l0.7-0.9l1.7,1.3
		c-0.1,0.1-0.3,0.2-0.6,0.3c-0.2,5.2-0.6,6.1-2,6.5l1.6,1.1c-0.1,0.2-0.3,0.3-0.8,0.3h-4.9v2.1h2.5l0.9-1.2l1.7,1.2
		c-0.1,0.2-0.3,0.3-0.8,0.3h-4.4v2.3h4.1L111.1,216.1z M107.8,206.1c-0.1,0.5-0.2,1-0.4,1.5h2.8c0-0.4,0.1-0.9,0.1-1.5H107.8z
		 M110.4,205.8c0-0.4,0-1,0.1-1.5h-2.6c0,0.5,0,0.9-0.1,1.5H110.4z"/>
	<path class="st0" d="M112.3,237.6v2.5c0.6,0.3,0.7,0.4,0.7,0.6c0,0.7-0.5,1.1-2.3,1.1h-2.5c-1.9,0-2.3-0.5-2.3-2.3v-10.8h-4.8
		l1.6,0.4c-0.1,0.2-0.2,0.3-0.6,0.3c-0.3,1-0.6,1.8-1,2.7h1.7l0.9-1l1.6,1.5c-0.1,0.2-0.3,0.2-0.6,0.3c-0.8,3.9-2.5,7.4-7.1,9.3
		l-0.1-0.2c2-1.2,3.3-2.9,4.2-4.9c-0.1,0.1-0.3,0.2-0.5,0.2c-0.2,0-0.4-0.1-0.7-0.3c-0.1-0.7-0.6-1.5-1.2-2
		c-0.6,0.7-1.2,1.3-1.9,1.8l-0.2-0.1c1.3-1.7,2.5-4.7,3-7.9h-2.9l-0.1-0.3h12.4l1.1-1.4l2,1.4c-0.1,0.2-0.3,0.3-0.8,0.3h-3.8
		c0,0.2-0.2,0.3-0.6,0.4v5.1c1.1-0.7,2.3-1.8,3.4-2.8l1.6,1.8c-0.1,0.1-0.2,0.1-0.3,0.1c-0.1,0-0.2,0-0.4-0.1
		c-1.4,0.7-3,1.3-4.3,1.6v4.8c0,0.6,0,0.7,0.6,0.7h2.4c0.3,0,0.4,0,0.6-0.3c0.2-0.3,0.5-1.3,0.8-2.4H112.3z M101,232.5
		c-0.4,0.8-0.8,1.5-1.3,2.2c1.7,0.2,2.3,0.9,2.5,1.5c0.4-1.2,0.7-2.4,0.8-3.7H101z"/>
	<path class="st0" d="M111.9,261.2l0,2.5c0.8,0.2,1.1,0.4,1.1,0.7c0,0.8-0.8,1.4-4.2,1.4h-5.2c-2.5,0-3.7-0.7-3.7-2.6v-5l-2.4,0.9
		l-0.2-0.3l2.6-1v-5.7l2.5,0.2c0,0.2-0.2,0.4-0.7,0.4v4.4l2.9-1v-5.5l2.4,0.2c0,0.2-0.2,0.4-0.7,0.4v4.2l2.7-1l0.7-1.3l2,1.1
		c-0.1,0.2-0.4,0.4-0.7,0.4v5.2c0,1.1-0.3,1.9-2.3,2c0-1.1-0.1-1.5-1.4-1.6V260h1.6c0.2,0,0.3,0,0.3-0.2v-5.2l-2.9,1.1v6.4
		c0,0-0.3,0.5-1.8,0.5v-6.3l-2.9,1.1v5.7c0,0.7,0.6,0.9,1.9,0.9h5.2c1.1,0,1.6-0.1,2-0.5c0.3-0.4,0.7-1.5,1-2.4H111.9z"/>
</g>
<g>
	<path class="st0" d="M130.4,88.9l1.8,1.4c-0.1,0.2-0.3,0.3-0.8,0.3h-4.9v2.8h2l0.7-0.9l1.9,1.3c-0.1,0.1-0.3,0.3-0.7,0.3V98
		c0,0-0.4,0.5-1.7,0.5v-0.9h-5.9V98c0,0-0.2,0.6-1.7,0.6v-6l1.8,0.7h1.9v-2.8h-4.7c-0.2,2.8-0.9,5.9-3.5,8.1l-0.2-0.1
		c1.8-3,2-6.8,2-10.1v-5l2.1,0.7h8.4l0.7-0.9l1.9,1.4c-0.1,0.1-0.3,0.3-0.7,0.3v3.2c0,0-0.5,0.4-1.8,0.4v-0.9h-8.8v0.7
		c0,0.6,0,1.2,0,1.9h4.7v-2.6l2.4,0.2c0,0.2-0.2,0.3-0.6,0.4v2h2.9L130.4,88.9z M129,84.4h-8.8v2.8h8.8V84.4z M128.7,93.7h-5.9v3.5
		h5.9V93.7z"/>
	<path class="st0" d="M122.2,113.2h-3.7c-0.3,0.7-0.8,1.3-2,1.8l-0.1-0.2c1-0.9,1-1.9,1-2.9v-1.5l1.6,0.6h3l0.6-0.7l1.6,1.1
		c-0.1,0.1-0.3,0.2-0.6,0.3v1.8c0,0-0.4,0.4-1.5,0.4V113.2z M116.7,108.6l-0.1-0.3h3.1V107l2.3,0.2c0,0.2-0.2,0.3-0.7,0.4v0.6h1.1
		l0.7-0.9l1.4,1c-0.1,0.2-0.3,0.3-0.8,0.3h-2.5v1.2h0.6l0.7-0.9l1.4,1c-0.1,0.2-0.3,0.3-0.7,0.3h-6l-0.1-0.3h2.5v-1.2H116.7z
		 M131,111.3c-0.1,0.1-0.3,0.2-0.6,0.2c-0.3,0.4-0.7,0.8-1.2,1.2c0.9,0.2,2,0.3,3.1,0.3v0.2c-0.6,0.2-1,0.7-1.1,1.5l-0.4-0.1l1,0.6
		c-0.1,0.2-0.3,0.3-0.8,0.3h-2v4.3l2.6-0.1v0.3c-0.8,0.1-1.6,0.3-2.6,0.4v1.8c0,0.1-0.5,0.4-1.4,0.4h-0.3v-2c-2.4,0.3-5.4,0.7-9,1.1
		c-0.1,0.2-0.3,0.3-0.5,0.3l-0.8-2c0.7,0,1.7,0,2.8,0v-4.6h-2.8l-0.1-0.3h12.3l0.7-0.8c-0.8-0.2-1.5-0.5-2.1-0.9
		c-1.1,0.5-2.4,0.8-3.8,1.1l-0.1-0.3c1.2-0.3,2.2-0.8,3.1-1.4c-0.5-0.4-0.9-1-1.3-1.7h-0.7l-0.1-0.3h3.7l0.6-0.6
		c-0.6-0.1-0.7-0.5-0.7-1.4v-0.7h-1.6c0,0.7,0,2.1-2.6,2.9l-0.1-0.2c1.1-0.8,1.2-1.7,1.2-2.4v-1.2l1.8,0.7h1.2l0.6-0.7l1.5,1.1
		c-0.1,0.1-0.3,0.2-0.5,0.2v0.5c0,0.2,0,0.2,0.2,0.2h0.7c0.1,0,0.2,0,0.3-0.1c0.1-0.1,0.3-0.6,0.4-0.9h0.1l0,0.9
		c0.4,0.1,0.4,0.2,0.4,0.5c0,0.5-0.4,0.8-1.3,0.8h-0.9L131,111.3z M119.9,111.4h-1v0.5c0,0.3,0,0.6-0.1,1h1.2V111.4z M122.2,111.4
		h-1.1v1.5h1.1V111.4z M127.1,116.8v-1.3h-5.8v1.3H127.1z M127.1,118.4v-1.2h-5.8v1.2H127.1z M121.3,118.7v1.3
		c1.7,0,3.7-0.1,5.8-0.2v-1.1H121.3z M126,111.1c0.4,0.4,1,0.8,1.7,1.1c0.3-0.3,0.6-0.7,0.9-1.1H126z"/>
	<path class="st0" d="M128.2,131.8l1.9,1.4c-0.1,0.1-0.3,0.3-0.7,0.3v12c0,0-0.5,0.6-1.8,0.6v-1.5h-7.2v1c0,0-0.2,0.7-1.8,0.7V132
		l1.9,0.8h6.9L128.2,131.8z M127.6,133.2h-7.2v5.3h7.2V133.2z M120.3,144.3h7.2v-5.5h-7.2V144.3z"/>
	<path class="st0" d="M130.2,164.4l1.9,1.4c-0.1,0.2-0.3,0.3-0.8,0.3h-14.7l-0.1-0.3h3.6v-7.8H117l-0.1-0.3h3.2v-2.7l2.5,0.2
		c0,0.2-0.2,0.4-0.7,0.4v2h4.8v-2.7l2.5,0.2c0,0.2-0.2,0.4-0.7,0.4v2h0.5l1-1.2l1.8,1.3c-0.1,0.2-0.3,0.3-0.8,0.3h-2.5v7.8h0.6
		L130.2,164.4z M123.7,167.3c-0.1,0.2-0.4,0.3-0.9,0.3c-1.3,1.1-3.6,2.3-6,2.9l-0.1-0.2c1.9-1,3.8-2.7,4.6-4L123.7,167.3z
		 M126.7,157.9h-4.8v2.3h4.8V157.9z M121.9,160.6v2.4h4.8v-2.4H121.9z M121.9,163.3v2.4h4.8v-2.4H121.9z M125.7,166.8
		c4.7,0.6,6.1,1.9,6.1,2.8c0,0.5-0.4,0.9-1,0.9c-0.3,0-0.6-0.1-0.8-0.3c-0.7-0.9-2.1-2.2-4.3-3.1L125.7,166.8z"/>
	<path class="st0" d="M130.6,181.1l1.6,1.5c-0.1,0.1-0.3,0.2-0.6,0.2c-0.4,0.5-1.2,1.1-1.8,1.5l-0.2-0.1l0-0.2
		c-0.1,0.1-0.3,0.1-0.6,0.1h-3.5l-0.1-0.3h2.3l0.7-0.8l1.2,0.8c0.1-0.4,0.1-1,0.2-1.4H125v3.9c0,0.1-0.5,0.4-1.4,0.4h-0.3v-4.3h-4.7
		c0,0.2,0.1,0.4,0.1,0.5c0,0.9-0.5,1.6-1.3,1.6c-0.5,0-0.9-0.3-0.9-0.8c0-0.4,0.3-0.7,0.7-0.9c0.5-0.2,1-0.8,0.9-1.5l0.2,0
		c0.1,0.2,0.2,0.5,0.2,0.7h4.7v-1.6H118l-0.1-0.3h9.9l0.9-1.2l1.8,1.2c-0.1,0.2-0.3,0.3-0.8,0.3H125v1.6h4.8L130.6,181.1z
		 M121.4,184.6l1.3,0.9c-0.1,0.2-0.3,0.3-0.7,0.3h-3.7l-0.1-0.3h2.5L121.4,184.6z M131.2,191v1.5c0.7,0.3,0.7,0.3,0.7,0.6
		c0,0.6-0.5,1-2.4,1h-4c-2,0-2.4-0.3-2.4-2v-0.8h-3v0.5c0,0-0.3,0.6-1.7,0.6v-5.9l1.9,0.7h7.6l0.7-0.9l1.9,1.3
		c-0.1,0.1-0.3,0.3-0.6,0.3v3.6c0,0-0.5,0.5-1.7,0.5v-0.8H125v0.9c0,0.6,0,0.6,0.7,0.6h4c0.9,0,0.9,0,1.4-1.7H131.2z M121.4,182.9
		l1.3,0.8c-0.1,0.2-0.3,0.3-0.7,0.3h-3.3l-0.1-0.3h2.1L121.4,182.9z M123.3,187.4h-3v1.5h3V187.4z M120.2,190.9h3v-1.6h-3V190.9z
		 M128.1,187.4H125v1.5h3.1V187.4z M125,190.9h3.1v-1.6H125V190.9z M128.8,184.5l1.4,0.9c-0.1,0.2-0.3,0.3-0.7,0.3h-3.9l-0.1-0.3
		h2.6L128.8,184.5z"/>
	<path class="st0" d="M130.2,212.2l1.9,1.4c-0.1,0.2-0.3,0.3-0.8,0.3h-14.7l-0.1-0.3h3.6v-7.8H117l-0.1-0.3h3.2v-2.7l2.5,0.2
		c0,0.2-0.2,0.4-0.7,0.4v2h4.8v-2.7l2.5,0.2c0,0.2-0.2,0.4-0.7,0.4v2h0.5l1-1.2l1.8,1.3c-0.1,0.2-0.3,0.3-0.8,0.3h-2.5v7.8h0.6
		L130.2,212.2z M123.7,215.2c-0.1,0.2-0.4,0.3-0.9,0.3c-1.3,1.1-3.6,2.3-6,2.9l-0.1-0.2c1.9-1,3.8-2.7,4.6-4L123.7,215.2z
		 M126.7,205.8h-4.8v2.3h4.8V205.8z M121.9,208.5v2.4h4.8v-2.4H121.9z M121.9,211.2v2.4h4.8v-2.4H121.9z M125.7,214.6
		c4.7,0.6,6.1,1.9,6.1,2.8c0,0.5-0.4,0.9-1,0.9c-0.3,0-0.6-0.1-0.8-0.3c-0.7-0.9-2.1-2.2-4.3-3.1L125.7,214.6z"/>
	<path class="st0" d="M123.3,236.8c0.6-0.3,1.1-0.9,1.3-1.6c-0.1,0-0.2,0-0.3,0c-0.7,0-1.2-0.6-1.2-1.3c0-0.7,0.6-1.3,1.2-1.3
		c0.7,0,1.4,0.6,1.4,1.5c0,1.2-0.8,2.5-2.1,3L123.3,236.8z"/>
	<path class="st0" d="M124.1,258.8c0.6-0.3,1.1-0.9,1.3-1.6c-0.1,0-0.2,0-0.3,0c-0.7,0-1.2-0.6-1.2-1.3c0-0.7,0.6-1.3,1.2-1.3
		c0.7,0,1.4,0.6,1.4,1.5c0,1.2-0.8,2.5-2.1,3L124.1,258.8z"/>
</g>
<g>
	<path class="st0" d="M152.3,93.7v2.7c0.5,0.2,0.6,0.3,0.6,0.6c0,0.6-0.4,1.1-1.8,1.1h-1.9c-1.5,0-1.7-0.4-1.7-2.2v-8.3l-3.2,0.1
		c-0.2,4.6-1.3,8.3-6.8,10.9l-0.2-0.2c4.1-2.9,4.9-6.4,5.1-10.7l-4.5,0.1l-0.1-0.3l4.6-0.1c0-0.8,0-1.7,0-2.5v-1.8l2.6,0.2
		c0,0.2-0.1,0.4-0.7,0.4c0,1.2,0,2.5-0.1,3.6l3-0.1l0.8-1l1.8,1.4c-0.1,0.1-0.3,0.2-0.7,0.3v8c0,0.5,0,0.5,0.3,0.5h1.5
		c0.2,0,0.3,0,0.4-0.3c0.2-0.4,0.5-1.7,0.6-2.6H152.3z"/>
	<path class="st0" d="M144,118c0.6-0.3,1.1-0.9,1.3-1.6c-0.1,0-0.2,0-0.3,0c-0.7,0-1.2-0.6-1.2-1.3c0-0.7,0.6-1.3,1.2-1.3
		c0.7,0,1.4,0.6,1.4,1.5c0,1.2-0.8,2.5-2.1,3L144,118z"/>
	<path class="st0" d="M150.9,131.2l2.1,1.5c-0.1,0.2-0.3,0.3-0.8,0.3h-6.2l2,0.6c-0.1,0.1-0.2,0.2-0.4,0.2c-0.1,0-0.2,0-0.3,0
		c-0.4,0.5-0.8,1.1-1.2,1.6l0.7,0.3c0,0.1-0.2,0.3-0.5,0.3v10.1c0,0-0.3,0.4-1.8,0.4v-9.4c-2,1.9-4.4,3.6-7,4.6l-0.1-0.2
		c3.1-1.9,6.3-5.4,7.9-8.6h-7.5l-0.1-0.3h12.2L150.9,131.2z M146.7,136.6c4.7,1,6.1,2.9,6.1,4.1c0,0.6-0.3,0.9-0.8,0.9
		c-0.2,0-0.4-0.1-0.6-0.2c-0.9-1.6-3-3.6-4.8-4.6L146.7,136.6z"/>
	<path class="st0" d="M151,165.2l1.9,1.3c-0.1,0.2-0.3,0.3-0.8,0.3h-14.8l-0.1-0.3H150L151,165.2z M144.2,168.2
		c-0.1,0.1-0.3,0.2-0.5,0.2c-0.1,0-0.2,0-0.4,0c-1.3,0.8-3.6,1.7-5.8,2.1l-0.1-0.2c1.8-0.8,3.8-2.3,4.7-3.4L144.2,168.2z
		 M138.1,157.2l-0.1-0.3h6.1v-2.1l2.5,0.2c0,0.2-0.2,0.4-0.7,0.4v1.4h3.4l1-1.3l1.9,1.3c-0.1,0.2-0.3,0.3-0.8,0.3h-5.5v1.7h2
		l0.7-0.9l1.9,1.4c-0.1,0.1-0.3,0.3-0.7,0.3v5.4c0,0-0.5,0.5-1.8,0.5v-0.7H142v0.2c0,0-0.2,0.7-1.8,0.7v-7.6l1.9,0.8h2v-1.7H138.1z
		 M148.1,159.3H142v1.5h6.1V159.3z M142,161.1v1.5h6.1v-1.5H142z M142,164.6h6.1V163H142V164.6z M146.4,167.3c4.6,0.4,6,1.5,6,2.3
		c0,0.5-0.4,0.8-1,0.8c-0.3,0-0.6-0.1-0.8-0.3c-0.7-0.8-2.1-1.8-4.3-2.6L146.4,167.3z"/>
	<path class="st0" d="M152.5,185.7l-0.2,2.2c0.4,0.5,0.6,0.8,0.6,1c0,0.3-0.3,0.7-0.9,0.7c-1.2,0-2.8-1.3-3.7-2.3
		c-0.8,0.8-1.8,1.4-2.8,1.8c0.9,0.3,1.2,0.9,1.2,1.4c0,0.5-0.4,0.9-0.8,0.9c-0.2,0-0.4-0.1-0.6-0.2c-0.4-0.8-1.3-1.8-2.2-2.3
		l0.1-0.2c0.8,0,1.4,0.1,1.9,0.2c0.9-0.6,1.8-1.5,2.6-2.6c-0.6-1-1.1-2.1-1.4-3.3c-0.1,0.1-0.3,0.1-0.6,0.1h-5.1l0-0.1
		c0,1.7,0,4.8-2.9,6.7l-0.2-0.2c1.3-1.9,1.4-4.3,1.4-6.3v-3.1l1.9,0.7h5.2c-0.1-0.7-0.1-1.4-0.1-2.2l2.3,0.2c0,0.2-0.1,0.3-0.6,0.4
		c0,0.5,0,1.1,0.1,1.6h2.9l0.9-1.1l1.7,1.2c-0.1,0.2-0.3,0.3-0.8,0.3h-4.7c0.2,1.2,0.5,2.4,1,3.5c0.4-0.8,0.8-1.7,1-2.6l2.2,0.9
		c-0.1,0.2-0.2,0.3-0.7,0.3c-0.5,1.1-1,2-1.7,2.8c0.8,1,1.8,1.5,2,1.5c0.1,0,0.2,0,0.2-0.2c0.2-0.3,0.6-1.1,0.8-1.7L152.5,185.7z
		 M140.1,190c0.1,0.4,0.2,0.9,0.2,1.2c0,1.6-1.1,2.4-2,2.4c-0.6,0-1-0.3-1-0.8c0-0.4,0.4-0.8,0.8-0.9c0.8-0.2,1.7-0.9,1.8-1.9H140.1
		z M144.7,181.7l1.4,1c-0.1-0.5-0.2-1-0.3-1.5h-5.4v1.6h3.5L144.7,181.7z M142.2,187.4v0.6c0,0-0.2,0.5-1.5,0.5V184l1.6,0.6h1.5
		l0.6-0.8l1.7,1.2c-0.1,0.1-0.3,0.2-0.6,0.3v2.4c0,0-0.4,0.4-1.5,0.4v-0.7H142.2z M148.4,190.9l0,1.7c0.6,0.2,0.7,0.3,0.7,0.5
		c0,0.6-0.5,1-2.3,1h-3.1c-1.8,0-2.2-0.3-2.2-1.7v-2.6l2.2,0.2c0,0.2-0.1,0.3-0.5,0.3v2.1c0,0.3,0,0.4,0.6,0.4h3
		c0.4,0,0.6,0,0.7-0.2c0.2-0.2,0.4-0.8,0.7-1.6H148.4z M143.9,184.9h-1.7v2.2h1.7V184.9z M148.2,178.8c1.7,0,2.3,0.5,2.3,1
		c0,0.4-0.4,0.7-0.8,0.7c-0.2,0-0.4-0.1-0.6-0.3c-0.1-0.5-0.5-1.1-0.9-1.4L148.2,178.8z M148.7,189.8c3,0.4,4,1.7,4,2.7
		c0,0.6-0.4,1.1-0.9,1.1c-0.2,0-0.5-0.1-0.7-0.3c-0.3-1.2-1.4-2.6-2.5-3.4L148.7,189.8z"/>
	<path class="st0" d="M151,204.9l1.9,1.3c-0.1,0.2-0.3,0.3-0.8,0.3h-14.6l-0.1-0.3H150L151,204.9z M148.1,213.1l0.7-1l2,1.4
		c-0.1,0.1-0.4,0.3-0.7,0.4v3.9c0,0-0.5,0.4-1.8,0.4v-1.1h-6.5v0.6c0,0-0.3,0.6-1.8,0.6v-6l1.9,0.8H148.1z M150.2,204
		c-0.1,0.2-0.3,0.3-0.8,0.3h-9.2l-0.1-0.3h7.3l1-1.2L150.2,204z M147.6,208.5l0.9-1.1l1.8,1.2c-0.1,0.2-0.3,0.3-0.8,0.3h-9.3
		l-0.1-0.3H147.6z M147.6,210.8l0.9-1.2l1.7,1.2c-0.1,0.2-0.3,0.3-0.8,0.3h-9.3l-0.1-0.3H147.6z M141.8,216.8h6.5v-3.4h-6.5V216.8z"
		/>
	<path class="st0" d="M151.1,232.8l1.7,1.3c-0.1,0.2-0.3,0.3-0.8,0.3h-14.6l-0.1-0.3h4c0.2-0.8,0.5-1.9,0.7-3h-2.6l-0.1-0.3h2.7
		c0.2-0.9,0.3-1.7,0.5-2.4h-4.1l-0.1-0.3h10.7l1-1.2l1.8,1.3c-0.1,0.2-0.3,0.3-0.8,0.3h-6.6c-0.1,0.7-0.3,1.5-0.5,2.4h3.6l0.7-0.9
		l2,1.3c-0.1,0.1-0.4,0.3-0.7,0.3v2.6h0.6L151.1,232.8z M148.3,236.3l0.7-1l2,1.4c-0.1,0.1-0.4,0.3-0.7,0.4v4.5c0,0-0.5,0.4-1.8,0.4
		V241h-6.8v0.6c0,0-0.2,0.6-1.7,0.6v-6.7l1.9,0.7H148.3z M141.6,240.7h6.8v-4h-6.8V240.7z M147.7,231h-3.8c-0.2,1.1-0.5,2.2-0.7,3
		h4.6V231z"/>
	<path class="st0" d="M137.3,255.1c2.2,0.2,2.9,1,2.9,1.6c0,0.5-0.4,0.9-0.9,0.9c-0.2,0-0.5-0.1-0.7-0.3c-0.2-0.8-0.7-1.7-1.4-2.2
		L137.3,255.1z M151.1,253.9l1.8,1.4c-0.1,0.2-0.3,0.3-0.8,0.3h-1.3c-0.4,2.6-0.9,4.8-2,6.4c2.4,1.2,3.2,2.5,3.2,3.4
		c0,0.5-0.3,0.9-0.8,0.9c-0.2,0-0.4,0-0.6-0.2c-0.5-0.8-1.4-1.9-2.7-3c-1.4,1.5-3.5,2.5-6.8,3.1L141,266c2.7-0.9,4.5-2.2,5.7-3.8
		c-0.7-0.4-1.4-0.9-2.3-1.3l-0.3,1.1c-0.2,0.1-0.5,0.2-0.8,0.2c-0.3,0-0.7-0.1-1.1-0.2c0.5-1.4,1.3-4,2-6.5h-2.4l0-0.1
		c-0.6,2-1.3,4.2-1.5,4.9c-0.1,0.5-0.2,1.1-0.2,1.5v0.1c0,0.8,0.6,1.4,0.6,2.8c0,1.2-0.8,1.5-1.3,1.5c-0.4,0-0.7-0.2-0.8-0.9
		c0.1-0.7,0.2-1.4,0.2-1.9c0-1.5-0.3-1.7-1.2-1.8v-0.3c0.6,0,0.7,0,0.7,0v0c0.2,0,0.3,0,0.5-0.3c0.2-0.4,0.4-0.6,3.5-7.7l0.3,0.1
		l-0.6,1.9h2.4c0.5-1.9,1-3.6,1.2-4.6l2.4,0.3c0,0.2-0.2,0.4-0.7,0.4c-0.2,0.8-0.6,2.3-1.1,3.9h4L151.1,253.9z M138.1,250.9
		c2.3,0.1,3.1,1,3.1,1.7c0,0.5-0.4,1-0.9,1c-0.2,0-0.4-0.1-0.6-0.3c-0.3-0.8-0.9-1.8-1.6-2.3L138.1,250.9z M146,255.5
		c-0.5,1.7-1,3.5-1.5,5c1,0.2,1.9,0.5,2.7,0.8c0.9-1.5,1.3-3.4,1.6-5.8H146z"/>
</g>
<g>
	<path class="st0" d="M163.3,91.5l1.6,1.3c-0.1,0.2-0.3,0.2-0.6,0.2c-1,2.1-3,3.9-5.8,5l-0.1-0.2c2-1.2,3.4-3.1,4.1-5h-3.8l-0.1-0.3
		h3.8L163.3,91.5z M167.7,90.3c-0.1,0.1-0.2,0.2-0.6,0.3c0,0.6,0.9,2.1,2.1,3.2c1-0.9,2.1-2.1,2.6-2.9l1.9,1.3
		c-0.1,0.1-0.2,0.2-0.4,0.2c-0.1,0-0.2,0-0.3,0c-0.9,0.6-2.2,1.3-3.5,1.8c1.4,1,3,1.6,4.5,2l0,0.2c-0.7,0.2-1.2,0.8-1.4,1.7
		c-2.6-1.3-4.6-3.1-5.7-6.7v5.2c0,1.2-0.3,2-2.3,2.2c0-1.3-0.6-1.5-1.9-1.7v-0.2h2.2c0.2,0,0.3-0.1,0.3-0.3v-6.2h-2.7v0.2
		c0,0-0.3,0.6-1.8,0.6v-6.9l1.9,0.7h2.1c0.1-0.6,0.3-1.5,0.4-2.2l2.7,0.5c-0.1,0.3-0.2,0.4-0.7,0.4c-0.4,0.4-1.1,0.9-1.6,1.3h3.8
		l0.7-0.9l1.9,1.4c-0.1,0.1-0.3,0.3-0.7,0.3v4.7c0,0-0.5,0.5-1.8,0.5v-0.8H167.7z M169.7,85.4h-7v2.1h7V85.4z M162.7,87.9V90h7v-2.1
		H162.7z"/>
	<path class="st0" d="M172.2,109.7l1.7,1.7c-0.1,0.1-0.3,0.2-0.6,0.2c-0.6,0.5-1.5,1.2-2.3,1.5L171,113c-0.1,0.1-0.3,0.1-0.4,0.2
		v2.1c0,0-0.5,0.4-1.7,0.4v-0.5h-5.2c0,0.3-0.5,0.7-1.7,0.7v-4.2l1.8,0.7h5l0.7-0.8l1.7,1.2c0.1-0.5,0.3-1.2,0.4-1.7H161
		c0,0.2,0.1,0.4,0.1,0.5c0,1.2-0.7,1.8-1.5,1.8c-0.6,0-1-0.3-1-0.8c0-0.4,0.4-0.8,0.8-0.9c0.6-0.2,1.2-0.9,1.1-1.8l0.2,0
		c0.1,0.3,0.2,0.6,0.3,0.9h4.3v-3.8l2.5,0.2c0,0.2-0.2,0.3-0.6,0.4v3.2h1.1c0.5-1,1-2.4,1.4-3.4l2.5,0.9c-0.1,0.1-0.2,0.2-0.4,0.2
		c-0.1,0-0.2,0-0.3,0c-0.7,0.7-1.8,1.6-2.8,2.2h2.6L172.2,109.7z M170,116.8l0.7-0.9l1.9,1.3c-0.1,0.1-0.3,0.3-0.6,0.3v4.4
		c0,0-0.5,0.4-1.7,0.4v-0.8h-7.8v0.3c0,0-0.3,0.6-1.8,0.6V116l1.9,0.7H170z M160.9,107.4c2.1,0.4,2.8,1.3,2.8,2c0,0.6-0.4,1-0.9,1
		c-0.2,0-0.5-0.1-0.7-0.3c0-0.9-0.6-2-1.2-2.6L160.9,107.4z M165.3,117.1h-3.1v1.9h3.1V117.1z M162.3,119.3v2h3.1v-2H162.3z
		 M163.6,115h5.2v-2.1h-5.2V115z M170.1,117.1H167v1.9h3.1V117.1z M167,121.3h3.1v-2H167V121.3z"/>
	<path class="st0" d="M158.3,139.8c1.3-2,2.7-5.6,3.5-8.9l2.5,0.8c-0.1,0.2-0.2,0.3-0.7,0.3c-0.4,1.2-0.9,2.3-1.5,3.3l0.7,0.2
		c0,0.1-0.2,0.3-0.5,0.3V146c0,0.1-0.7,0.5-1.4,0.5h-0.3v-8.7c-0.6,0.8-1.3,1.5-2,2.2L158.3,139.8z M172.4,133.3l1.8,1.3
		c-0.1,0.2-0.3,0.3-0.8,0.3h-9.9l-0.1-0.3h8L172.4,133.3z M171.3,135.7l1.7,1.3c-0.1,0.2-0.3,0.3-0.8,0.3h-7.7l-0.1-0.3h6
		L171.3,135.7z M164.5,139.5l-0.1-0.3h6l0.9-1.2l1.7,1.3c-0.1,0.2-0.3,0.3-0.8,0.3H164.5z M170.7,141.4l0.7-0.9l1.9,1.3
		c-0.1,0.1-0.3,0.3-0.7,0.3v3.6c0,0-0.5,0.5-1.8,0.5v-1h-4.7v0.6c0,0-0.2,0.6-1.7,0.6v-5.8l1.9,0.7H170.7z M172.7,132.3
		c-0.1,0.2-0.3,0.3-0.8,0.3h-7.1l-0.1-0.3h5.3l0.9-1.3L172.7,132.3z M166.2,144.9h4.7v-3.2h-4.7V144.9z"/>
	<path class="st0" d="M172.1,156.5l2,1.4c-0.1,0.2-0.3,0.3-0.8,0.3h-8.1c-0.4,0.8-0.9,1.7-1.4,2.5l0.4,0.2h5.3l0.8-1l2,1.4
		c-0.1,0.1-0.4,0.3-0.8,0.4v6.6c0,1.2-0.3,2.1-2.4,2.2c0-1.4-0.6-1.7-1.9-1.8v-0.2h2.2c0.2,0,0.3-0.1,0.3-0.2v-1.9h-5.7v3.7
		c0,0.1-0.5,0.5-1.4,0.5h-0.3v-7.9c-1,1.1-2.2,2.1-3.6,2.8l-0.1-0.2c2.2-1.9,3.7-4.5,4.8-7.1h-4.5l-0.1-0.3h4.7c0.4-1,0.7-2.1,0.9-3
		l2.5,0.8c-0.1,0.2-0.2,0.3-0.7,0.3c-0.2,0.6-0.5,1.3-0.8,1.9h5.8L172.1,156.5z M169.6,161.1h-5.7v2.2h5.7V161.1z M163.9,165.9h5.7
		v-2.2h-5.7V165.9z"/>
	<path class="st0" d="M165.7,181.9c-0.1,0.2-0.2,0.3-0.6,0.3c-0.2,0.4-0.5,0.9-0.8,1.3l0.6,0.2c-0.1,0.1-0.2,0.2-0.5,0.3v5
		c0,0.1-0.6,0.4-1.2,0.4h-0.3v-4.2c-0.4,0.4-0.9,0.8-1.4,1.1l-0.1-0.1c-0.1,2.7-0.4,5.9-2.8,8.1l-0.2-0.1c1.3-2.7,1.4-6.1,1.4-9.1
		V180l1.9,0.7h4.1v-2l2.4,0.2c0,0.2-0.2,0.3-0.7,0.4v1.3h4l0.9-1.3l1.7,1.3c-0.1,0.2-0.3,0.3-0.8,0.3h-12v5c0.9-1.1,1.8-3,2.4-4.9
		L165.7,181.9z M163.4,190.4c0.1,0.5,0.2,0.9,0.2,1.3c0,1.2-0.7,2.2-1.7,2.2c-0.6,0-0.8-0.4-0.8-0.7c0-0.4,0.3-0.7,0.6-0.8
		c0.6-0.3,1.4-1.1,1.4-2H163.4z M172,188.1l0.7-0.9l1.4,0.9c-0.1,0.2-0.3,0.3-0.8,0.3h-5.8v0.1c0,0.1-0.5,0.5-1.2,0.5H166v-4.3
		c-0.4,0.4-0.8,0.7-1.3,1l-0.2-0.2c0.8-1,1.7-2.7,2.2-4.5l2,0.7c-0.1,0.2-0.2,0.3-0.6,0.2c-0.1,0.3-0.3,0.5-0.5,0.8l0.1,0h1.6
		c0.1-0.5,0.3-1.3,0.4-1.8l1.9,0.6c-0.1,0.2-0.2,0.2-0.6,0.2c-0.3,0.3-0.9,0.7-1.3,1h1.8l0.7-0.9l1.4,1c-0.1,0.2-0.3,0.3-0.7,0.3
		h-2.3v1.3h0.7l0.7-0.8l1.3,0.9c-0.1,0.2-0.3,0.3-0.7,0.3h-1.9v1.4h0.8l0.6-0.8l1.3,0.9c-0.1,0.2-0.3,0.3-0.7,0.3h-2v1.4H172z
		 M170.5,191.5v1.2c0.6,0.2,0.6,0.3,0.6,0.5c0,0.6-0.5,0.9-2,0.9h-2.6c-1.6,0-1.9-0.3-1.9-1.6v-2.3l2,0.1c0,0.2-0.1,0.3-0.5,0.3v1.8
		c0,0.3,0,0.3,0.5,0.3h2.5c0.6,0,0.6,0,1.2-1.3H170.5z M165.6,189.3c0.3,0,0.5,0,0.7,0c1.9,0,2.6,0.8,2.6,1.5c0,0.4-0.3,0.8-0.7,0.8
		c-0.1,0-0.3,0-0.5-0.1c-0.4-0.7-1.4-1.5-2.2-1.9L165.6,189.3z M169.2,183.3h-1.6v1.3h1.6V183.3z M169.2,186.3V185h-1.6v1.4H169.2z
		 M167.5,186.7v1.4h1.6v-1.4H167.5z M170.5,190.1c2.7,0.5,3.6,1.7,3.6,2.5c0,0.6-0.4,1-0.9,1c-0.2,0-0.4-0.1-0.7-0.3
		c-0.3-1.1-1.2-2.4-2.1-3.1L170.5,190.1z"/>
	<path class="st0" d="M167.2,213.5v2.9c0.5,0,1.2,0,1.8,0c1.1,0,3.8,0,5,0v0.2c-0.6,0.1-0.9,0.7-0.9,1.4h-4.2
		c-3.4,0-5.2-0.7-6.4-3.4c-0.8,1.5-2,2.9-4,3.8l-0.1-0.2c2-1.5,2.8-4.1,3.1-6.4l2.5,0.5c-0.1,0.2-0.2,0.3-0.7,0.3
		c-0.1,0.5-0.3,1.1-0.6,1.6c0.6,1.1,1.5,1.6,2.6,1.9v-5.4h-6.8l-0.1-0.3h12.7l1-1.3l1.8,1.4c-0.1,0.2-0.3,0.3-0.8,0.3h-6v2.5h2.5
		l1-1.3l1.8,1.4c-0.1,0.2-0.3,0.3-0.8,0.3H167.2z M163.1,208.7v0.4c0,0-0.2,0.6-1.7,0.6v-6.6l1.9,0.7h6l0.7-0.9l1.9,1.4
		c-0.1,0.1-0.3,0.3-0.7,0.3v4.4c0,0-0.5,0.4-1.8,0.4v-0.8H163.1z M169.3,204.2h-6.2v1.9h6.2V204.2z M163.1,208.3h6.2v-1.9h-6.2
		V208.3z"/>
	<path class="st0" d="M172.6,228.5l1.5,1.4c-0.1,0.1-0.3,0.2-0.6,0.2c-0.4,0.4-1.1,0.9-1.7,1.2l-0.2-0.1c0.1-0.4,0.2-1,0.3-1.5h-5
		v2.8c0,0.1-0.5,0.4-1.4,0.4h-0.3v-3.2h-4.7c0,0.2,0,0.3,0,0.5c0,1.1-0.6,1.5-1.3,1.5c-0.5,0-0.9-0.3-0.9-0.7c0-0.4,0.3-0.7,0.7-0.8
		c0.5-0.2,1-0.7,0.9-1.3l0.3,0c0.1,0.2,0.1,0.4,0.2,0.6h4.8v-1.2H160l-0.1-0.3h10l0.9-1.1l1.7,1.2c-0.1,0.2-0.3,0.3-0.8,0.3h-4.8
		v1.2h4.8L172.6,228.5z M171.4,241.3l0.9-1.1l1.7,1.1c-0.1,0.2-0.3,0.3-0.8,0.3h-14.7l-0.1-0.3h6.9v-3.9h-2.9l1.6,0.6
		c-0.1,0.2-0.2,0.3-0.6,0.2c-0.1,0.2-0.3,0.5-0.4,0.7c1.3,0.3,1.7,0.8,1.7,1.3c0,0.4-0.3,0.7-0.7,0.7c-0.2,0-0.4-0.1-0.6-0.3
		c-0.1-0.5-0.3-1-0.7-1.4c-0.7,0.9-1.6,1.5-2.6,1.8l-0.2-0.2c1-0.6,1.8-1.9,2.2-3.5h-2.5l-0.1-0.3h11.2l0.6-0.8h0v-0.5H170v0.2
		c0,0-0.2,0.4-1.3,0.4v-3.4l1.4,0.6h0.9l0.5-0.7l1.5,1c-0.1,0.1-0.3,0.2-0.5,0.3v1.7c0,0.1-0.4,0.2-0.7,0.3l1.3,0.8
		c-0.1,0.2-0.3,0.3-0.8,0.3h-2.9l1.6,0.5c-0.1,0.2-0.2,0.3-0.6,0.3c-0.1,0.3-0.2,0.5-0.4,0.8c1.3,0.3,1.8,0.9,1.8,1.3
		c0,0.4-0.3,0.7-0.7,0.7c-0.2,0-0.4-0.1-0.6-0.3c0-0.5-0.3-1-0.7-1.4c-0.7,0.9-1.5,1.5-2.5,1.8l-0.2-0.2c0.9-0.6,1.6-1.9,2-3.5h-2.1
		v3.9H171.4z M159.8,233.1l1.4,0.6h0.8l0.5-0.6l1.4,1c-0.1,0.1-0.3,0.2-0.5,0.2v1.7c0,0-0.4,0.4-1.3,0.4v-0.5h-1v0.3
		c0,0-0.2,0.4-1.3,0.4V233.1z M160.5,232.4l-0.1-0.3h2.3l0.6-0.8l1.3,0.8c-0.1,0.2-0.3,0.3-0.7,0.3H160.5z M163.3,230l1.2,0.8
		c-0.1,0.2-0.3,0.3-0.7,0.3h-3l-0.1-0.3h2L163.3,230z M162.1,234h-1v1.5h1V234z M166.5,233.7l0.5-0.6l1.5,1
		c-0.1,0.1-0.3,0.2-0.5,0.2v1.6c0,0-0.4,0.4-1.3,0.4v-0.5h-1.1v0.2c0,0-0.2,0.4-1.3,0.4v-3.4l1.4,0.6H166.5z M165.5,235.5h1.1V234
		h-1.1V235.5z M167.7,232.4l-0.1-0.3h2.5l0.7-0.8l1.3,0.8c-0.1,0.2-0.3,0.3-0.7,0.3H167.7z M170.3,230l1.2,0.8
		c-0.1,0.2-0.3,0.3-0.7,0.3h-3.2l-0.1-0.3h2.1L170.3,230z M170,235.5h1.1V234H170V235.5z"/>
	<path class="st0" d="M172,250.8l2.1,1.5c-0.1,0.2-0.3,0.3-0.8,0.3H167l2,0.6c-0.1,0.1-0.2,0.2-0.4,0.2c-0.1,0-0.2,0-0.3,0
		c-0.4,0.5-0.8,1.1-1.2,1.6l0.7,0.3c0,0.1-0.2,0.3-0.5,0.3v10.1c0,0-0.3,0.4-1.8,0.4v-9.4c-2,1.9-4.4,3.6-7,4.6l-0.1-0.2
		c3.1-1.9,6.3-5.4,7.9-8.6h-7.5l-0.1-0.3h12.2L172,250.8z M167.9,256.3c4.7,1,6.1,2.9,6.1,4.1c0,0.6-0.3,0.9-0.8,0.9
		c-0.2,0-0.4-0.1-0.6-0.2c-0.9-1.6-3-3.6-4.8-4.6L167.9,256.3z"/>
</g>
<g>
	<path class="st0" d="M191.1,86.2l1.7,1.6c-0.1,0.2-0.3,0.2-0.7,0.2c-2.1,2.9-5.3,5.6-9.2,7.4c1.2,0.9,2.8,1,5.5,1
		c1.3,0,4.5,0,5.9,0v0.2c-0.6,0.1-0.9,0.8-0.9,1.5h-5c-3.5,0-5.3-0.6-6.5-3.4c-0.4,0.9-1.1,2.3-1.5,3c0.1,0.1,0.1,0.2,0.1,0.3
		c0,0.1-0.1,0.2-0.1,0.3l-1.4-1.4c0.7-0.6,1.9-1.8,2.7-2.6l0.3-1.3l0.9,0.2l-0.8,1.2c0.2,0.3,0.4,0.6,0.7,0.8c3-1.9,5.8-4.9,7.4-7.6
		h-10.2l-0.1-0.3h5.8v-4.1l2.5,0.2c0,0.2-0.2,0.3-0.7,0.4v3.4h2.6L191.1,86.2z"/>
	<path class="st0" d="M194.3,116c-0.1,0.2-0.3,0.3-0.8,0.3h-6.5c1.2,2.7,4,3.9,7.2,4.5l0,0.2c-0.7,0.2-1.2,0.8-1.4,1.6
		c-3.1-1.1-5.1-2.8-6.1-6.3h0c-0.6,2.7-2.2,4.8-7.8,6.3l-0.1-0.3c4.1-1.7,5.5-3.6,6.1-6h-6l-0.1-0.3h6.2c0.2-0.9,0.2-1.9,0.2-2.9
		l2.1,0.2v-5.7l1.7,0.7h2.1l0.7-0.9l1.9,1.3c-0.1,0.1-0.3,0.3-0.7,0.3v3.8c0,0-0.5,0.4-1.7,0.4v-1h-2.4v0.6c0,0.2-0.5,0.5-1.2,0.6
		c0,0.2-0.2,0.3-0.7,0.4c-0.1,0.8-0.1,1.6-0.3,2.3h4.8l1-1.2L194.3,116z M181.6,112.2v0.8c0,0-0.2,0.6-1.6,0.6v-6l1.7,0.7h2.1
		l0.6-0.8l1.8,1.2c-0.1,0.1-0.3,0.3-0.6,0.3v3.7c0,0-0.5,0.4-1.6,0.4v-0.9H181.6z M183.9,108.6h-2.3v3.3h2.3V108.6z M188.8,113.2
		c2.2,0,2.9,0.8,2.9,1.4c0,0.5-0.4,0.9-0.9,0.9c-0.2,0-0.4-0.1-0.6-0.2c-0.2-0.7-0.9-1.5-1.5-1.9L188.8,113.2z M191.3,108.6h-2.4
		v3.3h2.4V108.6z"/>
	<path class="st0" d="M192.4,132.5l2,1.4c-0.1,0.2-0.3,0.3-0.8,0.3h-8.1c-0.4,0.8-0.9,1.7-1.4,2.5l0.4,0.2h5.3l0.8-1l2,1.4
		c-0.1,0.1-0.4,0.3-0.8,0.4v6.6c0,1.2-0.3,2.1-2.4,2.2c0-1.4-0.6-1.7-1.9-1.8v-0.2h2.2c0.2,0,0.3-0.1,0.3-0.2v-1.9h-5.7v3.7
		c0,0.1-0.5,0.5-1.4,0.5h-0.3v-7.9c-1,1.1-2.2,2.1-3.6,2.8l-0.1-0.2c2.2-1.9,3.7-4.5,4.8-7.1H179l-0.1-0.3h4.7c0.4-1,0.7-2.1,0.9-3
		l2.5,0.8c-0.1,0.2-0.2,0.3-0.7,0.3c-0.2,0.6-0.5,1.3-0.8,1.9h5.8L192.4,132.5z M189.9,137.2h-5.7v2.2h5.7V137.2z M184.2,142h5.7
		v-2.2h-5.7V142z"/>
	<path class="st0" d="M185.4,161c1.2,0,2.2,1,2.2,2.2s-1,2.2-2.2,2.2c-1.2,0-2.2-1-2.2-2.2C183.2,161.9,184.2,161,185.4,161z
		 M187.2,163.2c0-0.9-0.8-1.7-1.7-1.7c-0.9,0-1.7,0.8-1.7,1.7s0.8,1.7,1.7,1.7C186.4,164.9,187.2,164.1,187.2,163.2z"/>
	<path class="st0" d="M192.4,180.4l2,1.4c-0.1,0.2-0.3,0.3-0.8,0.3h-8.1c-0.4,0.8-0.9,1.7-1.4,2.5l0.4,0.2h5.3l0.8-1l2,1.4
		c-0.1,0.1-0.4,0.3-0.8,0.4v6.6c0,1.2-0.3,2.1-2.4,2.2c0-1.4-0.6-1.7-1.9-1.8v-0.2h2.2c0.2,0,0.3-0.1,0.3-0.2v-1.9h-5.7v3.7
		c0,0.1-0.5,0.5-1.4,0.5h-0.3v-7.9c-1,1.1-2.2,2.1-3.6,2.8l-0.1-0.2c2.2-1.9,3.7-4.5,4.8-7.1H179l-0.1-0.3h4.7c0.4-1,0.7-2.1,0.9-3
		l2.5,0.8c-0.1,0.2-0.2,0.3-0.7,0.3c-0.2,0.6-0.5,1.3-0.8,1.9h5.8L192.4,180.4z M189.9,185.1h-5.7v2.2h5.7V185.1z M184.2,189.9h5.7
		v-2.2h-5.7V189.9z"/>
	<path class="st0" d="M191.7,207.5l0.8-1l1.6,1c-0.1,0.2-0.3,0.3-0.8,0.3H191c0,0.6-0.1,1.3-0.1,1.8c-0.1,0-0.2,0.1-0.3,0.1l1.7,1.2
		c-0.1,0.1-0.2,0.2-0.5,0.3v4.3c0,0-0.5,0.4-1.7,0.4v-0.5h-5.9l1.7,1.3c-0.1,0.1-0.2,0.1-0.4,0.1c-0.1,0-0.3,0-0.5-0.1
		c-1.4,0.7-3.7,1.3-6,1.4l-0.1-0.2c2-0.5,4.1-1.6,5.1-2.5h-1.2c0,0.2-0.5,0.7-1.7,0.7v-6.4l1.8,0.7h6.9l0.5-0.7
		c-0.2,0-0.4,0.1-0.6,0.1c-0.2,0-0.4,0-0.6,0l0-0.4h-6.1l0,0.3c-0.2,0.1-0.5,0.2-0.8,0.2c-0.2,0-0.5,0-0.8-0.1
		c0.1-0.6,0.2-1.3,0.3-2H179l-0.1-0.3h3.1c0.1-0.9,0.2-1.7,0.3-2.3l1.7,0.7h5.4l0.6-0.8l1.6,1.2c0.1-0.4,0.2-1,0.2-1.5h-10.7
		c0.1,1.1-0.4,2-1.4,2c-0.5,0-0.9-0.3-0.9-0.7c0-0.4,0.3-0.7,0.7-0.9c0.5-0.2,1.1-0.8,1.1-1.5l0.3,0c0.1,0.3,0.2,0.6,0.2,0.8h4.4
		v-1.8l2.5,0.2c0,0.2-0.2,0.4-0.7,0.4v1.1h4.4l0.9-0.9l1.6,1.5c-0.1,0.1-0.3,0.2-0.6,0.2c-0.4,0.4-1.2,1.1-1.8,1.4l-0.2-0.1v0
		c-0.1,0.1-0.3,0.1-0.5,0.2c0,0.2,0,0.5,0,0.8H191.7z M190,210.9h-7.2v1.2h7.2V210.9z M190,212.4h-7.2v1.2h7.2V212.4z M182.9,215.2
		h7.2V214h-7.2V215.2z M185.5,209.1c0-0.3,0.1-0.8,0.1-1.2h-2.1c0,0.4-0.1,0.8-0.1,1.2H185.5z M185.6,207.5c0-0.4,0.1-0.9,0.1-1.2
		h-2.1c0,0.3-0.1,0.8-0.1,1.2H185.6z M187.2,207.9c0,0.4-0.1,0.9-0.1,1.2h2.3c0-0.4,0.1-0.8,0.1-1.2H187.2z M189.5,206.3h-2.2
		c0,0.4,0,0.8-0.1,1.2h2.3L189.5,206.3z M187.4,216c4.8,0.1,6.2,1,6.2,1.7c0,0.4-0.4,0.7-1,0.7c-0.3,0-0.5-0.1-0.8-0.2
		c-0.8-0.6-2.3-1.4-4.4-1.9L187.4,216z"/>
	<path class="st0" d="M191.5,231.2l1.9,1.4c-0.1,0.1-0.4,0.3-0.7,0.3v7.2c0,1.1-0.2,1.8-2.4,2.1c0-1.2-0.5-1.5-1.8-1.7v-0.2h2.1
		c0.2,0,0.3,0,0.3-0.2v-7.6h-9.5v9.1c0,0-0.2,0.7-1.7,0.7v-10.9l1.9,0.8h3.6v-5.5l2.5,0.2c0,0.2-0.2,0.3-0.7,0.4v4.8h3.8
		L191.5,231.2z M180.1,227.4c2.7,0.6,3.6,1.9,3.6,2.8c0,0.7-0.5,1.2-1,1.2c-0.2,0-0.5-0.1-0.8-0.3c-0.2-1.2-1-2.7-1.9-3.5
		L180.1,227.4z M189.8,235c-0.1,0.1-0.3,0.3-0.7,0.3v4.1c0,0-0.4,0.5-1.6,0.5v-1.2h-2.8v1c0,0-0.2,0.6-1.6,0.6v-6.5l1.7,0.7h2.6
		l0.7-0.9L189.8,235z M184.7,238.4h2.8v-3.5h-2.8V238.4z M188.4,231.6c0.6-1,1.4-2.7,2-4.3l2.3,1.1c-0.1,0.2-0.3,0.3-0.7,0.2
		c-1,1.2-2.3,2.4-3.5,3.1L188.4,231.6z"/>
	<path class="st0" d="M181.1,257.1c0.3,1,0.5,1.9,0.5,2.7c0,1.5-0.6,3.2-2,3.2c-0.5,0-0.9-0.3-0.9-0.8c0-0.3,0.2-0.7,0.5-0.9
		c0.8-0.6,1.6-2.3,1.7-4.1H181.1z M190.6,261.5l0,2.5c0.7,0.3,0.8,0.4,0.8,0.6c0,0.7-0.5,1.1-2.5,1.1h-3.2c-2.4,0-2.5-0.6-2.5-2.6
		c-1.3,0.8-2.7,1.6-4.2,2.2l-0.1-0.2c1.5-0.9,3-1.9,4.3-3.1v-6.9l2.4,0.2c0,0.2-0.1,0.3-0.6,0.4v4.6c2.5-2.6,4.5-5.6,5.7-8.3
		l2.3,1.1c-0.1,0.1-0.2,0.2-0.4,0.2c-0.1,0-0.2,0-0.3,0c-1.6,2.8-4,5.9-7.3,8.5v1.7c0,0.6,0.1,0.6,0.7,0.6h3.3c0.3,0,0.6,0,0.8-0.3
		c0.2-0.3,0.5-1.2,0.8-2.4H190.6z M183.4,250.9c3.9-0.1,5.2,1.2,5.2,2.2c0,0.6-0.4,1-1,1c-0.2,0-0.3,0-0.5-0.1
		c-0.4-0.9-1.7-2.1-3.7-2.9L183.4,250.9z M190.6,256.9c2.9,1.5,3.8,3.3,3.8,4.5c0,0.8-0.4,1.4-1,1.4c-0.2,0-0.5-0.1-0.8-0.4
		c-0.1-1.8-1-4.1-2.2-5.4L190.6,256.9z"/>
</g>
<g>
	<path class="st0" d="M211.9,83.2l2.1,1.5c-0.1,0.2-0.3,0.3-0.8,0.3h-6.4v3.5c4.3,0.5,5.6,2.1,5.6,3.2c0,0.6-0.4,1-0.9,1
		c-0.2,0-0.4,0-0.6-0.2c-0.8-1.3-2.5-2.9-4.1-3.7v9.2c0,0.1-0.6,0.5-1.5,0.5h-0.3V85h-6.4l-0.1-0.3h12.4L211.9,83.2z"/>
	<path class="st0" d="M203.2,111.1l0.8-1.2l1.5,1.3c-0.1,0.2-0.3,0.3-0.8,0.3h-1.9v2.2c1.9,0.6,2.5,1.4,2.5,2.1
		c0,0.5-0.4,0.9-0.8,0.9c-0.2,0-0.4-0.1-0.6-0.3c-0.1-0.8-0.6-1.7-1.1-2.4v8.2c0,0-0.2,0.5-1.7,0.5v-7c-0.6,1.2-1.5,2.2-2.4,3.1
		l-0.2-0.2c1.2-1.9,2-4.6,2.4-7.1h-2.3l-0.1-0.3h2.6V107l2.4,0.2c0,0.2-0.1,0.4-0.7,0.4v3.4H203.2z M212,107.3l1.9,1.4
		c-0.1,0.1-0.4,0.3-0.7,0.3v12.6c0,0-0.5,0.6-1.8,0.6v-1.4h-3.8v1c0,0.1-0.2,0.7-1.7,0.7v-15l1.8,0.8h3.5L212,107.3z M211.4,108.6
		h-3.8v3.7h3.8V108.6z M211.4,112.6h-3.8v3.7h3.8V112.6z M207.7,120.5h3.8v-3.8h-3.8V120.5z"/>
	<path class="st0" d="M205,140.2c0,0.2-0.1,0.3-0.6,0.3c-0.2,2-0.7,4.4-5.9,6l-0.2-0.2c4-1.9,4.1-4.2,4.2-6.3L205,140.2z
		 M202.1,139.2v0.4c0,0-0.2,0.6-1.7,0.6v-7.9l1.9,0.7h2.5c0.1-0.6,0.3-1.6,0.4-2.3l2.8,0.5c0,0.3-0.2,0.4-0.7,0.4
		c-0.4,0.4-1.1,0.9-1.7,1.4h4.3l0.7-0.9l1.9,1.3c-0.1,0.1-0.3,0.3-0.7,0.4v5.6c0,0-0.5,0.4-1.8,0.4v-0.8H202.1z M205.2,133.5h-3.1
		v2.5h3.1V133.5z M202.1,138.9h3.1v-2.6h-3.1V138.9z M213.2,142.8v1.8c0.7,0.2,0.8,0.3,0.8,0.5c0,0.7-0.5,1-2.5,1h-3.3
		c-1.9,0-2.3-0.3-2.3-1.9v-4.9l2.3,0.2c0,0.2-0.1,0.3-0.6,0.4v4.3c0,0.4,0,0.4,0.7,0.4h3.2c0.4,0,0.6,0,0.7-0.2
		c0.2-0.2,0.4-0.8,0.8-1.7H213.2z M210.1,133.5h-3.2v2.5h3.2V133.5z M206.9,138.9h3.2v-2.6h-3.2V138.9z M211,140.5
		c0,0.2-0.2,0.3-0.6,0.3c-0.3,0.5-0.8,1.2-1.3,1.7c0.6,0,1.2,0,1.8-0.1c-0.1-0.3-0.3-0.7-0.5-0.9l0.2-0.1c1.4,0.5,1.9,1.2,1.9,1.7
		c0,0.4-0.3,0.8-0.7,0.8c-0.2,0-0.4-0.1-0.6-0.3c0-0.3,0-0.5-0.1-0.8c-0.5,0.2-1.2,0.6-2.1,0.9c-0.1,0.2-0.2,0.3-0.4,0.4l-0.7-1.6
		c0.2,0,0.4,0,0.7,0c0.2-0.8,0.4-1.7,0.5-2.5L211,140.5z"/>
	<path class="st0" d="M198.2,162.7c2.9-1.9,5.7-5.4,6.4-8l2.7,0.6c-0.1,0.2-0.3,0.3-0.8,0.4c1.7,2.2,4.9,4.2,7.7,5.3l0,0.2
		c-0.8,0.2-1.3,0.9-1.4,1.5c-2.7-1.4-5.3-4.2-6.5-6.9c-1.3,2.7-4.6,5.5-7.9,7.1L198.2,162.7z M208.8,163.7l0.9-1l1.8,1.5
		c-0.1,0.1-0.4,0.2-0.8,0.3c-0.6,1.4-1.9,4.1-2.8,5.9c-0.2,0-0.3,0.1-0.5,0.1c-0.4,0-0.8-0.1-1.4-0.3c1-1.9,2.2-4.5,2.8-6.1h-8.6
		l-0.1-0.3H208.8z M207.8,159.7l1.8,1.3c-0.1,0.2-0.3,0.3-0.8,0.3h-6.5l-0.1-0.3h4.7L207.8,159.7z"/>
	<path class="st0" d="M203.1,186.4c-0.1,0.1-0.4,0.3-0.8,0.3v4.2c1.1,1.2,2.3,1.4,5.3,1.4c1.9,0,4.4,0,6.4-0.1v0.2
		c-0.7,0.1-1.1,0.7-1.2,1.5h-5.3c-3.1,0-4.4-0.5-5.5-2.7c-0.7,0.9-1.8,2.1-2.5,2.7c0,0.2-0.1,0.3-0.2,0.4l-1-2
		c0.6-0.2,1.4-0.5,2.3-0.9v-5.1h-2.2l-0.1-0.4h2l0.9-1.1L203.1,186.4z M198.9,179.3c2.5,0.5,3.3,1.5,3.3,2.4c0,0.6-0.4,1.1-1,1.1
		c-0.2,0-0.5-0.1-0.7-0.3c-0.2-1-0.9-2.3-1.7-3L198.9,179.3z M203,182l-0.1-0.3h3.1v0c-0.2,0-0.4-0.1-0.6-0.4c0-0.8-0.3-1.8-0.8-2.4
		l0.1-0.1c1.9,0.4,2.5,1.2,2.5,1.9c0,0.5-0.4,0.9-0.9,1v0h2.7c0.2-0.9,0.5-2.1,0.6-3l2.6,0.7c0,0.2-0.2,0.3-0.6,0.2
		c-0.5,0.6-1.4,1.4-2.2,2h1.8l0.9-1.3l1.8,1.3c-0.1,0.2-0.3,0.3-0.8,0.3h-4.1c-0.4,0.6-0.9,1.4-1.3,1.9h2.5l0.7-0.9l1.8,1.3
		c-0.1,0.1-0.3,0.3-0.6,0.3v6.4c0,0-0.5,0.5-1.8,0.5v-1h-4.4v0.5c0,0-0.3,0.6-1.7,0.6v-8.6l1.8,0.7h0.8c0-0.6,0.1-1.3,0.1-1.9H203z
		 M210.4,184.3h-4.4v1.7h4.4V184.3z M206.1,186.3v1.8h4.4v-1.8H206.1z M206.1,190.3h4.4v-1.8h-4.4V190.3z"/>
	<path class="st0" d="M205.1,212.9c0.6-0.3,1.1-0.9,1.3-1.6c-0.1,0-0.2,0-0.3,0c-0.7,0-1.2-0.6-1.2-1.3c0-0.7,0.6-1.3,1.2-1.3
		c0.7,0,1.4,0.6,1.4,1.5c0,1.2-0.8,2.5-2.1,3L205.1,212.9z"/>
	<path class="st0" d="M204.1,227.4c-0.1,0.2-0.2,0.3-0.7,0.3c-0.4,1.2-0.9,2.3-1.5,3.3l0.7,0.2c0,0.1-0.2,0.3-0.5,0.3v10.2
		c0,0.1-0.7,0.5-1.4,0.5h-0.3v-8.7c-0.6,0.8-1.3,1.5-2,2.2l-0.2-0.1c1.3-2,2.7-5.6,3.4-8.9L204.1,227.4z M208.6,231.1
		c0.1,1.4,0.5,2.9,1.1,4.3c0.8-1,1.7-2.5,2.2-3.3l2,1.4c0,0.1-0.1,0.1-0.3,0.1c-0.1,0-0.2,0-0.3,0c-0.8,0.6-2.3,1.5-3.5,2.2
		c0.9,1.8,2.2,3.4,4.3,4.7l0,0.2c-0.8,0.1-1.4,0.7-1.5,1.7c-3.1-2.6-4-7.2-4.3-10.8c-0.5,0.9-1.3,1.7-2.1,2.6l0.8,0.3
		c-0.1,0.1-0.2,0.3-0.5,0.3v4.9c1-0.2,2.2-0.4,3.3-0.6l0,0.2c-1.1,0.6-2.8,1.5-5.3,2.6c-0.1,0.2-0.2,0.4-0.4,0.4L203,240
		c0.4,0,1-0.1,1.8-0.2v-4.5c-0.7,0.6-1.5,1.1-2.4,1.5l-0.1-0.2c1.9-1.5,3.6-4,4.4-6h-3.8l-0.1-0.3h4.5v-3.6l2.4,0.2
		c0,0.2-0.2,0.3-0.6,0.4v3h2l1-1.4l1.9,1.4c-0.1,0.2-0.3,0.3-0.8,0.3h-4.5l0.6,0.1C209.3,230.9,209.1,231,208.6,231.1L208.6,231.1z"
		/>
	<path class="st0" d="M202.3,262c1.2-0.3,2.6-0.6,4-1l0,0.2c-1.4,0.8-3.5,1.9-6.5,3.3c-0.1,0.2-0.2,0.4-0.4,0.4l-1-2.1
		c0.5-0.1,1.2-0.2,2.1-0.4l-0.2-10.8l2.5,0.2c0,0.2-0.2,0.3-0.7,0.4L202.3,262z M202.1,266c7.5-3.6,7.9-8,8-14.4l2.7,0.2
		c0,0.2-0.2,0.4-0.7,0.4c-0.2,3.7-0.4,6.8-2.2,9.2c3,1,4,2.5,4,3.5c0,0.7-0.4,1.2-1,1.2c-0.2,0-0.5-0.1-0.8-0.3
		c-0.3-1.3-1.4-2.9-2.5-4c-1.4,1.7-3.7,3.2-7.3,4.3L202.1,266z M204.2,252.7c2.6,0.9,3.4,2.2,3.4,3.2c0,0.7-0.5,1.3-1,1.3
		c-0.3,0-0.5-0.1-0.8-0.4c0-1.3-0.8-3-1.7-3.9L204.2,252.7z"/>
</g>
<g>
	<path class="st0" d="M221.5,91.9c-0.1,0.1-0.4,0.3-0.9,0.3v3c1.2,1.2,2.3,1.3,5.4,1.3c1.9,0,4.5,0,6.6-0.1v0.2
		c-0.7,0.2-1.1,0.7-1.2,1.5H226c-3.1,0-4.4-0.5-5.6-2.7c-0.7,0.9-1.7,2-2.3,2.7c0,0.2-0.1,0.3-0.2,0.4l-1-2c0.5-0.2,1.3-0.5,2.1-0.9
		v-3.9h-2.1l-0.1-0.4h1.9l0.9-1.2L221.5,91.9z M217.2,86.8c2.5,0,3.3,0.9,3.3,1.7c0,0.5-0.4,0.9-0.9,0.9c-0.2,0-0.4-0.1-0.6-0.2
		c-0.3-0.8-1.2-1.8-2-2.3L217.2,86.8z M217.9,83.4c2.4,0.1,3.2,1,3.2,1.7c0,0.5-0.4,0.9-0.9,0.9c-0.2,0-0.4-0.1-0.6-0.2
		c-0.3-0.8-1.1-1.8-1.8-2.3L217.9,83.4z M221.1,89.4c3.3-0.8,6.2-2.4,7.7-4.5h-3c-0.2,0.1-0.4,0.3-0.6,0.4c1,0.1,1.4,0.6,1.4,1
		c0,0.3-0.3,0.7-0.7,0.7c-0.1,0-0.3,0-0.5-0.2c-0.1-0.4-0.4-0.8-0.7-1.1c-0.5,0.3-1,0.6-1.5,0.8c1.1,0.2,1.4,0.7,1.4,1.1
		c0,0.4-0.3,0.7-0.7,0.7c-0.2,0-0.4-0.1-0.5-0.3c0-0.5-0.2-1-0.6-1.3c-0.4,0.2-0.8,0.3-1.3,0.5l-0.1-0.2c1.6-0.9,3.1-2.6,3.8-4
		l2.4,0.5c-0.1,0.2-0.3,0.3-0.8,0.3c-0.2,0.2-0.5,0.5-0.7,0.7h2.6l1.1-0.9l1.6,1.5c-0.1,0.2-0.3,0.2-0.7,0.2
		c-1.3,1.5-3.1,2.6-5.4,3.3l1.1,0.2c0,0.2-0.2,0.3-0.6,0.3c-0.1,0.2-0.3,0.3-0.4,0.5h3.4l0.9-1.2l1.7,1.2c-0.1,0.2-0.3,0.3-0.8,0.3
		h-3v1.8h2l0.9-1.2l1.8,1.3c-0.1,0.2-0.3,0.3-0.8,0.3h-3.9v2.7h1.7v-2l2.2,0.2c0,0.2-0.1,0.3-0.6,0.4v2.2c0,0-0.3,0.4-1.7,0.4v-0.8
		h-5.1v0.5c0,0-0.3,0.4-1.6,0.4v-3.2L225,93c0,0.2-0.1,0.3-0.6,0.4v1.4h1.6v-2.7h-4.4l-0.1-0.3h4.5v-1.8h-0.8
		c-0.6,0.7-1.5,1.3-2.3,1.8l-0.2-0.1c0.5-0.6,0.9-1.6,1.2-2.5c-0.9,0.2-1.9,0.4-2.8,0.6L221.1,89.4z"/>
	<path class="st0" d="M222.5,112.6l0.9-1.2l1.6,1.3c-0.1,0.2-0.3,0.3-0.8,0.3h-2.3v1.8c2.1,0.6,2.8,1.5,2.8,2.2
		c0,0.5-0.4,0.9-0.8,0.9c-0.2,0-0.4-0.1-0.7-0.3c-0.1-0.8-0.7-1.9-1.3-2.6v7c0,0.1-0.6,0.5-1.4,0.5h-0.3v-6.2
		c-0.8,1.4-1.8,2.6-3,3.6l-0.2-0.2c1.3-1.9,2.2-4.4,2.7-6.8h-2.5l-0.1-0.3h3.1v-3c-1,0.2-2.1,0.4-3.1,0.5l-0.1-0.2
		c2.1-0.7,4.6-2,5.9-2.9l2,1.6c-0.1,0.1-0.3,0.1-0.5,0.1c-0.2,0-0.3,0-0.6-0.1c-0.6,0.2-1.3,0.4-2,0.6v3.4H222.5z M230.5,109.3
		l1.9,1.4c-0.1,0.1-0.4,0.3-0.7,0.4v10.4c0,0-0.5,0.5-1.8,0.5v-1.6h-3.1v1.2c0,0-0.2,0.7-1.8,0.7v-12.8l1.8,0.8h2.9L230.5,109.3z
		 M226.8,120h3.1v-9.4h-3.1V120z"/>
	<path class="st0" d="M223.6,141.6c0.6-0.3,1.1-0.9,1.3-1.6c-0.1,0-0.2,0-0.3,0c-0.7,0-1.2-0.6-1.2-1.3c0-0.7,0.6-1.3,1.2-1.3
		c0.7,0,1.4,0.6,1.4,1.5c0,1.2-0.8,2.5-2.1,3L223.6,141.6z"/>
	<path class="st0" d="M216.9,170.2c6.2-4.4,6.1-9.8,6.1-15l2.6,0.2c0,0.2-0.1,0.4-0.7,0.4c0.4,5.3,2.1,9.9,7.5,12.8l0,0.2
		c-0.9,0.1-1.5,0.7-1.7,1.6c-4.1-2.8-5.4-7.3-5.9-11.9h0c-0.3,4.4-1.4,8.8-7.8,11.9L216.9,170.2z"/>
	<path class="st0" d="M223.6,189c0.6-0.3,1.1-0.9,1.3-1.6c-0.1,0-0.2,0-0.3,0c-0.7,0-1.2-0.6-1.2-1.3c0-0.7,0.6-1.3,1.2-1.3
		c0.7,0,1.4,0.6,1.4,1.5c0,1.2-0.8,2.5-2.1,3L223.6,189z"/>
	<path class="st0" d="M222.8,204.2l0.7-0.9l1.8,1.3c-0.1,0.1-0.3,0.3-0.7,0.3v8.7c0,0-0.4,0.5-1.7,0.5v-0.8h-3.3v0.6
		c0,0-0.1,0.1-0.2,0.2l2,0.9c-0.1,0.2-0.3,0.3-0.7,0.2c-1,1.4-2.4,2.5-3.7,3.1l-0.2-0.2c0.8-0.8,1.6-2.3,2.2-3.9
		c-0.3,0.1-0.6,0.1-1.1,0.1v-11l1.8,0.7H222.8z M223,204.5h-3.3v2.6h3.3V204.5z M223,207.4h-3.3v2.6h3.3V207.4z M219.6,213h3.3v-2.6
		h-3.3V213z M222,214.2c2.5,0.6,3.3,1.7,3.3,2.5c0,0.6-0.4,1.1-1,1.1c-0.2,0-0.5-0.1-0.7-0.3c-0.2-1.1-0.9-2.4-1.7-3.1L222,214.2z
		 M228.6,205c0,0.2-0.2,0.4-0.7,0.4v8.5c0,0-0.3,0.5-1.7,0.5v-9.6L228.6,205z M230.1,203l2.5,0.2c0,0.2-0.1,0.4-0.7,0.4v12.5
		c0,1.2-0.3,2.1-2.4,2.3c0-1.3-0.5-1.6-1.9-1.8v-0.2h2.2c0.2,0,0.3-0.1,0.3-0.3V203z"/>
	<path class="st0" d="M222.6,227.4c-0.1,0.2-0.2,0.3-0.7,0.3c-0.4,1.2-0.9,2.3-1.5,3.3l0.7,0.2c0,0.1-0.2,0.3-0.5,0.3v10.2
		c0,0.1-0.7,0.5-1.4,0.5h-0.3v-8.7c-0.6,0.8-1.3,1.5-2,2.2l-0.2-0.1c1.3-2,2.7-5.6,3.4-8.9L222.6,227.4z M227.1,231.1
		c0.1,1.4,0.5,2.9,1.1,4.3c0.8-1,1.7-2.5,2.2-3.3l2,1.4c0,0.1-0.1,0.1-0.3,0.1c-0.1,0-0.2,0-0.3,0c-0.8,0.6-2.3,1.5-3.5,2.2
		c0.9,1.8,2.2,3.4,4.3,4.7l0,0.2c-0.8,0.1-1.4,0.7-1.5,1.7c-3.1-2.6-4-7.2-4.3-10.8c-0.5,0.9-1.3,1.7-2.1,2.6l0.8,0.3
		c-0.1,0.1-0.2,0.3-0.5,0.3v4.9c1-0.2,2.2-0.4,3.3-0.6l0,0.2c-1.1,0.6-2.8,1.5-5.3,2.6c-0.1,0.2-0.2,0.4-0.4,0.4l-1.1-2.1
		c0.4,0,1-0.1,1.8-0.2v-4.5c-0.7,0.6-1.5,1.1-2.4,1.5l-0.1-0.2c1.9-1.5,3.6-4,4.4-6h-3.8l-0.1-0.3h4.5v-3.6l2.4,0.2
		c0,0.2-0.2,0.3-0.6,0.4v3h2l1-1.4l1.9,1.4c-0.1,0.2-0.3,0.3-0.8,0.3h-4.5l0.6,0.1C227.8,230.9,227.6,231,227.1,231.1L227.1,231.1z"
		/>
	<path class="st0" d="M232.6,257.2c-0.1,0.2-0.3,0.3-0.8,0.3h-2v3.6h0.1l0.9-1.3l1.6,1.4c-0.1,0.2-0.3,0.3-0.8,0.3h-14.3l-0.1-0.3
		h2.4v-3.6h-2.6l-0.1-0.3h2.7v-2.6c-0.7,0.6-1.5,1.2-2.3,1.6L217,256c1.1-1.2,2.3-3.3,3.1-5.5l2.4,1.1c-0.1,0.2-0.3,0.3-0.7,0.2
		c-0.3,0.4-0.6,0.9-0.9,1.3l0.3,0.1h7.8l0.9-1.3l1.8,1.3c-0.1,0.2-0.3,0.3-0.8,0.3h-1.1v3.6h0.3l0.9-1.2L232.6,257.2z M220,262.1
		c0.1,0.5,0.2,0.9,0.2,1.3c0,1.7-1,2.7-2.1,2.7c-0.5,0-0.9-0.2-0.9-0.7c0-0.4,0.3-0.7,0.7-0.9c0.8-0.3,1.8-1.2,1.9-2.4H220z
		 M221,253.6v3.6h1.3v-3.6H221z M221,257.5v3.6h1.3v-3.6H221z M222,262.3c1.2,0.8,1.6,1.7,1.6,2.4c0,0.8-0.5,1.3-1.1,1.3
		c-0.3,0-0.6-0.2-0.8-0.5c0.1-0.5,0.2-1.1,0.2-1.6c0-0.5-0.1-1.1-0.2-1.5L222,262.3z M225.2,253.6h-1.4v3.6h1.4V253.6z M225.2,257.5
		h-1.4v3.6h1.4V257.5z M224.9,262.2c2,0.8,2.6,1.9,2.6,2.7c0,0.6-0.4,1.1-0.9,1.1c-0.2,0-0.5-0.1-0.7-0.4c0-1.1-0.5-2.5-1.1-3.3
		L224.9,262.2z M228.1,253.6h-1.4v3.6h1.4V253.6z M228.1,261.1v-3.6h-1.4v3.6H228.1z M228.1,262c3.1,0.7,4.1,2.1,4.1,3.1
		c0,0.6-0.4,1.1-0.9,1.1c-0.2,0-0.4-0.1-0.7-0.3c-0.4-1.3-1.5-2.9-2.7-3.8L228.1,262z"/>
</g>
<g>
	<path class="st0" d="M241.7,88.6H239v9.3c0,0-0.2,0.7-1.7,0.7V83.5l1.8,0.8h2.4l0.6-0.8l1.8,1.2c-0.1,0.1-0.3,0.2-0.6,0.3v4
		c0,0-0.4,0.5-1.6,0.5V88.6z M241.7,84.6H239v1.6h2.6V84.6z M239,88.3h2.6v-1.7H239V88.3z M248.6,90.6c-0.1,0.2-0.3,0.3-0.8,0.3H247
		v6.9c0,0.1-0.5,0.4-1.3,0.4h-0.3v-2.4c-1.1,0.3-2.5,0.7-4.3,1.2c-0.1,0.2-0.2,0.3-0.4,0.4l-0.8-1.7l1.5,0v-4.6h-1.5l-0.1-0.3h6.4
		l0.8-1.1L248.6,90.6z M245.4,92.2v-1.3h-2.5v1.3H245.4z M242.9,92.6v1.3h2.5v-1.3H242.9z M242.9,94.2v1.3c0.8,0,1.7-0.1,2.5-0.1
		v-1.2H242.9z M249.9,83.3l1.9,1.4c-0.1,0.1-0.4,0.3-0.7,0.3v11.4c0,1.2-0.3,2-2.2,2.2c0-1.4-0.4-1.6-1.5-1.8v-0.2h1.7
		c0.2,0,0.2-0.1,0.2-0.2v-7.8h-2.8v0.2c0,0-0.2,0.6-1.7,0.6v-5.9l1.7,0.7h2.5L249.9,83.3z M249.3,84.6h-2.8v1.6h2.8V84.6z
		 M246.6,88.3h2.8v-1.7h-2.8V88.3z"/>
	<path class="st0" d="M251.3,117.5l0,2.5c0.8,0.2,1.1,0.4,1.1,0.7c0,0.8-0.8,1.4-4.2,1.4H243c-2.5,0-3.7-0.7-3.7-2.6v-5l-2.4,0.9
		l-0.2-0.3l2.6-1v-5.7l2.5,0.2c0,0.2-0.2,0.4-0.7,0.4v4.4l2.9-1V107l2.4,0.2c0,0.2-0.2,0.4-0.7,0.4v4.2l2.7-1l0.7-1.3l2,1.1
		c-0.1,0.2-0.4,0.4-0.7,0.4v5.2c0,1.1-0.3,1.9-2.3,2c0-1.1-0.1-1.5-1.4-1.6v-0.2h1.6c0.2,0,0.3-0.1,0.3-0.2V111l-2.9,1.1v6.4
		c0,0-0.3,0.5-1.8,0.5v-6.3l-2.9,1.1v5.7c0,0.7,0.6,0.9,1.9,0.9h5.2c1.1,0,1.6-0.1,2-0.5c0.3-0.4,0.7-1.5,1-2.4H251.3z"/>
	<path class="st0" d="M236.5,138.8c2.9-1.9,5.7-5.4,6.4-8l2.7,0.6c-0.1,0.2-0.3,0.3-0.8,0.4c1.7,2.2,4.9,4.2,7.7,5.3l0,0.2
		c-0.8,0.2-1.3,0.9-1.4,1.5c-2.7-1.4-5.3-4.2-6.5-6.9c-1.3,2.7-4.6,5.5-7.9,7.1L236.5,138.8z M247.2,139.8l0.9-1l1.8,1.5
		c-0.1,0.1-0.4,0.2-0.8,0.3c-0.6,1.4-1.9,4.1-2.8,5.9c-0.2,0-0.3,0.1-0.5,0.1c-0.4,0-0.8-0.1-1.4-0.3c1-1.9,2.2-4.5,2.8-6.2h-8.6
		l-0.1-0.3H247.2z M246.2,135.7l1.8,1.3c-0.1,0.2-0.3,0.3-0.8,0.3h-6.5l-0.1-0.3h4.7L246.2,135.7z"/>
	<path class="st0" d="M248.9,155.7l1.8,1.7c-0.1,0.2-0.3,0.2-0.8,0.3c-0.9,2.8-2.3,5.4-4.3,7.5c1.9,1.6,4.2,2.8,6.6,3.6l-0.1,0.2
		c-0.9,0-1.6,0.5-2,1.4c-2.2-1-4.1-2.3-5.7-4.1c-2,1.7-4.5,3.2-7.8,4.1l-0.1-0.2c2.9-1.2,5.2-2.9,7-5c-1.6-2.1-2.8-4.8-3.4-8.1h-2.6
		l-0.1-0.3h10.2L248.9,155.7z M240.6,157.2c0.7,2.9,2.1,5.2,4,7c1.6-2.1,2.7-4.5,3.4-7H240.6z"/>
	<path class="st0" d="M250.6,184.9l1.7,1.3c-0.1,0.2-0.3,0.3-0.8,0.3h-14.6l-0.1-0.3h4c0.2-0.8,0.5-1.9,0.7-3h-2.6l-0.1-0.3h2.7
		c0.2-0.9,0.3-1.7,0.5-2.4h-4.1l-0.1-0.3h10.7l1-1.2l1.8,1.3c-0.1,0.2-0.3,0.3-0.8,0.3H244c-0.1,0.7-0.3,1.5-0.5,2.4h3.6l0.7-0.9
		l2,1.3c-0.1,0.1-0.4,0.3-0.7,0.3v2.6h0.6L250.6,184.9z M247.8,188.5l0.7-1l2,1.4c-0.1,0.1-0.4,0.3-0.7,0.4v4.5c0,0-0.5,0.4-1.8,0.4
		v-1.1h-6.8v0.6c0,0-0.2,0.6-1.7,0.6v-6.7l1.9,0.7H247.8z M241.1,192.8h6.8v-4h-6.8V192.8z M247.2,183.2h-3.8
		c-0.2,1.1-0.5,2.2-0.7,3h4.6V183.2z"/>
	<path class="st0" d="M250.6,208.9l1.7,1.3c-0.1,0.2-0.3,0.3-0.8,0.3h-14.6l-0.1-0.3h4c0.2-0.8,0.5-1.9,0.7-3h-2.6l-0.1-0.3h2.7
		c0.2-0.9,0.3-1.7,0.5-2.4h-4.1l-0.1-0.3h10.7l1-1.2l1.8,1.3c-0.1,0.2-0.3,0.3-0.8,0.3H244c-0.1,0.7-0.3,1.5-0.5,2.4h3.6l0.7-0.9
		l2,1.3c-0.1,0.1-0.4,0.3-0.7,0.3v2.6h0.6L250.6,208.9z M247.8,212.4l0.7-1l2,1.4c-0.1,0.1-0.4,0.3-0.7,0.4v4.5c0,0-0.5,0.4-1.8,0.4
		v-1.1h-6.8v0.6c0,0-0.2,0.6-1.7,0.6v-6.7l1.9,0.7H247.8z M241.1,216.8h6.8v-4h-6.8V216.8z M247.2,207.1h-3.8
		c-0.2,1.1-0.5,2.2-0.7,3h4.6V207.1z"/>
	<path class="st0" d="M249,234.5c0.2-0.5,0.5-1.3,0.7-1.9h-10.4c0.1,1.2-0.5,2.1-1.5,2.1c-0.5,0-1-0.3-1-0.8c0-0.4,0.3-0.8,0.7-1
		c0.6-0.2,1.2-0.9,1.2-1.6h0.2c0.1,0.3,0.2,0.6,0.2,0.9h6.7c0.4-0.9,0.8-2.2,1-3.2h-9.2l-0.1-0.3h5.9v-2.1l2.4,0.2
		c0,0.2-0.2,0.3-0.6,0.4v1.5h3.1l1-1.3l1.9,1.4c-0.1,0.2-0.3,0.3-0.8,0.3h-3.5l2.3,0.7c-0.1,0.2-0.2,0.2-0.6,0.2
		c-0.6,0.7-1.5,1.5-2.4,2.2h3.2l1-1l1.7,1.6c-0.1,0.1-0.3,0.2-0.6,0.2c-0.6,0.4-1.7,1.1-2.4,1.5L249,234.5z M249.4,235.2l1-1.2
		l1.8,1.3c-0.1,0.2-0.3,0.3-0.8,0.3h-7c-0.2,0.6-0.4,1.3-0.6,1.8h4.2l0.7-0.9l1.8,1.4c-0.1,0.1-0.3,0.2-0.6,0.3
		c-0.6,3.9-1.7,4.1-3.7,4.2c0-0.9-0.1-1.4-2.1-1.7v-0.2c0.8,0,2.1,0.1,2.5,0.1c0.3,0,0.5,0,0.6-0.1c0.3-0.2,0.7-1.3,0.9-2.7h-4.5
		c-1.2,2.3-3.2,3.8-6.6,4.6l-0.1-0.2c3.2-1.2,4.7-3.4,5.3-6.5h-5.1l-0.1-0.3h6.6v-2.1l2.6,0.2c0,0.2-0.2,0.3-0.7,0.4v1.4H249.4z
		 M240.6,229.3c1.8,0.5,2.4,1.3,2.4,2c0,0.6-0.5,1.1-1,1.1c-0.3,0-0.6-0.1-0.8-0.4c0.1-0.8-0.2-1.9-0.7-2.5L240.6,229.3z"/>
	<path class="st0" d="M236.7,259.5c1.3-2,2.7-5.6,3.4-8.9l2.5,0.8c-0.1,0.2-0.2,0.3-0.7,0.3c-0.4,1.2-0.9,2.3-1.5,3.3l0.7,0.2
		c-0.1,0.1-0.2,0.3-0.5,0.3v10.2c0,0.1-0.7,0.5-1.4,0.5h-0.3v-8.7c-0.6,0.8-1.2,1.5-1.9,2.1L236.7,259.5z M250.5,258.8l1.9,1.3
		c-0.1,0.1-0.3,0.3-0.7,0.3v4.9c0,0-0.5,0.5-1.8,0.5v-1.1h-5.6v0.8c0,0-0.2,0.6-1.7,0.6V259l1.9,0.8h1.2c0.1-0.9,0.3-2.1,0.3-3h-1.3
		v0.6c0,0.1-0.5,0.5-1.4,0.5h-0.3v-6.6l1.9,0.7h4.4l0.7-0.9l1.8,1.3c-0.1,0.1-0.3,0.2-0.6,0.3v4.7c0,0.1-0.6,0.4-1.4,0.4h-0.3v-0.9
		H248c-0.4,0.9-1.1,2.1-1.6,3h3.4L250.5,258.8z M244.3,264.5h5.6v-4.4h-5.6V264.5z M244.8,256.4h4.7v-4.2h-4.7V256.4z"/>
</g>
<path class="st0" d="M259,261c2.2-0.8,3.3-1.9,3.8-3.3c-0.9,0.3-2,0.8-3.4,1.3c-0.1,0.2-0.2,0.3-0.4,0.4l-0.9-1.8
	c0.9,0,2.8-0.2,4.9-0.4c0.1-0.5,0.2-1.1,0.2-1.7h-4l-0.1-0.3h4.1v-2h-4.5l-0.1-0.3h4.6v-2.2l2.3,0.2c0,0.2-0.2,0.3-0.6,0.4v4.3
	c0,2.7-1.2,4.7-5.7,5.7L259,261z M260.9,261c0.2,0.6,0.3,1.2,0.3,1.7c0,1.6-0.9,2.6-2,2.6c-0.6,0-1-0.3-1-0.8c0-0.4,0.3-0.7,0.7-0.9
	c0.9-0.3,1.8-1.2,1.8-2.5H260.9z M269.2,262.4l0,1.9c0.6,0.2,0.7,0.3,0.7,0.6c0,0.6-0.5,1-2.3,1h-3c-1.8,0-2.2-0.3-2.2-1.8v-3.4
	l2.3,0.2c0,0.2-0.1,0.3-0.5,0.3v2.9c0,0.4,0,0.4,0.6,0.4h2.9c0.4,0,0.6,0,0.7-0.2c0.2-0.2,0.4-0.9,0.7-1.9H269.2z M263.7,259.6
	c2.9,0,3.9,1.1,3.9,1.9c0,0.5-0.4,1-0.9,1c-0.2,0-0.4,0-0.6-0.2c-0.4-1-1.5-2-2.5-2.6L263.7,259.6z M268.6,258v1.7
	c0,0-0.3,0.5-1.7,0.5v-9.6l2.4,0.2c0,0.2-0.1,0.4-0.7,0.4v1.6h2.1l0.9-1.1l1.7,1.2c-0.1,0.2-0.4,0.3-0.8,0.3h-3.9v2.1h1.8l0.9-1.1
	l1.6,1.1c-0.1,0.2-0.4,0.3-0.8,0.3h-3.5v2.1h2.3l0.9-1.2l1.8,1.2c-0.1,0.2-0.4,0.3-0.8,0.3H268.6z M269.4,260.8
	c3.1,0.7,4.1,2.2,4.1,3.3c0,0.7-0.5,1.3-1,1.3c-0.2,0-0.5-0.1-0.8-0.3c-0.1-1.5-1.2-3.1-2.4-4L269.4,260.8z"/>
<g>
	<path class="st0" d="M318.7,113.1l1.7,1.3c-0.1,0.2-0.3,0.3-0.8,0.3H305l-0.1-0.3h4c0.2-0.8,0.5-1.9,0.7-3H307l-0.1-0.3h2.7
		c0.2-0.9,0.3-1.7,0.5-2.4h-4.1l-0.1-0.3h10.7l1-1.2l1.8,1.3c-0.1,0.2-0.3,0.3-0.8,0.3h-6.6c-0.1,0.7-0.3,1.5-0.5,2.4h3.6l0.7-0.9
		l2,1.3c-0.1,0.1-0.4,0.3-0.7,0.3v2.6h0.6L318.7,113.1z M315.9,116.7l0.7-1l2,1.4c-0.1,0.1-0.4,0.3-0.7,0.4v4.5c0,0-0.5,0.4-1.8,0.4
		v-1.1h-6.8v0.6c0,0-0.2,0.6-1.7,0.6v-6.7l1.9,0.7H315.9z M309.2,121h6.8v-4h-6.8V121z M315.3,111.3h-3.8c-0.2,1.1-0.5,2.2-0.7,3
		h4.6V111.3z"/>
	<path class="st0" d="M317,131.8l1.8,1.7c-0.1,0.2-0.3,0.2-0.8,0.3c-0.9,2.8-2.3,5.4-4.3,7.5c1.9,1.6,4.2,2.8,6.6,3.6l-0.1,0.2
		c-0.9,0-1.6,0.5-2,1.4c-2.2-1-4.1-2.3-5.7-4.1c-2,1.7-4.5,3.2-7.8,4.1l-0.1-0.2c2.9-1.2,5.2-2.9,7-5c-1.6-2.1-2.8-4.8-3.4-8.1h-2.6
		l-0.1-0.3h10.2L317,131.8z M308.7,133.2c0.7,2.9,2.1,5.2,4,7c1.6-2.1,2.7-4.5,3.4-7H308.7z"/>
	<path class="st0" d="M312.6,261.7c1.2,0,2.2,1,2.2,2.2c0,1.2-1,2.2-2.2,2.2c-1.2,0-2.2-1-2.2-2.2
		C310.4,262.7,311.5,261.7,312.6,261.7z M314.4,263.9c0-0.9-0.8-1.7-1.7-1.7s-1.7,0.8-1.7,1.7c0,0.9,0.8,1.7,1.7,1.7
		C313.6,265.7,314.4,264.8,314.4,263.9z"/>
</g>
</svg>
