<?xml version="1.0" encoding="utf-8"?>
<!-- Generator: Adobe Illustrator 20.0.0, SVG Export Plug-In . SVG Version: 6.00 Build 0)  -->
<svg version="1.1" id="Layer_1" xmlns="http://www.w3.org/2000/svg" xmlns:xlink="http://www.w3.org/1999/xlink" x="0px" y="0px"
	 viewBox="0 0 460.5 245.2" style="enable-background:new 0 0 460.5 245.2;" xml:space="preserve">
<style type="text/css">
	.st0{fill:#FFFFFF;stroke:#000000;stroke-width:2;}
</style>
<g>
	<path d="M107.9,58.5c1.6-0.2,3-1.2,3.5-2.7h1.1v12H111v-9.4c-0.4,0.5-1.8,1.4-3.1,1.4V58.5z"/>
	<path d="M122.4,55.6c3.2,0,4.2,1.8,4.2,3.6c0,2.3-1.3,3.7-4.2,3.7H119v5h-1.6V55.6H122.4z M119,57v4.4h3.2c2,0,2.8-0.7,2.8-2.2
		c0-1.5-1-2.2-2.5-2.2H119z"/>
	<path d="M131.1,55.3h1.2L128.1,68h-1.2L131.1,55.3z"/>
	<path d="M133.2,62.5h4.8v1.4h-4.8V62.5z"/>
	<path d="M147.5,59c0,1-0.4,2-1.1,2.8c-0.5,0.5-1.2,1.2-2.2,1.9c-1.4,1-2.4,1.5-3,2.8h6.2v1.4h-8c0-0.5,0.1-1,0.3-1.4
		c0.5-1.3,1.4-2.2,3-3.3c1.2-0.8,2-1.5,2.5-2.1c0.5-0.6,0.7-1.2,0.7-1.9c0-1.2-0.9-2.2-2.3-2.2c-1.5,0-2.4,1.2-2.4,2.7l-1.5,0
		c0.1-2.4,1.5-3.9,3.9-3.9C146.8,55.6,147.5,57.8,147.5,59z"/>
	<path d="M155.5,58.8c0-1.2-0.9-1.9-2.1-1.9c-1.4,0-2.1,1-2.3,2.4l-1.5-0.1c0.2-2.2,1.5-3.6,3.8-3.6c2,0,3.6,1.3,3.6,3.2
		c0,1.1-0.6,2-1.7,2.5v0c1.3,0.3,2.2,1.5,2.2,3c0,1.4-1,3.7-4.1,3.7c-3.3,0-3.9-2.5-4-3.7l1.5-0.1c0.1,1.6,1,2.5,2.5,2.5
		c1.7,0,2.5-1.1,2.5-2.4c0-1.5-1.1-2.3-2.5-2.3c-0.3,0-0.5,0-0.9,0v-1.2c0.2,0,0.3,0,0.4,0C155,60.8,155.5,59.6,155.5,58.8z"/>
	<path d="M163.3,55.6c3.5,0,4.2,3.2,4.2,5.9c0,2.3-0.3,6.5-4.3,6.5c-2,0-3.4-1.1-3.6-3.1l1.4-0.1c0.2,1.3,1,1.9,2.1,1.9
		c2.5,0,2.8-3.3,2.8-4.7c-0.6,1-1.6,1.6-2.9,1.6c-2.5,0-3.7-1.9-3.7-4C159.3,56.9,161.4,55.6,163.3,55.6z M160.9,59.8
		c0,1,0.6,2.6,2.4,2.6c1.5,0,2.4-1.1,2.4-2.7c0-1.5-0.8-2.8-2.4-2.8C162,56.8,160.9,57.8,160.9,59.8z"/>
</g>
<g>
	<path d="M210.1,55.6h1.6v6.1l6.1-6.1h2.2l-5.1,4.9l5.4,7.3h-2.1l-4.4-6.2l-2,1.9v4.3h-1.6V55.6z"/>
	<path d="M222.2,58.5c1.6-0.2,3-1.2,3.5-2.7h1.1v12h-1.5v-9.4c-0.4,0.5-1.8,1.4-3.1,1.4V58.5z"/>
	<path d="M231.9,66h1.8v1.7c0,1.3-0.5,2.2-1.6,2.6l-0.2-0.8c0.7-0.2,0.9-0.8,0.9-1.7h-0.9V66z"/>
</g>
<g>
	<path d="M106.9,83h4.8v1.4h-4.8V83z"/>
	<path d="M121.3,79.5c0,1-0.4,2-1.1,2.8c-0.5,0.5-1.2,1.2-2.2,1.9c-1.4,1-2.4,1.5-3,2.8h6.2v1.4h-8c0-0.5,0.1-1,0.3-1.4
		c0.5-1.3,1.4-2.2,3-3.3c1.2-0.8,2-1.5,2.5-2.1c0.5-0.6,0.7-1.2,0.7-1.9c0-1.2-0.9-2.2-2.3-2.2c-1.5,0-2.4,1.2-2.4,2.7l-1.5,0
		c0.1-2.4,1.5-3.9,3.9-3.9C120.5,76.1,121.3,78.3,121.3,79.5z"/>
	<path d="M129.2,79.3c0-1.2-0.9-1.9-2.1-1.9c-1.4,0-2.1,1-2.3,2.4l-1.5-0.1c0.2-2.2,1.5-3.6,3.8-3.6c2,0,3.6,1.3,3.6,3.2
		c0,1.1-0.6,2-1.7,2.5v0c1.3,0.3,2.2,1.5,2.2,3c0,1.4-1,3.7-4.1,3.7c-3.3,0-3.9-2.5-4-3.7l1.5-0.1c0.1,1.6,1,2.5,2.5,2.5
		c1.7,0,2.5-1.1,2.5-2.4c0-1.5-1.1-2.3-2.5-2.3c-0.3,0-0.5,0-0.9,0v-1.2c0.2,0,0.3,0,0.4,0C128.7,81.3,129.2,80.1,129.2,79.3z"/>
	<path d="M137,76.1c3.5,0,4.2,3.2,4.2,5.9c0,2.3-0.3,6.5-4.3,6.5c-2,0-3.4-1.1-3.6-3.1l1.4-0.1c0.2,1.3,1,1.9,2.1,1.9
		c2.5,0,2.8-3.3,2.8-4.7c-0.6,1-1.6,1.6-2.9,1.6c-2.5,0-3.7-1.9-3.7-4C133.1,77.4,135.1,76.1,137,76.1z M134.6,80.3
		c0,1,0.6,2.6,2.4,2.6c1.5,0,2.4-1.1,2.4-2.7c0-1.5-0.8-2.8-2.4-2.8C135.8,77.4,134.6,78.3,134.6,80.3z"/>
</g>
<g>
	<path d="M107.9,140.5c1.6-0.2,3-1.2,3.5-2.7h1.1v12H111v-9.4c-0.4,0.5-1.8,1.4-3.1,1.4V140.5z"/>
	<path d="M122.4,137.6c3.2,0,4.2,1.8,4.2,3.6c0,2.3-1.3,3.7-4.2,3.7H119v5h-1.6v-12.2H122.4z M119,139v4.4h3.2c2,0,2.8-0.7,2.8-2.2
		c0-1.5-1-2.2-2.5-2.2H119z"/>
	<path d="M131.1,137.4h1.2l-4.3,12.7h-1.2L131.1,137.4z"/>
	<path d="M133.2,144.5h4.8v1.4h-4.8V144.5z"/>
	<path d="M140.7,140.5c1.6-0.2,3-1.2,3.5-2.7h1.1v12h-1.5v-9.4c-0.4,0.5-1.8,1.4-3.1,1.4V140.5z"/>
	<path d="M157.6,145.9c0,2-1.4,4.1-3.9,4.1c-3.4,0-4.2-2.8-4.2-5.9c0-2,0.5-6.5,4.4-6.5c2,0,3.2,1.1,3.5,3.1l-1.5,0.1
		c-0.1-0.9-0.8-1.8-2-1.8c-2.4,0-2.9,2.9-2.9,4.6c0.7-1.1,1.8-1.6,3-1.6C156.6,142,157.6,144.2,157.6,145.9z M156.1,146
		c0-1.6-0.9-2.8-2.4-2.8c-0.7,0-1.3,0.2-1.8,0.8c-0.4,0.5-0.6,1.2-0.6,2c0,1.5,1,2.8,2.4,2.8C155.4,148.8,156.1,147.4,156.1,146z"/>
	<path d="M165.3,140.8c0-1.2-0.9-1.9-2.1-1.9c-1.4,0-2.1,1-2.3,2.4l-1.5-0.1c0.2-2.2,1.5-3.6,3.8-3.6c2,0,3.6,1.3,3.6,3.2
		c0,1.1-0.6,2-1.7,2.5v0c1.3,0.3,2.2,1.5,2.2,3c0,1.4-1,3.7-4.1,3.7c-3.3,0-3.9-2.5-4-3.7l1.5-0.1c0.1,1.6,1,2.5,2.5,2.5
		c1.7,0,2.5-1.1,2.5-2.4c0-1.5-1.1-2.3-2.5-2.3c-0.3,0-0.5,0-0.9,0v-1.2c0.2,0,0.3,0,0.4,0C164.8,142.9,165.3,141.7,165.3,140.8z"/>
</g>
<g>
	<path d="M210.1,145.1v-7.4h1.6v7.4c0,2.2,0.8,3.6,3.2,3.6c2.4,0,3.2-1.4,3.2-3.6v-7.4h1.6v7.4c0,3.5-1.7,5-4.8,5
		C211.8,150.1,210.1,148.6,210.1,145.1z"/>
	<path d="M223.2,140.5c1.6-0.2,3-1.2,3.5-2.7h1.1v12h-1.5v-9.4c-0.4,0.5-1.8,1.4-3.1,1.4V140.5z"/>
	<path d="M232.8,148h1.8v1.7c0,1.3-0.5,2.2-1.6,2.6l-0.2-0.8c0.7-0.2,0.9-0.8,0.9-1.7h-0.9V148z"/>
</g>
<g>
	<path d="M106.9,165.1h4.8v1.4h-4.8V165.1z"/>
	<path d="M114.4,161c1.6-0.2,3-1.2,3.5-2.7h1.1v12h-1.5V161c-0.4,0.5-1.8,1.4-3.1,1.4V161z"/>
	<path d="M131.4,166.4c0,2-1.4,4.1-3.9,4.1c-3.4,0-4.2-2.8-4.2-5.9c0-2,0.5-6.5,4.4-6.5c2,0,3.2,1.1,3.5,3.1l-1.5,0.1
		c-0.1-0.9-0.8-1.8-2-1.8c-2.4,0-2.9,2.9-2.9,4.6c0.7-1.1,1.8-1.6,3-1.6C130.3,162.5,131.4,164.7,131.4,166.4z M129.8,166.5
		c0-1.6-0.9-2.8-2.4-2.8c-0.7,0-1.3,0.2-1.8,0.8c-0.4,0.5-0.6,1.2-0.6,2c0,1.5,1,2.8,2.4,2.8C129.2,169.3,129.8,167.9,129.8,166.5z"
		/>
	<path d="M139,161.4c0-1.2-0.9-1.9-2.1-1.9c-1.4,0-2.1,1-2.3,2.4l-1.5-0.1c0.2-2.2,1.5-3.6,3.8-3.6c2,0,3.6,1.3,3.6,3.2
		c0,1.1-0.6,2-1.7,2.5v0c1.3,0.3,2.2,1.5,2.2,3c0,1.4-1,3.7-4.1,3.7c-3.3,0-3.9-2.5-4-3.7l1.5-0.1c0.1,1.6,1,2.5,2.5,2.5
		c1.7,0,2.5-1.1,2.5-2.4c0-1.5-1.1-2.3-2.5-2.3c-0.3,0-0.5,0-0.9,0v-1.2c0.2,0,0.3,0,0.4,0C138.5,163.4,139.1,162.2,139,161.4z"/>
</g>
<g>
	<path d="M360.5,55.6h1.6v12.2h-1.6V55.6z"/>
	<path d="M365.4,66h1.8v1.8h-1.8V66z"/>
</g>
<g>
	<path d="M217,92.8c0,1-0.4,2-1.1,2.8c-0.5,0.5-1.2,1.2-2.2,1.9c-1.4,1-2.4,1.5-3,2.8h6.2v1.4h-8c0-0.5,0.1-1,0.3-1.4
		c0.5-1.3,1.4-2.2,3-3.3c1.2-0.8,2-1.5,2.5-2.1c0.5-0.6,0.7-1.2,0.7-1.9c0-1.2-0.9-2.2-2.3-2.2c-1.5,0-2.4,1.2-2.4,2.7l-1.5,0
		c0.1-2.4,1.5-3.9,3.9-3.9C216.3,89.3,217,91.6,217,92.8z"/>
	<path d="M219,98.3l1.5-0.1c0.2,1.4,1.1,2.2,2.4,2.2c1.8,0,2.6-1.4,2.6-2.9c0-1.8-1-2.8-2.5-2.8c-0.9,0-1.9,0.5-2.4,1.2l-1.3-0.1
		l1.2-6.3h6v1.4h-4.9l-0.6,3.4c0.6-0.5,1.5-0.8,2.3-0.8c2.8,0,3.9,2.2,3.9,4.1c0,2-1.4,4.2-4.2,4.2
		C220.8,101.8,219.2,100.4,219,98.3z"/>
	<path d="M235.4,91.3L235.4,91.3l0,10.3h-1.6V89.3h2.3l3,8.5l0.6,1.8l0.6-1.8l3.1-8.5h2.2v12.2h-1.6V91.4h0l-3.7,10.2H239
		L235.4,91.3z"/>
	<path d="M252.1,92.5c1.9,0,3.4,0.9,3.4,2.5v4.4c0,0.7-0.1,1.1,0.3,1.1c0.1,0,0.2,0,0.3-0.1l0.1,1.1c-0.3,0.1-0.5,0.1-0.8,0.1
		c-1,0.1-1.2-0.7-1.2-1.2c-1,1-2,1.4-3.2,1.4c-1.8,0-3-1-3-2.6c0-1.7,1.3-2.5,3.2-2.6c1.7-0.1,2.6-0.5,2.8-1c0-0.1,0-0.3,0-0.4
		c0-1.1-0.8-1.5-2.1-1.5c-1.3,0-2.1,0.5-2.3,1.7l-1.5-0.1C248.5,93.4,249.9,92.5,252.1,92.5z M254,97c-0.5,0.3-1.5,0.5-2.5,0.6
		c-1.2,0.1-1.9,0.5-1.9,1.5c0,0.9,0.7,1.4,1.7,1.4c1.4,0,2.2-0.6,2.6-1.5c0.1-0.2,0.2-0.6,0.2-1L254,97L254,97z"/>
	<path d="M263.6,92.7h1.5l-4,10.5c-0.6,1.5-1.2,1.9-2.4,1.9c-0.3,0-0.6-0.1-1-0.2l-0.1-1.4c0.3,0.1,0.6,0.2,0.9,0.2
		c0.6,0,1-0.2,1.2-0.7l0.6-1.5l-3.4-8.8h1.6l1.8,5l0.7,2.2h0l0.8-2.2L263.6,92.7z"/>
	<path d="M278.4,92.8c0,1-0.4,2-1.1,2.8c-0.5,0.5-1.2,1.2-2.2,1.9c-1.4,1-2.4,1.5-3,2.8h6.2v1.4h-8c0-0.5,0.1-1,0.3-1.4
		c0.5-1.3,1.4-2.2,3-3.3c1.2-0.8,2-1.5,2.5-2.1c0.5-0.6,0.7-1.2,0.7-1.9c0-1.2-0.9-2.2-2.3-2.2c-1.5,0-2.4,1.2-2.4,2.7l-1.5,0
		c0.1-2.4,1.5-3.9,3.9-3.9C277.7,89.3,278.4,91.6,278.4,92.8z"/>
	<path d="M288.5,97.3v1.3h-1.6v2.9h-1.4v-2.9h-5.3v-1.4l5.6-7.7h1.2v7.8H288.5z M285.4,91.8L285.4,91.8l-3.9,5.6h3.9V91.8z"/>
	<path d="M291.2,100.1c-0.6-1.1-0.9-2.7-0.9-4.5c0-3.5,1-6.2,4-6.2c3,0,4,2.8,4,6.2c0,1.8-0.2,3.4-0.9,4.5c-0.6,1-1.6,1.7-3.1,1.7
		C292.7,101.8,291.8,101.1,291.2,100.1z M292.4,91.9c-0.4,0.9-0.5,2.2-0.5,3.6c0,1.5,0.1,2.8,0.5,3.6c0.4,0.8,1,1.4,1.9,1.4
		c1,0,1.6-0.5,1.9-1.4c0.4-0.8,0.5-2.1,0.5-3.6c0-1.5-0.1-2.8-0.5-3.6c-0.4-0.8-0.9-1.3-1.9-1.3C293.3,90.6,292.8,91.1,292.4,91.9z"
		/>
</g>
<g>
	<path d="M309.5,89.7c2.6,0,3.9,1.3,3.9,3c0,1.1-0.6,2-1.7,2.5v0c1.5,0.4,2.3,1.4,2.3,2.9c0,1.7-1.2,3.4-3.8,3.4h-5.3V89.7H309.5z
		 M309.3,94.8c2.1,0,2.6-0.9,2.6-2c0-0.9-0.7-1.7-2.3-1.7h-3.2v3.7H309.3z M306.4,96.1v4.1h3.8c1.5,0,2.2-0.9,2.2-2c0-1-0.6-2-2.8-2
		H306.4z"/>
	<path d="M321.6,101.8c-3.2,0-5.5-2.1-5.5-6.2c0-3.6,2.2-6.1,5.5-6.1c2.5,0,4.3,1.3,4.8,3.6l-1.6,0.2c-0.4-1.7-1.7-2.5-3.3-2.5
		c-2.8,0-3.9,2.3-3.9,4.8c0,3.8,2.1,4.9,3.9,4.9c2,0,3.1-1.2,3.4-3.2l1.6,0.2C326.2,100.2,324.4,101.8,321.6,101.8z"/>
	<path d="M329.2,89.7h8.3v1.4h-6.8v3.7h6.3v1.4h-6.3v4.1h6.9v1.4h-8.5V89.7z"/>
</g>
<g>
	<path d="M210.2,176.4c1.6-0.2,3-1.2,3.5-2.7h1.1v12h-1.5v-9.4c-0.4,0.5-1.8,1.4-3.1,1.4V176.4z"/>
	<path d="M226.9,177c0,1-0.4,2-1.1,2.8c-0.5,0.5-1.2,1.2-2.2,1.9c-1.4,1-2.4,1.5-3,2.8h6.2v1.4h-8c0-0.5,0.1-1,0.3-1.4
		c0.5-1.3,1.4-2.2,3-3.3c1.2-0.8,2-1.5,2.5-2.1c0.5-0.6,0.7-1.2,0.7-1.9c0-1.2-0.9-2.2-2.3-2.2c-1.5,0-2.4,1.2-2.4,2.7l-1.5,0
		c0.1-2.4,1.5-3.9,3.9-3.9C226.2,173.5,226.9,175.8,226.9,177z"/>
	<path d="M235.4,175.9L235.4,175.9l-0.1,9.8h-1.6v-12.2h1.7l6.4,9.8h0.1v-9.8h1.6v12.2h-1.7L235.4,175.9z"/>
	<path d="M245.6,181.3c0-2,1-4.6,4.2-4.6c2.9,0,4.2,2.2,4.2,4.6c0,2.3-1.2,4.7-4.2,4.7C247.2,186,245.6,184.1,245.6,181.3z
		 M249.9,184.7c1.5,0,2.7-1.1,2.7-3.4c0-2.2-1.2-3.4-2.7-3.4c-1.5,0-2.7,1.1-2.7,3.4C247.2,183.5,248.4,184.7,249.9,184.7z"/>
	<path d="M263,176.9l-3.3,8.9h-1.5l-3.3-8.9h1.6l1.9,5.5l0.6,1.8h0l0.6-1.8l1.9-5.5H263z"/>
	<path d="M269.6,176.4c1.6-0.2,3-1.2,3.5-2.7h1.1v12h-1.5v-9.4c-0.4,0.5-1.8,1.4-3.1,1.4V176.4z"/>
	<path d="M286.5,181.8c0,2-1.4,4.1-3.9,4.1c-3.4,0-4.2-2.8-4.2-5.9c0-2,0.5-6.5,4.4-6.5c2,0,3.2,1.1,3.5,3.1l-1.5,0.1
		c-0.1-0.9-0.8-1.8-2-1.8c-2.4,0-2.9,2.9-2.9,4.6c0.7-1.1,1.8-1.6,3-1.6C285.5,177.9,286.5,180.1,286.5,181.8z M285,181.9
		c0-1.6-0.9-2.8-2.4-2.8c-0.7,0-1.3,0.2-1.8,0.8c-0.4,0.5-0.6,1.2-0.6,2c0,1.5,1,2.8,2.4,2.8C284.3,184.7,285,183.3,285,181.9z"/>
	<path d="M296.3,181.5v1.3h-1.6v2.9h-1.4v-2.9h-5.3v-1.4l5.6-7.7h1.2v7.8H296.3z M293.3,176L293.3,176l-3.9,5.6h3.9V176z"/>
</g>
<g>
	<path d="M307.7,173.9c2.6,0,3.9,1.3,3.9,3c0,1.1-0.6,2-1.7,2.5v0c1.5,0.4,2.3,1.4,2.3,2.9c0,1.7-1.2,3.4-3.8,3.4H303v-11.8H307.7z
		 M307.5,179c2.1,0,2.6-0.9,2.6-2c0-0.9-0.7-1.7-2.3-1.7h-3.2v3.7H307.5z M304.6,180.3v4.1h3.8c1.5,0,2.2-0.9,2.2-2c0-1-0.6-2-2.8-2
		H304.6z"/>
	<path d="M319.8,186c-3.2,0-5.5-2.1-5.5-6.2c0-3.6,2.2-6.1,5.5-6.1c2.5,0,4.3,1.3,4.8,3.6l-1.6,0.2c-0.4-1.7-1.7-2.5-3.3-2.5
		c-2.8,0-3.9,2.3-3.9,4.8c0,3.8,2.1,4.9,3.9,4.9c2,0,3.1-1.2,3.4-3.2l1.6,0.2C324.3,184.4,322.6,186,319.8,186z"/>
	<path d="M327.4,173.9h8.3v1.4H329v3.7h6.3v1.4H329v4.1h6.9v1.4h-8.5V173.9z"/>
</g>
<line class="st0" x1="106.2" y1="192.3" x2="172.9" y2="192.3"/>
<line class="st0" x1="106.2" y1="118.8" x2="172.9" y2="118.8"/>
</svg>
