<?xml version="1.0" encoding="utf-8"?>
<!-- Generator: Adobe Illustrator 20.0.0, SVG Export Plug-In . SVG Version: 6.00 Build 0)  -->
<svg version="1.1" id="Layer_1" xmlns="http://www.w3.org/2000/svg" xmlns:xlink="http://www.w3.org/1999/xlink" x="0px" y="0px"
	 viewBox="0 0 2061.5 564.4" style="enable-background:new 0 0 2061.5 564.4;" xml:space="preserve">
<g>
	<path d="M58.4,555.3c-7.3,0-52.5,1.6-56.4,1.6c-3.9,0-1.2-7.4,2.7-7.4c12.2,0,19.9-0.8,23.1-1.6c11-11.4,19.5-29.4,36.6-73.6
		c17.4-44.9,47.3-125.9,61-163.5L165,202.2C238.2,1.1,230.9,14.6,206.9,14.6H198c-3.9,0-1.2-7.4,2.7-7.4c13.7,0,47.1,2.5,54.5,2.5
		c6.9,0,40.1-2.5,53.8-2.5c3.9,0,1.2,7.4-2.7,7.4h-8.8c-24,0-22-13.5-95.3,187.6l-41.7,114.4l146-158.6
		c63.2-68.7,93.6-100.9,101.9-123.8c4.3-13.1,0.6-20.4-11.7-20.4c-3.9,0-10.5,3.3-12.5,3.3c-2.5,0-3.5-2.5-2.6-4.9
		c0.9-2.5,3.3-4.9,7.2-4.9c8.3,0,45,1.6,52.8,1.6c6.4,0,40.3-1.6,52.5-1.6c3.4,0,0.3,7.4-2.7,7.4h-1c-34.3,0-55.9,13.5-181.4,148.3
		l-77.7,84.2c12.9-9.8,26.8-17.2,40.5-17.2c16.2,0,20.9,3.3,26.5,10.6c20.8,26.2,8.9,77.6,1.1,150.4
		c-16.6,131.6-14.2,158.6,11.3,158.6h5.9c6.4,0,3.2,7.4-3.7,7.4h-16.7c-17.1,0-29.1,3.3-36.5,3.3c-10.8,0-15.4-4.9-17.3-19.6
		c-2.2-19.6,1.8-58.8,11.2-123.4c11-71.9,28-170.8-3.4-170.8c-9.3,0-16.5,0.8-38.9,22.1L156.3,328l-6.3,17.2
		c-73.3,201.1-72,204.3-48,204.3h10.8c3.9,0,1.2,7.4-2.7,7.4C106.3,556.9,65.7,555.3,58.4,555.3z"/>
	<path d="M504.6,325.6c-42.6,76.8-102.4,170-143.5,228.8c-4.4,5.7-17.1,3.3-19.6,0c-24-30.2-22-125.9-2.9-205.1
		c31.4-130,121-210.9,163.6-210.9c24,0,37.7,6.5,66.6,59.7c6.9-9.8,23.5-36,34.3-55.6c4.9-8.2,4.4,1.6,4.4,1.6
		C575.7,210.4,495.3,413,497.8,480.9c0.5,13.9,7.8,29.4,17.6,34.3c12.2-9,39.2-37.6,58.8-71.9l2.9,5.7
		c-18.1,29.4-46.5,74.4-77.4,105.4c-4.9,4.9-25.5,2.5-27.4-0.8c-10.3-19.6-15.2-49-15.7-65.4C454.2,437.6,488,370.5,504.6,325.6z
		 M542.3,241.4c-31.8-67-49-83.4-68.6-83.4c-34.3,0-79.9,80.9-99,180.6c-15.7,80.9-15.7,149.6-2.5,174.9
		C395.9,502.9,488,350.9,542.3,241.4z"/>
	<path d="M586.2,520.1c28.9-66.2,93.1-232.9,90.6-300.8c-0.5-13.9-5.4-29.4-15.7-34.3c-13.7,5.7-38.2,31.9-57.3,66.2l-3.4-5.7
		c18.1-29.4,49-73.6,79.4-102.2c23-21.3,34.8,48.2,35.8,75.2c1,21.3-4.9,49.9-13.2,80.1c38.7-84.2,72-147.9,104.3-157.7
		c16.7-2.4,49.5-0.8,51,4.9c-1,18-22,57.2-30.9,60.5c-13.7-0.8-30.9-10.6-55.9-9.8c-43.1,21.3-77.9,151.2-155.3,357.2
		C605.3,554.4,576.4,565.9,586.2,520.1z"/>
	<path d="M955.6,325.6C913,402.4,853.2,495.6,812,554.4c-4.4,5.7-17.1,3.3-19.6,0c-24-30.2-22-125.9-2.9-205.1
		c31.4-130,121-210.9,163.6-210.9c24,0,37.7,6.5,66.6,59.7c6.9-9.8,23.5-36,34.3-55.6c4.9-8.2,4.4,1.6,4.4,1.6
		c-31.8,66.2-112.2,268.9-109.7,336.7c0.5,13.9,7.8,29.4,17.6,34.3c12.2-9,39.2-37.6,58.8-71.9l2.9,5.7
		c-18.1,29.4-46.5,74.4-77.4,105.4c-4.9,4.9-25.5,2.5-27.4-0.8c-10.3-19.6-15.2-49-15.7-65.4C905.1,437.6,938.9,370.5,955.6,325.6z
		 M993.3,241.4c-31.8-67-49-83.4-68.6-83.4c-34.3,0-79.9,80.9-99,180.6c-15.7,80.9-15.7,149.6-2.5,174.9
		C846.8,503,938.9,350.9,993.3,241.4z"/>
	<path d="M1147.4,529.1c-16.7,15.5-34.3,32.7-52.9,32.7c-23.5,0-47.5-28.6-54.9-64.6c-5.4-33.5-10.8-86.6,24.5-185.5
		c18.6-55.6,58.3-116.9,91.1-147.9c19.1-17.2,39.7-29.4,57.8-29.4h0.5c22,0,43.6,29.4,50.5,65.4c5.4,28.6,6.4,99.7-26.9,193.7
		C1217.9,450.6,1181.2,498,1147.4,529.1z M1160.6,507.9c27.4-22.9,70.1-182.3,67.1-269.7c-2-37.6-9.8-61.3-26-70.3
		c-5.4-2.5-19.1-12.3-38.7-4.1c-32.3,33.5-92.6,183.1-86.7,302.4c5.4,31.9,15.2,48.2,28.4,53.9
		C1120.4,527.5,1141,520.9,1160.6,507.9z"/>
	<path d="M1406.8,556.9c-6.4,0-12.1-1.6-15.6-8.2c-7.5-13.1-9.4-44.1-8.4-108.7l0.6-112l-81.7,85.8l-49.4,135.7h29.9
		c3.9,0,1.2,7.4-2.7,7.4c-3.9,0-33.2-1.6-41-1.6c-7.3,0-33.4,1.6-47.6,1.6c-3.9,0-1.2-7.4,2.7-7.4c21.1,0,25.6-9.8,54.8-89.9
		l128-351.3c25.6-70.3,19-71.1-8.1-63.8c-4.2,0.8-1.5-6.5,2.7-7.4c27.2-7.4,50.4-21.3,72.7-36.8c2.1-1.6,8.2,1.6,6.7,5.7l-145,397.9
		l125.2-132.4c69.4-73.6,82.7-115.2,54.2-115.2c-3.4,0-0.7-7.4,2.7-7.4c13.2,0,42,1.6,48.4,1.6c6.9,0,50.6-1.6,54-1.6
		c3.4,0,0.7,7.4-2.7,7.4c-30.9,0-79,39.2-155,120.1l-10.2,10.6l1.7,125.9c0.8,105.4,13,136.5,32.1,136.5c3.9,0,1.7,7.4-2.7,7.4
		H1406.8z"/>
	<path d="M1491.4,368.2c44.7-122.6,152-228.8,219.6-228.8c70.5,0,61.7,72.7,45,110.3c-6,13.9-14.6,25.3-29.8,25.3h-167.6
		c-9.3,18.8-18.5,40-26.8,62.9c-36.6,100.5-12.8,179,53.3,179c59.8,0,118.4-61.3,180.7-158.6c6-9.8,8.6-7.4,2.8,1.6
		c-62.6,100.5-151.9,204.3-225.8,204.3C1467.9,564.4,1450.3,481,1491.4,368.2z M1706,257.9c5-5.7,10.1-15.5,13.9-26.2
		c11.3-31.1,8.5-74.4-29.2-74.4c-42.1,0-89.1,37.6-128.7,111.2c55.4,0,89.9-3.3,121.7-3.3C1690.6,265.2,1703.7,260.3,1706,257.9z"/>
</g>
<g>
	<path d="M776.5,39.8c-0.3-4.9-4.8-8.6-5.4-9L727.6,0.5l29.9,44l0.1,0.1c0.2,0.2,4.5,4.5,9.7,4.5c0,0,0,0,0,0c2.5,0,4.7-1,6.6-2.8
		C775.7,44.4,776.6,42.2,776.5,39.8z"/>
	<path d="M755.5,46.8c-2.5-2.9-6.6-3-7-3l-39.5,3.4l36.6,15.8l0.3,0c0.1,0,0.7,0.1,1.5,0.1c5.3,0,9-3.3,9.9-8.7
		C757.7,51.2,757.1,48.7,755.5,46.8z"/>
	<path d="M721.9,78.7l-0.3,0.1c-0.7,0.4-6.8,4.3-8.1,9.8c-0.5,2.3-0.2,4.6,1.2,6.6c1.6,2.6,4.1,3.9,7.1,3.9c5,0,10.1-3.9,10.3-4.1
		l47.5-41L721.9,78.7z"/>
	<path d="M670.8,42.1h0.4V68h-0.4l-5.7-10h-8v33h6.9l9-16.4h0.5V97h-38v-0.5l4.9-6.2V23.6l-4.9-6.4v-0.5h36.8v19.7h-0.4l-9.1-13.8
		h-5.7v29.7h8L670.8,42.1z"/>
	<path d="M712.8,96.5V97h-27.2v-0.5l5.1-6.2v-68h-4.9l-8.7,13.1h-0.6V16.6h45.4v18.8h-0.5l-9.1-13.1h-4.5v68L712.8,96.5z"/>
	<path d="M829.4,98c-16.1,0-20.6-5.7-23.6-14.8c-1.9-6.2-4.5-14.1-7.9-25.7v32.9l4.7,6.2V97h-26.5v-0.5l4.9-6.2V23.6l-4.9-6.4v-0.5
		h22.2c15.7,0,23.9,6.1,23.9,16.8c0,8-5.8,14.3-10.6,17.8c3.8,11.2,7,21.1,9.3,27.3c3.5,10.3,5.3,14.4,8.3,18.9V98z M798,22.1v32.3
		c3.9-2.3,8.6-8,8.6-17.6C806.6,26.7,802.4,22.5,798,22.1z"/>
	<path d="M849.2,96.5V97h-19.5v-0.5l4.9-6.2V25.3c-2.3-3.3-4-5.2-5.9-8v-0.6h21l16.3,35.8V23.6l-6.4-6.4v-0.5h18.8v0.5l-4.7,6.4
		v74.7h-4.7l-26.6-59v51.1L849.2,96.5z"/>
	<path d="M891.8,96.5V97h-16v-0.5l4.5-6.2L897,15.2h3l17.7,75.1l4.5,6.2V97h-27.1v-0.5l5.3-6.2l-1.7-7.6h-10.8l-1.6,7.6L891.8,96.5z
		 M889.3,77.3h8.5l-4.4-19.8L889.3,77.3z"/>
	<path d="M924.1,96.5l4.9-6.2V23.6l-4.9-6.4v-0.5h26.5v0.5l-4.9,6.4v66.5h8l10.6-18.6h0.5V97h-40.7V96.5z"/>
	<path d="M990.9,93.9l4.9-6.2V20.9l-4.9-6.4V14h21.2c14,0,30.3,13,30.3,38.2c0,23.2-12.3,42.1-27.4,42.1h-24.2V93.9z M1012.6,20.1
		v67.5c0.5,0.5,1.2,0.7,2.2,0.7c3.5,0,9.8-10.6,9.8-33.3C1024.6,32.1,1018.7,21.3,1012.6,20.1z"/>
	<path d="M1094.8,95.3c-16.1,0-20.6-5.7-23.6-14.8c-1.9-6.2-4.5-14.1-7.9-25.7v32.9l4.7,6.2v0.5h-26.5v-0.5l4.9-6.2V20.9l-4.9-6.4
		V14h22.2c15.7,0,23.9,6.1,23.9,16.8c0,8-5.8,14.3-10.6,17.8c3.8,11.2,7,21.1,9.3,27.3c3.5,10.3,5.3,14.4,8.3,18.9V95.3z
		 M1063.3,19.5v32.3c3.9-2.3,8.6-8,8.6-17.6C1072,24.1,1067.7,19.8,1063.3,19.5z"/>
	<path d="M1111.7,93.9v0.5h-16v-0.5l4.5-6.2l16.8-75.1h3l17.7,75.1l4.5,6.2v0.5h-27.1v-0.5l5.3-6.2l-1.7-7.6h-10.8l-1.6,7.6
		L1111.7,93.9z M1109.1,74.7h8.5l-4.4-19.8L1109.1,74.7z"/>
	<path d="M1181.3,92.4c-4.1,0-10.8,3.2-16.6,3.2c-12.3,0-27.7-13-27.7-41c0-24.6,14.8-41.9,30-41.9c4.9,0,10.9,1.2,11.9,1.8v21.4
		h-0.8c-6.8-9.7-12.1-16.6-14-16.6c-2.5,0-9,11.2-9,32.7c0,26.9,5.8,36.3,9.8,36.3c0.6,0,1-0.1,1.3-0.2V59.5l-5.1-6.4v-0.5h23.6v0.5
		l-3.4,6.4V92.4z"/>
	<path d="M1211.7,12.4c11,0,25.4,13,25.4,40.2c0,29.1-15.5,43.3-24.3,43.3c-10.4,0-25.7-12.9-25.7-40.5
		C1187,27.6,1202,12.4,1211.7,12.4z M1212.4,88.1c3,0,6.7-8.9,6.7-33.7c0-24-4.9-34.2-7.4-34.2c-2.7,0-6.7,10.8-6.7,34.2
		C1205,79,1209.9,88.1,1212.4,88.1z"/>
	<path d="M1256,93.9v0.5h-19.5v-0.5l4.9-6.2V22.6c-2.3-3.3-4-5.2-5.9-8V14h21l16.3,35.8V20.9l-6.4-6.4V14h18.8v0.5l-4.7,6.4v74.7
		h-4.7l-26.6-59v51.1L1256,93.9z"/>
	<path d="M1303.8,87.1h9l10.2-20h0.6v27.3h-37.8v-0.5l19.4-73.3h-7l-9.8,17h-0.5V14h35.8v0.5L1303.8,87.1z"/>
</g>
<g>
	<path d="M1644.2,474.4c6.2-30.5,20.1-113.8,23.3-134.8c2.3-14.3,1.9-25.3,0-29.1c-1.7-3.5-3.9-4.2-8.5-4.4
		c-16-0.4-41.6,7.9-49.2,6.9c-3.5-0.6,3.9-9.4,6.7-11.2c2.7-1.5,21.4-1,35.1-1h20.1c37,0,71-1.7,79.8-1.7c1.3,0,4.4,0,6.2,0.6
		c0,2.5-3.5,9.3-8.3,12.1c-6,1.5-39.9-3.9-70.6-4.6c1.3,1.7,2.3,3.5,2.7,5.4c0.8,3.7,2.1,12.9-0.2,25.8c-3.1,20.2-14.5,85-21,119.5
		c86.8-101,109.3-126.9,136.1-157.5c15-17,27.2-34.5,33.7-43c2.5-2.1,8.5,3.1,5.8,5.6c-7.3,5.6-26,25.6-37.4,38.8
		c-50.7,58-100.1,113.8-149.6,173.7C1647.5,477.5,1643.7,477.1,1644.2,474.4z"/>
	<path d="M1790.2,452.8c-6.6,3.7-13.5,7.7-20.8,7.7c-9.3,0-18.7-6.7-21.6-15.2c-2.1-7.9-4.2-20.4,9.6-43.8
		c7.3-13.1,22.9-27.6,35.9-34.9c7.5-4,15.6-6.9,22.8-6.9h0.2c8.7,0,17.2,6.9,19.9,15.4c2.1,6.7,2.5,23.5-10.6,45.7
		C1818,434.3,1803.5,445.4,1790.2,452.8z M1795.4,447.8c10.8-5.4,27.6-43,26.4-63.6c-0.8-8.9-3.9-14.5-10.2-16.6
		c-2.1-0.6-7.5-2.9-15.2-1c-12.7,7.9-36.4,43.2-34.1,71.3c2.1,7.5,6,11.4,11.2,12.7C1779.6,452.4,1787.7,450.8,1795.4,447.8z"/>
	<path d="M1997.7,287.3c8.1,0,17.7,0.2,22.4,1c6.2,1-1.9,13.5-6.6,13.5c-12.3,0-29.9-3.3-48.6-3.3c-18.7,0-29.9,3.7-54.4,45.9
		c-13.5,22.2-26.2,44.9-38.4,67.1c-6.9,12.7-12.3,23.3-12,30.5c0.2,3.3,2.5,6.6,6.4,7.7c6.2-2.1,16.2-9.1,23.3-16.4l1.2,1.3
		c-7.1,6.9-17.7,16.8-29.9,24.1c-1.9,1.2-8.5,0.6-9.4-0.2c-4.8-3.7-6.4-11.6-6.6-15.4c-0.6-7.9,6.9-22,13.5-33.9
		c14.3-26,33.2-57.7,38.8-66.1C1911.5,319.9,1948.9,287.3,1997.7,287.3z"/>
	<path d="M1907,441.2c1.3-0.8,5-1.3,8.1-1.3c3.1,0,6.7,1,7.3,1.9c0.8,6-2.7,14.3-6,16.6c-1.2,0.8-3.9,1.2-7.1,1.2
		c-3.7,0-6.6-0.2-7.9-1.5C1899.5,454.7,1902.8,443.3,1907,441.2z"/>
	<path d="M2056.3,317c1.9-1.5,2.7-2.1,4-1.5c1.2,0.4,1.5,1.5,0.8,2.7c-4.4,7.9-63.2,112.6-69.8,124.6c-6.2,11.4-3.3,15.4,12,15.4
		c1,0,1,1.2-0.2,1.2c-5.2,0-24.1-0.8-28.2-0.8c-4.2,0-23.1,0.8-26.8,0.8c-1,0-0.6-1.2,0.4-1.2c12.9,0,21.4-5.8,29.9-19.3
		c5.2-8.3,54.2-94.9,56.7-99.7c1.5-3.1,1.3-4.4-0.8-4.4c-2.5,0-7.1,1.7-21,8.3c-1.5,0.8-2.1-0.6-1-1.2
		C2030.4,333.6,2045.7,324.9,2056.3,317z"/>
</g>
<g>
	<path d="M1496.2,92.8v0.5h-25.8v-0.5l4.5-5.8V24.7l-4.5-6v-0.5h20.5c13.7,0,24.2,6.5,24.2,17.9c0,15-13.9,24.1-22.1,25.4l-0.5-1
		c2.4-2.7,7.2-9.3,7.2-20.6c0-12.6-6.2-16.2-9.2-16.2V87L1496.2,92.8z"/>
	<path d="M1564.6,94.2c-15.1,0-19.3-5.3-22-13.8c-1.8-5.8-4.2-13.1-7.4-24V87l4.4,5.8v0.5H1515v-0.5l4.5-5.8V24.7l-4.5-6v-0.5h20.7
		c14.6,0,22.3,5.7,22.3,15.6c0,7.5-5.4,13.4-9.9,16.7c3.5,10.4,6.6,19.7,8.7,25.5c3.3,9.6,5,13.5,7.7,17.7V94.2z M1535.2,23.4v30.1
		c3.6-2.2,8-7.5,8-16.4C1543.3,27.7,1539.3,23.7,1535.2,23.4z"/>
	<path d="M1595.5,42.1h0.3v24.1h-0.3l-5.3-9.3h-7.5v30.8h6.5l8.4-15.3h0.5v20.8h-35.5v-0.5l4.5-5.8V24.7l-4.5-6v-0.5h34.3v18.3h-0.3
		l-8.5-12.9h-5.3v27.8h7.5L1595.5,42.1z"/>
	<path d="M1631.2,18.1v20h-0.5c-7.1-10.4-9.9-15-11.3-15c-1.2,0-2.7,2.2-2.7,5.8c0,4.4,3.2,9.4,8.6,18.8c6.7,11.7,9.2,18.7,9.2,25.1
		c0,12.7-9.1,21.3-20.3,21.3c-4.9,0-9.4-1.4-10.6-1.9c-0.6-5.8-1.2-17.1-0.9-28.4h0.8c7.2,17.3,10.9,23,12.9,23
		c1.4,0,3.4-2.6,3.4-7.6c0-6.6-2.7-11.2-8.7-21.9c-6.7-11.1-8.3-15.6-8.3-22c0-9.6,7.5-18.5,19.8-18.5
		C1626.1,16.9,1630.2,17.7,1631.2,18.1z"/>
	<path d="M1668.8,42.1h0.3v24.1h-0.3l-5.3-9.3h-7.5v30.8h6.5l8.4-15.3h0.5v20.8h-35.5v-0.5l4.5-5.8V24.7l-4.5-6v-0.5h34.3v18.3h-0.3
		l-8.5-12.9h-5.3v27.8h7.5L1668.8,42.1z"/>
	<path d="M1691.7,92.8v0.5h-18.2v-0.5l4.5-5.8V26.3c-2.2-3.1-3.7-4.9-5.5-7.5v-0.6h19.6l15.2,33.4v-27l-6-6v-0.5h17.6v0.5l-4.4,6
		v69.7h-4.4l-24.8-55V87L1691.7,92.8z"/>
	<path d="M1754.2,92.8v0.5h-25.4v-0.5l4.8-5.8V23.6h-4.5l-8.2,12.2h-0.6V18.3h42.4v17.6h-0.5l-8.5-12.2h-4.2V87L1754.2,92.8z"/>
	<path d="M1794.2,18.1v20h-0.5c-7.1-10.4-9.9-15-11.3-15c-1.2,0-2.7,2.2-2.7,5.8c0,4.4,3.2,9.4,8.6,18.8c6.7,11.7,9.2,18.7,9.2,25.1
		c0,12.7-9.1,21.3-20.3,21.3c-4.9,0-9.4-1.4-10.6-1.9c-0.6-5.8-1.2-17.1-0.9-28.4h0.8c7.2,17.3,10.9,23,12.9,23
		c1.4,0,3.4-2.6,3.4-7.6c0-6.6-2.7-11.2-8.7-21.9c-6.7-11.1-8.3-15.6-8.3-22c0-9.6,7.5-18.5,19.8-18.5
		C1789.1,16.9,1793.2,17.7,1794.2,18.1z"/>
	<path d="M1807,42.3c4.4,0,7.8,3.4,7.8,7.9c0,4.6-3.4,8-7.8,8c-4.4,0-7.8-3.4-7.8-8C1799.2,45.7,1802.6,42.3,1807,42.3z M1807,78.5
		c4.4,0,7.8,3.4,7.8,7.9c0,4.6-3.4,8-7.8,8c-4.4,0-7.8-3.4-7.8-8C1799.2,81.9,1802.6,78.5,1807,78.5z"/>
</g>
</svg>
