<?xml version="1.0" encoding="utf-8"?>
<!-- Generator: Adobe Illustrator 20.0.0, SVG Export Plug-In . SVG Version: 6.00 Build 0)  -->
<svg version="1.1" id="Layer_1" xmlns="http://www.w3.org/2000/svg" xmlns:xlink="http://www.w3.org/1999/xlink" x="0px" y="0px"
	 viewBox="0 0 4025.2 689.9" style="enable-background:new 0 0 4025.2 689.9;" xml:space="preserve">
<g>
	<path d="M758.3,307.6h-7.9l-94.1-132.7v108.2c0,6.7,1.3,11.4,3.8,14c2.6,2.6,7.4,4,14.4,4h5v6.5h-53.5v-6.5h3.6
		c7.2,0,12.1-1.3,14.8-4c2.6-2.6,4-7.3,4-14V164.3c-2.4-4.2-4.9-6.9-7.6-8.3c-2.6-1.4-6.5-2-11.6-2h-3.1v-6.5h32.4l91.9,129.1V172.5
		c0-7.2-1.2-12.1-3.6-14.6c-2.4-2.6-7-3.8-13.7-3.8h-6.2v-6.5h53.5v6.5h-5.3c-6.4,0-10.8,1.3-13.2,4c-2.4,2.6-3.6,7.5-3.6,14.5
		V307.6z"/>
	<path d="M1298,301.1v6.5h-60.7v-6.5h5.8c10.4,0,15.6-2.2,15.6-6.7c0-1.4-0.4-3.2-1.2-5.3l-13.4-36.2H1186l-12,32.6
		c-1.1,3-1.7,5.5-1.7,7.4c0,3,0.9,5.1,2.8,6.1c1.8,1,5.5,1.6,10.9,1.8l7.4,0.2v6.5h-53.5v-6.5l5-0.2c5.6-0.3,9.6-1.2,12-2.6
		c3-1.8,5.5-5.1,7.4-10.1l52.3-140.6l6.2-0.2l51.1,136.3c2.7,7.4,5.2,12,7.3,14c2.2,2,5.9,3.1,11.2,3.2L1298,301.1z M1240.9,245.2
		l-26.2-71.3l-25.9,71.3H1240.9z"/>
	<path d="M2106.8,273.8l-0.2,2.9c-0.6,8.3-1,12.9-1.2,13.7c-0.5,3-1.3,5.8-2.4,8.2c-4.2,8.5-11,12.7-20.6,12.7
		c-14.9,0-23.6-12.5-26.2-37.4l-1.4-14.4c-1.1-10.9-3.7-18.5-7.8-22.9c-4.1-4.4-10.8-6.6-20-6.6h-21.6v51.8c0,8.8,0.8,14.2,2.3,16.3
		c1.5,2.1,5.4,3.1,11.6,3.1h7.7v6.5h-61v-6.5h8.2c6.2,0,10.1-1,11.6-3.1c1.5-2.1,2.3-7.5,2.3-16.3V173.4c0-9-0.7-14.4-2.2-16.4
		c-1.4-2-5.4-3-11.8-3h-8.2v-6.5h76.6c17.6,0,31,4.6,40.1,13.7c7.4,7.4,11,16.1,11,26.2c0,8.6-2.8,16.3-8.4,23
		c-5.6,6.7-13.3,11.6-23,14.6c-4.3,1.3-9.8,2.2-16.3,2.9c9.9,3,17.1,8.4,21.6,16c4.5,7.6,8.2,20.9,11.3,40
		c1.8,10.9,4.9,16.3,9.4,16.3c7.4,0,11-8.8,11-26.4H2106.8z M2005.3,222.2h30.5c24.6,0,37-11.4,37-34.3c0-22.6-11.9-33.8-35.8-33.8
		h-11.5c-8.3,0-13.8,1.1-16.3,3.2c-2.6,2.2-3.8,6.8-3.8,13.8V222.2z"/>
	<path d="M3399.9,246.4h8.4c-0.2,19.7-5.8,35.5-16.8,47.5s-25.6,18-43.7,18c-19.7,0-36.4-8.3-50.3-25
		c-13.8-16.6-20.8-36.8-20.8-60.5c0-22.9,6.9-42.5,20.8-58.8c13.8-16.3,30.4-24.5,49.8-24.5c12.2,0,24.6,4.2,37.4,12.7
		c2.4,1.6,4.1,2.4,5,2.4c1.3,0,2.8-1.5,4.6-4.6l3.1-5.5h6.7v53.3l-6.5,1.4c-8.5-34.6-24.7-51.8-48.7-51.8
		c-14.7,0-26.5,5.8-35.3,17.3c-10.4,13.8-15.6,33.9-15.6,60.5c0,23.8,4.5,42.3,13.6,55.4c9,13.1,21.8,19.7,38.3,19.7
		c19.7,0,34-8.6,43-25.7C3396.9,270.6,3399.2,260,3399.9,246.4z"/>
	<path d="M1214.4,432.7c-9.6,17.5-13.8,33.4-13.8,53.3c0,19.8,4.2,35.8,13.8,53.3h-9.1c-10.8-16-16.2-32.3-16.2-53.3
		c0-21,5.4-37.4,16.2-53.3H1214.4z"/>
	<path d="M1313.4,521.6l-20.3-36.8c-7.1-12.7-14-25.6-20.6-38.3h-0.2c0.2,13.7,0.4,27.2,0.4,40.9v34.2h-10.8v-85.4h16.2l20.4,36.8
		c7,12.7,13.9,25.6,20.6,38.3h0.2c-0.2-13.7-0.4-27.2-0.4-40.9v-34.2h10.8v85.4H1313.4z"/>
	<path d="M1365.8,446v27h41.5v9.7h-41.5v29h45.4v9.8h-56.4v-85.4h55.1v9.8H1365.8z"/>
	<path d="M1491,521.6l-9-37.3c-3.1-12.7-6.1-25.6-8.9-38.3h-0.2c-2.8,12.7-5.8,25.6-8.9,38.3l-9,37.3h-15.8l-19.9-85.4h11l8,34.6
		c3.1,13.4,6,26.9,8.9,40.2h0.2c3-13.3,6.1-26.9,9.5-40.3l8.4-34.4h15.4l8.4,34.4c3.4,13.4,6.5,27,9.5,40.3h0.2
		c2.8-13.3,5.8-26.8,8.9-40.2l8-34.6h11l-19.9,85.4H1491z"/>
	<path d="M1582.1,496.2l-9.4,25.4H1561l32.4-85.4h15l32.5,85.4H1629l-9.2-25.4H1582.1z M1613.4,478.6c-4.3-11.9-8.3-22.9-12.4-34.8
		h-0.2c-4.1,11.9-8,22.9-12.4,34.8l-2.9,7.8h30.6L1613.4,478.6z"/>
	<path d="M1718.9,461.8h-11.8c-1.9-10.9-9.8-17.3-22.2-17.3c-16.8,0-27.1,13.1-27.1,34.6c0,21.6,10,34.6,26.3,34.6
		c13.9,0,24.1-7.9,24.2-28h-23.5v-9.5h34.1v45.4h-9.8v-11.8h-0.2c-4.6,8.2-14.8,13.3-26.9,13.3c-21.8,0-35.6-16.7-35.6-44
		c0-27.7,14.8-44.6,38.6-44.6C1704.5,434.5,1717.3,445.2,1718.9,461.8z"/>
	<path d="M1753.7,446v27h41.5v9.7h-41.5v29h45.4v9.8h-56.4v-85.4h55.1v9.8H1753.7z"/>
	<path d="M1876.3,436.2c20.6,0,30,8.6,30,23.2c0,10.9-6.5,19.1-16.3,21.4v0.2c6.2,1.9,9,5.5,12.8,16.1l8.8,24.6h-12l-7.8-22.6
		c-3.5-10.2-7.4-13.4-16.6-13.4h-15v36h-11v-85.4H1876.3z M1860.2,476.2h16c13.3,0,18.8-6.8,18.8-16.1c0-10-7.1-14.5-19.6-14.5
		h-15.2V476.2z"/>
	<path d="M1939.4,446v27h41.5v9.7h-41.5v29h45.4v9.8h-56.4v-85.4h55.1v9.8H1939.4z"/>
	<path d="M2015.3,496.2l-9.4,25.4h-11.8l32.4-85.4h15l32.5,85.4h-11.9l-9.2-25.4H2015.3z M2046.6,478.6
		c-4.3-11.9-8.3-22.9-12.4-34.8h-0.2c-4.1,11.9-8,22.9-12.4,34.8l-2.9,7.8h30.6L2046.6,478.6z"/>
	<path d="M2140.7,511.8v9.8H2086v-85.4h11v75.6H2140.7z"/>
	<path d="M2250.8,465.1h-11.4c-1.1-12.6-9.8-20.5-22.6-20.5c-16.1,0-25.9,13-25.9,34.3s9.7,34.3,25.6,34.3c12.7,0,21.6-8,23.3-21
		h11.5c-1.8,19.1-14.6,31.1-34.8,31.1c-22.9,0-37.1-16.8-37.1-44.4c0-27.5,14.3-44.4,37.4-44.4
		C2237.4,434.5,2249.9,447.4,2250.8,465.1z"/>
	<path d="M2325.3,521.6v-39.5h-43.6v39.5h-11v-85.4h11v36.2h43.6v-36.2h11.2v85.4H2325.3z"/>
	<path d="M2369.5,496.2l-9.4,25.4h-11.8l32.4-85.4h15l32.5,85.4h-11.9l-9.2-25.4H2369.5z M2400.8,478.6
		c-4.3-11.9-8.3-22.9-12.4-34.8h-0.2c-4.1,11.9-8,22.9-12.4,34.8l-2.9,7.8h30.6L2400.8,478.6z"/>
	<path d="M2491.8,521.6l-20.3-36.8c-7.1-12.7-14-25.6-20.6-38.3h-0.2c0.2,13.7,0.4,27.2,0.4,40.9v34.2h-10.8v-85.4h16.2l20.4,36.8
		c7,12.7,13.9,25.6,20.6,38.3h0.2c-0.2-13.7-0.4-27.2-0.4-40.9v-34.2h10.8v85.4H2491.8z"/>
	<path d="M2599.5,461.8h-11.8c-1.9-10.9-9.8-17.3-22.2-17.3c-16.8,0-27.1,13.1-27.1,34.6c0,21.6,10,34.6,26.3,34.6
		c13.9,0,24.1-7.9,24.2-28h-23.5v-9.5h34.1v45.4h-9.8v-11.8h-0.2c-4.6,8.2-14.8,13.3-26.9,13.3c-21.8,0-35.6-16.7-35.6-44
		c0-27.7,14.8-44.6,38.6-44.6C2585.1,434.5,2598,445.2,2599.5,461.8z"/>
	<path d="M2634.3,446v27h41.5v9.7h-41.5v29h45.4v9.8h-56.4v-85.4h55.1v9.8H2634.3z"/>
	<path d="M2731.3,432.7c10.7,15.8,16.2,32.3,16.2,53.3c0,21-5.5,37.3-16.2,53.3h-9.2c9.6-17.5,13.8-33.5,13.8-53.3
		c0-19.9-4.2-35.8-13.8-53.3H2731.3z"/>
</g>
<g>
	<rect x="837.9" y="241.1" transform="matrix(0.9654 -0.2609 0.2609 0.9654 -29.4775 267.0558)" width="306.6" height="7"/>
</g>
<g>
	<rect x="1333.2" y="229.1" transform="matrix(0.9854 -0.1703 0.1703 0.9854 -15.67 282.4995)" width="610.5" height="7"/>
</g>
<g>
	<rect x="2134.6" y="223.1" transform="matrix(0.9945 -0.1044 0.1044 0.9945 -8.9542 281.9854)" width="1111.7" height="7"/>
</g>
</svg>
