<?xml version="1.0" encoding="utf-8"?>
<!-- Generator: Adobe Illustrator 20.0.0, SVG Export Plug-In . SVG Version: 6.00 Build 0)  -->
<svg version="1.1" id="Layer_1" xmlns="http://www.w3.org/2000/svg" xmlns:xlink="http://www.w3.org/1999/xlink" x="0px" y="0px"
	 viewBox="0 0 1885.7 932" style="enable-background:new 0 0 1885.7 932;" xml:space="preserve">
<g>
	<path d="M470.8,258.9c6.2,1.8,8.8,2.7,9.7,9.7c1.8,17.7-5.3,76.1-5.3,215.9c0,11.5-8.8,11.5-8.8,0c1.8-136.3-23-239.8-188.5-239.8
		c-108,0-151.3,50.4-151.3,117.7c0,85,91.1,121.2,182.3,160.2c92,38.1,184.9,78.8,184.9,174.3c0,101.8-86.7,169.9-192.9,169.9
		c-95.6,0-143.3-9.7-206.2-26.5c-8-1.8-8.8-3.5-8.8-8.8c0-40.7-0.9-183.2-0.9-226.5c0-12.4,9.7-12.4,9.7,0
		c0,164.6,59.3,253.1,206.2,253.1c97.3,0,139.8-49.6,139.8-119.5c0-86.7-88.5-122.1-178.7-160.2C167.3,539.4,70.9,497.8,70.9,404
		c0-105.3,94.7-168.1,207.1-168.1C366.4,235.8,420.4,247.3,470.8,258.9z"/>
	<path d="M508.9,768.5c0-59.3,57.5-117.7,221.2-181.4l73.4-28.3c-3.5-110.6-31.9-144.2-94.7-144.2c-77.9,0-94.7,69.9-114.1,98.2
		c-8,11.5-15.9,15.9-39.8,15.9c-21.2,0-35.4-8-35.4-20.4c0-10.6,8.8-27.4,31-41.6c35.4-23,109.7-60.2,172.6-60.2
		c86.7,0,149.5,45.1,149.5,161c0,59.3-7.1,159.3-7.1,193.8c0,50.4,6.2,75.2,24.8,75.2c15.9,0,38.1-31,47.8-48.7
		c4.4-7.1,15,0,10.6,7.1c-14.2,20.4-69.9,71.7-104.4,71.7c-33.6,0-50.4-23-50.4-62.8c0-23,1.8-54,3.5-72.6
		c-23.9,40.7-116.8,136.3-178.7,136.3C547.8,867.6,508.9,822.5,508.9,768.5z M662.8,828.7c49.6,0,128.3-88.5,136.3-117.7
		c0.9-11.5,5.3-54.9,5.3-127.4V565l-72.6,31c-130.1,54.9-161,81.4-161,146.9C570.8,790.7,619.5,828.7,662.8,828.7z"/>
	<path d="M1020.3,416.4c26.5,0,90.3,0,119.5-0.9c29.2-0.9,47.2,0,47.2,1.8c0,5.3-32.2,23-59.6,47.8c-7.1,0-78.8-0.9-108.8-0.9V742
		c0,63.7,20.4,97.3,57.5,97.3c35.4,0,69.9-32.7,90.3-92c2.7-7.1,15-1.8,11.5,5.3c-28.3,57.5-79.6,114.1-140.7,114.1
		c-59.3,0-84.9-37.2-84.9-122.1V464.1h-48.7c-0.9,0-1.8-2.7,0-4.4l113.3-130.1c1.8-1.8,3.5-2.7,3.5,0.9V416.4z"/>
	<path d="M1273.4,639.3c-34.5,55.7-73.4,110.6-71.7,143.3c0.9,15,20.4,27.4,38,32.7c28.3-9.7,73.4-43.4,106.2-77l5.3,6.2
		c-32.7,31.9-81.4,77-137.2,110.6c-8.8,5.3-44.2,2.7-48.7-0.9c-22.1-16.8-35.4-47.8-36.3-65.5c-2.7-36.3,47.8-109.7,80.5-163.7
		c47.8-77,76.1-112.4,84.1-141.6c4.4-16.8-13.3-36.3-26.5-38.9c-21.2,7.1-77,45.1-109.7,74.3l-6.2-4.4c31.9-31,100.9-83.2,146-110.6
		c10.6-6.2,21.2-6.2,29.2-2.7c20.4,9.7,42.5,54,42.5,76.1C1368.9,512.8,1304.3,588.9,1273.4,639.3z M1372.5,334.1
		c85.8-87.6,168.1-181.4,213.3-245.1c12.4-14.2,33.6,0.9,20.4,15c-52.2,60.2-140.7,146-228.3,235.4L1372.5,334.1z"/>
	<path d="M1343.3,654.4c0-132.7,123.9-247.8,246-247.8c127.4,0,159.3,78.8,154,119.5c-1.8,15-9.7,27.4-37.2,27.4h-302.6
		c-4.4,20.4-7.1,43.4-7.1,68.1c0,108.8,94.7,193.8,214.1,193.8c108,0,173.4-66.4,222.1-171.7c4.4-10.6,10.6-8,6.2,1.8
		c-46.9,108.8-139.8,221.2-273.4,221.2C1430,866.8,1343.3,776.5,1343.3,654.4z M1658.3,534.9c5.3-6.2,8-16.8,8-28.3
		c0-33.6-33.6-80.5-101.8-80.5c-76.1,0-136.3,40.7-159.3,120.3c100,0,160.2-3.5,217.7-3.5C1635.3,542.9,1655.6,537.6,1658.3,534.9z"
		/>
</g>
</svg>
