<?xml version="1.0" encoding="utf-8"?>
<!-- Generator: Adobe Illustrator 20.0.0, SVG Export Plug-In . SVG Version: 6.00 Build 0)  -->
<svg version="1.1" id="Layer_1" xmlns="http://www.w3.org/2000/svg" xmlns:xlink="http://www.w3.org/1999/xlink" x="0px" y="0px"
	 viewBox="0 0 395.5 104" style="enable-background:new 0 0 395.5 104;" xml:space="preserve">
<style type="text/css">
	.st0{fill:none;stroke:#000000;stroke-width:0.25;stroke-miterlimit:10;}
</style>
<g>
	<path class="st0" d="M34.2,16.7c0,2.8-2.3,5.1-5.1,5.1s-5.1-2.3-5.1-5.1c0-2.8,2.3-5.1,5.1-5.1S34.2,13.8,34.2,16.7z M394.2,68.7
		c6.4,4.2-114-101.6-103.4-50.2c4.2,8.3,10.7,13.9,19.5,16.8c-15-3.1-47.4-48-87.4-30.1C160.8,33,238.7,117.1,273.4,101
		c28.3-13.2-65.4-62.8-61.7-61C166.3,17.7,89.5-0.4,39.9,11.2 M0.5,68.7H205 M266.2,68.7H395"/>
</g>
</svg>
