<?xml version="1.0" encoding="iso-8859-1"?>
<!-- Generator: Adobe Illustrator 16.0.0, SVG Export Plug-In . SVG Version: 6.00 Build 0)  -->
<!DOCTYPE svg PUBLIC "-//W3C//DTD SVG 1.1//EN" "http://www.w3.org/Graphics/SVG/1.1/DTD/svg11.dtd">
<svg version="1.1" id="Layer_1" xmlns="http://www.w3.org/2000/svg" xmlns:xlink="http://www.w3.org/1999/xlink" x="0px" y="0px"
	 width="700px" height="900px" viewBox="0 0 700 900" style="enable-background:new 0 0 700 900;" xml:space="preserve">
<rect style="fill:#C9E6D3;" width="700" height="900"/>
<g>
	<path d="M245.81,419.506c0.012,83.698,1.473,167.437,6.805,250.98c1.502,23.55,3.324,47.078,5.49,70.576
		c0.464,5.035,3.894,9.41,9.309,9.444c4.675,0.029,9.912-4.239,9.445-9.31c-7.667-83.19-10.85-166.722-11.882-250.239
		c-0.294-23.771-0.41-47.544-0.413-71.317C264.562,407.561,245.808,407.432,245.81,419.506"/>
	<path d="M302.367,392.23c-0.562,38.381-1.164,76.785,0.284,115.154c0.697,18.489,2.501,36.896,3.331,55.367
		c0.703,15.655,1.082,31.324,1.899,46.976c0.908,17.384,2.12,34.892,5.463,52.003c0.972,4.975,6.829,7.875,11.481,6.629
		c5.182-1.389,7.605-6.492,6.63-11.482c-5.737-29.371-5.307-59.881-6.533-89.674c-0.741-18.003-2.516-35.944-3.288-53.952
		c-0.801-18.709-1.104-37.435-1.13-56.159c-0.031-21.577,0.301-43.152,0.617-64.727C321.298,380.279,302.542,380.166,302.367,392.23
		"/>
	<path d="M170.022,760.166c4.38-43.73,25.375-85.117,48.749-121.627c10.528-16.445,22.28-32.031,34.007-47.63
		c14.151-18.822,28.745-37.392,44.914-54.538c16.62-17.623,34.894-33.567,56.226-45.242c10.58-5.79,1.104-21.976-9.495-16.174
		c-41.799,22.875-72.939,60.676-101.379,97.979c-26.351,34.563-51.782,69.683-69.652,109.537
		c-11.087,24.727-19.414,50.503-22.124,77.561c-0.505,5.038,4.581,9.414,9.309,9.444
		C166.041,769.51,169.517,765.225,170.022,760.166"/>
	<path d="M392.592,526.295c-14.721-7.201-31.566-6.08-43.159,6.354c-10.048,10.778-14.595,26.487-12.862,41.003
		c2.034,17.045,12.447,30.877,28.985,36.246c17.529,5.692,35.027-1.445,42.979-18.155c9.002-18.912,6.896-41.916-1.373-60.639
		c-2.047-4.637-8.824-5.689-12.832-3.341c-4.781,2.802-5.395,8.183-3.342,12.834c4.719,10.685,6.066,25.329,2.92,36.864
		c-1.471,5.392-3.26,9.162-7.066,12.733c-0.389,0.364-3.676,2.275-3.982,2.361c-2.596,0.72-3.91,0.954-6.781,0.631
		c-6.395-0.72-10.973-3.258-14.512-6.898c-1.98-2.038-1.84-1.77-3.457-4.707c-0.232-0.422-1.672-3.63-1.031-1.974
		c-0.516-1.334-0.898-2.723-1.254-4.104c-0.133-0.524-0.838-4.413-0.623-2.676c-0.145-1.164-0.23-2.343-0.264-3.515
		c-0.039-1.467-0.014-2.942,0.078-4.406c0.035-0.572,0.119-1.143,0.18-1.714c0.309-2.935-0.355,1.639,0.17-1.085
		c0.502-2.588,1.178-5.104,2.068-7.588c0.613-1.714,0.221-0.557,0.064-0.187c0.277-0.647,0.564-1.294,0.881-1.923
		c0.705-1.396,1.518-2.712,2.361-4.024c1.166-1.813-0.062-0.343,1.48-1.948c0.951-0.989,1.891-1.971,2.918-2.885
		c1.232-1.099,0.082-0.05-0.121,0.099c0.645-0.47,1.295-0.889,1.971-1.298c0.58-0.35,1.158-0.664,1.75-0.985
		c0.367-0.198-1.279,0.317,0.559-0.214c0.656-0.19,4.543-0.996,2.559-0.771c1.379-0.155,2.756-0.12,4.133-0.04
		c1.82,0.105,0.658,0.021,0.232-0.051c0.893,0.15,1.809,0.357,2.68,0.6c2.379,0.66,2.451,0.728,4.316,1.639
		C394.014,547.814,403.455,531.608,392.592,526.295"/>
	<path d="M363.508,476.549c5.412,12.996,12.229,26.667,24.631,34.303c2.096,1.29,4.639,2.714,6.986,3.489
		c1.752,0.579-2.994-2.174-0.865-0.625c-1.215-0.883-0.408-1.451,0.01,0.407c0.225,1.014,0.471,2.014,0.654,3.038
		c1.191,6.648,1.439,13.5,2.086,20.225c0.848,8.852,1.898,17.684,3.025,26.504c2.219,17.354,4.922,34.638,7.734,51.904
		c0.814,5.004,6.939,7.846,11.48,6.629c5.305-1.422,7.447-6.463,6.631-11.482c-2.746-16.852-5.443-33.723-7.568-50.665
		c-1.99-15.877-2.318-32.221-5.254-47.943c-1.418-7.591-4.924-12.565-11.885-15.793c-9.695-4.495-15.316-14.662-19.557-24.845
		c-1.945-4.672-6.125-8.063-11.48-6.627C365.748,466.243,361.547,471.84,363.508,476.549"/>
	<path d="M399.178,466.42c17.896-10.266,38.445-15.766,59.121-14.503c12.07,0.737,12.137-18.021,0.135-18.754
		c-23.871-1.457-48.115,5.247-68.75,17.083C379.227,456.244,388.684,472.44,399.178,466.42"/>
	<path d="M420.924,374.637v46.926c0,12.08,18.754,12.208,18.754,0.135v-46.926C439.678,362.692,420.924,362.562,420.924,374.637"/>
	<path d="M535.875,382.182c2.484,40.637,4.879,81.292,4.918,122.018c0.01,12.079,18.766,12.209,18.754,0.135
		c-0.039-40.729-2.432-81.381-4.918-122.018c-0.311-5.049-4.004-9.411-9.311-9.445C540.518,372.842,535.562,377.103,535.875,382.182
		"/>
	<path d="M205.167,249.757c-5.125-10.667-12.655-21.278-23.531-26.644c-9.237-4.556-19.53-4.756-29.04-1.022
		c-19.341,7.595-31.913,27.754-35.421,47.615c-4.201,23.791,6.446,45.287,24.628,60.408c15.147,12.596,34.793,19.779,47.291,35.428
		c13.031,16.318,15.504,37.198,15.606,56.694c0.102,19.53-2.33,40.435-10.281,58.333c-7.375,16.605-18.044,28.748-36.908,28.936
		c-18.824,0.188-35.415-7.807-46.6-22.04c-11.734-14.933-16.633-33.239-20.102-51.958c-3.108-16.769-4.019-34-4.528-51.179
		c-0.096-3.249-0.181-6.498-0.282-9.746c-0.374-12.05-19.129-12.21-18.754-0.135c1.139,36.739,2.729,74.444,18.827,108.192
		c8.884,18.623,23.82,33.162,42.976,40.776c9.881,3.928,22.163,5.686,32.753,4.773c11.203-0.966,20.865-4.839,29.662-11.785
		c16.183-12.776,23.842-34.562,27.983-54.09c4.239-19.997,5.2-40.911,2.655-61.194c-2.996-23.879-13.211-46.054-32.471-60.999
		c-15.548-12.064-35.686-19.552-46.993-36.252c-5.693-8.41-8.339-16.399-7.6-26.678c0.666-9.263,4.2-17.648,9.439-25.262
		c4.087-5.94,10.634-11.299,17.002-13.105c6.778-1.922,12.853,0.715,17.868,5.683c4.213,4.173,7.093,9.428,9.647,14.744
		c2.194,4.567,8.725,5.748,12.833,3.34C206.498,259.855,207.368,254.338,205.167,249.757"/>
	<path d="M261.87,246.602c-8.98-1.33-17.246,1.516-23.7,8.953c-6.479,7.466-10.473,16.793-13.362,26.191
		c-6.272,20.409-8.304,43.561-4.224,64.606c1.661,8.566,4.836,17.581,11.191,23.825c6.398,6.286,15.678,8.222,24.495,5.279
		c22.919-7.649,30.578-37.44,33.21-58.773c2.648-21.459,0.288-60.337-27.61-64.339c-5.007-0.719-10.065,1.26-11.519,6.568
		c-1.208,4.408,1.528,10.796,6.568,11.52c0.93,0.133,1.818,0.369,2.735,0.551c0.434,0.086,0.849,0.274,1.268,0.405
		c-0.287-0.09-1.777-0.909-0.361-0.151c0.783,0.419,1.525,0.868,2.271,1.346c-1.657-1.062-0.006,0.009,0.679,0.667
		c0.638,0.614,1.249,1.269,1.805,1.956c-1.262-1.556,0.43,0.774,0.611,1.069c0.54,0.879,1.005,1.788,1.494,2.696
		c0.235,0.434,0.439,0.917,0.642,1.363c-0.347-0.76-0.421-1.075-0.065-0.093c3.444,9.489,3.961,17.575,3.447,27.84
		c-0.505,10.087-2.387,19.883-5.894,29.641c-1.263,3.513-2.99,7.414-5.715,11.667c-0.533,0.832-1.086,1.658-1.681,2.446
		c0.711-0.941-0.494,0.579-0.871,0.982c-0.569,0.607-1.128,1.218-1.729,1.794c-0.341,0.327-0.701,0.627-1.046,0.948
		c-1.701,1.578,1.609-0.967-0.229,0.188c-0.63,0.395-1.326,0.748-1.929,1.177c-1.719,1.226,1.428-0.275-0.619,0.32
		c-0.771,0.224-1.538,0.469-2.31,0.693c-0.298,0.086-0.597,0.123-0.896,0.204c-1.583,0.429,2.17-0.007,0.372-0.062
		c-0.67-0.02-1.376-0.01-2.05,0c-1.662,0.025,2.167,0.318,0.211-0.044c-1.041-0.194-1.565-0.67,0.135,0.215
		c-0.648-0.337-1.27-0.704-1.91-1.051c-1.442-0.782,1.227,1.486-0.113-0.166c-0.421-0.518-0.973-1.017-1.443-1.498
		c-0.986-1.011,1.013,1.811,0.002-0.076c-0.402-0.751-0.923-1.449-1.334-2.201c-0.355-0.649-0.664-1.315-0.991-1.979
		c-0.746-1.518,0.522,1.734-0.253-0.667c-0.566-1.754-1.151-3.481-1.603-5.272c-1.13-4.472-1.457-7.011-1.748-10.254
		c-0.398-4.444-0.485-8.913-0.394-13.372c0.201-9.904,1.125-17.228,3.229-26.551c1.078-4.78,2.438-9.519,4.159-14.109
		c0.189-0.506,1.472-3.559,0.635-1.65c0.438-0.998,0.895-1.986,1.374-2.964c0.903-1.844,1.905-3.632,3.015-5.359
		c0.513-0.8,1.055-1.572,1.619-2.338c-1.292,1.755,0.018,0.055,0.631-0.617c0.572-0.628,1.207-1.183,1.796-1.787
		c1.572-1.614-1.181,0.466,0.348-0.283c0.618-0.304,1.248-0.728,1.842-1.082c1.093-0.654-2.177,0.649,0.267-0.027
		c2.542-0.703-1.183,0.145,0.196-0.107c0.665-0.122,3.483,0.306,0.401-0.15c5.004,0.741,10.069-1.276,11.519-6.568
		C269.65,253.696,266.906,247.348,261.87,246.602"/>
	<path d="M298.377,235.48c0.014,37.325,0.806,74.646,0.82,111.971c0.005,12.08,18.759,12.209,18.754,0.135
		c-0.014-37.325-0.805-74.646-0.82-111.971C317.127,223.536,298.373,223.406,298.377,235.48"/>
	<path d="M339.989,259.658c3.145-14.058,9.365-31.906,22.685-38.89c10.684-5.6,1.191-21.776-9.494-16.173
		c-17.883,9.375-27.11,31.48-31.278,50.112C319.27,266.471,337.351,271.45,339.989,259.658"/>
	<path d="M375.639,189.099c-2.359,43.481-2.479,87.264,0.385,130.725c0.332,5.046,3.988,9.41,9.309,9.444
		c4.783,0.03,9.781-4.231,9.445-9.31c-2.865-43.46-2.744-87.242-0.385-130.724C395.049,177.157,376.289,177.084,375.639,189.099"/>
	<path d="M414.275,227.055c1.412-8.032,3.156-16.378,6.43-23.896c0.84-1.928,2.242-4.73,3.242-6.011
		c0.824-1.055,1.225-1.726,1.652-1.586c-0.047-0.015-3.865-0.034-1.797,0.739c4.744,1.774,10.268-1.998,11.52-6.568
		c1.441-5.261-1.812-9.742-6.568-11.52c-9.521-3.56-17.793,3.839-22.232,11.531c-5.639,9.769-8.398,21.355-10.334,32.36
		c-0.875,4.983,1.369,10.094,6.566,11.519C407.289,234.865,413.395,232.064,414.275,227.055"/>
	<path d="M439.502,158.881c6.982,21.906,20.59,40.912,33.967,59.318c2.975,4.093,8.158,6.079,12.834,3.34
		c4.043-2.369,6.334-8.716,3.34-12.834c-12.283-16.901-25.613-34.548-32.031-54.677
		C453.959,142.569,435.828,147.357,439.502,158.881"/>
	<path d="M519.508,141.535c-18.703,57.132-39.92,113.629-52.5,172.547c-3.77,17.649-6.713,35.447-9.02,53.344
		c-0.646,5.023,4.682,9.415,9.309,9.444c5.58,0.035,8.797-4.266,9.445-9.31c7.596-58.932,25.34-115.471,44.279-171.576
		c5.566-16.486,11.162-32.961,16.574-49.498C541.361,134.985,523.252,130.098,519.508,141.535"/>
	<path d="M466.562,457.479c-6.971,21.245,6.08,47.952,28.137,53.205c12.955,3.086,27.422-0.192,35.357-11.406
		c5.512-7.786,6.996-19.019,3.842-28.021c-1.676-4.777-6.324-8.01-11.482-6.629c-4.615,1.238-8.314,6.678-6.629,11.483
		c0.293,0.839,1.053,4.714,0.805,2.47c0.164,1.475,0.135,2.928,0.062,4.403c-0.053,1.045,0.309-1.235-0.051,0.479
		c-0.176,0.834-0.389,1.645-0.621,2.463c-0.691,2.435,0.812-1.329-0.344,0.972c-0.396,0.784-0.811,1.526-1.307,2.253
		c0.67-0.979-1.963,1.846-1.342,1.396c-1.666,1.199-2.447,1.481-3.576,1.801c-3.736,1.053-8.23,0.954-12.156-0.432
		c-3.369-1.192-5.576-2.851-7.82-5.405c-1.557-1.771-3.512-5.735-4.176-7.82c-1.309-4.096-1.469-5.269-1.555-8.808
		c-0.039-1.676,0.008-3.377,0.221-5.04c-0.268,2.09,0.502-1.744,0.723-2.414C488.422,450.931,470.312,446.045,466.562,457.479"/>
	<path d="M423.791,466.876c-0.008,23.553,0.459,47.117,2.514,70.592c1.393,15.912,3.246,31.951,6.996,47.502
		c2.795,11.591,6.707,24.749,15.408,33.389c7.498,7.443,19.479,9.48,28.242,3.325c8.064-5.665,10.271-15.759,11.121-25.308
		c1.67-18.796-2.975-37.683-0.814-56.456c-0.326,2.832,0.076-0.19,0.246-0.94c0.227-0.99,0.674-2.006,0.836-2.992
		c0.318-1.924-0.902,2.199,0.094-0.17c0.65-1.547,1.576-1.514,0.064-0.379c1.471-1.104,1.002-0.506-0.271-0.037
		c2.939-1.084-1.682,0.207,0.447-0.332c2.119-0.535-1.826,0.802-0.217-0.016c0.807-0.41,3.344,0.488,0.875-0.072
		c1.195,0.271,2.361,0.595,3.539,0.949c0.396,0.12,0.861,0.34,1.236,0.479c0.674,0.252-1.498-0.825,0.645,0.29
		c2.945,1.533,5.82,3.113,8.6,4.938c8.443,5.545,16.057,12.097,23.717,18.968c8.951,8.024,22.207-5.245,13.189-13.333
		c-12.945-11.608-47.873-45.655-65.537-24.518c-5.783,6.92-6.629,16.666-6.744,25.365c-0.129,9.816,0.836,19.624,1.326,29.42
		c0.234,4.719,0.42,9.448,0.26,14.174c-0.068,2.01-0.211,4.008-0.363,6.012c-0.197,2.583,0.35-1.451-0.102,0.68
		c-0.242,1.133-0.414,2.269-0.703,3.396c-0.195,0.768-0.518,1.533-0.686,2.295c-0.367,1.673,1.197-1.791-0.119,0.334
		c-0.43,0.693-0.895,1.398-1.303,2.101c1.154-1.98,0.902-0.87-0.332,0.094c1.764-1.376,0.777-0.435-0.287,0.019
		c-1.703,0.723,2.348-1.062,0.43-0.184c-1.33,0.607-1.852,0.502-0.264,0.121c-0.666,0.16-3.271,0.386-0.748,0.183
		c-0.969,0.078-2.857-0.771-0.928-0.173c-0.627-0.193-2.854-1.904-0.752-0.204c-0.807-0.652-1.518-1.41-2.246-2.156
		c-2.012-2.059,0.238,0.904-0.891-1.099c-1.264-2.243-2.586-4.385-3.721-6.709c-1.258-2.581,0.096,0.486-0.852-2.073
		c-0.586-1.581-1.146-3.171-1.666-4.773c-4.393-13.554-6.549-28.435-7.977-41.704c-2.896-26.852-3.52-53.874-3.51-80.861
		C442.551,454.932,423.795,454.803,423.791,466.876"/>
	<path d="M628.535,450.012c-0.414-15.812-12.773-30.025-29.402-28.982c-17.271,1.082-29.023,17.082-24.949,33.826
		c1.926,7.913,6.443,15.089,10.781,21.867c1.906,2.978,3.865,5.925,5.672,8.966c0.854,1.436,1.666,2.883,2.406,4.381
		c0.473,0.959,0.541,1.172,1.248,3.326c2.438,7.418,4.92,14.911,6.223,22.627c0.906,5.381,1.625,12.85-1.518,17.369
		c-7.223,10.389-25.031,8.363-29.279-3.378c-1.723-4.761-6.289-8.021-11.48-6.629c-4.576,1.228-8.363,6.692-6.631,11.481
		c5.449,15.057,20.311,25.146,36.504,24.062c17.426-1.167,30.443-14.692,31.727-31.948c0.623-8.38-1.152-17.184-3.352-25.238
		c-1.895-6.939-3.926-14.168-7.018-20.685c-3.143-6.622-7.664-12.553-11.447-18.812c-1.596-2.645-3.514-5.964-4.504-8.41
		c-1.086-2.685-1.793-5.632-1.547-7.401c0.35-2.503,2.293-4.3,4.232-5.574c1.582-1.041,3.572-1.391,5.244-1.111
		c5.223,0.873,8.188,4.482,8.336,10.129C610.098,461.933,628.852,462.088,628.535,450.012"/>
	<path d="M577.201,393.922c1.066-5.18,2.066-10.925,5.121-15.378c0.879-1.284,2.156-2.595,3.236-3.723
		c0.43-0.462,0.875-0.905,1.342-1.328c0.564-0.512,0.574-0.528,0.029-0.05c0.096,0.497-6.182,1.088-6.061-0.585
		c-0.564-0.5-0.484-0.409,0.242,0.273c0.221,0.221,0.432,0.448,0.635,0.683c2.246,2.593,4.373,6.056,5.223,8.294
		c1.664,4.39,3.146,9.109,6.508,12.557c7.441,7.629,20.27,6.063,27.355-1.267c6.369-6.59,8.621-16.273,10.367-24.974
		c2.363-11.793-15.713-16.794-18.088-4.951c-0.775,3.862-1.57,7.759-2.875,11.481c-0.598,1.698-1.393,3.528-2.523,5.085
		c0.082-0.113-1.369,0.908-0.498,0.634c0.068-0.022-2.057,0.628-2.016,0.324c0.035-0.256,1.914,0.531,1.762,0.654
		c0.014-0.011,0.434,0.923-0.307-0.613c-0.189-0.389-0.949-1.949-0.457-0.819c-1.842-4.237-3-8.747-5.652-12.594
		c-5.473-7.937-13.279-16.284-23.475-10.121c-10.791,6.522-15.562,19.852-17.957,31.468
		C556.684,400.758,574.764,405.756,577.201,393.922"/>
	<path d="M480.186,447.489c28.566,4.108,60.365-21.844,48.662-52.354c-4.594-11.971-16.363-17.316-28.197-12.005
		c-10.619,4.767-17.812,16.041-19.535,27.341c-0.762,5.002,1.291,10.074,6.568,11.519c4.441,1.218,10.752-1.535,11.52-6.567
		c0.623-4.088,1.416-6.691,3.471-9.953c1.227-1.948,3.539-4.144,4.85-4.864c0.609-0.337,1.203-0.693,1.846-0.972
		c-1.998,0.864,0.215-0.021,0.652-0.029c-1.277,0.027-0.982-0.079,0.064,0.046c1.049,0.125-1.615-0.556,0.051-0.029
		c1.533,0.487-0.938-1.128,0.385,0.202c-1.08-1.086-0.148-0.35,0.111,0.259c0.295,0.685-0.52-1.003,0.234,0.489
		c1.141,2.259-0.322-1.613,0.555,1.355c2.201,7.449,0.32,14.32-5.215,19.709c-5.23,5.096-13.709,8.826-21.07,7.767
		c-5.008-0.72-10.066,1.262-11.52,6.567C472.408,440.379,475.145,446.764,480.186,447.489"/>
</g>
</svg>
