<?xml version="1.0" encoding="utf-8"?>
<!-- Generator: Adobe Illustrator 20.0.0, SVG Export Plug-In . SVG Version: 6.00 Build 0)  -->
<svg version="1.1" id="Layer_1" xmlns="http://www.w3.org/2000/svg" xmlns:xlink="http://www.w3.org/1999/xlink" x="0px" y="0px"
	 viewBox="0 0 1163 407" style="enable-background:new 0 0 1163 407;" xml:space="preserve">
<style type="text/css">
	.st0{fill:#414042;}
</style>
<title>Group</title>
<desc>Created with Sketch.</desc>
<g id="Welcome">
	<g id="Desktop-HD-Copy-2" transform="translate(-113.000000, -2959.000000)">
		<g id="Group" transform="translate(113.000000, 2959.000000)">
			<path id="Shape" class="st0" d="M925.7,95.2v-0.8c-28.3,9.4-36.9,35-36.9,55.8c0,24.8,12.2,37.3,29.9,52.7
				c17.7,15.3,29.5,22.4,29.5,42c0,9.4-2.8,21.2-23.6,39.3v0.8c22-18.9,24.4-30.7,24.4-40.4c0-21.6-11.4-31-31-49.1
				c-22.8-20.4-28.3-31.8-28.3-46.3C889.5,131.4,897.4,104.7,925.7,95.2L925.7,95.2z"/>
			<path id="Shape_1_" class="st0" d="M991.7,92.1c-20.8,0-40.9-8.2-80.6-22.4c-47.1-16.9-64.1-21.6-80.2-21.6
				c-23.6,0-64.9,10.2-64.9,53.4c0,35,27.6,53.4,54.3,58.6v-0.8c-30.7-6.3-53.5-25.6-53.5-58.1c0-43.2,40.5-51.1,59.4-51.1
				c23.2,0,48.8,12.2,80.2,22.8c29.1,9.8,60.1,21.2,83.7,21.2c25.9,0,61.7-14.1,68.8-49.1v-0.8C1049.2,81.9,1015.4,92.1,991.7,92.1
				L991.7,92.1z"/>
			<path id="Shape_2_" class="st0" d="M627.8,331c-83.7,0-133.3-62.9-133.3-155.7c0-60.1,19.7-127.3,67.3-127.3
				c21.8,0,31,11.2,43.6,25.6c-10.5,14.1-18.8,34-18.8,59.3c0,78.6,54.7,74.3,54.7,122.6c0,8.7-4.7,20.8-20.8,33v0.8
				c16.5-12.6,21.6-24.3,21.6-33.8c0-48.3-49.9-44-49.9-123c0-47.1,25.9-74.7,41.7-82.1c8.7,14.6,29.1,32.7,53.5,32.7
				c25.1,0,40.1-15.3,44.5-26.7H731c-5.1,13.3-21.2,25.9-43.7,25.9c-24.4,0-44.8-18.9-53.5-32.7c-8.1,3.5-18.9,11.4-28,23.5
				c-11.5-14.6-23.4-25.9-43.6-25.9c-49.1,0-73.2,68-73.2,128.9c0,92.8,55.5,155.7,138.8,155.7c65.3,0,102.6-40.9,105.4-67.6h-0.8
				C729.3,290.6,693.1,331,627.8,331L627.8,331z"/>
			<path id="Shape_3_" class="st0" d="M423.4,201.3c-16.1-12.6-28.7-25.9-28.7-39.3c0-31.4,32.7-34.2,42.9-34.6v-0.8
				c-0.8,0-18.9,2.3-18.9-30.2c0-25.9-22-50.3-55-50.3c-41.3,0-58.6,25.6-58.6,48.3c0,23.6,20,53,44.5,53v-0.7
				c-24.4,0-43.7-29.1-43.7-52.7c0-22.4,16.9-47.1,58.2-47.1c33,0,50.4,26.7,50.4,53c0,25.9,11.7,27.5,17.9,27.3
				C420.9,128,394,132.9,394,162c0,18.9,11,31.4,28.3,44.8c11,8.7,27.1,18.4,27.1,52.2c0,36.1-31.5,68.8-75.1,68.8
				c-18.5,0-33.5-10.6-45.2-17.3c-12.2-7.1-20-12.2-44-12.2c-12.2,0-21,3.8-29.3,8.9c24.8-20.3,55.3-63.7,55.3-127.5
				c0-64.4-22.8-129.7-79.8-129.7c-29.5,0-65.3,17.3-65.3,63.7c0,44.8,25.1,57,34.6,63.7c22.5,16.1,36.9,23.2,36.9,42.4
				c0,11.4-9.4,23.6-22,30.2v0.8c12.6-6.7,22.8-17.7,22.8-31c0-19.7-13.8-31.8-37.8-49.1c-8.7-6.3-33.8-20.8-33.8-57.8
				c0-46.3,36.9-62.1,64.5-62.1c57.8,0,74.7,65.2,74.7,131.7c0,77.8-35.8,115.9-60.9,131.7v0.1c-11.5,7.5-23.8,14.9-44,14.9
				c-19.2,0-32.2-9.8-43.7-17.7c-9.5-6.4-20-14.2-32.3-16.4c16.6-1.6,34.7-10.6,34.7-36.3V89.3c0-32.2-32.7-35-41.7-35
				c-18.5,0-34.2,11.8-34.2,35c0,23.6,12.6,38.6,23.6,53.9c15.3,21.2,20,28.7,20,42c0,31.8-34.2,46.3-36.9,50.3v0.8
				c3.6-5.1,37.8-19.2,37.8-51.4c0-19.7-11-35.8-19.2-47.9c-14.3-21.2-24.5-35-24.5-51.1c0-13.8,11.4-30.7,33.5-30.7
				c6.7,0,37.4,1.6,37.4,37.3v169c0,20-10.6,33-34.6,33v0.1c-0.6,0-1.3-0.1-2-0.1c-24.4,0-35.4,16.9-39.4,29.9v0.8
				c4.3-13.3,15.3-29.9,37.7-29.9c13.8,0,26.3,13.8,33,17.7c11,6.7,24,16.9,49.1,16.9c22.5,0,35.2-7.9,46.8-15.7c1.5-0.9,3-2,4.6-3
				c9.6-6.4,19.1-11.9,33.5-11.9c16.9,0,28.7,8.2,37.8,13.3c11,6.3,27.6,16.1,50.7,16.1c47.1,0,77.5-33.4,77.5-70.3
				C450.1,223,438.3,213.1,423.4,201.3L423.4,201.3z M435.2,127.1h1.2c-0.5,0-1.3,0-2.1,0.1C434.6,127.1,434.9,127.1,435.2,127.1
				L435.2,127.1z"/>
			<path id="Shape_4_" class="st0" d="M997.3,327.1c-18.5,0-34.6-7.1-78.3-29.9c-14.9-7.9-39.7-20.8-67.3-20.8
				c-30.2,0-49.1,16.1-64.9,46v1.2c16.1-32.7,36.9-44.8,59.8-44.8s48.8,12.2,66.5,21.2c29.1,14.9,52.3,28.7,80.6,28.7
				c41.7,0,57.8-29.4,64.9-52.7v-1.2C1051.1,298.5,1034.6,327.1,997.3,327.1L997.3,327.1z"/>
			<path id="Shape_5_" class="st0" d="M684.8,133.8c-44,0-32.7,51.9-61.7,60.6v0.8c28.3-7.4,16.9-57,64.9-57
				c25.6,0,34.6,13.8,39.7,30.7h0.8C725,154.6,712.7,133.8,684.8,133.8L684.8,133.8z"/>
		</g>
	</g>
</g>
</svg>
