<?xml version="1.0" encoding="iso-8859-1"?>
<!-- Generator: Adobe Illustrator 16.0.0, SVG Export Plug-In . SVG Version: 6.00 Build 0)  -->
<!DOCTYPE svg PUBLIC "-//W3C//DTD SVG 1.1//EN" "http://www.w3.org/Graphics/SVG/1.1/DTD/svg11.dtd">
<svg version="1.1" id="Layer_1" xmlns="http://www.w3.org/2000/svg" xmlns:xlink="http://www.w3.org/1999/xlink" x="0px" y="0px"
	 width="1500px" height="996.056px" viewBox="0 0 1500 996.056" style="enable-background:new 0 0 1500 996.056;"
	 xml:space="preserve">
<rect width="1500" height="996.056"/>
<path style="fill:#FFFFFF;" d="M713.023,584.695l10.106,4.105c-0.698,0.497-2.67,0.994-5.112,1.243v42.344
	c0,0.124-1.974,1.49-7.667,1.49v-3.606H276.658v2.487c0,0.062-0.465,1.618-7.553,1.618v-49.123l8.249,2.117h18.474
	c1.975-3.235,3.832-7.587,4.763-10.82l13.358,1.741c-0.348,0.623-1.51,0.994-4.18,0.932c-2.557,2.488-6.624,5.598-10.805,8.147
	h410.226L713.023,584.695z M710.35,588.862l-433.692-0.002v12.063l433.692,0.002V588.862z M710.35,602.417H276.658v12.312H710.35
	V602.417z M276.658,628.78H710.35V616.22H276.658V628.78z"/>
<path style="fill:#FFFFFF;" d="M1255.354,618.458l-0.232,10.322c3.367,0.622,3.948,0.81,3.948,1.43
	c0,1.741-2.904,2.615-12.778,2.615h-20.214c-9.525,0-11.617-0.936-11.617-5.6v-24.683H995.072c-0.699,0.371-1.976,0.56-4.185,0.619
	c-2.091,13.308-10.571,25.557-39.848,31.339l-1.045-1.057c24.396-5.971,31.366-17.845,32.528-30.901l-270.021,0.001l-4.667-1.495
	h291.651v-24.187l13.128,0.621c-0.117,0.996-1.394,1.432-5.46,1.679v21.887l235.189,0.001l5.692-3.917l11.034,4.103
	c-0.928,0.871-2.323,1.308-5.574,1.308h-28.115c-0.696,0.187-1.625,0.371-3.369,0.495v24.249c0,1.867,0.232,2.053,4.182,2.053
	h19.983c1.975,0,3.02-0.186,3.834-1.118c0.929-0.996,2.44-5.223,4.181-9.764H1255.354z M961.962,580.655
	c16.379,4.787,21.49,10.072,21.49,13.368c0,1.99-1.857,3.232-4.18,3.232c-1.047,0-2.326-0.248-3.485-0.87
	c-1.277-4.787-8.481-11.441-15.104-15.297L961.962,580.655z M1221.662,597.257c5.463-3.918,12.779-10.695,18.24-16.975l11.617,2.983
	c-0.581,0.497-1.276,0.809-2.905,0.809c-0.464,0-0.929,0-1.626-0.062c-7.086,5.224-15.916,10.569-23.699,13.928L1221.662,597.257z"
	/>
<g>
	<path style="fill:#FFFFFF;" d="M618.56,372.613h38.926v32.045h26.823v23.26h-26.823v54.355c0,11.63,4.036,14.242,15.19,14.242
		c5.46,0,7.833-0.239,11.869-0.713v28.009c-9.496,0.948-18.99,1.899-28.483,1.899c-8.309,0-16.614-0.951-23.262-4.273
		c-14.005-7.359-14.24-20.175-14.24-29.195v-64.324h-19.465v-23.26h19.465V372.613z"/>
</g>
<g>
	<path style="fill:#FFFFFF;" d="M849.438,462.81c0,43.675-37.028,66.936-82.125,66.936c-49.134,0-82.602-25.397-82.602-65.035
		c0-40.353,36.078-65.751,84.025-65.512C821.43,399.437,849.438,428.631,849.438,462.81z M725.3,465.184
		c0,6.647,2.61,35.604,42.248,35.604c32.282,0,41.54-20.65,41.54-37.265c0-21.363-16.615-37.028-43.911-35.604
		C736.693,429.342,725.3,446.669,725.3,465.184z"/>
</g>
<g>
	<path style="fill:#FFFFFF;" d="M862.015,357.185h38.929V524.76h-38.929V357.185z"/>
</g>
<g>
	<path style="fill:#FFFFFF;" d="M1081.328,404.658h52.932l28.72,35.365l28.482-35.365h52.221l-55.304,55.304l63.135,64.8
		l-52.217-0.002l-36.317-43.436l-37.265,43.436h-52.692l63.61-64.798L1081.328,404.658z"/>
</g>
<path style="fill:#FFFFFF;" d="M413.373,510.045v-56.492c0-25.159,0.238-53.167-71.919-53.167c-11.394,0-38.69,0.236-55.068,10.442
	c-14.003,9.021-16.14,20.412-17.563,27.532h39.638c3.085-9.729,18.751-10.918,31.806-10.918c32.252,0,33.863,10.006,33.743,19.662
	H257.462l-0.125,17.326c-0.02,2.716,0.354,27.093,19.291,46.165c13.706,13.806,32.934,20.806,57.152,20.806v-34.904
	c-17.077,0-29.076-4.872-35.681-14.488h75.873v29.936c0.237,3.321,0.476,7.119,2.375,12.815h46.85
	C418.924,519.063,413.848,516.454,413.373,510.045z"/>
<path style="fill:#FFFFFF;" d="M505.438,532.188c-43.47,0-72.702-20.2-72.702-59.994v-66.975h39.269l-0.009,60.212
	c0,24.695,8.298,36.708,33.442,36.708c26.777,0,34.632-12.909,34.632-36.708v-60.212h39.269v67.482
	C579.338,514.823,547.05,532.188,505.438,532.188z"/>
<path style="fill:#FFFFFF;" d="M997.604,531.314c-39.253,0-74.447-17.365-74.447-57.158v-69.81h39.267l-0.007,60.212
	c0,24.695,8.08,36.708,35.188,36.708c25.469,0,32.887-14.894,32.887-38.693v-58.227h39.267v67.482
	C1069.757,513.949,1035.854,531.314,997.604,531.314z"/>
<rect x="166.62" y="247.595" style="fill:none;stroke:#FFFFFF;stroke-width:6;stroke-miterlimit:10;" width="1187.941" height="464.978"/>
</svg>
