<?xml version="1.0" encoding="iso-8859-1"?>
<!-- Generator: Adobe Illustrator 16.0.0, SVG Export Plug-In . SVG Version: 6.00 Build 0)  -->
<!DOCTYPE svg PUBLIC "-//W3C//DTD SVG 1.1//EN" "http://www.w3.org/Graphics/SVG/1.1/DTD/svg11.dtd">
<svg version="1.1" id="Layer_1" xmlns="http://www.w3.org/2000/svg" xmlns:xlink="http://www.w3.org/1999/xlink" x="0px" y="0px"
	 width="1223px" height="705px" viewBox="0 0 1223 705" style="enable-background:new 0 0 1223 705;" xml:space="preserve">
<rect style="fill:#F6F6F6;" width="1223" height="705"/>
<g>
	<path d="M33.408,348.332c0-18.458,13.708-28.738,27.414-28.738c12.617,0,21.496,6.854,24.301,17.523l-7.088,2.492
		c-2.104-8.334-8.178-13.006-17.213-13.006c-10.047,0-19.625,7.32-19.625,21.729c0,14.409,9.578,21.809,19.625,21.809
		c9.424,0,15.344-5.687,17.603-13.24l6.774,2.492c-2.958,10.357-11.683,17.756-24.377,17.756
		C46.571,377.146,33.408,366.789,33.408,348.332"/>
	<polygon points="95.318,375.979 95.318,320.762 128.885,320.762 128.885,327.85 102.949,327.85 102.949,345.604 126.472,345.604 
		126.472,352.771 102.949,352.771 102.949,375.979 	"/>
	<path d="M134.254,365.542c3.039,0,5.453,2.415,5.453,5.453c0,3.036-2.415,5.374-5.453,5.374c-3.037,0-5.375-2.338-5.375-5.374
		C128.88,367.958,131.217,365.542,134.254,365.542"/>
	<path d="M944.128,375.98l-0.7-7.787c-2.414,4.361-8.412,8.955-17.679,8.955c-13.864,0-26.792-10.123-26.792-28.813
		c0-18.692,13.709-28.739,27.336-28.739c11.994,0,21.264,6.696,24.455,16.666l-6.932,2.959c-2.491-7.945-8.955-12.617-17.523-12.617
		c-9.891,0-19.547,7.088-19.547,21.731c0,14.64,9.346,21.884,19.238,21.884c12.303,0,16.741-8.725,17.054-14.408H923.88v-6.854
		h26.401v27.025h-6.153V375.98z"/>
	<path d="M993.345,357.212c0,11.446-7.946,19.938-19.162,19.938s-19.156-8.491-19.156-19.938c0-11.371,7.94-19.86,19.156-19.86
		S993.345,345.841,993.345,357.212 M985.866,357.212c0-8.646-5.452-13.319-11.685-13.319c-6.229,0-11.682,4.674-11.682,13.319
		c0,8.724,5.452,13.396,11.682,13.396C980.414,370.607,985.866,365.936,985.866,357.212"/>
	<rect x="999.567" y="319.594" width="7.321" height="56.387"/>
	<path d="M1042.479,370.295c-1.787,3.583-5.762,6.698-11.604,6.698c-10.98,0-17.758-8.724-17.758-19.858
		c0-10.594,7.166-19.627,17.758-19.627c6.62,0,10.202,3.27,11.447,6.307v-24.221h7.246v49.456c0,3.582,0.31,6.31,0.388,6.933h-7.086
		c-0.157-0.856-0.393-2.807-0.393-5.062L1042.479,370.295L1042.479,370.295z M1031.577,370.529c6.696,0,10.826-5.84,10.826-13.551
		s-4.052-13.006-10.748-13.006c-6.699,0-11.062,5.45-11.062,13.162C1020.595,364.844,1024.567,370.529,1031.577,370.529"/>
	<path d="M1058.907,375.98v-37.459h7.01v4.982c2.338-4.127,7.009-6.076,11.369-6.076c4.675,0,9.192,2.262,11.216,7.088
		c2.961-5.373,7.787-7.088,12.541-7.088c6.542,0,12.928,4.44,12.928,14.252v24.301h-7.244v-23.521c0-4.906-2.415-8.564-7.944-8.564
		c-5.138,0-8.645,4.051-8.645,9.424v22.662h-7.318v-23.521c0-4.826-2.339-8.564-7.943-8.564c-5.222,0-8.723,3.894-8.723,9.502
		v22.584H1058.907z"/>
	<path d="M1131.562,354.562l10.128-1.479c2.257-0.312,2.88-1.48,2.88-2.807c0-3.66-2.415-6.695-8.102-6.695
		c-5.139,0-8.021,3.193-8.487,7.555l-7.009-1.636c0.778-7.166,7.24-12.149,15.344-12.149c11.214,0,15.572,6.385,15.572,13.707
		v18.771c0,3.271,0.313,5.218,0.468,6.151h-7.163c-0.154-0.935-0.391-2.336-0.391-5.062c-1.636,2.646-5.375,6.229-12.07,6.229
		c-7.633,0-12.54-5.297-12.54-11.215C1120.192,359.238,1125.101,355.499,1131.562,354.562 M1144.57,359.936v-1.713l-11.449,1.713
		c-3.115,0.469-5.45,2.262-5.45,5.609c0,2.805,2.335,5.451,6.072,5.451C1139.741,370.997,1144.57,368.115,1144.57,359.936"/>
	<path d="M1165.905,375.98h-7.321v-37.459h7.166v5.373c2.725-4.672,7.165-6.465,11.524-6.465c8.958,0,13.397,6.465,13.397,14.799
		v23.754h-7.321v-22.51c0-5.217-2.181-9.424-8.724-9.424c-5.764,0-8.723,4.596-8.723,10.28L1165.905,375.98L1165.905,375.98z"/>
</g>
</svg>
