<?xml version="1.0" encoding="utf-8"?>
<!-- Generator: Adobe Illustrator 15.0.0, SVG Export Plug-In . SVG Version: 6.00 Build 0)  -->
<!DOCTYPE svg PUBLIC "-//W3C//DTD SVG 1.1//EN" "http://www.w3.org/Graphics/SVG/1.1/DTD/svg11.dtd">
<svg version="1.1" id="Layer_1" xmlns="http://www.w3.org/2000/svg" xmlns:xlink="http://www.w3.org/1999/xlink" x="0px" y="0px"
	 width="724.133px" height="422.208px" viewBox="0 0 724.133 422.208" enable-background="new 0 0 724.133 422.208"
	 xml:space="preserve">
<path fill="none" stroke="#000000" stroke-miterlimit="10" d="M0.656,386.783c-1.125-8.153,4.069-15.46,7.696-22.399
	c34.489-65.992,69.254-131.045,110.151-193.389c21.688-33.061,46.007-67.66,78.375-91.347c5.699-4.17,13.47-10.603,20.474-11.94
	c1.678,5.716-37.088,93.722-52.354,133.117c-14.245,36.76-29.527,72.77-41.664,110.255c2.507-14.61,19.41-31.26,27.964-41.698
	C187.592,225.091,226.69,182.549,268.078,143c21.814-20.844,43.942-43.454,69.343-60.038c4.3-2.808,13.568-9.926,19.384-8.328
	c-0.005,9.083-12.934,23.143-16.607,28.487c-36.188,52.648-72.709,104.309-102.019,161.273
	c-23.402,45.481-44.333,92.317-65.028,139.076c-1.453,3.283-5.365,12.353-7.136,15.014c3.367-9.314,14.613-19.853,20.491-26.867
	c29.501-35.211,61.14-68.68,93.395-101.38c53.789-54.531,110.28-105.905,170.381-153.418
	c46.689-36.91,96.256-76.228,150.749-101.147c34.341-15.704,69.676-29.282,107.345-33.58c5.473-0.625,13.454-4.07,15.281,1.692"/>
<circle fill="none" stroke="#000000" stroke-miterlimit="10" cx="585.656" cy="225.783" r="7"/>
</svg>
