<?xml version="1.0" encoding="utf-8"?>
<!-- Generator: Adobe Illustrator 15.0.0, SVG Export Plug-In . SVG Version: 6.00 Build 0)  -->
<!DOCTYPE svg PUBLIC "-//W3C//DTD SVG 1.1//EN" "http://www.w3.org/Graphics/SVG/1.1/DTD/svg11.dtd">
<svg version="1.1" id="Layer_1" xmlns="http://www.w3.org/2000/svg" xmlns:xlink="http://www.w3.org/1999/xlink" x="0px" y="0px"
	 width="249.056px" height="485.826px" viewBox="0 0 249.056 485.826" enable-background="new 0 0 249.056 485.826"
	 xml:space="preserve">
<circle fill="none" stroke="#000000" stroke-miterlimit="10" cx="203.565" cy="254.989" r="4.799"/>
<circle fill="none" stroke="#000000" stroke-miterlimit="10" cx="40.283" cy="62.672" r="5.328"/>
<circle fill="none" stroke="#000000" stroke-miterlimit="10" cx="177.292" cy="409.799" r="5.328"/>
<path fill="none" stroke="#000000" stroke-miterlimit="10" d="M215.815,5.292c-12.81-0.012-27.503-2.057-39.979,0.922
	c-13.296,3.175-27.194,11.684-37.728,20.108c-25.299,20.23-47.642,55.843-28.06,86.443c14.014,21.9,31.048,40.879,56.443,49.349
	c15.697,5.235,39.637,14.63,51.399-1.021c9.687-12.89,1.879-15.241-9.536-20.498c-17.673-8.138-32.458-7.213-51.077-3.119
	c-12.99,2.856-25.839,6.184-38.254,11.151c-14.977,5.992-37.925,14.848-43.801,31.558c-6.387,18.165-7.218,40.591-10.249,59.729
	c-0.896,5.654-2.859,12.043-2.568,17.862c0.646,12.945,9.619,20.068,19.344,27.98c20.592,16.753,54.086,42.718,56.274,71.72
	c1.451,19.245-12.902,18.088-23.672,29.001c-6.696,6.786-12.159,20.257-16.204,28.308c-7.907,15.739-15.272,31.996-24.292,47.145
	c-4.179,7.019-8.855,16.247-16.286,20.308c-15.984,8.735-43.786-3.077-57.33-10.553"/>
<line fill="none" stroke="#000000" stroke-miterlimit="10" x1="128.111" y1="172.505" x2="248.603" y2="429.882"/>
<line fill="none" stroke="#000000" stroke-miterlimit="10" x1="147.783" y1="89.718" x2="248.603" y2="0.374"/>
</svg>
