<?xml version="1.0" encoding="utf-8"?>
<!-- Generator: Adobe Illustrator 15.0.0, SVG Export Plug-In . SVG Version: 6.00 Build 0)  -->
<!DOCTYPE svg PUBLIC "-//W3C//DTD SVG 1.1//EN" "http://www.w3.org/Graphics/SVG/1.1/DTD/svg11.dtd">
<svg version="1.1" id="Layer_1" xmlns="http://www.w3.org/2000/svg" xmlns:xlink="http://www.w3.org/1999/xlink" x="0px" y="0px"
	 width="1200.485px" height="265.255px" viewBox="-237.934 0 1200.485 265.255"
	 enable-background="new -237.934 0 1200.485 265.255" xml:space="preserve">
<path fill="none" stroke="#000000" stroke-miterlimit="10" d="M-237.674,246.312c-1.868-5.189,6.753-9.839,12.774-14.255
	c57.248-41.993,114.955-83.39,182.839-123.062C-6.062,87.957,34.305,65.94,88.033,50.867c9.461-2.653,22.36-6.747,33.985-7.598
	c2.785,3.638-61.562,59.64-86.902,84.709c-23.646,23.391-49.011,46.308-69.158,70.161c4.161-9.297,32.219-19.894,46.417-26.535
	c60.245-28.186,125.144-55.256,193.843-80.423c36.208-13.264,72.939-27.652,115.102-38.205c7.137-1.787,22.522-6.316,32.175-5.3
	c-0.009,5.78-21.469,14.727-27.565,18.128c-60.069,33.502-120.689,66.377-169.341,102.626c-38.846,28.941-73.588,58.746-107.94,88.5
	c-2.412,2.09-8.906,7.862-11.846,9.557c5.589-5.928,24.256-12.635,34.013-17.097c48.969-22.407,101.487-43.707,155.026-64.515
	c89.285-34.7,183.055-67.392,282.817-97.626c77.497-23.488,159.773-48.508,250.228-64.365
	c57.003-9.993,115.654-18.633,178.183-21.369c9.082-0.397,22.333-2.59,25.363,1.077"/>
</svg>
