<?xml version="1.0" encoding="utf-8"?>
<!-- Generator: Adobe Illustrator 15.0.0, SVG Export Plug-In . SVG Version: 6.00 Build 0)  -->
<!DOCTYPE svg PUBLIC "-//W3C//DTD SVG 1.1//EN" "http://www.w3.org/Graphics/SVG/1.1/DTD/svg11.dtd">
<svg version="1.1" id="Layer_1" xmlns="http://www.w3.org/2000/svg" xmlns:xlink="http://www.w3.org/1999/xlink" x="0px" y="0px"
	 width="962.552px" height="421.51px" viewBox="-238.434 0.001 962.552 421.51"
	 enable-background="new -238.434 0.001 962.552 421.51" xml:space="preserve">
<path fill="none" stroke="#000000" stroke-miterlimit="10" d="M-237.726,386.784c-1.496-8.154,5.41-15.461,10.233-22.4
	c45.86-65.991,92.088-131.045,146.469-193.388c28.838-33.061,61.176-67.66,104.216-91.347c7.579-4.17,17.912-10.603,27.225-11.94
	c2.231,5.716-49.316,93.722-69.616,133.117c-18.942,36.759-39.262,72.77-55.401,110.255c3.333-14.61,25.81-31.261,37.184-41.699
	C10.845,225.09,62.834,182.549,117.868,143c29.006-20.844,58.43-43.454,92.206-60.038c5.717-2.808,18.042-9.926,25.775-8.328
	c-0.007,9.083-17.198,23.143-22.082,28.487c-48.12,52.648-96.682,104.309-135.656,161.273
	c-31.119,45.48-58.95,92.316-86.469,139.074c-1.932,3.283-7.134,12.354-9.489,15.017c4.477-9.314,19.431-19.854,27.247-26.867
	c39.228-35.211,81.299-68.683,124.188-101.382c71.525-54.53,146.642-105.904,226.559-153.417
	C422.229,99.909,488.14,60.591,560.6,35.672c45.664-15.704,92.649-29.282,142.738-33.58c7.276-0.625,17.89-4.07,20.319,1.692"/>
<circle fill="none" stroke="#000000" stroke-miterlimit="10" cx="585.656" cy="225.784" r="7"/>
</svg>
