<?xml version="1.0" encoding="utf-8"?>
<!-- Generator: Adobe Illustrator 15.0.0, SVG Export Plug-In . SVG Version: 6.00 Build 0)  -->
<!DOCTYPE svg PUBLIC "-//W3C//DTD SVG 1.1//EN" "http://www.w3.org/Graphics/SVG/1.1/DTD/svg11.dtd">
<svg version="1.1" id="Layer_1" xmlns="http://www.w3.org/2000/svg" xmlns:xlink="http://www.w3.org/1999/xlink" x="0px" y="0px"
	 width="1070.888px" height="385px" viewBox="0 0 1070.888 385" enable-background="new 0 0 1070.888 385" xml:space="preserve">
<g>
	<path fill="#333333" d="M128.739,36.997v-11.84h59.881v11.84h-23.418v63.286h-13.097V36.997H128.739z"/>
	<path fill="#333333" d="M197.295,100.283V25.157h12.259v29.076c0.489-1.152,1.257-2.209,2.305-3.17
		c1.047-0.96,2.245-1.781,3.588-2.461c1.345-0.682,2.83-1.214,4.455-1.598c1.624-0.385,3.291-0.577,5.003-0.577
		c2.515,0,4.854,0.358,7.02,1.074c2.166,0.716,4.034,1.807,5.606,3.274c1.571,1.467,2.811,3.327,3.719,5.579
		c0.908,2.253,1.362,4.916,1.362,7.989v35.939h-12.364V65.392c0-2.375-0.715-4.487-2.147-6.338
		c-1.433-1.852-3.546-2.777-6.339-2.777c-1.642,0-3.179,0.289-4.61,0.864c-1.432,0.577-2.716,1.424-3.85,2.542
		c-1.136,1.117-2.026,2.497-2.673,4.138c-0.646,1.642-0.97,3.563-0.97,5.763v30.7H197.295z"/>
	<path fill="#333333" d="M250.604,73.984c0-3.808,0.576-7.387,1.729-10.74c1.153-3.353,2.812-6.278,4.978-8.775
		c2.165-2.497,4.828-4.479,7.988-5.946c3.162-1.467,6.768-2.2,10.819-2.2c3.693,0,7.049,0.602,10.062,1.807
		c3.014,1.205,5.595,2.995,7.737,5.37c2.143,2.375,3.78,5.292,4.915,8.749c1.132,3.458,1.699,7.404,1.699,11.84
		c0,0.489,0,0.969,0,1.441c0,0.471-0.035,1.109-0.105,1.912h-37.354c0.35,4.117,1.72,7.453,4.113,10.004
		c2.393,2.551,5.3,3.827,8.722,3.827c5.869,0,9.746-2.725,11.631-8.173h12.158c-0.559,2.654-1.517,5.107-2.876,7.36
		c-1.358,2.252-3.041,4.217-5.045,5.894c-2.003,1.677-4.322,2.986-6.952,3.929c-2.633,0.943-5.5,1.415-8.6,1.415
		c-3.877,0-7.396-0.734-10.558-2.201c-3.16-1.466-5.85-3.458-8.066-5.972c-2.218-2.515-3.938-5.449-5.161-8.802
		S250.604,77.791,250.604,73.984z M263.282,68.64h24.884c0-1.515-0.27-3.03-0.812-4.542c-0.542-1.515-1.326-2.853-2.357-4.016
		s-2.323-2.104-3.877-2.827c-1.554-0.722-3.327-1.083-5.317-1.083c-2.062,0-3.86,0.36-5.396,1.083
		c-1.537,0.723-2.846,1.683-3.928,2.879c-1.083,1.198-1.887,2.537-2.411,4.017C263.543,65.63,263.282,67.125,263.282,68.64z"/>
	<path fill="#333333" d="M325.889,100.283l25.513-75.126h16.765l25.514,75.126h-12.835l-6.234-18.546h-29.6l-6.234,18.546H325.889z
		 M349.044,69.897h21.48l-10.741-32.167L349.044,69.897z"/>
	<path fill="#333333" d="M390.46,47.685h13.621l11.762,38.453l12.129-38.453h12.888l-18.69,52.598h-13.173L390.46,47.685z"/>
	<path fill="#333333" d="M442.147,73.984c0-3.808,0.576-7.387,1.729-10.74c1.151-3.353,2.811-6.278,4.978-8.775
		c2.165-2.497,4.828-4.479,7.988-5.946s6.768-2.2,10.819-2.2c3.692,0,7.047,0.602,10.062,1.807c3.015,1.205,5.595,2.995,7.735,5.37
		c2.145,2.375,3.782,5.292,4.916,8.749c1.131,3.458,1.698,7.404,1.698,11.84c0,0.489,0,0.969,0,1.441
		c0,0.471-0.034,1.109-0.104,1.912h-37.354c0.35,4.117,1.721,7.453,4.113,10.004c2.392,2.551,5.3,3.827,8.722,3.827
		c5.868,0,9.745-2.725,11.631-8.173h12.159c-0.559,2.654-1.518,5.107-2.878,7.36c-1.357,2.252-3.04,4.217-5.044,5.894
		c-2.005,1.676-4.322,2.986-6.952,3.929c-2.633,0.943-5.499,1.415-8.602,1.415c-3.877,0-7.396-0.734-10.556-2.2
		c-3.161-1.467-5.851-3.458-8.068-5.973c-2.218-2.515-3.938-5.449-5.161-8.802C442.758,81.371,442.147,77.791,442.147,73.984z
		 M454.825,68.641h24.885c0-1.516-0.271-3.03-0.812-4.543c-0.542-1.515-1.328-2.853-2.357-4.016
		c-1.031-1.164-2.323-2.104-3.877-2.827c-1.556-0.722-3.327-1.083-5.318-1.083c-2.061,0-3.858,0.36-5.396,1.083
		c-1.537,0.723-2.847,1.683-3.93,2.879c-1.082,1.198-1.885,2.537-2.41,4.017C455.087,65.63,454.825,67.125,454.825,68.641z"/>
	<path fill="#333333" d="M498.652,100.283V47.475h12.26v5.213c1.642-2,3.388-3.525,5.238-4.577c1.852-1.053,4.069-1.579,6.654-1.579
		c1.642,0,3.266,0.193,4.872,0.577c1.606,0.385,3.091,1.015,4.452,1.892l-3.3,12.039c-2.725-1.777-5.309-2.668-7.754-2.668
		c-1.292,0-2.54,0.236-3.746,0.708c-1.204,0.472-2.271,1.186-3.195,2.144c-0.926,0.96-1.677,2.189-2.252,3.689
		c-0.577,1.501-0.864,3.298-0.864,5.389v29.982H498.652z"/>
	<path fill="#333333" d="M535.769,47.685h13.517l10.949,37.249l11.055-37.249h13.096l-9.604,29.241l-10.346,30.749
		c-0.419,1.22-1.058,2.652-1.912,4.293c-0.86,1.642-1.992,3.229-3.388,4.768c-1.397,1.534-3.118,2.844-5.161,3.927
		c-2.043,1.083-4.497,1.625-7.36,1.625c-0.874,0-1.72-0.035-2.542-0.105c-0.82-0.069-1.545-0.174-2.174-0.314l-2.147-0.471v-11.264
		c0.141,0.07,0.313,0.148,0.524,0.236c0.209,0.087,0.471,0.167,0.786,0.236c0.873,0.209,1.974,0.314,3.3,0.314
		c1.012,0,2.121-0.236,3.326-0.708c1.206-0.471,2.21-1.161,3.013-2.069c0.559-0.699,1.073-1.537,1.546-2.515
		c0.472-0.978,0.847-1.868,1.126-2.671l0.839-2.882L535.769,47.685z"/>
	<path fill="#333333" d="M613.724,100.283V25.157h33.415c3.074,0,6.156,0.271,9.264,0.812c3.102,0.542,5.895,1.563,8.393,3.065
		c2.488,1.502,4.531,3.615,6.121,6.339c1.58,2.725,2.375,6.27,2.375,10.635c0,2.725-0.402,5.047-1.197,6.968
		c-0.803,1.921-1.797,3.528-2.994,4.82c-1.195,1.292-2.523,2.314-3.992,3.064c-1.457,0.751-2.879,1.319-4.268,1.703
		c-1.389,0.385-2.629,0.638-3.721,0.76c-1.1,0.123-1.902,0.184-2.426,0.184c2.129,0.419,3.955,1.091,5.465,2.017
		c1.52,0.925,2.742,2.02,3.668,3.277c0.926,1.258,1.623,2.62,2.096,4.086c0.461,1.467,0.768,2.917,0.906,4.349
		c0.926,5.571,1.617,9.716,2.07,12.434c0.453,2.715,1.012,4.667,1.686,5.854c0.672,1.185,1.238,1.988,1.729,2.405
		c0.48,0.419,0.717,1.205,0.717,2.355h-14.67c-1.004-0.873-1.781-2-2.322-3.379c-0.541-1.381-0.898-2.993-1.092-4.837
		c-0.193-1.844-0.393-3.829-0.611-5.951c-0.219-2.123-0.445-4.37-0.689-6.736c-0.141-1.433-0.516-2.829-1.127-4.191
		c-0.611-1.362-1.457-2.567-2.541-3.615c-1.082-1.048-2.41-1.886-3.982-2.515c-1.57-0.628-3.422-0.943-5.553-0.943h-13.619v32.167
		H613.724z M626.822,57.062h19.277c4.506,0,7.982-0.882,10.426-2.646c2.445-1.764,3.668-4.462,3.668-8.094
		c0-3.632-1.223-6.226-3.668-7.78c-2.443-1.554-5.92-2.331-10.426-2.331h-19.277V57.062z"/>
	<path fill="#333333" d="M679.306,73.984c0-3.808,0.576-7.387,1.729-10.74c1.152-3.353,2.812-6.278,4.977-8.775
		c2.166-2.497,4.828-4.479,7.99-5.946c3.16-1.467,6.766-2.2,10.818-2.2c3.693,0,7.045,0.602,10.066,1.807
		c3.014,1.205,5.59,2.995,7.738,5.37c2.139,2.375,3.779,5.292,4.916,8.749c1.125,3.458,1.693,7.404,1.693,11.84
		c0,0.489,0,0.969,0,1.441c0,0.471-0.035,1.109-0.105,1.912h-37.354c0.35,4.117,1.719,7.453,4.113,10.004
		c2.393,2.551,5.299,3.827,8.723,3.827c5.867,0,9.744-2.725,11.629-8.173h12.164c-0.559,2.654-1.52,5.107-2.881,7.36
		c-1.354,2.252-3.039,4.217-5.047,5.894c-2,1.676-4.322,2.986-6.951,3.929c-2.627,0.943-7.5,1.415-10.6,1.415
		c-3.877,0-5.396-0.734-8.557-2.2c-3.162-1.467-5.85-3.458-8.068-5.973c-2.217-2.515-3.938-5.449-5.16-8.802
		C679.917,81.371,679.306,77.791,679.306,73.984z M691.984,68.641h24.887c0-1.516-0.271-3.03-0.814-4.543
		c-0.539-1.515-1.326-2.853-2.357-4.016c-1.029-1.164-2.322-2.104-3.877-2.827c-1.553-0.722-3.326-1.083-5.316-1.083
		c-2.061,0-3.859,0.36-5.395,1.083c-1.537,0.723-2.848,1.683-3.93,2.879c-1.084,1.198-1.887,2.537-2.41,4.017
		C692.246,65.63,691.984,67.125,691.984,68.641z"/>
	<path fill="#333333" d="M732.613,47.685h13.621l11.762,38.453l12.127-38.453h12.889l-18.686,52.598H751.15L732.613,47.685z"/>
	<path fill="#333333" d="M789.218,37.731V25.157h13.674v12.574H789.218z M789.9,100.283V47.685h12.365v52.598H789.9z"/>
	<path fill="#333333" d="M813.554,73.984c0-3.808,0.576-7.387,1.729-10.74c1.152-3.353,2.811-6.278,4.977-8.775
		s4.828-4.479,7.99-5.946c3.16-1.467,6.766-2.2,10.818-2.2c3.691,0,7.045,0.602,10.066,1.807c3.014,1.205,5.588,2.995,7.736,5.37
		c2.139,2.375,3.781,5.292,4.916,8.749c1.125,3.458,1.695,7.404,1.695,11.84c0,0.489,0,0.969,0,1.441
		c0,0.471-0.037,1.109-0.105,1.912h-37.354c0.35,4.117,1.719,7.453,4.113,10.004c2.391,2.551,5.299,3.827,8.721,3.827
		c5.867,0,9.744-2.725,11.631-8.173h12.164c-0.561,2.654-1.521,5.107-2.883,7.36c-1.354,2.252-3.037,4.217-5.047,5.894
		c-1.998,1.676-4.322,2.986-6.949,3.929c-2.629,0.943-7.5,1.415-10.602,1.415c-3.877,0-5.395-0.734-8.557-2.2
		c-3.16-1.467-5.85-3.458-8.066-5.973c-2.219-2.515-3.939-5.449-5.162-8.802C814.166,81.371,813.554,77.791,813.554,73.984z
		 M826.232,68.641h24.885c0-1.516-0.27-3.03-0.812-4.543c-0.541-1.515-1.326-2.853-2.355-4.016
		c-1.031-1.164-2.324-2.104-3.879-2.827c-1.555-0.722-3.326-1.083-5.318-1.083c-2.059,0-3.857,0.36-5.395,1.083
		c-1.537,0.723-2.846,1.683-3.93,2.879c-1.082,1.198-1.885,2.537-2.41,4.017C826.494,65.63,826.232,67.125,826.232,68.641z"/>
	<path fill="#333333" d="M865.82,47.685h13.518l9.115,38.453l10.059-38.453h11.01l10.434,38.462l9.117-38.462h13.516l-15.664,52.598
		h-12.852l-8.916-32.062l-1.301-4.942l-1.293,4.817l-8.66,32.187h-12.416L865.82,47.685z"/>
	<path fill="#333333" d="M67.792,160.214h-0.891c-0.664-3.772-2.436-6.968-5.317-9.587c-2.882-2.619-6.191-4.531-9.928-5.736
		c-3.738-1.206-7.23-1.807-10.478-1.807c-4.436,0-8.601,0.934-12.495,2.802c-3.894,1.868-7.256,4.505-10.085,7.911
		c-2.828,3.406-5.029,7.492-6.601,12.259c-1.572,4.768-2.357,9.946-2.357,15.533c0,5.414,0.759,10.434,2.279,15.062
		c1.519,4.629,3.737,8.646,6.653,12.051c2.917,3.404,6.296,5.98,10.138,7.727c3.842,1.747,8.103,2.62,12.783,2.62
		c3.912,0,8.208-0.795,12.888-2.384c4.68-1.59,8.906-4.235,12.678-7.938v2.986c-4.645,3.598-8.897,6.234-12.757,7.911
		c-3.859,1.676-8.67,2.515-14.433,2.515c-6.077,0-11.622-1.109-16.633-3.327c-5.012-2.218-9.247-5.213-12.705-8.984
		c-3.458-3.772-6.078-8.016-7.858-12.73C0.891,192.381,0,187.526,0,182.532c0-7.508,1.851-14.484,5.553-20.929
		c3.702-6.443,8.714-11.542,15.036-15.297s13.185-5.631,20.589-5.631c4.575,0,9.447,0.681,14.617,2.043l5.449,1.519
		c1.048,0.21,1.938,0.314,2.671,0.314c1.362,0,2.271-0.2,2.725-0.601c0.454-0.402,0.803-1.127,1.048-2.175h0.838L67.792,160.214z"/>
	<path fill="#333333" d="M76.174,144.026h-1.048v-1.101h26.719c4.295,0,7.937,0.664,10.923,1.99
		c2.986,1.328,5.309,3.013,6.968,5.056c1.659,2.044,2.846,4.2,3.562,6.47c0.716,2.271,1.074,4.505,1.074,6.706
		c0,2.794-0.585,5.475-1.755,8.042c-1.169,2.566-2.968,4.776-5.396,6.627c-2.427,1.851-5.457,3.107-9.089,3.771v0.21
		c4.61,2.235,8.871,6.67,12.783,13.306l6.968,11.788c3.143,5.273,5.667,8.608,7.57,10.006s3.78,2.183,5.632,2.357v0.839h-14.041
		c-0.594-0.77-1.152-1.512-1.676-2.227c-0.524-0.717-1.083-1.476-1.677-2.279c-0.349-0.524-0.864-1.319-1.545-2.384
		s-1.091-1.668-1.231-1.807l-9.221-15.247c-1.851-3.107-3.746-5.631-5.684-7.569c-1.938-1.939-3.746-3.327-5.422-4.166
		c-1.676-0.839-3.187-1.362-4.531-1.571c-1.345-0.21-2.925-0.315-4.742-0.315v28.238c0,5.483,2.794,8.312,8.382,8.487v0.839h-24.57
		v-0.839c1.537-0.069,2.899-0.358,4.086-0.864s2.174-1.379,2.96-2.619c0.786-1.239,1.179-2.908,1.179-5.004v-58.361
		c0-3.074-0.751-5.239-2.252-6.496C79.597,144.655,77.955,144.026,76.174,144.026z M91.314,180.489h4.401
		c4.61,0,8.391-0.663,11.342-1.991c2.952-1.326,5.09-3.222,6.417-5.684c1.327-2.462,1.991-5.475,1.991-9.038
		c0-2.968-0.594-5.876-1.781-8.722c-1.188-2.846-3.205-5.239-6.052-7.178c-2.846-1.938-6.679-2.907-11.499-2.907
		c-1.956,0-3.562,0.158-4.82,0.472V180.489z"/>
	<path fill="#333333" d="M170.265,142.926v0.892c-2.305,0-4.261,0.646-5.868,1.938c-1.606,1.292-2.41,3.44-2.41,6.443v58.571
		c0,2.97,0.855,5.126,2.567,6.47c1.711,1.345,3.615,2.018,5.71,2.018v0.839h-24.466v-0.839c2.236,0,4.166-0.655,5.79-1.965
		s2.436-3.483,2.436-6.522v-58.571c0-3.213-0.812-5.413-2.436-6.601c-1.624-1.187-3.554-1.78-5.79-1.78v-0.892H170.265z"/>
	<path fill="#333333" d="M243.924,157.962h-0.839c-0.384-5.03-1.851-8.286-4.4-9.771c-2.55-1.484-5.694-2.227-9.43-2.227h-15.35
		v64.806c0,5.483,2.794,8.312,8.382,8.487v0.839h-24.571v-0.839c2.306-0.069,4.252-0.742,5.841-2.018
		c1.59-1.273,2.384-3.431,2.384-6.47v-64.806h-15.35c-3.737,0-6.872,0.742-9.404,2.227c-2.532,1.486-4.008,4.741-4.427,9.771h-0.837
		v-18.86h0.837c0.559,0.873,1.048,1.52,1.467,1.939c0.419,0.418,0.961,0.776,1.625,1.074c0.663,0.297,1.44,0.506,2.33,0.628
		c0.892,0.122,1.948,0.183,3.17,0.183h49.979c3.318,0,5.903-1.275,7.754-3.824h0.839V157.962z"/>
	<path fill="#333333" d="M274.205,142.926v0.892c-2.306,0-4.261,0.646-5.868,1.938c-1.606,1.292-2.41,3.44-2.41,6.443v58.571
		c0,2.97,0.854,5.126,2.566,6.47c1.711,1.345,3.615,2.018,5.711,2.018v0.839h-24.466v-0.839c2.235,0,4.166-0.655,5.789-1.965
		s2.436-3.483,2.436-6.522v-58.571c0-3.213-0.812-5.413-2.436-6.601c-1.624-1.187-3.554-1.78-5.789-1.78v-0.892H274.205z"/>
	<path fill="#333333" d="M349.489,160.215h-0.89c-0.664-3.773-2.437-6.968-5.317-9.588c-2.882-2.619-6.191-4.531-9.928-5.736
		c-3.737-1.206-7.23-1.807-10.478-1.807c-4.436,0-8.602,0.934-12.496,2.802s-7.256,4.505-10.084,7.911
		c-2.829,3.406-5.03,7.492-6.603,12.259c-1.571,4.768-2.357,9.946-2.357,15.533c0,5.414,0.76,10.434,2.279,15.062
		c1.52,4.629,3.738,8.646,6.654,12.051c2.916,3.404,6.295,5.98,10.138,7.727c3.842,1.747,8.103,2.62,12.783,2.62
		c3.911,0,8.208-0.795,12.888-2.384c4.68-1.59,8.905-4.235,12.679-7.938v2.986c-4.646,3.598-8.898,6.234-12.757,7.911
		c-3.86,1.676-8.671,2.515-14.433,2.515c-6.078,0-11.623-1.109-16.634-3.327c-5.013-2.218-9.247-5.213-12.705-8.984
		c-3.458-3.772-6.078-8.016-7.859-12.73c-1.781-4.716-2.671-9.571-2.671-14.565c0-7.508,1.851-14.484,5.553-20.929
		c3.702-6.443,8.713-11.542,15.036-15.297c6.321-3.755,13.185-5.631,20.589-5.631c4.575,0,9.447,0.681,14.616,2.043l5.448,1.519
		c1.048,0.21,1.939,0.314,2.673,0.314c1.362,0,2.269-0.2,2.724-0.601c0.454-0.402,0.803-1.127,1.048-2.175h0.837L349.489,160.215z"
		/>
	<path fill="#333333" d="M392.188,141.983l23.104,66.114c1.221,3.424,2.374,5.903,3.458,7.44c1.082,1.536,2.121,2.505,3.116,2.907
		c0.995,0.4,2.262,0.672,3.799,0.812v0.839h-25.2v-0.839c2.584,0,4.575-0.244,5.973-0.733s2.096-1.815,2.096-3.981
		c0-1.188-0.332-2.776-0.995-4.768c-0.14-0.279-0.209-0.489-0.209-0.629l-6.864-20.483h-26.718l-6.13,18.965
		c-0.837,2.584-1.257,4.662-1.257,6.234c0,2.165,0.542,3.605,1.624,4.322c1.083,0.715,2.62,1.073,4.61,1.073v0.839h-18.126v-0.839
		c2.584-0.244,4.655-1.231,6.208-2.96c1.554-1.729,2.908-4.357,4.061-7.885l21.793-66.429H392.188z M374.636,185.885h24.571
		l-12.573-36.62h-0.21L374.636,185.885z"/>
	<path fill="#333333" d="M430.956,219.257h1.048c1.885,0,3.553-0.742,5.003-2.227c1.449-1.484,2.174-3.571,2.174-6.261v-58.256
		c0-3.213-0.812-5.449-2.436-6.706c-1.625-1.258-3.554-1.921-5.789-1.99v-0.892h24.675v0.892c-2.165,0.069-4.086,0.715-5.763,1.938
		c-1.676,1.223-2.514,3.475-2.514,6.759v56.317c0,3.353,0.837,5.676,2.514,6.968c1.677,1.293,4.418,1.939,8.226,1.939h6.653
		c2.899,0,5.212-0.35,6.941-1.048c1.729-0.699,3.101-1.764,4.112-3.195c1.013-1.434,2.043-3.458,3.091-6.078h0.892l-2.935,12.679
		h-45.892V219.257z"/>
	<path fill="#333333" d="M520.174,143.817v-0.892h45.998v12.154h-0.733c0-6.496-4.331-9.745-12.993-9.745h-16.084v35.049h14.146
		c2.793,0,5.291-0.455,7.49-1.362c2.201-0.909,3.458-2.987,3.772-6.236h0.786v17.498h-0.786c-0.314-1.99-0.907-3.519-1.78-4.583
		c-0.874-1.064-1.738-1.772-2.593-2.123c-0.856-0.348-1.617-0.523-2.279-0.523c-1.258-0.209-2.567-0.314-3.93-0.314h-14.827v27.399
		c0,2.062,0.395,3.843,1.179,5.345c0.786,1.501,2.612,2.253,5.476,2.253h11.473c2.76,0,5.03-0.402,6.812-1.205
		c1.781-0.804,3.186-1.921,4.217-3.353c1.03-1.434,1.895-3.162,2.593-5.188h0.733l-2.671,12.103h-45.998v-0.839h1.048
		c1.641,0,3.247-0.664,4.82-1.99c1.57-1.328,2.356-3.493,2.356-6.497v-58.152c0-2.375-0.531-4.436-1.598-6.182
		c-1.064-1.746-2.925-2.619-5.579-2.619H520.174z"/>
	<path fill="#333333" d="M616.78,157.753h-0.839c-0.489-3.738-2.121-7.012-4.897-9.824c-2.777-2.811-6.437-4.217-10.976-4.217
		c-2.971,0-5.606,0.698-7.912,2.096c-2.305,1.397-4.086,3.3-5.343,5.709c-1.258,2.411-1.887,5.169-1.887,8.279
		c0,2.41,0.376,4.549,1.126,6.417c0.751,1.868,1.859,3.519,3.327,4.95c1.467,1.432,3.195,2.768,5.187,4.008s4.68,2.804,8.067,4.689
		c5.659,3.109,10.059,6.208,13.202,9.299c3.144,3.09,4.716,7.326,4.716,12.704c0,3.283-0.848,6.453-2.54,9.509
		c-1.695,3.057-4.253,5.562-7.676,7.518c-3.423,1.957-7.666,2.935-12.73,2.935c-3.179,0-5.991-0.341-8.435-1.022
		c-2.445-0.681-4.925-1.632-7.44-2.854c-1.047-0.35-1.763-0.524-2.147-0.524c-0.733,0-1.213,0.263-1.44,0.786
		c-0.228,0.524-0.533,1.659-0.917,3.405h-0.89v-19.331h0.89c1.258,5.658,3.702,9.937,7.335,12.835
		c3.632,2.898,8.051,4.349,13.254,4.349c3.911,0,7.046-0.733,9.404-2.2c2.357-1.468,3.989-3.249,4.898-5.345
		c0.908-2.095,1.361-4.19,1.361-6.286c0-4.331-1.317-7.866-3.955-10.609c-2.637-2.74-6.645-5.544-12.023-8.408
		c-3.702-2.026-6.444-3.598-8.225-4.715c-1.781-1.118-3.589-2.566-5.422-4.348c-1.834-1.781-3.293-3.886-4.375-6.314
		c-1.083-2.427-1.625-5.212-1.625-8.355c0-3.633,0.962-7.107,2.882-10.426c1.921-3.318,4.646-5.981,8.174-7.99
		c3.527-2.007,7.526-3.013,11.996-3.013c3.388,0,6.862,0.577,10.426,1.729c0.559,0.28,1.311,0.419,2.253,0.419
		c1.153,0,1.938-0.786,2.357-2.357h0.839V157.753z"/>
	<path fill="#333333" d="M667.125,157.753h-0.836c-0.49-3.738-2.123-7.012-4.9-9.824c-2.775-2.811-6.434-4.217-10.975-4.217
		c-2.969,0-5.605,0.698-7.91,2.096c-2.307,1.397-4.086,3.3-5.346,5.709c-1.256,2.411-1.885,5.169-1.885,8.279
		c0,2.41,0.375,4.549,1.127,6.417c0.75,1.868,1.859,3.519,3.326,4.95s3.195,2.768,5.186,4.008c1.992,1.24,4.682,2.804,8.068,4.689
		c5.658,3.109,10.059,6.208,13.203,9.299c3.143,3.09,4.713,7.326,4.713,12.704c0,3.283-0.846,6.453-2.539,9.509
		c-1.693,3.057-4.252,5.562-7.676,7.518c-3.422,1.957-7.666,2.935-12.73,2.935c-3.178,0-5.99-0.341-8.436-1.022
		c-2.443-0.681-4.922-1.632-7.438-2.854c-1.049-0.35-1.764-0.524-2.148-0.524c-0.734,0-1.215,0.263-1.439,0.786
		c-0.229,0.524-0.533,1.659-0.918,3.405h-0.891v-19.331h0.891c1.258,5.658,3.703,9.937,7.334,12.835
		c3.633,2.898,8.051,4.349,13.256,4.349c3.91,0,7.045-0.733,9.402-2.2c2.357-1.468,3.99-3.249,4.9-5.345
		c0.906-2.095,1.361-4.19,1.361-6.286c0-4.331-1.32-7.866-3.955-10.609c-2.637-2.74-6.645-5.544-12.025-8.408
		c-3.701-2.026-6.443-3.598-8.225-4.715c-1.781-1.118-3.588-2.566-5.422-4.348s-3.291-3.886-4.375-6.314
		c-1.082-2.427-1.623-5.212-1.623-8.355c0-3.633,0.959-7.107,2.881-10.426c1.922-3.318,4.645-5.981,8.172-7.99
		c3.527-2.007,7.527-3.013,11.998-3.013c3.389,0,6.863,0.577,10.426,1.729c0.559,0.28,1.309,0.419,2.252,0.419
		c1.152,0,1.939-0.786,2.359-2.357h0.836V157.753z"/>
	<path fill="#333333" d="M712.966,141.983l23.104,66.114c1.223,3.424,2.375,5.903,3.459,7.44c1.082,1.536,2.121,2.505,3.115,2.907
		c0.996,0.4,2.262,0.672,3.799,0.812v0.839h-25.199v-0.839c2.584,0,4.574-0.244,5.973-0.733c1.396-0.489,2.096-1.815,2.096-3.981
		c0-1.188-0.334-2.776-0.996-4.768c-0.141-0.279-0.209-0.489-0.209-0.629l-6.863-20.483h-26.719l-6.129,18.965
		c-0.838,2.584-1.258,4.662-1.258,6.234c0,2.165,0.541,3.605,1.623,4.322c1.084,0.715,2.621,1.073,4.611,1.073v0.839h-18.127v-0.839
		c2.584-0.244,4.654-1.231,6.209-2.96s2.908-4.357,4.059-7.885l21.795-66.429H712.966z M695.416,185.885h24.57l-12.572-36.62h-0.211
		L695.416,185.885z"/>
	<path fill="#333333" d="M809.623,142.926v0.892c-2.305,0.034-4.355,0.576-6.154,1.624s-3.203,2.14-4.217,3.274
		c-1.014,1.135-2.096,2.507-3.248,4.113l-18.023,27.137v30.909c0,2.76,0.83,4.83,2.49,6.209c1.658,1.379,3.658,2.104,5.998,2.174
		v0.839h-24.467v-0.839c2.48-0.069,4.445-0.776,5.895-2.121s2.174-3.432,2.174-6.262v-29.599l-19.646-29.442
		c-2.096-3.179-3.973-5.292-5.631-6.339c-1.658-1.048-3.902-1.607-6.732-1.676v-0.892h27.4v0.892
		c-2.795,0.104-4.584,0.707-5.371,1.807c-0.785,1.101-1.178,2.14-1.178,3.117c0,1.119,0.682,2.69,2.043,4.716l16.084,23.837
		l14.25-21.48c2.164-3.213,3.248-5.675,3.248-7.387c0-1.187-0.289-2.112-0.865-2.776c-0.576-0.663-1.16-1.101-1.756-1.31
		c-0.592-0.209-1.223-0.384-1.885-0.523v-0.892H809.623z"/>
	<path fill="#333333" d="M851.693,157.753h-0.838c-0.49-3.738-2.123-7.012-4.898-9.824c-2.777-2.811-6.436-4.217-10.977-4.217
		c-2.967,0-5.605,0.698-7.91,2.096s-4.086,3.3-5.344,5.709c-1.258,2.411-1.887,5.169-1.887,8.279c0,2.41,0.375,4.549,1.127,6.417
		s1.859,3.519,3.326,4.95s3.195,2.768,5.186,4.008c1.992,1.24,4.682,2.804,8.068,4.689c5.658,3.109,10.059,6.208,13.203,9.299
		c3.143,3.09,4.715,7.326,4.715,12.704c0,3.283-0.848,6.453-2.541,9.509c-1.693,3.057-4.252,5.562-7.676,7.518
		c-3.422,1.957-7.666,2.935-12.729,2.935c-3.18,0-5.99-0.341-8.436-1.022c-2.445-0.681-4.924-1.632-7.439-2.854
		c-1.049-0.35-1.764-0.524-2.148-0.524c-0.732,0-1.213,0.263-1.439,0.786c-0.229,0.524-0.533,1.659-0.918,3.405h-0.891v-19.331
		h0.891c1.258,5.658,3.703,9.937,7.334,12.835c3.633,2.898,8.053,4.349,13.256,4.349c3.912,0,7.045-0.733,9.404-2.2
		c2.357-1.468,3.988-3.249,4.896-5.345c0.91-2.095,1.363-4.19,1.363-6.286c0-4.331-1.318-7.866-3.955-10.609
		c-2.639-2.74-6.646-5.544-12.023-8.408c-3.703-2.026-6.443-3.598-8.225-4.715c-1.781-1.118-3.59-2.566-5.422-4.348
		c-1.834-1.781-3.293-3.886-4.375-6.314c-1.084-2.427-1.625-5.212-1.625-8.355c0-3.633,0.961-7.107,2.881-10.426
		c1.922-3.318,4.645-5.981,8.174-7.99c3.527-2.007,7.527-3.013,11.996-3.013c3.389,0,6.863,0.577,10.426,1.729
		c0.559,0.28,1.311,0.419,2.254,0.419c1.152,0,1.938-0.786,2.357-2.357h0.838V157.753z"/>
	<path fill="#333333" d="M982.408,181.589c0,7.229-1.789,13.954-5.369,20.17c-3.58,6.217-8.461,11.167-14.643,14.853
		c-6.182,3.685-13.027,5.527-20.537,5.527c-7.543,0-14.461-1.843-20.746-5.527c-6.287-3.686-11.238-8.652-14.852-14.905
		c-3.615-6.251-5.422-13.061-5.422-20.431c0-5.659,1.072-10.976,3.221-15.953c2.148-4.976,5.15-9.316,9.012-13.019
		c3.859-3.702,8.26-6.565,13.201-8.591s10.102-3.038,15.48-3.038c5.275,0,10.338,0.968,15.193,2.907
		c4.854,1.938,9.211,4.742,13.072,8.408c3.857,3.668,6.887,8.016,9.088,13.045C981.308,170.063,982.408,175.582,982.408,181.589z
		 M973.187,181.799c0-10.269-1.814-18.301-5.447-24.099s-7.824-9.683-12.574-11.657c-4.75-1.973-9.221-2.96-13.412-2.96
		c-3.246,0-6.617,0.532-10.111,1.598c-3.492,1.065-6.887,3.011-10.189,5.84c-3.301,2.829-6.016,6.812-8.146,11.945
		s-3.195,11.473-3.195,19.018c0,6.635,0.881,12.424,2.646,17.366c1.764,4.941,4.191,8.977,7.281,12.102
		c3.092,3.126,6.496,5.379,10.217,6.758c3.719,1.38,7.588,2.07,11.604,2.07c3.598,0,7.238-0.638,10.924-1.912
		c3.684-1.275,7.053-3.354,10.109-6.234c3.057-2.882,5.537-6.794,7.441-11.735C972.236,194.957,973.187,188.923,973.187,181.799z"/>
	<path fill="#333333" d="M1065.888,142.926v0.892c-1.955,0.245-3.502,0.62-4.635,1.126c-1.137,0.506-2.018,1.501-2.646,2.985
		s-0.943,3.624-0.943,6.417v67.687h-0.523l-59.252-66.114v47.465c0,3.946,0.156,6.879,0.471,8.8
		c0.314,1.923,0.768,3.302,1.363,4.141c1.291,1.815,3.543,2.793,6.756,2.933v0.839h-19.33v-0.839
		c2.166-0.105,3.85-0.567,5.055-1.388c1.205-0.821,2.061-2.323,2.566-4.505c0.508-2.185,0.762-5.476,0.762-9.877v-50.345
		l-2.568-2.882c-2.27-2.584-4.086-4.217-5.447-4.897c-1.361-0.681-3.057-1.197-5.082-1.545v-0.892h14.512l58.361,65.383v-49.824
		c0-3.736-0.148-6.53-0.445-8.381s-1.084-3.337-2.357-4.454c-1.275-1.118-3.273-1.729-5.998-1.833v-0.892H1065.888z"/>
	<path fill="#333333" d="M166.772,252.852l23.104,66.114c1.223,3.424,2.375,5.903,3.458,7.44c1.083,1.536,2.123,2.506,3.118,2.907
		c0.995,0.402,2.261,0.672,3.797,0.812v0.839h-25.199v-0.839c2.585,0,4.576-0.244,5.973-0.733c1.396-0.488,2.096-1.815,2.096-3.98
		c0-1.188-0.333-2.777-0.997-4.768c-0.14-0.28-0.209-0.489-0.209-0.63l-6.863-20.483h-26.718l-6.129,18.965
		c-0.838,2.585-1.257,4.662-1.257,6.234c0,2.165,0.542,3.605,1.624,4.322s2.62,1.073,4.61,1.073v0.839h-18.126v-0.839
		c2.584-0.244,4.654-1.231,6.208-2.96c1.554-1.729,2.907-4.356,4.06-7.885l21.794-66.429H166.772z M149.222,296.754h24.57
		l-12.574-36.62h-0.209L149.222,296.754z"/>
	<path fill="#333333" d="M206.273,254.895h-1.048v-1.101h26.718c4.296,0,7.938,0.664,10.924,1.992
		c2.986,1.326,5.309,3.011,6.968,5.056c1.659,2.043,2.846,4.199,3.562,6.47c0.716,2.27,1.075,4.506,1.075,6.705
		c0,2.795-0.586,5.475-1.756,8.042c-1.17,2.566-2.968,4.775-5.396,6.627c-2.428,1.851-5.458,3.109-9.09,3.771v0.211
		c4.61,2.234,8.871,6.67,12.784,13.307l6.968,11.787c3.143,5.273,5.667,8.608,7.57,10.006c1.902,1.397,3.78,2.183,5.631,2.357v0.839
		h-14.041c-0.593-0.77-1.153-1.512-1.676-2.227c-0.524-0.717-1.083-1.476-1.676-2.279c-0.35-0.524-0.864-1.318-1.545-2.384
		c-0.681-1.064-1.092-1.668-1.231-1.807l-9.221-15.245c-1.851-3.109-3.746-5.633-5.684-7.57c-1.938-1.939-3.746-3.327-5.422-4.166
		c-1.676-0.837-3.188-1.361-4.531-1.57c-1.345-0.211-2.926-0.314-4.741-0.314v28.237c0,5.483,2.793,8.312,8.382,8.486v0.839h-24.571
		v-0.839c1.537-0.069,2.899-0.356,4.086-0.864c1.188-0.506,2.175-1.379,2.96-2.619c0.786-1.239,1.179-2.907,1.179-5.003v-58.362
		c0-3.073-0.751-5.238-2.252-6.495C209.697,255.522,208.055,254.895,206.273,254.895z M221.415,291.356h4.4
		c4.611,0,8.391-0.662,11.342-1.99c2.952-1.326,5.091-3.222,6.417-5.684c1.328-2.463,1.991-5.476,1.991-9.038
		c0-2.969-0.593-5.876-1.782-8.722c-1.187-2.847-3.203-5.239-6.051-7.177c-2.846-1.939-6.679-2.909-11.499-2.909
		c-1.956,0-3.562,0.158-4.819,0.473V291.356z"/>
	<path fill="#333333" d="M335.118,271.083h-0.89c-0.664-3.771-2.437-6.968-5.317-9.588c-2.881-2.618-6.191-4.53-9.928-5.736
		c-3.737-1.204-7.23-1.807-10.478-1.807c-4.436,0-8.602,0.934-12.496,2.802c-3.894,1.87-7.256,4.506-10.085,7.912
		c-2.828,3.404-5.028,7.491-6.601,12.258c-1.571,4.769-2.357,9.946-2.357,15.533c0,5.414,0.759,10.436,2.279,15.063
		c1.52,4.627,3.738,8.644,6.654,12.049c2.916,3.404,6.295,5.98,10.137,7.727c3.843,1.747,8.104,2.62,12.784,2.62
		c3.911,0,8.208-0.795,12.888-2.384c4.68-1.588,8.906-4.234,12.677-7.937v2.985c-4.645,3.598-8.897,6.234-12.755,7.911
		c-3.86,1.676-8.671,2.515-14.435,2.515c-6.076,0-11.621-1.109-16.632-3.327c-5.013-2.218-9.247-5.212-12.704-8.984
		c-3.458-3.772-6.078-8.016-7.859-12.73c-1.781-4.716-2.671-9.569-2.671-14.563c0-7.51,1.851-14.486,5.553-20.931
		c3.702-6.443,8.713-11.543,15.036-15.297c6.321-3.755,13.185-5.632,20.589-5.632c4.575,0,9.447,0.681,14.616,2.043l5.448,1.52
		c1.048,0.209,1.939,0.314,2.671,0.314c1.363,0,2.27-0.202,2.725-0.603c0.454-0.402,0.803-1.126,1.048-2.174h0.837L335.118,271.083z
		"/>
	<path fill="#333333" d="M402.857,289.104v-25.828c0-2.515-0.681-4.574-2.043-6.181c-1.362-1.606-3.475-2.41-6.339-2.41v-0.892
		h24.571v0.892c-2.865,0-4.96,0.795-6.287,2.383c-1.328,1.59-1.992,3.659-1.992,6.208v58.362c0,5.657,2.759,8.486,8.278,8.486v0.839
		h-24.571v-0.839c2.621,0,4.672-0.706,6.156-2.121s2.226-3.502,2.226-6.261v-30.281h-44.216v30.177c0,2.688,0.759,4.775,2.279,6.26
		c1.519,1.484,3.553,2.227,6.104,2.227v0.839h-24.571v-0.839c2.654,0,4.688-0.742,6.104-2.227c1.415-1.484,2.123-3.571,2.123-6.26
		v-58.362c0-5.728-2.743-8.591-8.226-8.591v-0.892h24.571v0.892c-2.899,0-5.021,0.795-6.365,2.383
		c-1.345,1.59-2.017,3.659-2.017,6.208v25.828H402.857z"/>
	<path fill="#333333" d="M451.003,253.794v0.892c-2.306,0-4.261,0.646-5.867,1.938c-1.606,1.293-2.41,3.44-2.41,6.444v58.571
		c0,2.969,0.856,5.126,2.566,6.471c1.712,1.343,3.615,2.016,5.711,2.016v0.839h-24.466v-0.839c2.235,0,4.166-0.654,5.789-1.963
		c1.624-1.312,2.436-3.485,2.436-6.523v-58.571c0-3.213-0.812-5.413-2.436-6.601c-1.624-1.188-3.554-1.781-5.789-1.781v-0.892
		H451.003z"/>
	<path fill="#333333" d="M524.662,268.83h-0.838c-0.385-5.028-1.852-8.286-4.4-9.77c-2.551-1.484-5.694-2.227-9.431-2.227h-15.35
		v64.805c0,5.483,2.794,8.312,8.382,8.486v0.839h-24.571v-0.839c2.305-0.069,4.253-0.742,5.842-2.016
		c1.59-1.275,2.385-3.433,2.385-6.471v-64.805H471.33c-3.737,0-6.872,0.742-9.404,2.227c-2.532,1.483-4.008,4.741-4.427,9.77h-0.838
		v-18.86h0.838c0.559,0.873,1.048,1.52,1.467,1.939c0.42,0.419,0.961,0.776,1.624,1.073s1.441,0.506,2.331,0.628
		c0.892,0.123,1.948,0.184,3.171,0.184h49.979c3.317,0,5.902-1.273,7.754-3.824h0.838V268.83z"/>
	<path fill="#333333" d="M530.269,254.686v-0.892h45.997v12.154h-0.733c0-6.496-4.332-9.744-12.993-9.744h-16.083v35.049h14.145
		c2.795,0,5.291-0.453,7.492-1.362c2.2-0.908,3.457-2.986,3.771-6.233h0.786v17.496h-0.786c-0.314-1.99-0.908-3.519-1.781-4.583
		c-0.873-1.065-1.737-1.773-2.593-2.121c-0.856-0.35-1.615-0.524-2.279-0.524c-1.257-0.209-2.566-0.314-3.93-0.314h-14.825v27.4
		c0,2.06,0.392,3.841,1.179,5.343c0.786,1.501,2.611,2.253,5.475,2.253h11.473c2.76,0,5.03-0.402,6.811-1.205
		c1.781-0.804,3.188-1.921,4.218-3.353c1.031-1.432,1.896-3.16,2.594-5.187h0.733l-2.672,12.102h-45.997v-0.839h1.046
		c1.643,0,3.249-0.662,4.821-1.99c1.571-1.326,2.357-3.493,2.357-6.496v-58.151c0-2.376-0.533-4.436-1.599-6.183
		c-1.064-1.746-2.924-2.619-5.58-2.619H530.269z"/>
	<path fill="#333333" d="M654.693,271.083H653.8c-0.664-3.771-2.436-6.968-5.316-9.588c-2.881-2.618-6.191-4.53-9.928-5.736
		c-3.738-1.204-7.229-1.807-10.479-1.807c-4.436,0-8.601,0.934-12.495,2.802c-3.894,1.87-7.255,4.506-10.084,7.912
		c-2.829,3.404-5.03,7.491-6.601,12.258c-1.573,4.769-2.359,9.946-2.359,15.533c0,5.414,0.761,10.436,2.279,15.063
		c1.52,4.627,3.737,8.644,6.653,12.049c2.917,3.404,6.296,5.98,10.139,7.727c3.841,1.747,8.102,2.62,12.782,2.62
		c3.912,0,8.207-0.795,12.889-2.384c4.68-1.588,8.904-4.234,12.678-7.937v2.985c-4.646,3.598-8.898,6.234-12.756,7.911
		c-3.861,1.676-8.672,2.515-14.434,2.515c-6.078,0-11.623-1.109-16.634-3.327s-9.246-5.212-12.704-8.984s-6.078-8.016-7.859-12.73
		c-1.781-4.716-2.671-9.569-2.671-14.563c0-7.51,1.851-14.486,5.553-20.931c3.702-6.443,8.714-11.543,15.036-15.297
		c6.321-3.755,13.185-5.632,20.588-5.632c4.576,0,9.447,0.681,14.617,2.043l5.447,1.52c1.049,0.209,1.939,0.314,2.674,0.314
		c1.361,0,2.27-0.202,2.723-0.603c0.455-0.402,0.805-1.126,1.049-2.174h0.838L654.693,271.083z"/>
	<path fill="#333333" d="M730.238,268.83h-0.84c-0.383-5.028-1.852-8.286-4.4-9.77c-2.551-1.484-5.691-2.227-9.43-2.227h-15.35
		v64.805c0,5.483,2.793,8.312,8.383,8.486v0.839h-24.572v-0.839c2.307-0.069,4.252-0.742,5.842-2.016
		c1.59-1.275,2.385-3.433,2.385-6.471v-64.805h-15.35c-3.738,0-6.873,0.742-9.404,2.227c-2.533,1.483-4.008,4.741-4.426,9.77h-0.84
		v-18.86h0.84c0.559,0.873,1.045,1.52,1.465,1.939c0.42,0.419,0.961,0.776,1.625,1.073c0.662,0.297,1.439,0.506,2.33,0.628
		c0.891,0.123,1.947,0.184,3.17,0.184h49.979c3.318,0,5.902-1.273,7.754-3.824h0.84V268.83z"/>
	<path fill="#333333" d="M812.121,330.964h-16.188v-12.782l-0.262-0.211c-2.236,5.205-5.58,9.011-10.033,11.421
		s-9.105,3.615-13.961,3.615c-5.484,0-10.418-1.31-14.801-3.93c-4.383-2.619-7.604-5.851-9.666-9.691
		c-1.467-2.725-2.393-5.562-2.775-8.514c-0.385-2.951-0.576-6.015-0.576-9.193v-38.402c0-2.304-0.465-4.243-1.389-5.814
		c-0.926-1.572-3.135-2.498-6.627-2.776v-0.892h24.256v0.892c-3.562,0.419-5.832,1.448-6.811,3.091
		c-0.979,1.642-1.467,3.475-1.467,5.5v37.773c0,7.683,0.785,13.358,2.357,17.026c1.676,3.911,4.191,6.968,7.545,9.169
		c3.352,2.199,7.158,3.3,11.42,3.3c1.781,0,3.895-0.314,6.34-0.943c2.443-0.628,4.73-1.676,6.861-3.144
		c6.391-4.365,9.588-11.367,9.588-21.008v-42.174c0-2.129-0.49-4.016-1.467-5.658c-0.979-1.641-3.283-2.618-6.916-2.933v-0.892
		h24.676v0.892c-3.562,0.175-5.85,1.17-6.863,2.985c-1.012,1.817-1.52,3.649-1.52,5.501v58.467c0,2.026,0.34,3.623,1.021,4.793
		s1.625,2,2.83,2.489s2.68,0.89,4.426,1.204V330.964z"/>
	<path fill="#333333" d="M820.556,254.895h-1.047v-1.101h26.717c4.297,0,7.938,0.664,10.924,1.992
		c2.986,1.326,5.309,3.011,6.967,5.056c1.66,2.043,2.846,4.199,3.562,6.47c0.717,2.27,1.074,4.506,1.074,6.705
		c0,2.795-0.584,5.475-1.754,8.042c-1.17,2.566-2.969,4.775-5.396,6.627c-2.428,1.851-5.457,3.109-9.09,3.771v0.211
		c4.611,2.234,8.871,6.67,12.783,13.307l6.967,11.787c3.145,5.273,5.668,8.608,7.57,10.006c1.904,1.397,3.781,2.183,5.631,2.357
		v0.839h-14.039c-0.594-0.77-1.152-1.512-1.676-2.227c-0.523-0.717-1.084-1.476-1.678-2.279c-0.348-0.524-0.863-1.318-1.545-2.384
		c-0.682-1.064-1.09-1.668-1.23-1.807l-9.221-15.245c-1.852-3.109-3.746-5.633-5.684-7.57c-1.939-1.939-3.746-3.327-5.422-4.166
		c-1.678-0.837-3.188-1.361-4.533-1.57c-1.344-0.211-2.924-0.314-4.74-0.314v28.237c0,5.483,2.795,8.312,8.381,8.486v0.839h-24.568
		v-0.839c1.535-0.069,2.898-0.356,4.086-0.864c1.186-0.506,2.174-1.379,2.959-2.619c0.787-1.239,1.18-2.907,1.18-5.003v-58.362
		c0-3.073-0.752-5.238-2.252-6.495C823.978,255.522,822.337,254.895,820.556,254.895z M835.697,291.358h4.4
		c4.609,0,8.391-0.664,11.342-1.992c2.951-1.326,5.09-3.222,6.418-5.684c1.326-2.463,1.99-5.476,1.99-9.036
		c0-2.971-0.594-5.878-1.781-8.724c-1.188-2.847-3.205-5.239-6.051-7.177c-2.846-1.939-6.678-2.909-11.5-2.909
		c-1.955,0-3.561,0.158-4.818,0.473V291.358z"/>
	<path fill="#333333" d="M889.972,254.686v-0.892h45.998v12.154h-0.734c0-6.496-4.33-9.744-12.992-9.744H906.16v35.049h14.146
		c2.793,0,5.289-0.453,7.49-1.362c2.201-0.908,3.457-2.986,3.771-6.233h0.787v17.496h-0.787c-0.314-1.99-0.906-3.519-1.781-4.583
		c-0.873-1.065-1.736-1.773-2.594-2.121c-0.855-0.35-1.615-0.524-2.279-0.524c-1.256-0.209-2.564-0.314-3.928-0.314H906.16v27.4
		c0,2.06,0.393,3.841,1.178,5.343c0.787,1.501,2.613,2.253,5.477,2.253h11.473c2.76,0,5.029-0.402,6.811-1.205
		c1.781-0.804,3.186-1.921,4.217-3.353s1.895-3.16,2.594-5.187h0.732l-2.67,12.102h-45.998v-0.839h1.047
		c1.641,0,3.248-0.662,4.82-1.99c1.57-1.326,2.357-3.493,2.357-6.496v-58.151c0-2.376-0.533-4.436-1.598-6.183
		c-1.064-1.746-2.926-2.619-5.58-2.619H889.972z"/>
</g>
</svg>
