<?xml version="1.0" encoding="utf-8"?>
<!-- Generator: Adobe Illustrator 16.0.0, SVG Export Plug-In . SVG Version: 6.00 Build 0)  -->
<!DOCTYPE svg PUBLIC "-//W3C//DTD SVG 1.1//EN" "http://www.w3.org/Graphics/SVG/1.1/DTD/svg11.dtd">
<svg version="1.1" id="Layer_1" xmlns="http://www.w3.org/2000/svg" xmlns:xlink="http://www.w3.org/1999/xlink" x="0px" y="0px"
	 width="1500px" height="869.5px" viewBox="-134 0 1500 869.5" enable-background="new -134 0 1500 869.5" xml:space="preserve">
<rect x="-133.224" y="-0.951" fill="#F6F6F6" width="1498.447" height="870"/>
<g>
	<path fill="#333333" d="M150.742,276.502v-14.168h71.656v14.168h-28.022v75.73h-15.673v-75.73H150.742z"/>
	<path fill="#333333" d="M232.779,352.232v-89.898h14.669v34.793c0.585-1.378,1.504-2.643,2.758-3.793
		c1.253-1.149,2.687-2.131,4.293-2.945c1.61-0.816,3.387-1.453,5.331-1.913c1.943-0.46,3.938-0.69,5.987-0.69
		c3.01,0,5.808,0.429,8.4,1.285c2.592,0.856,4.827,2.163,6.709,3.918c1.879,1.756,3.363,3.981,4.45,6.676
		c1.087,2.696,1.63,5.883,1.63,9.56v43.007h-14.796v-41.752c0-2.842-0.855-5.37-2.569-7.584c-1.714-2.216-4.243-3.323-7.585-3.323
		c-1.964,0-3.804,0.346-5.517,1.034c-1.713,0.69-3.25,1.704-4.607,3.042c-1.359,1.336-2.424,2.988-3.198,4.951
		c-0.773,1.965-1.161,4.264-1.161,6.896v36.737H232.779z"/>
	<path fill="#333333" d="M296.568,320.762c0-4.557,0.689-8.839,2.07-12.852c1.38-4.012,3.364-7.513,5.956-10.501
		c2.591-2.987,5.778-5.359,9.559-7.115c3.784-1.755,8.1-2.632,12.947-2.632c4.418,0,8.435,0.72,12.04,2.162
		c3.607,1.442,6.696,3.584,9.259,6.426c2.564,2.842,4.524,6.333,5.882,10.469c1.354,4.138,2.033,8.86,2.033,14.168
		c0,0.585,0,1.16,0,1.725c0,0.563-0.042,1.327-0.126,2.288h-44.698c0.418,4.926,2.058,8.918,4.921,11.97
		c2.864,3.054,6.343,4.58,10.438,4.58c7.023,0,11.662-3.261,13.917-9.78h14.549c-0.67,3.176-1.816,6.111-3.442,8.808
		c-1.625,2.694-3.639,5.046-6.037,7.053s-5.172,3.573-8.319,4.702c-3.152,1.128-6.582,1.692-10.292,1.692
		c-4.64,0-8.85-0.878-12.634-2.633c-3.782-1.755-7.001-4.139-9.653-7.146c-2.654-3.01-4.711-6.521-6.176-10.533
		C297.3,329.601,296.568,325.317,296.568,320.762z M311.74,314.367h29.777c0-1.813-0.324-3.626-0.972-5.435
		c-0.648-1.813-1.586-3.414-2.82-4.806c-1.234-1.392-2.78-2.518-4.639-3.383c-1.859-0.863-3.981-1.296-6.363-1.296
		c-2.467,0-4.618,0.431-6.456,1.296c-1.839,0.865-3.407,2.014-4.701,3.445c-1.296,1.434-2.258,3.036-2.884,4.807
		C312.054,310.765,311.74,312.554,311.74,314.367z"/>
	<path fill="#333333" d="M386.659,352.232l30.531-89.898h20.061l30.531,89.898h-15.359l-7.459-22.193h-35.421l-7.459,22.193H386.659
		z M414.367,315.871h25.704l-12.853-38.492L414.367,315.871z"/>
	<path fill="#333333" d="M463.927,289.292h16.299l14.075,46.014l14.514-46.014h15.423l-22.365,62.941h-15.763L463.927,289.292z"/>
	<path fill="#333333" d="M525.778,320.762c0-4.557,0.688-8.839,2.068-12.852c1.378-4.012,3.363-7.513,5.958-10.501
		c2.589-2.987,5.776-5.359,9.558-7.115c3.781-1.755,8.1-2.632,12.946-2.632c4.418,0,8.433,0.72,12.04,2.162
		c3.608,1.442,6.696,3.584,9.257,6.426c2.566,2.842,4.525,6.333,5.883,10.469c1.353,4.138,2.031,8.86,2.031,14.168
		c0,0.585,0,1.16,0,1.725c0,0.563-0.04,1.327-0.125,2.288h-44.698c0.419,4.926,2.06,8.918,4.921,11.97
		c2.863,3.054,6.344,4.58,10.438,4.58c7.021,0,11.661-3.261,13.917-9.78h14.551c-0.67,3.176-1.817,6.111-3.444,8.808
		c-1.624,2.694-3.638,5.046-6.035,7.053c-2.4,2.006-5.173,3.573-8.319,4.702c-3.152,1.128-6.58,1.692-10.294,1.692
		c-4.64,0-8.851-0.878-12.632-2.632c-3.782-1.756-7.002-4.139-9.655-7.147c-2.654-3.01-4.711-6.521-6.176-10.533
		C526.509,329.602,525.778,325.317,525.778,320.762z M540.947,314.368h29.778c0-1.814-0.323-3.626-0.971-5.436
		c-0.65-1.813-1.59-3.414-2.821-4.806c-1.234-1.393-2.78-2.518-4.64-3.383c-1.862-0.863-3.981-1.296-6.364-1.296
		c-2.465,0-4.615,0.431-6.456,1.296c-1.839,0.865-3.407,2.014-4.703,3.445c-1.295,1.434-2.256,3.036-2.884,4.807
		C541.262,310.765,540.947,312.554,540.947,314.368z"/>
	<path fill="#333333" d="M593.394,352.232v-63.192h14.671v6.238c1.965-2.393,4.054-4.218,6.268-5.477
		c2.217-1.26,4.869-1.889,7.962-1.889c1.966,0,3.909,0.231,5.83,0.69c1.923,0.461,3.699,1.215,5.328,2.264l-3.948,14.406
		c-3.262-2.126-6.354-3.192-9.279-3.192c-1.546,0-3.039,0.282-4.482,0.847c-1.441,0.564-2.718,1.419-3.823,2.566
		c-1.108,1.148-2.007,2.619-2.695,4.414c-0.69,1.796-1.034,3.946-1.034,6.448v35.878L593.394,352.232L593.394,352.232z"/>
	<path fill="#333333" d="M637.808,289.292h16.176l13.102,44.574l13.229-44.574h15.671l-11.492,34.991l-12.381,36.795
		c-0.501,1.46-1.266,3.174-2.288,5.138c-1.028,1.965-2.383,3.863-4.054,5.705c-1.671,1.836-3.731,3.403-6.176,4.699
		c-2.445,1.297-5.382,1.945-8.807,1.945c-1.046,0-2.06-0.042-3.042-0.126c-0.981-0.083-1.849-0.209-2.603-0.376l-2.568-0.563V364.02
		c0.168,0.084,0.374,0.178,0.627,0.283c0.251,0.104,0.563,0.2,0.94,0.282c1.044,0.25,2.362,0.376,3.949,0.376
		c1.211,0,2.537-0.282,3.979-0.848c1.443-0.563,2.646-1.39,3.606-2.476c0.668-0.837,1.282-1.84,1.85-3.01
		c0.564-1.17,1.013-2.235,1.348-3.196l1.003-3.448L637.808,289.292z"/>
	<path fill="#333333" d="M731.092,352.232v-89.898h39.985c3.679,0,7.366,0.324,11.086,0.971c3.712,0.649,7.054,1.871,10.043,3.668
		c2.978,1.797,5.423,4.326,7.325,7.585c1.891,3.261,2.842,7.503,2.842,12.726c0,3.261-0.481,6.04-1.433,8.338
		c-0.961,2.299-2.15,4.222-3.583,5.768c-1.43,1.546-3.019,2.769-4.777,3.667c-1.742,0.898-3.445,1.579-5.106,2.038
		c-1.662,0.461-3.146,0.764-4.452,0.91c-1.317,0.146-2.276,0.22-2.904,0.22c2.549,0.501,4.732,1.306,6.541,2.414
		c1.818,1.107,3.28,2.417,4.389,3.921c1.108,1.506,1.942,3.135,2.508,4.89c0.552,1.755,0.919,3.491,1.085,5.204
		c1.107,6.666,1.935,11.627,2.476,14.879c0.543,3.248,1.212,5.585,2.019,7.005c0.804,1.418,1.481,2.379,2.068,2.878
		c0.575,0.502,0.858,1.441,0.858,2.818h-17.554c-1.203-1.045-2.132-2.394-2.779-4.043c-0.647-1.653-1.075-3.582-1.307-5.789
		c-0.231-2.206-0.471-4.581-0.731-7.121c-0.262-2.54-0.533-5.229-0.825-8.061c-0.168-1.714-0.617-3.385-1.349-5.015
		c-0.73-1.63-1.743-3.072-3.04-4.326c-1.295-1.254-2.885-2.257-4.765-3.01c-1.879-0.751-4.095-1.128-6.646-1.128H746.77v38.492
		L731.092,352.232L731.092,352.232z M746.766,300.513h23.066c5.393,0,9.553-1.056,12.478-3.167c2.925-2.111,4.389-5.339,4.389-9.685
		c0-4.347-1.464-7.451-4.389-9.311c-2.924-1.86-7.085-2.789-12.478-2.789h-23.066V300.513z"/>
	<path fill="#333333" d="M809.57,320.762c0-4.557,0.689-8.839,2.069-12.852c1.378-4.012,3.364-7.513,5.955-10.501
		c2.592-2.987,5.778-5.359,9.562-7.115c3.781-1.755,8.096-2.632,12.945-2.632c4.419,0,8.431,0.72,12.045,2.162
		c3.606,1.442,6.689,3.584,9.26,6.426c2.56,2.842,4.522,6.333,5.883,10.469c1.347,4.138,2.026,8.86,2.026,14.168
		c0,0.585,0,1.16,0,1.725c0,0.563-0.042,1.327-0.126,2.288h-44.698c0.418,4.926,2.057,8.918,4.921,11.97
		c2.864,3.054,6.341,4.58,10.438,4.58c7.02,0,11.659-3.261,13.916-9.78h14.556c-0.67,3.176-1.819,6.111-3.447,8.808
		c-1.621,2.694-3.637,5.046-6.04,7.053c-2.394,2.006-5.171,3.573-8.317,4.702c-3.144,1.128-8.975,1.692-12.685,1.692
		c-4.64,0-6.457-0.878-10.239-2.632c-3.784-1.756-7.001-4.139-9.655-7.147c-2.652-3.01-4.712-6.521-6.175-10.533
		C810.302,329.602,809.57,325.317,809.57,320.762z M824.741,314.368h29.78c0-1.814-0.325-3.626-0.975-5.436
		c-0.646-1.813-1.587-3.414-2.82-4.806c-1.231-1.393-2.778-2.518-4.639-3.383c-1.859-0.863-3.98-1.296-6.362-1.296
		c-2.466,0-4.617,0.431-6.455,1.296c-1.839,0.865-3.409,2.014-4.704,3.445c-1.297,1.434-2.257,3.036-2.884,4.807
		C825.054,310.765,824.741,312.554,824.741,314.368z"/>
	<path fill="#333333" d="M873.359,289.292h16.299l14.075,46.014l14.511-46.014h15.424l-22.36,62.941h-15.767L873.359,289.292z"/>
	<path fill="#333333" d="M941.095,277.38v-15.046h16.363v15.046H941.095z M941.911,352.232v-62.941h14.795v62.941H941.911
		L941.911,352.232z"/>
	<path fill="#333333" d="M970.217,320.762c0-4.557,0.689-8.839,2.069-12.852c1.378-4.012,3.363-7.513,5.955-10.501
		c2.592-2.987,5.777-5.359,9.562-7.115c3.781-1.755,8.096-2.632,12.945-2.632c4.416,0,8.431,0.72,12.045,2.162
		c3.606,1.442,6.687,3.584,9.258,6.426c2.559,2.842,4.524,6.333,5.883,10.469c1.346,4.138,2.028,8.86,2.028,14.168
		c0,0.585,0,1.16,0,1.725c0,0.563-0.045,1.327-0.126,2.288h-44.699c0.419,4.926,2.057,8.918,4.921,11.97
		c2.862,3.054,6.341,4.58,10.437,4.58c7.021,0,11.659-3.261,13.918-9.78h14.557c-0.672,3.176-1.821,6.111-3.451,8.808
		c-1.619,2.694-3.633,5.046-6.039,7.053c-2.391,2.006-5.171,3.573-8.314,4.702c-3.147,1.128-8.975,1.692-12.688,1.692
		c-4.64,0-6.455-0.878-10.239-2.632c-3.781-1.756-7.001-4.139-9.652-7.147c-2.655-3.01-4.713-6.521-6.178-10.533
		C970.948,329.602,970.217,325.317,970.217,320.762z M985.387,314.368h29.779c0-1.814-0.323-3.626-0.972-5.436
		c-0.647-1.813-1.587-3.414-2.817-4.806c-1.234-1.393-2.781-2.518-4.643-3.383c-1.861-0.863-3.979-1.296-6.363-1.296
		c-2.464,0-4.616,0.431-6.456,1.296c-1.839,0.865-3.406,2.014-4.703,3.445c-1.295,1.434-2.256,3.036-2.884,4.807
		C985.7,310.765,985.387,312.554,985.387,314.368z"/>
	<path fill="#333333" d="M1032.76,289.292h16.175l10.908,46.014l12.036-46.014h13.175l12.486,46.025l10.91-46.025h16.173
		l-18.744,62.941h-15.378l-10.67-38.367l-1.558-5.914l-1.547,5.765l-10.362,38.516h-14.857L1032.76,289.292z"/>
	<path fill="#333333" d="M77.81,429.931h-1.066c-0.794-4.514-2.915-8.338-6.362-11.472c-3.448-3.135-7.408-5.422-11.88-6.864
		c-4.473-1.443-8.652-2.162-12.539-2.162c-5.308,0-10.292,1.117-14.951,3.353c-4.66,2.235-8.684,5.392-12.068,9.467
		c-3.384,4.076-6.018,8.966-7.899,14.67c-1.881,5.706-2.82,11.901-2.82,18.587c0,6.479,0.908,12.486,2.727,18.023
		c1.817,5.539,4.471,10.347,7.961,14.422c3.49,4.072,7.534,7.155,12.131,9.247c4.598,2.089,9.697,3.134,15.296,3.134
		c4.682,0,9.822-0.951,15.422-2.853c5.601-1.902,10.658-5.068,15.171-9.499v3.573c-5.559,4.305-10.646,7.46-15.266,9.467
		c-4.618,2.005-10.375,3.009-17.271,3.009c-7.272,0-13.907-1.327-19.904-3.98c-5.997-2.654-11.065-6.237-15.203-10.751
		c-4.138-4.513-7.273-9.592-9.403-15.233c-2.131-5.644-3.197-11.452-3.197-17.429c0-8.984,2.215-17.332,6.645-25.044
		c4.43-7.71,10.428-13.812,17.993-18.306c7.565-4.493,15.778-6.738,24.638-6.738c5.475,0,11.305,0.815,17.491,2.444l6.521,1.818
		c1.254,0.251,2.319,0.375,3.196,0.375c1.63,0,2.718-0.238,3.261-0.719c0.542-0.481,0.96-1.349,1.254-2.603h1.002L77.81,429.931z"/>
	<path fill="#333333" d="M87.84,410.56h-1.254v-1.317h31.973c5.14,0,9.498,0.794,13.071,2.381c3.573,1.59,6.353,3.605,8.338,6.051
		c1.985,2.446,3.406,5.025,4.262,7.742c0.857,2.718,1.286,5.391,1.286,8.024c0,3.344-0.7,6.552-2.101,9.624
		c-1.399,3.07-3.551,5.715-6.457,7.93c-2.904,2.215-6.53,3.718-10.876,4.513v0.251c5.516,2.674,10.615,7.981,15.296,15.923
		l8.338,14.105c3.761,6.311,6.782,10.301,9.059,11.974c2.277,1.673,4.523,2.612,6.739,2.82v1.004h-16.802
		c-0.71-0.922-1.378-1.809-2.005-2.664c-0.627-0.859-1.296-1.766-2.007-2.728c-0.417-0.628-1.033-1.579-1.849-2.853
		c-0.815-1.273-1.305-1.996-1.473-2.162l-11.034-18.246c-2.215-3.718-4.483-6.738-6.802-9.057c-2.319-2.321-4.482-3.981-6.488-4.985
		c-2.005-1.004-3.814-1.63-5.422-1.88c-1.61-0.252-3.5-0.378-5.675-0.378v33.791c0,6.562,3.343,9.947,10.03,10.156v1.004H86.587
		v-1.004c1.839-0.083,3.469-0.429,4.89-1.034s2.601-1.65,3.542-3.134c0.94-1.482,1.411-3.48,1.411-5.988v-69.837
		c0-3.678-0.898-6.269-2.694-7.772C91.936,411.312,89.972,410.56,87.84,410.56z M105.958,454.193h5.266
		c5.517,0,10.042-0.794,13.573-2.383c3.532-1.587,6.091-3.855,7.679-6.802s2.382-6.552,2.382-10.815
		c0-3.552-0.71-7.031-2.131-10.437c-1.422-3.406-3.835-6.27-7.242-8.59c-3.405-2.319-7.992-3.479-13.76-3.479
		c-2.341,0-4.263,0.189-5.768,0.565L105.958,454.193L105.958,454.193z"/>
	<path fill="#333333" d="M200.433,409.243v1.067c-2.758,0-5.099,0.773-7.022,2.319c-1.922,1.546-2.884,4.116-2.884,7.71v70.088
		c0,3.555,1.023,6.135,3.071,7.743c2.048,1.609,4.326,2.414,6.833,2.414v1.005h-29.277v-1.005c2.676,0,4.985-0.783,6.929-2.352
		s2.915-4.167,2.915-7.804v-70.089c0-3.845-0.972-6.478-2.915-7.898s-4.253-2.131-6.929-2.131v-1.067L200.433,409.243
		L200.433,409.243z"/>
	<path fill="#333333" d="M288.577,427.236h-1.004c-0.459-6.02-2.214-9.916-5.266-11.692s-6.813-2.665-11.284-2.665h-18.369v77.549
		c0,6.562,3.344,9.947,10.031,10.156v1.004h-29.403v-1.004c2.76-0.083,5.088-0.887,6.99-2.414c1.902-1.524,2.853-4.105,2.853-7.742
		v-77.551h-18.369c-4.472,0-8.223,0.889-11.253,2.665c-3.03,1.778-4.796,5.674-5.298,11.693h-1.001v-22.569h1.001
		c0.669,1.045,1.254,1.819,1.756,2.32c0.501,0.5,1.15,0.929,1.944,1.286c0.793,0.354,1.723,0.604,2.789,0.751
		c1.067,0.146,2.331,0.219,3.793,0.219h59.807c3.971,0,7.064-1.525,9.279-4.576h1.004V427.236z"/>
	<path fill="#333333" d="M324.812,409.243v1.067c-2.759,0-5.098,0.773-7.022,2.319c-1.921,1.546-2.884,4.116-2.884,7.71v70.088
		c0,3.555,1.022,6.135,3.071,7.743c2.047,1.609,4.326,2.414,6.834,2.414v1.005h-29.277v-1.005c2.674,0,4.985-0.783,6.928-2.352
		c1.942-1.568,2.915-4.167,2.915-7.804v-70.089c0-3.845-0.971-6.478-2.915-7.898s-4.254-2.131-6.928-2.131v-1.067L324.812,409.243
		L324.812,409.243z"/>
	<path fill="#333333" d="M414.9,429.932h-1.065c-0.795-4.515-2.916-8.338-6.362-11.473c-3.449-3.135-7.409-5.422-11.881-6.864
		c-4.471-1.443-8.651-2.162-12.538-2.162c-5.308,0-10.293,1.117-14.954,3.353c-4.659,2.235-8.683,5.392-12.066,9.467
		c-3.386,4.076-6.02,8.966-7.901,14.67c-1.88,5.706-2.821,11.901-2.821,18.587c0,6.479,0.909,12.486,2.728,18.023
		c1.818,5.539,4.472,10.347,7.962,14.422c3.489,4.072,7.533,7.155,12.132,9.247c4.598,2.089,9.696,3.134,15.297,3.134
		c4.679,0,9.821-0.951,15.422-2.853c5.6-1.902,10.657-5.068,15.172-9.499v3.573c-5.559,4.305-10.647,7.46-15.265,9.467
		c-4.62,2.005-10.376,3.009-17.271,3.009c-7.273,0-13.909-1.327-19.906-3.98c-5.999-2.654-11.065-6.237-15.204-10.751
		c-4.138-4.513-7.272-9.592-9.403-15.233c-2.132-5.644-3.196-11.452-3.196-17.429c0-8.984,2.214-17.332,6.645-25.044
		c4.43-7.71,10.426-13.812,17.993-18.306c7.564-4.493,15.777-6.738,24.638-6.738c5.475,0,11.305,0.815,17.49,2.444l6.52,1.818
		c1.254,0.251,2.32,0.375,3.198,0.375c1.629,0,2.715-0.238,3.259-0.719c0.543-0.481,0.96-1.349,1.254-2.603h1.001L414.9,429.932z"/>
	<path fill="#333333" d="M465.993,408.115l27.647,79.115c1.461,4.097,2.841,7.062,4.138,8.902c1.295,1.838,2.538,2.997,3.729,3.478
		c1.191,0.479,2.707,0.806,4.546,0.973v1.005h-30.156v-1.005c3.092,0,5.475-0.293,7.147-0.877c1.673-0.585,2.509-2.172,2.509-4.765
		c0-1.422-0.397-3.322-1.191-5.706c-0.168-0.333-0.25-0.584-0.25-0.752l-8.214-24.511h-31.972l-7.335,22.694
		c-1.001,3.092-1.504,5.579-1.504,7.46c0,2.59,0.649,4.313,1.943,5.173c1.296,0.855,3.134,1.283,5.516,1.283v1.005h-21.69v-1.005
		c3.092-0.293,5.571-1.473,7.429-3.542c1.859-2.07,3.48-5.214,4.86-9.436l26.078-79.492h6.769V408.115z M444.991,460.649h29.403
		l-15.045-43.82h-0.251L444.991,460.649z"/>
	<path fill="#333333" d="M512.385,500.584h1.254c2.255,0,4.251-0.887,5.987-2.666c1.734-1.774,2.602-4.272,2.602-7.49v-69.712
		c0-3.846-0.971-6.521-2.915-8.024c-1.945-1.506-4.252-2.299-6.928-2.382v-1.067h29.527v1.067c-2.591,0.083-4.89,0.855-6.896,2.319
		c-2.005,1.463-3.009,4.158-3.009,8.088v67.392c0,4.012,1.002,6.791,3.009,8.338c2.007,1.547,5.287,2.32,9.844,2.32h7.961
		c3.47,0,6.237-0.418,8.306-1.255c2.069-0.836,3.711-2.11,4.921-3.822c1.212-1.717,2.444-4.139,3.698-7.273h1.068l-3.513,15.172
		h-54.916V500.584L512.385,500.584z"/>
	<path fill="#333333" d="M619.146,410.31v-1.067h55.043v14.544h-0.877c0-7.773-5.183-11.661-15.548-11.661h-19.247v41.94h16.928
		c3.342,0,6.331-0.544,8.963-1.629c2.634-1.088,4.138-3.574,4.513-7.463h0.941v20.939h-0.941c-0.375-2.382-1.084-4.212-2.129-5.484
		c-1.046-1.273-2.08-2.121-3.104-2.54c-1.024-0.418-1.935-0.626-2.727-0.626c-1.505-0.251-3.072-0.376-4.704-0.376h-17.741v32.786
		c0,2.468,0.473,4.6,1.411,6.396c0.94,1.795,3.125,2.695,6.552,2.695h13.729c3.303,0,6.019-0.48,8.151-1.441
		c2.132-0.962,3.813-2.299,5.046-4.012c1.232-1.717,2.269-3.784,3.104-6.209h0.877l-3.196,14.482h-55.043v-1.004h1.254
		c1.964,0,3.886-0.794,5.769-2.38c1.879-1.59,2.818-4.182,2.818-7.776v-69.586c0-2.842-0.635-5.309-1.912-7.397
		c-1.272-2.09-3.5-3.135-6.676-3.135h-1.254V410.31z"/>
	<path fill="#333333" d="M734.75,426.986h-1.004c-0.585-4.474-2.538-8.391-5.86-11.756c-3.323-3.364-7.702-5.047-13.134-5.047
		c-3.556,0-6.709,0.836-9.468,2.509c-2.759,1.672-4.89,3.948-6.394,6.831c-1.506,2.886-2.259,6.186-2.259,9.907
		c0,2.884,0.45,5.444,1.348,7.679c0.898,2.235,2.225,4.211,3.981,5.924c1.755,1.714,3.823,3.312,6.207,4.796
		c2.383,1.484,5.601,3.355,9.652,5.611c6.772,3.72,12.038,7.429,15.799,11.127c3.763,3.698,5.643,8.766,5.643,15.203
		c0,3.929-1.014,7.722-3.039,11.378c-2.027,3.659-5.089,6.655-9.186,8.997c-4.096,2.342-9.173,3.512-15.232,3.512
		c-3.805,0-7.169-0.408-10.094-1.224c-2.927-0.814-5.894-1.952-8.902-3.414c-1.254-0.419-2.11-0.628-2.57-0.628
		c-0.876,0-1.451,0.314-1.723,0.94c-0.273,0.627-0.638,1.985-1.098,4.075h-1.065v-23.133h1.065
		c1.506,6.771,4.43,11.892,8.778,15.359c4.346,3.467,9.634,5.203,15.86,5.203c4.68,0,8.431-0.876,11.252-2.631
		c2.821-1.758,4.773-3.89,5.861-6.397c1.087-2.507,1.629-5.013,1.629-7.521c0-5.185-1.576-9.414-4.732-12.695
		c-3.156-3.279-7.952-6.636-14.388-10.062c-4.43-2.423-7.712-4.305-9.842-5.642c-2.132-1.338-4.295-3.071-6.488-5.203
		c-2.194-2.132-3.94-4.65-5.235-7.556c-1.296-2.904-1.944-6.236-1.944-9.998c0-4.348,1.151-8.504,3.448-12.477
		c2.299-3.97,5.56-7.157,9.781-9.561c4.221-2.402,9.007-3.605,14.355-3.605c4.054,0,8.211,0.69,12.476,2.068
		c0.67,0.336,1.569,0.502,2.696,0.502c1.38,0,2.319-0.94,2.82-2.82h1.004V426.986L734.75,426.986z"/>
	<path fill="#333333" d="M794.993,426.986h-1c-0.587-4.474-2.541-8.391-5.864-11.756c-3.32-3.364-7.698-5.047-13.133-5.047
		c-3.552,0-6.707,0.836-9.465,2.509c-2.761,1.672-4.89,3.948-6.397,6.831c-1.503,2.886-2.255,6.186-2.255,9.907
		c0,2.884,0.448,5.444,1.349,7.679c0.897,2.235,2.224,4.211,3.979,5.924c1.757,1.712,3.824,3.312,6.206,4.796
		c2.385,1.484,5.603,3.355,9.654,5.611c6.771,3.72,12.037,7.429,15.799,11.127s5.64,8.766,5.64,15.203
		c0,3.929-1.012,7.722-3.037,11.378c-2.026,3.659-5.089,6.655-9.186,8.997c-4.095,2.342-9.174,3.512-15.233,3.512
		c-3.802,0-7.168-0.408-10.095-1.224c-2.923-0.814-5.89-1.952-8.9-3.414c-1.255-0.419-2.111-0.628-2.571-0.628
		c-0.877,0-1.453,0.314-1.721,0.94c-0.274,0.627-0.639,1.985-1.099,4.075h-1.067v-23.133h1.067
		c1.505,6.771,4.432,11.892,8.776,15.359c4.347,3.467,9.634,5.203,15.862,5.203c4.679,0,8.43-0.876,11.25-2.631
		c2.821-1.758,4.774-3.89,5.864-6.397c1.084-2.507,1.629-5.013,1.629-7.521c0-5.185-1.58-9.414-4.733-12.695
		c-3.156-3.279-7.952-6.636-14.39-10.062c-4.429-2.423-7.709-4.305-9.842-5.642c-2.132-1.338-4.294-3.071-6.488-5.203
		c-2.194-2.133-3.938-4.65-5.235-7.556c-1.295-2.904-1.942-6.236-1.942-9.998c0-4.348,1.148-8.504,3.447-12.477
		c2.301-3.97,5.559-7.157,9.779-9.561c4.221-2.402,9.008-3.605,14.357-3.605c4.055,0,8.213,0.69,12.476,2.068
		c0.67,0.336,1.567,0.502,2.695,0.502c1.379,0,2.32-0.94,2.823-2.82h1L794.993,426.986L794.993,426.986z"/>
	<path fill="#333333" d="M849.85,408.115l27.647,79.115c1.463,4.097,2.842,7.062,4.139,8.902c1.295,1.838,2.537,2.997,3.728,3.478
		c1.191,0.479,2.707,0.806,4.547,0.973v1.005h-30.154v-1.005c3.092,0,5.474-0.293,7.146-0.877c1.671-0.585,2.509-2.172,2.509-4.765
		c0-1.422-0.399-3.322-1.191-5.706c-0.17-0.333-0.25-0.584-0.25-0.752l-8.213-24.511h-31.976l-7.335,22.694
		c-1.003,3.092-1.505,5.579-1.505,7.46c0,2.59,0.647,4.313,1.942,5.173c1.297,0.855,3.136,1.283,5.518,1.283v1.005H804.71v-1.005
		c3.093-0.293,5.568-1.473,7.43-3.542c1.86-2.07,3.48-5.214,4.857-9.436l26.08-79.492h6.772V408.115z M828.848,460.649h29.401
		l-15.044-43.82h-0.253L828.848,460.649z"/>
	<path fill="#333333" d="M965.512,409.243v1.067c-2.758,0.041-5.212,0.689-7.364,1.943c-2.153,1.255-3.833,2.561-5.046,3.918
		c-1.213,1.358-2.508,3-3.887,4.922l-21.568,32.473v36.987c0,3.303,0.994,5.78,2.98,7.43c1.984,1.65,4.377,2.518,7.178,2.602v1.005
		h-29.278v-1.005c2.969-0.082,5.319-0.928,7.054-2.538c1.735-1.609,2.603-4.106,2.603-7.493v-35.419l-23.51-35.231
		c-2.508-3.804-4.754-6.333-6.738-7.586c-1.984-1.254-4.669-1.923-8.055-2.006v-1.066h32.787v1.066
		c-3.345,0.125-5.485,0.847-6.428,2.163c-0.939,1.317-1.409,2.561-1.409,3.729c0,1.339,0.816,3.219,2.445,5.644l19.246,28.524
		l17.053-25.704c2.589-3.845,3.887-6.791,3.887-8.839c0-1.421-0.347-2.528-1.036-3.322c-0.689-0.793-1.388-1.317-2.101-1.567
		c-0.708-0.251-1.463-0.46-2.256-0.627v-1.066h23.443V409.243z"/>
	<path fill="#333333" d="M1015.854,426.986h-1.004c-0.585-4.474-2.539-8.391-5.86-11.756c-3.323-3.364-7.702-5.047-13.136-5.047
		c-3.551,0-6.707,0.836-9.465,2.509c-2.759,1.673-4.89,3.948-6.396,6.831c-1.505,2.886-2.258,6.186-2.258,9.907
		c0,2.884,0.449,5.444,1.349,7.679c0.899,2.235,2.225,4.211,3.98,5.924c1.755,1.712,3.823,3.312,6.205,4.796
		c2.384,1.484,5.604,3.355,9.654,5.611c6.771,3.72,12.037,7.429,15.8,11.127c3.761,3.698,5.642,8.766,5.642,15.203
		c0,3.929-1.014,7.722-3.04,11.378c-2.026,3.659-5.088,6.655-9.186,8.997c-4.095,2.342-9.174,3.512-15.232,3.512
		c-3.805,0-7.167-0.408-10.095-1.224c-2.926-0.814-5.892-1.952-8.902-3.414c-1.255-0.419-2.11-0.628-2.569-0.628
		c-0.877,0-1.451,0.314-1.723,0.94c-0.273,0.627-0.638,1.985-1.099,4.075h-1.065v-23.133h1.065
		c1.505,6.771,4.432,11.892,8.776,15.359c4.348,3.467,9.637,5.203,15.862,5.203c4.682,0,8.431-0.876,11.254-2.631
		c2.819-1.758,4.772-3.89,5.858-6.397c1.089-2.507,1.631-5.013,1.631-7.521c0-5.185-1.578-9.414-4.732-12.695
		c-3.158-3.279-7.953-6.636-14.387-10.062c-4.432-2.423-7.711-4.305-9.843-5.642c-2.132-1.338-4.296-3.071-6.488-5.203
		c-2.194-2.132-3.94-4.65-5.235-7.556c-1.297-2.904-1.944-6.236-1.944-9.998c0-4.348,1.149-8.504,3.447-12.477
		c2.3-3.97,5.559-7.157,9.781-9.561c4.221-2.402,9.007-3.605,14.354-3.605c4.057,0,8.213,0.69,12.478,2.068
		c0.668,0.336,1.567,0.502,2.696,0.502c1.378,0,2.319-0.94,2.82-2.82h1.003v19.747H1015.854z"/>
	<path fill="#333333" d="M1172.272,455.509c0,8.651-2.141,16.698-6.425,24.137c-4.284,7.439-10.125,13.362-17.521,17.772
		c-7.398,4.41-15.589,6.614-24.576,6.614c-9.025,0-17.304-2.205-24.825-6.614c-7.523-4.41-13.448-10.353-17.772-17.835
		c-4.325-7.48-6.488-15.629-6.488-24.448c0-6.771,1.283-13.135,3.855-19.09c2.569-5.954,6.161-11.148,10.783-15.579
		c4.617-4.431,9.884-7.856,15.797-10.281c5.912-2.424,12.088-3.635,18.523-3.635c6.312,0,12.371,1.158,18.181,3.479
		c5.809,2.319,11.022,5.675,15.642,10.062c4.616,4.39,8.242,9.592,10.876,15.61C1170.957,441.717,1172.272,448.321,1172.272,455.509
		z M1161.238,455.76c0-12.288-2.17-21.899-6.517-28.837c-4.349-6.938-9.362-11.587-15.047-13.949
		c-5.684-2.361-11.034-3.542-16.05-3.542c-3.884,0-7.918,0.637-12.1,1.912c-4.178,1.274-8.24,3.603-12.191,6.988
		c-3.95,3.385-7.199,8.151-9.748,14.294s-3.823,13.729-3.823,22.758c0,7.939,1.055,14.867,3.166,20.78
		c2.11,5.913,5.016,10.742,8.713,14.482c3.7,3.74,7.773,6.437,12.226,8.086c4.45,1.651,9.08,2.477,13.886,2.477
		c4.306,0,8.661-0.762,13.073-2.287c4.407-1.526,8.439-4.014,12.096-7.46c3.659-3.448,6.626-8.13,8.904-14.043
		C1160.101,471.506,1161.238,464.285,1161.238,455.76z"/>
	<path fill="#333333" d="M1272.168,409.243v1.067c-2.339,0.293-4.19,0.742-5.546,1.348c-1.36,0.605-2.414,1.796-3.167,3.572
		c-0.751,1.775-1.127,4.336-1.127,7.679v80.997h-0.627l-70.902-79.115v56.799c0,4.722,0.187,8.231,0.564,10.53
		c0.375,2.302,0.918,3.952,1.63,4.954c1.545,2.174,4.239,3.344,8.085,3.511v1.004h-23.131v-1.004
		c2.592-0.126,4.606-0.678,6.049-1.66c1.441-0.983,2.466-2.78,3.071-5.391c0.607-2.616,0.911-6.554,0.911-11.819V421.47
		l-3.073-3.449c-2.716-3.092-4.89-5.046-6.519-5.86c-1.628-0.814-3.658-1.432-6.081-1.849v-1.067h17.366l69.836,78.241v-59.622
		c0-4.471-0.177-7.814-0.531-10.029c-0.355-2.215-1.298-3.993-2.821-5.33c-1.525-1.338-3.916-2.069-7.178-2.193v-1.067H1272.168
		L1272.168,409.243z"/>
	<path fill="#333333" d="M196.254,552.751l27.647,79.114c1.464,4.098,2.842,7.064,4.138,8.904c1.296,1.838,2.541,2.998,3.731,3.479
		c1.19,0.48,2.705,0.804,4.543,0.971v1.004H206.16v-1.004c3.093,0,5.476-0.292,7.147-0.877c1.67-0.583,2.508-2.172,2.508-4.763
		c0-1.422-0.398-3.323-1.193-5.706c-0.168-0.334-0.25-0.584-0.25-0.754l-8.212-24.51h-31.972l-7.334,22.694
		c-1.003,3.093-1.505,5.578-1.505,7.46c0,2.59,0.649,4.313,1.944,5.171c1.294,0.858,3.135,1.284,5.516,1.284v1.004h-21.69v-1.004
		c3.092-0.292,5.57-1.474,7.429-3.542c1.86-2.069,3.479-5.213,4.858-9.435l26.08-79.492L196.254,552.751L196.254,552.751z
		 M175.253,605.286h29.401l-15.047-43.821h-0.25L175.253,605.286z"/>
	<path fill="#333333" d="M243.522,555.195h-1.254v-1.316h31.972c5.141,0,9.499,0.794,13.072,2.384
		c3.573,1.587,6.353,3.603,8.338,6.05c1.986,2.444,3.405,5.024,4.262,7.741c0.857,2.718,1.287,5.394,1.287,8.024
		c0,3.344-0.701,6.552-2.101,9.623c-1.4,3.071-3.552,5.714-6.457,7.93c-2.906,2.216-6.531,3.721-10.878,4.514v0.252
		c5.517,2.674,10.615,7.981,15.298,15.923l8.338,14.105c3.762,6.311,6.783,10.301,9.059,11.974c2.276,1.672,4.523,2.612,6.738,2.82
		v1.004h-16.802c-0.709-0.921-1.379-1.809-2.005-2.664c-0.626-0.859-1.296-1.767-2.005-2.728c-0.418-0.628-1.034-1.578-1.849-2.853
		c-0.816-1.273-1.307-1.996-1.474-2.163l-11.034-18.243c-2.214-3.72-4.483-6.74-6.801-9.058c-2.32-2.32-4.483-3.981-6.489-4.985
		c-2.005-1.001-3.814-1.629-5.422-1.879c-1.609-0.252-3.501-0.375-5.673-0.375v33.789c0,6.562,3.342,9.946,10.03,10.154v1.004
		H242.27v-1.004c1.839-0.083,3.469-0.426,4.889-1.034c1.422-0.605,2.603-1.649,3.542-3.134c0.941-1.481,1.411-3.478,1.411-5.986
		v-69.838c0-3.678-0.899-6.269-2.695-7.772C247.618,555.947,245.653,555.195,243.522,555.195z M261.641,598.827h5.265
		c5.518,0,10.041-0.792,13.573-2.382c3.532-1.587,6.092-3.856,7.679-6.802c1.589-2.947,2.381-6.553,2.381-10.815
		c0-3.553-0.709-7.031-2.131-10.437c-1.421-3.407-3.833-6.27-7.242-8.588c-3.405-2.321-7.992-3.481-13.76-3.481
		c-2.341,0-4.262,0.189-5.766,0.565L261.641,598.827L261.641,598.827z"/>
	<path fill="#333333" d="M397.702,574.567h-1.065c-0.795-4.512-2.916-8.338-6.362-11.474c-3.447-3.133-7.409-5.421-11.881-6.864
		c-4.471-1.44-8.651-2.162-12.538-2.162c-5.308,0-10.293,1.117-14.953,3.354c-4.659,2.237-8.683,5.392-12.068,9.468
		c-3.384,4.073-6.017,8.964-7.898,14.668c-1.88,5.707-2.821,11.902-2.821,18.588c0,6.479,0.908,12.487,2.728,18.024
		c1.818,5.536,4.472,10.344,7.961,14.419c3.489,4.072,7.534,7.155,12.131,9.246c4.598,2.09,9.697,3.135,15.298,3.135
		c4.679,0,9.822-0.951,15.422-2.853c5.6-1.9,10.658-5.066,15.169-9.498v3.572c-5.558,4.305-10.646,7.459-15.263,9.467
		c-4.62,2.005-10.376,3.009-17.273,3.009c-7.271,0-13.906-1.327-19.904-3.981c-5.998-2.653-11.065-6.236-15.201-10.749
		c-4.139-4.515-7.273-9.594-9.405-15.234c-2.132-5.643-3.196-11.451-3.196-17.426c0-8.987,2.214-17.335,6.645-25.048
		c4.43-7.709,10.426-13.812,17.993-18.305c7.564-4.493,15.777-6.739,24.638-6.739c5.475,0,11.305,0.814,17.49,2.445l6.52,1.818
		c1.254,0.251,2.32,0.376,3.196,0.376c1.63,0,2.716-0.242,3.26-0.721c0.543-0.482,0.96-1.349,1.254-2.603h1.001L397.702,574.567z"/>
	<path fill="#333333" d="M478.761,596.131v-30.905c0-3.011-0.816-5.474-2.446-7.397c-1.629-1.921-4.158-2.884-7.585-2.884v-1.067
		h29.403v1.067c-3.429,0-5.935,0.952-7.523,2.853c-1.589,1.902-2.384,4.378-2.384,7.429v69.837c0,6.77,3.302,10.155,9.906,10.155
		v1.004H468.73v-1.004c3.136,0,5.59-0.845,7.367-2.538s2.665-4.19,2.665-7.492v-36.235H425.85v36.11
		c0,3.218,0.909,5.715,2.728,7.492c1.817,1.775,4.251,2.664,7.304,2.664v1.004h-29.402v-1.004c3.176,0,5.609-0.888,7.304-2.664
		c1.693-1.776,2.541-4.273,2.541-7.492v-69.837c0-6.855-3.282-10.281-9.843-10.281v-1.067h29.403v1.067
		c-3.47,0-6.009,0.952-7.617,2.853c-1.61,1.902-2.415,4.378-2.415,7.429v30.905H478.761z"/>
	<path fill="#333333" d="M536.374,553.879v1.066c-2.759,0-5.099,0.773-7.021,2.319c-1.921,1.548-2.884,4.117-2.884,7.712v70.088
		c0,3.554,1.025,6.134,3.071,7.744c2.048,1.606,4.326,2.411,6.834,2.411v1.004h-29.277v-1.004c2.674,0,4.985-0.782,6.927-2.349
		c1.943-1.57,2.915-4.171,2.915-7.806v-70.088c0-3.846-0.971-6.478-2.915-7.899c-1.943-1.421-4.253-2.132-6.927-2.132v-1.066
		L536.374,553.879L536.374,553.879z"/>
	<path fill="#333333" d="M624.519,571.871h-1.003c-0.462-6.017-2.217-9.915-5.266-11.691c-3.053-1.775-6.814-2.664-11.285-2.664
		h-18.369v77.547c0,6.562,3.344,9.947,10.031,10.155v1.004h-29.403v-1.004c2.759-0.083,5.09-0.888,6.991-2.412
		c1.902-1.526,2.854-4.108,2.854-7.744v-77.548h-18.369c-4.473,0-8.224,0.889-11.254,2.665c-3.03,1.774-4.796,5.673-5.297,11.691
		h-1.003v-22.569h1.003c0.668,1.045,1.254,1.82,1.755,2.321c0.503,0.501,1.15,0.928,1.943,1.284c0.794,0.355,1.726,0.605,2.79,0.751
		c1.066,0.147,2.331,0.22,3.794,0.22h59.808c3.969,0,7.062-1.523,9.278-4.576h1.003L624.519,571.871L624.519,571.871z"/>
	<path fill="#333333" d="M631.226,554.945v-1.066h55.042v14.544h-0.876c0-7.773-5.185-11.66-15.549-11.66h-19.245v41.94h16.926
		c3.345,0,6.331-0.542,8.966-1.63c2.633-1.086,4.137-3.572,4.513-7.458h0.94v20.937h-0.94c-0.376-2.382-1.087-4.212-2.132-5.484
		c-1.044-1.274-2.078-2.122-3.103-2.538c-1.024-0.42-1.933-0.628-2.728-0.628c-1.504-0.25-3.069-0.375-4.702-0.375h-17.74v32.787
		c0,2.466,0.469,4.598,1.41,6.395s3.125,2.696,6.553,2.696h13.729c3.303,0,6.02-0.481,8.149-1.442
		c2.132-0.963,3.815-2.299,5.049-4.013c1.232-1.713,2.268-3.781,3.104-6.206h0.876l-3.197,14.48h-55.041v-1.004h1.253
		c1.965,0,3.888-0.792,5.768-2.381c1.881-1.587,2.821-4.181,2.821-7.773V565.48c0-2.844-0.639-5.309-1.914-7.399
		c-1.272-2.09-3.499-3.133-6.677-3.133h-1.254V554.945z"/>
	<path fill="#333333" d="M780.117,574.567h-1.069c-0.795-4.512-2.914-8.338-6.36-11.474c-3.449-3.133-7.409-5.421-11.881-6.864
		c-4.473-1.44-8.65-2.162-12.539-2.162c-5.31,0-10.293,1.117-14.952,3.354c-4.661,2.237-8.682,5.392-12.067,9.468
		c-3.385,4.073-6.02,8.964-7.899,14.668c-1.882,5.707-2.822,11.902-2.822,18.588c0,6.479,0.91,12.487,2.728,18.024
		c1.818,5.536,4.471,10.344,7.961,14.419c3.49,4.072,7.533,7.155,12.133,9.246c4.597,2.09,9.695,3.135,15.295,3.135
		c4.682,0,9.82-0.951,15.424-2.853c5.6-1.899,10.654-5.066,15.171-9.498v3.572c-5.561,4.306-10.648,7.459-15.265,9.467
		c-4.62,2.005-10.377,3.009-17.272,3.009c-7.273,0-13.908-1.327-19.904-3.981c-5.996-2.653-11.064-6.236-15.202-10.749
		c-4.139-4.515-7.273-9.594-9.404-15.234c-2.131-5.643-3.195-11.451-3.195-17.426c0-8.987,2.214-17.335,6.645-25.048
		c4.43-7.709,10.427-13.812,17.992-18.305c7.563-4.493,15.777-6.739,24.637-6.739c5.476,0,11.304,0.814,17.491,2.445l6.518,1.818
		c1.255,0.251,2.32,0.376,3.199,0.376c1.629,0,2.717-0.242,3.259-0.721c0.545-0.482,0.963-1.349,1.256-2.603h1.002L780.117,574.567z
		"/>
	<path fill="#333333" d="M870.517,571.871h-1.006c-0.458-6.017-2.216-9.915-5.265-11.691c-3.052-1.775-6.811-2.664-11.283-2.664
		h-18.369v77.547c0,6.562,3.342,9.947,10.031,10.155v1.004h-29.403v-1.004c2.76-0.083,5.088-0.888,6.99-2.412
		c1.902-1.526,2.854-4.108,2.854-7.744v-77.548h-18.367c-4.474,0-8.225,0.889-11.254,2.665c-3.031,1.774-4.796,5.673-5.296,11.691
		h-1.005v-22.569h1.005c0.668,1.045,1.25,1.82,1.753,2.321c0.502,0.501,1.149,0.928,1.944,1.284
		c0.792,0.355,1.722,0.605,2.788,0.751c1.066,0.147,2.33,0.22,3.794,0.22h59.806c3.971,0,7.063-1.523,9.278-4.576h1.007v22.57
		H870.517z"/>
	<path fill="#333333" d="M968.501,646.223h-19.372v-15.296l-0.312-0.252c-2.677,6.229-6.678,10.784-12.007,13.667
		c-5.328,2.884-10.895,4.326-16.706,4.326c-6.562,0-12.467-1.567-17.711-4.703c-5.244-3.134-9.1-7.002-11.566-11.597
		c-1.756-3.261-2.864-6.655-3.321-10.188c-0.461-3.532-0.689-7.197-0.689-11.002v-45.952c0-2.758-0.557-5.077-1.662-6.958
		c-1.107-1.881-3.751-2.989-7.93-3.322v-1.066h29.025v1.066c-4.262,0.502-6.979,1.733-8.149,3.7
		c-1.173,1.964-1.756,4.158-1.756,6.581v45.2c0,9.194,0.938,15.985,2.82,20.374c2.005,4.681,5.016,8.338,9.028,10.973
		c4.012,2.631,8.565,3.948,13.665,3.948c2.132,0,4.662-0.375,7.587-1.129c2.924-0.751,5.661-2.005,8.21-3.762
		c7.647-5.224,11.474-13.603,11.474-25.139v-50.467c0-2.548-0.587-4.807-1.755-6.771c-1.171-1.965-3.929-3.133-8.276-3.511v-1.066
		h29.528v1.066c-4.262,0.211-7,1.4-8.212,3.572c-1.212,2.175-1.819,4.367-1.819,6.583v69.964c0,2.425,0.406,4.335,1.223,5.735
		c0.814,1.399,1.944,2.393,3.386,2.979c1.442,0.585,3.207,1.064,5.296,1.44v1.004H968.501z"/>
	<path fill="#333333" d="M978.596,555.195h-1.253v-1.316h31.97c5.143,0,9.5,0.794,13.073,2.384c3.572,1.587,6.353,3.603,8.337,6.05
		c1.986,2.444,3.405,5.024,4.262,7.741c0.857,2.718,1.285,5.394,1.285,8.024c0,3.344-0.698,6.552-2.099,9.623
		c-1.399,3.071-3.553,5.714-6.458,7.93c-2.904,2.216-6.529,3.721-10.877,4.514v0.252c5.519,2.674,10.615,7.981,15.297,15.923
		l8.337,14.105c3.764,6.311,6.782,10.301,9.059,11.974c2.279,1.672,4.525,2.612,6.738,2.82v1.004h-16.8
		c-0.71-0.921-1.379-1.809-2.005-2.664c-0.626-0.859-1.297-1.767-2.008-2.728c-0.417-0.628-1.033-1.578-1.849-2.853
		c-0.816-1.273-1.306-1.996-1.473-2.163l-11.033-18.243c-2.217-3.72-4.483-6.74-6.803-9.058c-2.319-2.32-4.482-3.981-6.488-4.985
		c-2.008-1.001-3.814-1.629-5.425-1.879c-1.607-0.252-3.498-0.375-5.671-0.375v33.789c0,6.562,3.345,9.946,10.029,10.154v1.004
		h-29.399v-1.004c1.837-0.083,3.468-0.426,4.889-1.034c1.42-0.605,2.602-1.649,3.541-3.134c0.942-1.481,1.412-3.478,1.412-5.986
		v-69.838c0-3.678-0.9-6.269-2.695-7.772C982.689,555.947,980.727,555.195,978.596,555.195z M996.713,598.829h5.265
		c5.516,0,10.042-0.794,13.572-2.384c3.531-1.587,6.092-3.856,7.681-6.802c1.586-2.947,2.381-6.553,2.381-10.812
		c0-3.556-0.711-7.034-2.131-10.439c-1.422-3.407-3.835-6.27-7.241-8.588c-3.405-2.321-7.991-3.481-13.762-3.481
		c-2.339,0-4.261,0.189-5.765,0.565V598.829z"/>
	<path fill="#333333" d="M1061.661,554.945v-1.066h55.043v14.544h-0.878c0-7.773-5.182-11.66-15.547-11.66h-19.247v41.94h16.928
		c3.342,0,6.329-0.542,8.963-1.63c2.634-1.086,4.137-3.572,4.513-7.458h0.941v20.937h-0.941c-0.376-2.382-1.084-4.212-2.131-5.484
		c-1.045-1.274-2.078-2.122-3.104-2.538c-1.023-0.42-1.933-0.628-2.728-0.628c-1.502-0.25-3.068-0.375-4.699-0.375h-17.742v32.787
		c0,2.466,0.47,4.598,1.409,6.395c0.942,1.797,3.128,2.696,6.554,2.696h13.729c3.303,0,6.018-0.481,8.15-1.442
		c2.131-0.963,3.812-2.299,5.046-4.013c1.234-1.713,2.268-3.781,3.104-6.206h0.876l-3.195,14.48h-55.043v-1.003h1.253
		c1.964,0,3.887-0.793,5.768-2.382c1.88-1.587,2.821-4.181,2.821-7.773V565.48c0-2.844-0.638-5.309-1.913-7.399
		c-1.272-2.09-3.501-3.133-6.677-3.133h-1.253V554.945z"/>
</g>
</svg>
