<?xml version="1.0" encoding="utf-8"?>
<!-- Generator: Adobe Illustrator 20.0.0, SVG Export Plug-In . SVG Version: 6.00 Build 0)  -->
<svg version="1.1" id="Layer_1" xmlns="http://www.w3.org/2000/svg" xmlns:xlink="http://www.w3.org/1999/xlink" x="0px" y="0px"
	 viewBox="0 0 1049.9 349.5" style="enable-background:new 0 0 1049.9 349.5;" xml:space="preserve">
<g>
	<path d="M506.5,99.8c7,0,10,4.9,10,8.9c0,1.9-0.5,2.4-2.7,2.4h-20.1C495,104.4,499.1,99.8,506.5,99.8 M522.2,129.9
		c-3.1,4.8-7.3,6.4-12.5,6.4c-9.7,0-16.7-7.7-16.7-19.8c0-1.4,0.1-2.8,0.3-4.1H521c0.5-8.9-6.2-13.9-14.2-13.9
		c-10.4,0-18.3,8.9-18.3,22.1c0,11.2,8.1,20.1,18.6,20.1c6.4,0,11.7-3.9,15.7-10.3L522.2,129.9z M486.1,138.8l-5-0.3v-25.3
		c0-9.8-4.3-14.6-12.5-14.6c-6,0-11.4,3.7-14,7.9v-7.4h-0.2l-10.3,2.7v1.1l5.5-1.4v37l-5.1,0.3v0.9h15v-0.9l-5-0.3V107
		c2.5-3.1,7.4-4.7,11-4.7c7.8,0,10.4,3.8,10.4,14v22.2l-5.1,0.3v0.9h15v-0.9H486.1z M439.2,138.8l-5-0.3V99.1H434l-10.3,2.7v1.1
		l5.5-1.4v37l-5.1,0.3v0.9h15L439.2,138.8L439.2,138.8z M402.4,132.4c0,6.2,3.9,8.3,8.3,8.3c3.6,0,7.7-1.5,11.6-6.2l-0.7-0.5
		c-2.7,2.9-5.4,3.7-8.8,3.7c-3.5,0-5.5-1.2-5.5-7.6v-26.3h13.3l1.1-3.6h-14.4V86.9h-0.2c-1.4,1.5-3.2,2.4-4.8,2.7v10.6h-7.8
		l-1.1,3.6h8.9v28.6H402.4z M363.9,139.4c2.6,0.9,7.1,1.3,10.6,1.3c8.4,0,15.2-5.2,15.2-12.6c0-6.7-4-9.2-12.3-11.9l-3.7-1.2
		c-5-1.6-8.3-3.5-8.3-8c0-4.3,3.7-7.1,9.9-7.1c4.9,0,7.4,2.2,9.4,6.5l3.1,6.7l0.8-0.2l-2.9-13.1c-2.6-0.9-6.2-1.3-9.6-1.3
		c-8.9,0-13.9,5.4-13.9,10.8c0,4.2,2.1,8.3,9.4,10.7l4,1.3c6.6,2.2,11,4.5,11,9.7c0,4.9-5.4,8.2-12.2,8.2c-4.9,0-7.4-2.2-9.4-6.5
		l-3.1-6.7l-0.8,0.2L363.9,139.4z M339.4,99.8c7,0,10,4.9,10,8.9c0,1.9-0.5,2.4-2.7,2.4h-20.1C327.8,104.4,331.9,99.8,339.4,99.8
		 M355.1,129.9c-3.1,4.8-7.2,6.4-12.4,6.4c-9.7,0-16.7-7.7-16.7-19.8c0-1.4,0.1-2.8,0.3-4.1H354c0.5-8.9-6.2-13.9-14.2-13.9
		c-10.4,0-18.3,8.9-18.3,22.1c0,11.1,8.1,20.1,18.6,20.1c6.4,0,11.7-3.9,15.7-10.3L355.1,129.9z M318.9,138.8l-5-0.3V70.8h-0.2
		l-10.3,2.7v1.1l5.5-1.4v65.3l-5.1,0.3v0.9h15v-0.9H318.9z M290.6,128.3c-0.1,5.4-5.5,9.3-11,9.3c-5,0-8.7-3.3-8.7-8.2
		c0-4.7,3.6-7.7,10.5-10.9c3.4-1.6,7.1-3.8,9.5-6.4L290.6,128.3z M300.6,136.9l-0.3-0.8l-2.9,1.7c-1.8-1.7-1.8-7-1.8-10.5
		c0-3.9,0.1-10.2,0.3-16.5c0.3-9.2-5-12.7-11.9-12.7c-9.2,0-17.8,6.9-17.8,14.3l3.6,1.7h0.2c-0.4-7.4,3.2-14.4,11.3-14.4
		c5.8,0,9.5,3.7,9.6,10.5c-2.5,3-5.8,5-10.8,7.4c-8.4,4-14.8,7.7-14.8,13.1c0,6.1,5.5,9.9,12.2,9.9s11.5-4.7,13.2-9.6
		c0,5.2,1.3,8.2,3,9.5L300.6,136.9z M232.3,109.4V78.8h7.3c14.1,0,20.2,4.8,20.2,15.3c0,10.6-6.2,15.4-20.2,15.4h-7.3V109.4z
		 M240.3,138.8l-8-0.4v-27.6h7c16.2,0,26.8-5.1,26.8-16.7c0-11.5-10.6-16.6-26.8-16.6h-19.2v0.9l6.3,0.4v59.5l-6.3,0.4v0.9h20.1
		v-0.8H240.3z M170.1,132.4c0,6.2,3.9,8.3,8.3,8.3c3.6,0,7.7-1.5,11.6-6.2l-0.7-0.5c-2.7,2.9-5.4,3.7-8.8,3.7
		c-3.5,0-5.5-1.2-5.5-7.6v-26.3h13.3l1.1-3.6H175V86.9h-0.2c-1.4,1.5-3.2,2.4-4.8,2.7v10.6h-7.8l-1.1,3.6h8.9v28.6H170.1z
		 M160.5,111.3l-2.8-11.9c-5.4-0.6-12,2.9-14.6,7.9v-8.2h-0.2l-10.3,2.7v1.1l5.5-1.4v37l-5.1,0.3v0.9h17.2v-0.9l-7.1-0.3v-30.7
		c2.4-2.9,5.2-4.8,8.4-4.8c2.7,0,4.9,1.1,6.4,4.4l1.8,4.1L160.5,111.3z M111.7,109.9H92.5l9.6-27.3L111.7,109.9z M132.8,138.8
		l-5.1-0.4l-21.2-60.8h-4.2l-21.5,60.8l-5.8,0.4v0.9h13.9v-0.9l-6.3-0.4l8.3-23.6h22.6l8.2,23.6l-5.2,0.4v0.9h16.4L132.8,138.8
		L132.8,138.8z"/>
	<path d="M434,77.2c0-1.1-1-1.7-4.2-3.5l-0.3,0.1c-1,1.6-1.7,3-2.7,4.5c1.6,1,2.9,1.7,4.8,3.1C433.1,79.4,434,77.9,434,77.2"/>
	<path d="M982.7,138.8l-5-0.3V70.8h0.9l-11.4,2.7v1.1l5.5-1.4v65.3l-5.1,0.3v0.9h15L982.7,138.8L982.7,138.8z M954.2,128.3
		c-0.1,5.4-5.5,9.3-11,9.3c-5,0-8.7-3.3-8.7-8.2c0-4.7,3.6-7.7,10.5-10.9c3.4-1.6,7.2-3.8,9.5-6.4L954.2,128.3z M965.5,136.9
		l-0.3-0.8l-4.1,1.7c-1.8-1.7-1.8-7-1.8-10.5c0-3.9,0.1-10.2,0.3-16.5c0.3-9.2-5-12.7-11.9-12.7c-9.2,0-17.8,6.9-17.8,14.3l3.6,1.7
		h0.2c-0.4-7.4,3.2-14.4,11.3-14.4c5.8,0,9.5,3.7,9.6,10.5c-2.5,3-5.8,5-10.8,7.4c-8.4,4-14.8,7.7-14.8,13.1c0,6.1,5.5,9.9,12.2,9.9
		s11.5-4.7,13.2-9.6c0,5.2,1.3,8.2,3,9.5L965.5,136.9z M925.2,138.8l-5-0.3v-25.3c0-9.8-4.3-14.6-12.4-14.6c-6,0-11.4,3.7-14,7.9V99
		h-0.2l-10.3,2.7v1.1l5.5-1.4v37l-5.1,0.3v0.9h15v-0.9l-5-0.3V107c2.5-3.1,7.4-4.7,11-4.7c7.8,0,10.4,3.8,10.4,14v22.2l-5.1,0.3v0.9
		h15v-0.9H925.2z M846.5,118.9c0-13.1,5.6-19.1,13.4-19.1c7.6,0,14.5,6.2,14.5,20.6c0,13.1-5.6,19.1-13.4,19.1
		C853.5,139.4,846.5,133.3,846.5,118.9 M840.7,120.2c0,12.3,9.7,20.6,19.7,20.6c10.1,0,19.9-8.3,19.9-21.7
		c0-12.3-9.7-20.6-19.7-20.6C850.5,98.5,840.7,106.8,840.7,120.2 M836.6,138.8l-5-0.3V99h-0.2l-10.3,2.7v1.1l5.5-1.4v37l-5.1,0.3
		v0.9h15L836.6,138.8L836.6,138.8z M795.4,132.4c0,6.2,3.9,8.3,8.3,8.3c3.6,0,7.7-1.5,11.6-6.2l-0.6-0.5c-2.7,2.9-5.4,3.7-8.8,3.7
		c-3.5,0-5.5-1.2-5.5-7.6v-26.3h13.3l1.1-3.6h-14.4V86.9h-0.2c-1.4,1.5-3.3,2.4-4.8,2.7v10.6h-7.8l-1.1,3.6h8.9V132.4z M775.5,128.3
		c-0.1,5.4-5.5,9.3-11,9.3c-5,0-8.7-3.3-8.7-8.2c0-4.7,3.6-7.7,10.5-10.9c3.4-1.6,7.1-3.8,9.5-6.4L775.5,128.3z M786.8,136.9
		l-0.3-0.8l-4.1,1.7c-1.8-1.7-1.8-7-1.8-10.5c0-3.9,0.1-10.2,0.3-16.5c0.3-9.2-5-12.7-11.9-12.7c-9.2,0-17.8,6.9-17.8,14.3l3.6,1.7
		h0.2c-0.4-7.4,3.3-14.4,11.3-14.4c5.8,0,9.5,3.7,9.6,10.5c-2.5,3-5.8,5-10.8,7.4c-8.4,4-14.8,7.7-14.8,13.1c0,6.1,5.5,9.8,12.2,9.8
		s11.5-4.7,13.2-9.6c0,5.2,1.3,8.2,3,9.5L786.8,136.9z M746.5,138.8l-5-0.3v-25.3c0-9.8-4.3-14.6-12.4-14.6c-6,0-11.4,3.7-14,7.9V99
		h-0.2l-10.3,2.7v1.1l5.5-1.4v37l-5.1,0.3v0.9h15.1v-0.9l-5-0.3V107c2.5-3.1,7.4-4.7,11-4.7c7.8,0,10.4,3.8,10.4,14v22.2l-5.1,0.3
		v0.9h15L746.5,138.8L746.5,138.8z M700.9,111.3l-2.8-11.9c-5.4-0.7-12,2.9-14.6,7.9V99h-0.2l-10.3,2.7v1.1l5.5-1.4v37l-5.1,0.3v0.9
		h17.2v-0.9l-7.1-0.3v-30.7c2.4-2.9,5.2-4.8,8.4-4.8c2.7,0,4.9,1.1,6.4,4.4l1.8,4.1L700.9,111.3z M654.3,99.8c7,0,10,4.9,10,8.9
		c0,1.9-0.5,2.4-2.7,2.4h-20.1C642.7,104.4,646.8,99.8,654.3,99.8 M670,129.9c-3.1,4.8-7.3,6.4-12.4,6.4c-9.7,0-16.7-7.7-16.7-19.8
		c0-1.4,0.1-2.8,0.3-4.1h27.7c0.5-8.9-6.2-13.9-14.2-13.9c-10.4,0-18.3,8.9-18.3,22.1c0,11.2,8.1,20.1,18.6,20.1
		c6.4,0,11.7-3.9,15.7-10.3L670,129.9z M614.9,132.4c0,6.2,3.9,8.3,8.3,8.3c3.6,0,7.7-1.5,11.6-6.2l-0.6-0.5
		c-2.7,2.9-5.4,3.7-8.8,3.7c-3.5,0-5.5-1.2-5.5-7.6v-26.3h13.3l1.1-3.6h-14.4V86.9h-0.2c-1.4,1.5-3.2,2.4-4.8,2.7v10.6h-7.8
		l-1.1,3.6h8.9V132.4z M605.5,138.8l-5-0.3v-25.3c0-9.8-4.3-14.6-12.5-14.6c-6,0-11.4,3.7-14,7.9V99h-0.1l-10.3,2.7v1.1l5.5-1.4v37
		l-5.1,0.3v0.9h15v-0.9l-5-0.3V107c2.5-3.1,7.4-4.7,11-4.7c7.8,0,10.4,3.8,10.4,14v22.2l-5.1,0.3v0.9h15v-0.9H605.5z M559.1,139.6
		v-0.9l-6.3-0.4V78.8l6.3-0.4v-0.9h-18.4v0.9l6.3,0.4v59.5l-6.3,0.4v0.9L559.1,139.6L559.1,139.6z"/>
	<path d="M831.7,79.7c0-1.1-0.9-1.7-4.2-3.5l-0.3,0.1c-1,1.6-1.7,3-2.7,4.5c1.6,1,2.9,1.7,4.8,3.1C830.7,81.9,831.7,80.4,831.7,79.7
		"/>
	<path d="M260,170h-0.3c-1.8,1.2-3.3,2-5.1,2.5c1,17.9,2,44.7,2.6,65c-3,1-4.9,1.3-8.3,1.3c-3.7,0-7.7-1.3-11.3-3.4l-0.2,0.2l-0.8,3
		c6.8,4.9,8.1,5.7,13.7,9.9c-7.2,7.8-25.2,13.7-43.3,13.7c-22.9,0-33.8-6.9-54.3-22.9l-0.5,0.7c10.7,8.4,14.7,10.9,16.5,15.8
		c8.8,5.6,21.1,10.6,37.8,10.6c18.3,0,40.2-6.6,45.2-16.7c0.1-0.2-0.5-1.6-0.6-1.7c-3.6-2.6-6.6-4.9-10.3-7.5
		c2.6,1.4,5.1,2.6,8.6,2.6c3.2,0,5.7-0.8,8.7-2.5c0.6-1.7,2-6.9,2-7.6v-63H260z M210.8,273.9c-1.2,1.9-2.1,3.7-3.3,5.5
		c2,1.2,3.5,2.1,5.8,3.8c1.7-2.5,2.9-4.3,2.9-5.2c0-1.4-1.2-2.1-5.1-4.2L210.8,273.9z M224.1,273.9c-1.2,1.9-2.1,3.7-3.3,5.5
		c2,1.2,3.5,2.1,5.8,3.8c1.7-2.5,2.9-4.3,2.9-5.2c0-1.4-1.2-2.1-5.1-4.2L224.1,273.9z M284.1,206.5c1.9-2.8,3.9-5.3,5.6-7.3
		l-0.7-0.5c-10.1,12.9-15.8,24.7-15.8,32.1c0,7.2,5.4,11.3,12.2,11.3c4.1,0,8.6-1.4,12.4-4.2v1.2c-3.2,15.6-15,22.7-20.8,22.7
		c-4.8,0-8.2-1.9-14.4-5.4l-0.4,0.8l16.4,9.3c10.9-3,21.3-15.2,21.3-31.7C299.9,223.2,293.4,213.1,284.1,206.5 M286.9,237.8
		c-7.1,0-11.8-4.4-11.8-11.2c0-4.2,3-10.6,6.7-16.5c9.1,6,14.6,14.9,15.7,25C293.2,237.2,290.3,237.8,286.9,237.8 M350.8,238.9
		c-5.3,0-7.4-3.1-10.1-8.4c-2.3-4.6-6.4-14.2-10.1-30.5h-0.4c-1.3,1.5-2.5,2.5-4.1,3.7c4.7,13.2,8.5,23.1,13.1,31.6l0.1,0.2
		c-5.2,2-11.2,3.4-17.4,3.4c-8.7,0-12.4-2.8-12.4-9.2c0-1.5,0.2-3,0.5-4.8l-0.8-0.2c-0.7,3.1-1.5,6.1-1.5,8.9c0,6,4.2,9.5,12.2,9.5
		c6.2,0,14.1-1.4,21.1-5.2c3,3.6,6.7,5.2,9.7,5.2c0.6,0,0.8-0.4,0.8-1v-2.4C351.7,239.3,351.6,238.9,350.8,238.9 M364.7,170h-0.3
		c-1.8,1.2-3.3,2-5.1,2.5c1,17.9,2,44,2.6,64.3c-2.8,1.3-6.6,2-11.4,2c-0.5,0-1,0.3-1,0.8v2.4c0,0.4,0.2,1,1,1
		c3.9,0,7.9-1.1,12.3-3.4c0.6-1.7,1.9-6.8,1.9-7.5V170z M383.3,164.1H383c-1.8,1.2-3.3,2-5.1,2.5c1.7,24,2.2,50.5,2.5,79.3h1
		c0-9.7,0.2-11.4,1.9-14.4V164.1z M523.5,238.9c-9.5,0-13.5-6.8-13.5-25.3l-0.7-0.2c-4,7.7-8.9,10.2-13.1,10.2
		c-3.4,0-7.2-1.8-9.5-5.6h-0.4c-1.1,1.7-2.2,3.1-3.7,4.5c3.5,9.5,5.6,16.6,6.7,26c-7.2,7.8-25.4,13.9-43.5,13.9
		c-22.9,0-33.8-6.9-54.3-22.9l-0.5,0.7c10.7,8.4,14.7,10.9,16.5,15.8c8.8,5.6,21.1,10.6,37.8,10.6c20.9,0,46.3-8.6,46.3-21
		c0-3.5-0.6-9.7-2.4-18c7.9-0.4,14.8-4.2,18.8-9.8c0.5,17.3,5.5,25.5,15.8,25.5c0.8,0,1.2-0.6,1.2-1.3v-1.9
		C524.7,239.3,524.1,238.9,523.5,238.9 M456.9,218.7c0-1.4-1.2-2.1-5.1-4.2l-0.3,0.1c-1.2,1.9-2.1,3.7-3.3,5.5
		c2,1.2,3.5,2.1,5.8,3.8C455.7,221.4,456.9,219.6,456.9,218.7 M498.6,252.5c-1.2,1.9-2.1,3.7-3.3,5.5c2,1.2,3.5,2.1,5.8,3.8
		c1.7-2.5,2.9-4.3,2.9-5.2c0-1.4-1.2-2.1-5.1-4.2L498.6,252.5z M511.9,252.5c-1.2,1.9-2.1,3.7-3.3,5.5c2,1.2,3.5,2.1,5.8,3.8
		c1.7-2.5,2.9-4.3,2.9-5.2c0-1.4-1.2-2.1-5.1-4.2L511.9,252.5z M576.7,238.9c-3.9,0-10-0.7-14.7-2.1c6.8-3.3,10.5-7.6,10.5-12.8
		c0-7.2-8.1-18.4-17.2-18.5c-5-0.1-11.4,6.9-23.1,23.7c0.2-7.2,1.9-10.8,1.9-12.3l-1.5-46.8h-0.3c-1.8,1.2-3.3,2-5.1,2.5
		c2.5,22.8,3.3,35.3,4.3,57.5c-1.8,2.6-3.8,5.6-5.9,8.8h-2.1c-0.5,0-1,0.3-1,0.8v2.4c0,0.4,0.2,1,1,1c14.5,0,26.5-1.8,35-5
		c5.2,2.9,11.8,5,18.2,5c0.6,0,1-0.4,1-1v-2.4C577.6,239.3,577.4,238.9,576.7,238.9 M554.1,210.2c6.5,0,13.2,6.6,16.2,16.5
		c-7,7.1-21.9,11.8-43.6,12.2C543.9,214.2,547.5,210.2,554.1,210.2 M634.4,238.9c-5,0-9.7-0.5-12.5-1c1.6-4.4,3.1-8.7,3.1-9.6
		l-0.2-21.7h-0.3c-1.4,1.8-2.9,3.1-4.6,4.3c0,0,3.5,20.2,2.5,22.8l-1.7,4.7c-3.6,0.4-5.8,0.5-9.1,0.5c-3.4,0-7-0.6-10.4-1.7
		c2.1-6.1,5-14.8,7.5-22.4l-1-0.3c-1.9,5.7-6.2,19.2-7.8,23.4c-2,0.6-5.1,1-7.5,1c-3.2,0-6.1-0.3-8.2-0.6c1.8-5,3.9-11.1,6.5-18.9
		l-1-0.3c-1.9,5.7-4.9,14.6-6.5,18.9c-2,0.6-4.7,1-6.9,1c-0.5,0-1,0.3-1,0.8v2.4c0,0.4,0.2,1,1,1c2,0,4.1-0.4,6.5-1.1
		c2,0.5,5.9,1.1,8.6,1.1c2.1,0,5.7-0.4,8-1.1l0.3-0.8c4,1.4,7.8,1.9,11.9,1.9c2.2,0,4.9-0.3,8.7-1.1l0.3-1c3.5,1.3,8.9,2,13.7,2
		c0.6,0,0.8-0.4,0.8-1v-2.4C635.3,239.3,635.1,238.9,634.4,238.9 M656.4,238.9c-4.2,0-8.5-0.8-10.7-2.2v-69h-0.3
		c-1.8,1.2-3.3,2-5.1,2.5c1.2,22.8,1.8,44.1,2.9,66.1l0.1,0.5c-3.5,1.7-6.3,2-9.2,2c-0.5,0-1,0.3-1,0.8v2.4c0,0.4,0.2,1,1,1
		c3,0,6.6-1,11-3c0.3,0.4,0.5,0.7,0.6,0.8c1.9,1.3,6.1,2.1,10.7,2.1c0.6,0,0.8-0.4,0.8-1v-2.4C657.3,239.3,657.2,238.9,656.4,238.9
		 M673,175c0-1.4-1.2-2.1-5.1-4.2l-0.3,0.1c-1.2,1.9-2.1,3.7-3.3,5.5c2,1.2,3.5,2.1,5.8,3.8C671.8,177.6,673,175.8,673,175
		 M669.7,195.4c1.8-2.9,3.7-5.8,5.7-8.7l-0.7-0.5c-6.4,10-15.6,22.8-15.6,33.4c0,6.2,3.9,10,10.7,10c4.6,0,8.9-2,12.9-5.7
		c0.6,3.5,1,7.1,1.1,10.8c-7.5,3.3-14,4.2-27.6,4.2c-0.5,0-1,0.3-1,0.8v2.4c0,0.4,0.2,1,1,1c12.8,0,21.2-1.5,27.9-5.1
		c1-1.6,2.8-5.5,2.8-6.8C686.7,220.3,683.2,205.8,669.7,195.4 M671.2,225.3c-6.4,0-10.1-3.6-10.1-9.5c0-3.8,2.6-10,6.4-16.6
		c8.9,7.6,12.9,14.8,14.8,22.6C677.7,224.3,674.4,225.3,671.2,225.3 M758.7,218.7c0-1.4-1.2-2.1-5.1-4.2l-0.3,0.1
		c-1.2,1.9-2.1,3.7-3.3,5.5c2,1.2,3.5,2.1,5.8,3.8C757.5,221.4,758.7,219.6,758.7,218.7 M802.9,238.9c-3.8,0-8.1-0.4-10.4-1.1
		c-0.6-5.1-1.9-11.9-4.1-19.9H788c-1.1,1.7-2.2,3.1-3.7,4.5c3.5,9.5,5.6,16.6,6.7,26c-7.2,7.8-25.4,13.9-43.5,13.9
		c-22.9,0-33.8-6.9-54.3-22.9l-0.5,0.7c10.7,8.4,14.7,10.9,16.5,15.8c8.8,5.6,21.1,10.6,37.8,10.6c20.9,0,46.3-8.6,46.3-21
		c0-1.2-0.1-2.5-0.2-4.1c3.1,1.1,6.8,1.8,10,1.8c0.6,0,1-0.4,1-1v-2.4C803.9,239.3,803.7,238.9,802.9,238.9 M823.3,182.4
		c0-1.4-1.2-2.1-5.1-4.2l-0.3,0.1c-1.2,1.9-2.1,3.7-3.3,5.5c2,1.2,3.5,2.1,5.8,3.8C822.1,185.1,823.3,183.3,823.3,182.4
		 M838.9,238.9c-4.7,0-8.6-0.2-12-0.7c4.1-3,7.7-7.9,7.7-12.9c0-6.6-7.1-15.4-12.9-20.6c2.3-2.8,4.7-5.2,6.6-7l-0.6-0.7
		c-8.8,9.1-19.6,21.8-19.6,31.4c0,4.7,2.3,7.8,5.8,10.1c-3,0.4-6.6,0.5-11,0.5c-0.6,0-1.1,0.4-1.1,1v2.2c0,0.4,0.2,1.1,1.1,1.1
		c6.9,0,12.2-0.6,17-2.1c5.7,1.7,12.7,2.1,19.1,2.1c0.6,0,1-0.4,1-1v-2.4C839.8,239.3,839.5,238.9,838.9,238.9 M809.9,224.9
		c0-3.8,4.2-10.7,9.1-17c7,6.5,10.3,11.7,13.6,19.7c-3.5,4.1-6.7,7.4-11.1,9.4C813.1,234.7,809.9,230.5,809.9,224.9 M852.8,170h-0.3
		c-1.8,1.2-3.3,2-5.1,2.5c1,17.9,2,44,2.6,64.3c-2.8,1.3-6.6,2-11.4,2c-0.5,0-1,0.3-1,0.8v2.4c0,0.4,0.2,1,1,1
		c3.9,0,7.9-1.1,12.3-3.4c0.6-1.7,1.9-6.8,1.9-7.5V170z M871.5,164.1h-0.3c-1.8,1.2-3.3,2-5.1,2.5c1.7,24,2.2,50.5,2.5,79.3h1
		c0-9.7,0.2-11.4,1.9-14.4L871.5,164.1L871.5,164.1z"/>
</g>
</svg>
