<?xml version="1.0" encoding="utf-8"?>
<!-- Generator: Adobe Illustrator 20.0.0, SVG Export Plug-In . SVG Version: 6.00 Build 0)  -->
<svg version="1.1" id="Layer_1" xmlns="http://www.w3.org/2000/svg" xmlns:xlink="http://www.w3.org/1999/xlink" x="0px" y="0px"
	 viewBox="0 0 1500 420" style="enable-background:new 0 0 1500 420;" xml:space="preserve">
<style type="text/css">
	.st0{fill:#333333;}
</style>
<g>
	<path class="st0" d="M266.3,27.5V13.3H338v14.2h-28v75.7h-15.7V27.5H266.3z"/>
	<path class="st0" d="M348.4,103.2V13.3H363v34.8c0.6-1.4,1.5-2.6,2.8-3.8c1.3-1.1,2.7-2.1,4.3-2.9c1.6-0.8,3.4-1.5,5.3-1.9
		c1.9-0.5,3.9-0.7,6-0.7c3,0,5.8,0.4,8.4,1.3c2.6,0.9,4.8,2.2,6.7,3.9c1.9,1.8,3.4,4,4.5,6.7c1.1,2.7,1.6,5.9,1.6,9.6v43h-14.8V61.5
		c0-2.8-0.9-5.4-2.6-7.6c-1.7-2.2-4.2-3.3-7.6-3.3c-2,0-3.8,0.3-5.5,1c-1.7,0.7-3.2,1.7-4.6,3c-1.4,1.3-2.4,3-3.2,5
		c-0.8,2-1.2,4.3-1.2,6.9v36.7L348.4,103.2L348.4,103.2z"/>
	<path class="st0" d="M412.1,71.8c0-4.6,0.7-8.8,2.1-12.9c1.4-4,3.4-7.5,6-10.5c2.6-3,5.8-5.4,9.6-7.1c3.8-1.8,8.1-2.6,12.9-2.6
		c4.4,0,8.4,0.7,12,2.2c3.6,1.4,6.7,3.6,9.3,6.4c2.6,2.8,4.5,6.3,5.9,10.5c1.4,4.1,2,8.9,2,14.2c0,0.6,0,1.2,0,1.7
		c0,0.6,0,1.3-0.1,2.3h-44.7c0.4,4.9,2.1,8.9,4.9,12c2.9,3.1,6.3,4.6,10.4,4.6c7,0,11.7-3.3,13.9-9.8h14.5c-0.7,3.2-1.8,6.1-3.4,8.8
		c-1.6,2.7-3.6,5-6,7.1s-5.2,3.6-8.3,4.7c-3.2,1.1-6.6,1.7-10.3,1.7c-4.6,0-8.9-0.9-12.6-2.6c-3.8-1.8-7-4.1-9.7-7.1
		c-2.7-3-4.7-6.5-6.2-10.5C412.9,80.6,412.1,76.3,412.1,71.8z M427.3,65.4h29.8c0-1.8-0.3-3.6-1-5.4c-0.6-1.8-1.6-3.4-2.8-4.8
		s-2.8-2.5-4.6-3.4c-1.9-0.9-4-1.3-6.4-1.3c-2.5,0-4.6,0.4-6.5,1.3c-1.8,0.9-3.4,2-4.7,3.4c-1.3,1.4-2.3,3-2.9,4.8
		C427.6,61.8,427.3,63.6,427.3,65.4z"/>
	<path class="st0" d="M502.2,103.2l30.5-89.9h20.1l30.5,89.9H568L560.5,81h-35.4l-7.5,22.2H502.2z M529.9,66.9h25.7l-12.9-38.5
		L529.9,66.9z"/>
	<path class="st0" d="M579.5,40.3h16.3l14.1,46l14.5-46h15.4l-22.4,62.9h-15.8L579.5,40.3z"/>
	<path class="st0" d="M641.3,71.8c0-4.6,0.7-8.8,2.1-12.9c1.4-4,3.4-7.5,6-10.5c2.6-3,5.8-5.4,9.6-7.1c3.8-1.8,8.1-2.6,12.9-2.6
		c4.4,0,8.4,0.7,12,2.2c3.6,1.4,6.7,3.6,9.3,6.4c2.6,2.8,4.5,6.3,5.9,10.5c1.4,4.1,2,8.9,2,14.2c0,0.6,0,1.2,0,1.7
		c0,0.6,0,1.3-0.1,2.3h-44.7c0.4,4.9,2.1,8.9,4.9,12c2.9,3.1,6.3,4.6,10.4,4.6c7,0,11.7-3.3,13.9-9.8h14.6c-0.7,3.2-1.8,6.1-3.4,8.8
		c-1.6,2.7-3.6,5-6,7.1c-2.4,2-5.2,3.6-8.3,4.7c-3.2,1.1-6.6,1.7-10.3,1.7c-4.6,0-8.9-0.9-12.6-2.6c-3.8-1.8-7-4.1-9.7-7.1
		c-2.7-3-4.7-6.5-6.2-10.5C642.1,80.6,641.3,76.3,641.3,71.8z M656.5,65.4h29.8c0-1.8-0.3-3.6-1-5.4c-0.7-1.8-1.6-3.4-2.8-4.8
		c-1.2-1.4-2.8-2.5-4.6-3.4c-1.9-0.9-4-1.3-6.4-1.3c-2.5,0-4.6,0.4-6.5,1.3c-1.8,0.9-3.4,2-4.7,3.4c-1.3,1.4-2.3,3-2.9,4.8
		C656.8,61.8,656.5,63.6,656.5,65.4z"/>
	<path class="st0" d="M709,103.2V40h14.7v6.2c2-2.4,4.1-4.2,6.3-5.5c2.2-1.3,4.9-1.9,8-1.9c2,0,3.9,0.2,5.8,0.7
		c1.9,0.5,3.7,1.2,5.3,2.3l-3.9,14.4c-3.3-2.1-6.4-3.2-9.3-3.2c-1.5,0-3,0.3-4.5,0.8c-1.4,0.6-2.7,1.4-3.8,2.6
		c-1.1,1.1-2,2.6-2.7,4.4c-0.7,1.8-1,3.9-1,6.4v35.9L709,103.2L709,103.2z"/>
	<path class="st0" d="M753.4,40.3h16.2l13.1,44.6l13.2-44.6h15.7l-11.5,35l-12.4,36.8c-0.5,1.5-1.3,3.2-2.3,5.1
		c-1,2-2.4,3.9-4.1,5.7c-1.7,1.8-3.7,3.4-6.2,4.7c-2.4,1.3-5.4,1.9-8.8,1.9c-1,0-2.1,0-3-0.1c-1-0.1-1.8-0.2-2.6-0.4l-2.6-0.6V115
		c0.2,0.1,0.4,0.2,0.6,0.3c0.3,0.1,0.6,0.2,0.9,0.3c1,0.2,2.4,0.4,3.9,0.4c1.2,0,2.5-0.3,4-0.8c1.4-0.6,2.6-1.4,3.6-2.5
		c0.7-0.8,1.3-1.8,1.8-3c0.6-1.2,1-2.2,1.3-3.2l1-3.4L753.4,40.3z"/>
	<path class="st0" d="M846.7,103.2V13.3h40c3.7,0,7.4,0.3,11.1,1c3.7,0.6,7.1,1.9,10,3.7c3,1.8,5.4,4.3,7.3,7.6
		c1.9,3.3,2.8,7.5,2.8,12.7c0,3.3-0.5,6-1.4,8.3c-1,2.3-2.2,4.2-3.6,5.8c-1.4,1.5-3,2.8-4.8,3.7c-1.7,0.9-3.4,1.6-5.1,2
		c-1.7,0.5-3.1,0.8-4.5,0.9c-1.3,0.1-2.3,0.2-2.9,0.2c2.5,0.5,4.7,1.3,6.5,2.4c1.8,1.1,3.3,2.4,4.4,3.9c1.1,1.5,1.9,3.1,2.5,4.9
		c0.6,1.8,0.9,3.5,1.1,5.2c1.1,6.7,1.9,11.6,2.5,14.9c0.5,3.2,1.2,5.6,2,7c0.8,1.4,1.5,2.4,2.1,2.9c0.6,0.5,0.9,1.4,0.9,2.8h-17.6
		c-1.2-1-2.1-2.4-2.8-4c-0.6-1.7-1.1-3.6-1.3-5.8c-0.2-2.2-0.5-4.6-0.7-7.1c-0.3-2.5-0.5-5.2-0.8-8.1c-0.2-1.7-0.6-3.4-1.3-5
		c-0.7-1.6-1.7-3.1-3-4.3c-1.3-1.3-2.9-2.3-4.8-3c-1.9-0.8-4.1-1.1-6.6-1.1h-16.3v38.5L846.7,103.2L846.7,103.2z M862.3,51.5h23.1
		c5.4,0,9.6-1.1,12.5-3.2c2.9-2.1,4.4-5.3,4.4-9.7c0-4.3-1.5-7.5-4.4-9.3c-2.9-1.9-7.1-2.8-12.5-2.8h-23.1V51.5z"/>
	<path class="st0" d="M925.1,71.8c0-4.6,0.7-8.8,2.1-12.9c1.4-4,3.4-7.5,6-10.5c2.6-3,5.8-5.4,9.6-7.1c3.8-1.8,8.1-2.6,12.9-2.6
		c4.4,0,8.4,0.7,12,2.2c3.6,1.4,6.7,3.6,9.3,6.4c2.6,2.8,4.5,6.3,5.9,10.5c1.3,4.1,2,8.9,2,14.2c0,0.6,0,1.2,0,1.7
		c0,0.6,0,1.3-0.1,2.3h-44.7c0.4,4.9,2.1,8.9,4.9,12c2.9,3.1,6.3,4.6,10.4,4.6c7,0,11.7-3.3,13.9-9.8h14.6c-0.7,3.2-1.8,6.1-3.4,8.8
		c-1.6,2.7-3.6,5-6,7.1c-2.4,2-5.2,3.6-8.3,4.7c-3.1,1.1-9,1.7-12.7,1.7c-4.6,0-6.5-0.9-10.2-2.6c-3.8-1.8-7-4.1-9.7-7.1
		c-2.7-3-4.7-6.5-6.2-10.5C925.9,80.6,925.1,76.3,925.1,71.8z M940.3,65.4h29.8c0-1.8-0.3-3.6-1-5.4c-0.6-1.8-1.6-3.4-2.8-4.8
		c-1.2-1.4-2.8-2.5-4.6-3.4c-1.9-0.9-4-1.3-6.4-1.3c-2.5,0-4.6,0.4-6.5,1.3c-1.8,0.9-3.4,2-4.7,3.4c-1.3,1.4-2.3,3-2.9,4.8
		C940.6,61.8,940.3,63.6,940.3,65.4z"/>
	<path class="st0" d="M988.9,40.3h16.3l14.1,46l14.5-46h15.4l-22.4,62.9h-15.8L988.9,40.3z"/>
	<path class="st0" d="M1056.7,28.4v-15h16.4v15H1056.7z M1057.5,103.2V40.3h14.8v62.9H1057.5L1057.5,103.2z"/>
	<path class="st0" d="M1085.8,71.8c0-4.6,0.7-8.8,2.1-12.9c1.4-4,3.4-7.5,6-10.5c2.6-3,5.8-5.4,9.6-7.1c3.8-1.8,8.1-2.6,12.9-2.6
		c4.4,0,8.4,0.7,12,2.2c3.6,1.4,6.7,3.6,9.3,6.4c2.6,2.8,4.5,6.3,5.9,10.5c1.3,4.1,2,8.9,2,14.2c0,0.6,0,1.2,0,1.7
		c0,0.6,0,1.3-0.1,2.3h-44.7c0.4,4.9,2.1,8.9,4.9,12c2.9,3.1,6.3,4.6,10.4,4.6c7,0,11.7-3.3,13.9-9.8h14.6c-0.7,3.2-1.8,6.1-3.5,8.8
		c-1.6,2.7-3.6,5-6,7.1c-2.4,2-5.2,3.6-8.3,4.7c-3.1,1.1-9,1.7-12.7,1.7c-4.6,0-6.5-0.9-10.2-2.6c-3.8-1.8-7-4.1-9.7-7.1
		c-2.7-3-4.7-6.5-6.2-10.5C1086.5,80.6,1085.8,76.3,1085.8,71.8z M1101,65.4h29.8c0-1.8-0.3-3.6-1-5.4c-0.6-1.8-1.6-3.4-2.8-4.8
		c-1.2-1.4-2.8-2.5-4.6-3.4c-1.9-0.9-4-1.3-6.4-1.3c-2.5,0-4.6,0.4-6.5,1.3c-1.8,0.9-3.4,2-4.7,3.4c-1.3,1.4-2.3,3-2.9,4.8
		C1101.3,61.8,1101,63.6,1101,65.4z"/>
	<path class="st0" d="M1148.3,40.3h16.2l10.9,46l12-46h13.2l12.5,46l10.9-46h16.2l-18.7,62.9h-15.4l-10.7-38.4l-1.6-5.9l-1.5,5.8
		l-10.4,38.5h-14.9L1148.3,40.3z"/>
	<path class="st0" d="M193.4,180.9h-1.1c-0.8-4.5-2.9-8.3-6.4-11.5c-3.4-3.1-7.4-5.4-11.9-6.9c-4.5-1.4-8.7-2.2-12.5-2.2
		c-5.3,0-10.3,1.1-15,3.4c-4.7,2.2-8.7,5.4-12.1,9.5c-3.4,4.1-6,9-7.9,14.7c-1.9,5.7-2.8,11.9-2.8,18.6c0,6.5,0.9,12.5,2.7,18
		c1.8,5.5,4.5,10.3,8,14.4c3.5,4.1,7.5,7.2,12.1,9.2c4.6,2.1,9.7,3.1,15.3,3.1c4.7,0,9.8-1,15.4-2.9c5.6-1.9,10.7-5.1,15.2-9.5v3.6
		c-5.6,4.3-10.6,7.5-15.3,9.5c-4.6,2-10.4,3-17.3,3c-7.3,0-13.9-1.3-19.9-4c-6-2.7-11.1-6.2-15.2-10.8c-4.1-4.5-7.3-9.6-9.4-15.2
		c-2.1-5.6-3.2-11.5-3.2-17.4c0-9,2.2-17.3,6.6-25c4.4-7.7,10.4-13.8,18-18.3c7.6-4.5,15.8-6.7,24.6-6.7c5.5,0,11.3,0.8,17.5,2.4
		l6.5,1.8c1.3,0.3,2.3,0.4,3.2,0.4c1.6,0,2.7-0.2,3.3-0.7c0.5-0.5,1-1.3,1.3-2.6h1L193.4,180.9z"/>
	<path class="st0" d="M203.4,161.6h-1.3v-1.3h32c5.1,0,9.5,0.8,13.1,2.4c3.6,1.6,6.4,3.6,8.3,6.1c2,2.4,3.4,5,4.3,7.7
		c0.9,2.7,1.3,5.4,1.3,8c0,3.3-0.7,6.6-2.1,9.6c-1.4,3.1-3.6,5.7-6.5,7.9c-2.9,2.2-6.5,3.7-10.9,4.5v0.3c5.5,2.7,10.6,8,15.3,15.9
		l8.3,14.1c3.8,6.3,6.8,10.3,9.1,12s4.5,2.6,6.7,2.8v1h-16.8c-0.7-0.9-1.4-1.8-2-2.7c-0.6-0.9-1.3-1.8-2-2.7c-0.4-0.6-1-1.6-1.8-2.9
		c-0.8-1.3-1.3-2-1.5-2.2l-11-18.2c-2.2-3.7-4.5-6.7-6.8-9.1c-2.3-2.3-4.5-4-6.5-5c-2-1-3.8-1.6-5.4-1.9c-1.6-0.3-3.5-0.4-5.7-0.4
		v33.8c0,6.6,3.3,9.9,10,10.2v1h-29.4v-1c1.8-0.1,3.5-0.4,4.9-1c1.4-0.6,2.6-1.6,3.5-3.1c0.9-1.5,1.4-3.5,1.4-6v-69.8
		c0-3.7-0.9-6.3-2.7-7.8C207.5,162.3,205.5,161.6,203.4,161.6z M221.5,205.2h5.3c5.5,0,10-0.8,13.6-2.4c3.5-1.6,6.1-3.9,7.7-6.8
		s2.4-6.6,2.4-10.8c0-3.6-0.7-7-2.1-10.4c-1.4-3.4-3.8-6.3-7.2-8.6c-3.4-2.3-8-3.5-13.8-3.5c-2.3,0-4.3,0.2-5.8,0.6L221.5,205.2
		L221.5,205.2z"/>
	<path class="st0" d="M316,160.2v1.1c-2.8,0-5.1,0.8-7,2.3c-1.9,1.5-2.9,4.1-2.9,7.7v70.1c0,3.6,1,6.1,3.1,7.7
		c2,1.6,4.3,2.4,6.8,2.4v1h-29.3v-1c2.7,0,5-0.8,6.9-2.4s2.9-4.2,2.9-7.8v-70.1c0-3.8-1-6.5-2.9-7.9s-4.3-2.1-6.9-2.1v-1.1
		L316,160.2L316,160.2z"/>
	<path class="st0" d="M404.1,178.2h-1c-0.5-6-2.2-9.9-5.3-11.7s-6.8-2.7-11.3-2.7h-18.4v77.5c0,6.6,3.3,9.9,10,10.2v1h-29.4v-1
		c2.8-0.1,5.1-0.9,7-2.4c1.9-1.5,2.9-4.1,2.9-7.7v-77.6h-18.4c-4.5,0-8.2,0.9-11.3,2.7c-3,1.8-4.8,5.7-5.3,11.7h-1v-22.6h1
		c0.7,1,1.3,1.8,1.8,2.3c0.5,0.5,1.1,0.9,1.9,1.3c0.8,0.4,1.7,0.6,2.8,0.8c1.1,0.1,2.3,0.2,3.8,0.2h59.8c4,0,7.1-1.5,9.3-4.6h1
		L404.1,178.2L404.1,178.2z"/>
	<path class="st0" d="M440.4,160.2v1.1c-2.8,0-5.1,0.8-7,2.3c-1.9,1.5-2.9,4.1-2.9,7.7v70.1c0,3.6,1,6.1,3.1,7.7
		c2,1.6,4.3,2.4,6.8,2.4v1h-29.3v-1c2.7,0,5-0.8,6.9-2.4c1.9-1.6,2.9-4.2,2.9-7.8v-70.1c0-3.8-1-6.5-2.9-7.9s-4.3-2.1-6.9-2.1v-1.1
		L440.4,160.2L440.4,160.2z"/>
	<path class="st0" d="M530.5,180.9h-1.1c-0.8-4.5-2.9-8.3-6.4-11.5c-3.4-3.1-7.4-5.4-11.9-6.9c-4.5-1.4-8.7-2.2-12.5-2.2
		c-5.3,0-10.3,1.1-15,3.4c-4.7,2.2-8.7,5.4-12.1,9.5c-3.4,4.1-6,9-7.9,14.7c-1.9,5.7-2.8,11.9-2.8,18.6c0,6.5,0.9,12.5,2.7,18
		c1.8,5.5,4.5,10.3,8,14.4c3.5,4.1,7.5,7.2,12.1,9.2c4.6,2.1,9.7,3.1,15.3,3.1c4.7,0,9.8-1,15.4-2.9c5.6-1.9,10.7-5.1,15.2-9.5v3.6
		c-5.6,4.3-10.6,7.5-15.3,9.5c-4.6,2-10.4,3-17.3,3c-7.3,0-13.9-1.3-19.9-4c-6-2.7-11.1-6.2-15.2-10.8c-4.1-4.5-7.3-9.6-9.4-15.2
		c-2.1-5.6-3.2-11.5-3.2-17.4c0-9,2.2-17.3,6.6-25c4.4-7.7,10.4-13.8,18-18.3c7.6-4.5,15.8-6.7,24.6-6.7c5.5,0,11.3,0.8,17.5,2.4
		l6.5,1.8c1.3,0.3,2.3,0.4,3.2,0.4c1.6,0,2.7-0.2,3.3-0.7c0.5-0.5,1-1.3,1.3-2.6h1L530.5,180.9z"/>
	<path class="st0" d="M581.6,159.1l27.6,79.1c1.5,4.1,2.8,7.1,4.1,8.9c1.3,1.8,2.5,3,3.7,3.5c1.2,0.5,2.7,0.8,4.5,1v1h-30.2v-1
		c3.1,0,5.5-0.3,7.1-0.9c1.7-0.6,2.5-2.2,2.5-4.8c0-1.4-0.4-3.3-1.2-5.7c-0.2-0.3-0.2-0.6-0.2-0.8l-8.2-24.5h-32l-7.3,22.7
		c-1,3.1-1.5,5.6-1.5,7.5c0,2.6,0.6,4.3,1.9,5.2c1.3,0.9,3.1,1.3,5.5,1.3v1h-21.7v-1c3.1-0.3,5.6-1.5,7.4-3.5
		c1.9-2.1,3.5-5.2,4.9-9.4l26.1-79.5L581.6,159.1L581.6,159.1L581.6,159.1z M560.6,211.6H590l-15-43.8h-0.3L560.6,211.6z"/>
	<path class="st0" d="M628,251.6h1.3c2.3,0,4.3-0.9,6-2.7c1.7-1.8,2.6-4.3,2.6-7.5v-69.7c0-3.8-1-6.5-2.9-8
		c-1.9-1.5-4.3-2.3-6.9-2.4v-1.1h29.5v1.1c-2.6,0.1-4.9,0.9-6.9,2.3c-2,1.5-3,4.2-3,8.1v67.4c0,4,1,6.8,3,8.3c2,1.5,5.3,2.3,9.8,2.3
		h8c3.5,0,6.2-0.4,8.3-1.3c2.1-0.8,3.7-2.1,4.9-3.8c1.2-1.7,2.4-4.1,3.7-7.3h1.1l-3.5,15.2H628L628,251.6L628,251.6z"/>
	<path class="st0" d="M734.7,161.3v-1.1h55v14.5h-0.9c0-7.8-5.2-11.7-15.5-11.7h-19.2v41.9H771c3.3,0,6.3-0.5,9-1.6
		c2.6-1.1,4.1-3.6,4.5-7.5h0.9v20.9h-0.9c-0.4-2.4-1.1-4.2-2.1-5.5c-1-1.3-2.1-2.1-3.1-2.5c-1-0.4-1.9-0.6-2.7-0.6
		c-1.5-0.3-3.1-0.4-4.7-0.4h-17.7v32.8c0,2.5,0.5,4.6,1.4,6.4c0.9,1.8,3.1,2.7,6.6,2.7h13.7c3.3,0,6-0.5,8.2-1.4c2.1-1,3.8-2.3,5-4
		c1.2-1.7,2.3-3.8,3.1-6.2h0.9l-3.2,14.5h-55v-1h1.3c2,0,3.9-0.8,5.8-2.4c1.9-1.6,2.8-4.2,2.8-7.8v-69.6c0-2.8-0.6-5.3-1.9-7.4
		c-1.3-2.1-3.5-3.1-6.7-3.1L734.7,161.3L734.7,161.3L734.7,161.3z"/>
	<path class="st0" d="M850.3,178h-1c-0.6-4.5-2.5-8.4-5.9-11.8c-3.3-3.4-7.7-5-13.1-5c-3.6,0-6.7,0.8-9.5,2.5
		c-2.8,1.7-4.9,3.9-6.4,6.8c-1.5,2.9-2.3,6.2-2.3,9.9c0,2.9,0.5,5.4,1.3,7.7s2.2,4.2,4,5.9c1.8,1.7,3.8,3.3,6.2,4.8
		c2.4,1.5,5.6,3.4,9.7,5.6c6.8,3.7,12,7.4,15.8,11.1c3.8,3.7,5.6,8.8,5.6,15.2c0,3.9-1,7.7-3,11.4c-2,3.7-5.1,6.7-9.2,9
		c-4.1,2.3-9.2,3.5-15.2,3.5c-3.8,0-7.2-0.4-10.1-1.2c-2.9-0.8-5.9-2-8.9-3.4c-1.3-0.4-2.1-0.6-2.6-0.6c-0.9,0-1.5,0.3-1.7,0.9
		c-0.3,0.6-0.6,2-1.1,4.1h-1.1v-23.1h1.1c1.5,6.8,4.4,11.9,8.8,15.4c4.3,3.5,9.6,5.2,15.9,5.2c4.7,0,8.4-0.9,11.3-2.6
		c2.8-1.8,4.8-3.9,5.9-6.4c1.1-2.5,1.6-5,1.6-7.5c0-5.2-1.6-9.4-4.7-12.7c-3.2-3.3-8-6.6-14.4-10.1c-4.4-2.4-7.7-4.3-9.8-5.6
		c-2.1-1.3-4.3-3.1-6.5-5.2c-2.2-2.1-3.9-4.6-5.2-7.6c-1.3-2.9-1.9-6.2-1.9-10c0-4.3,1.2-8.5,3.4-12.5c2.3-4,5.6-7.2,9.8-9.6
		c4.2-2.4,9-3.6,14.4-3.6c4.1,0,8.2,0.7,12.5,2.1c0.7,0.3,1.6,0.5,2.7,0.5c1.4,0,2.3-0.9,2.8-2.8h1L850.3,178L850.3,178z"/>
	<path class="st0" d="M910.6,178h-1c-0.6-4.5-2.5-8.4-5.9-11.8c-3.3-3.4-7.7-5-13.1-5c-3.6,0-6.7,0.8-9.5,2.5
		c-2.8,1.7-4.9,3.9-6.4,6.8c-1.5,2.9-2.3,6.2-2.3,9.9c0,2.9,0.4,5.4,1.3,7.7c0.9,2.2,2.2,4.2,4,5.9c1.8,1.7,3.8,3.3,6.2,4.8
		c2.4,1.5,5.6,3.4,9.7,5.6c6.8,3.7,12,7.4,15.8,11.1s5.6,8.8,5.6,15.2c0,3.9-1,7.7-3,11.4c-2,3.7-5.1,6.7-9.2,9
		c-4.1,2.3-9.2,3.5-15.2,3.5c-3.8,0-7.2-0.4-10.1-1.2c-2.9-0.8-5.9-2-8.9-3.4c-1.3-0.4-2.1-0.6-2.6-0.6c-0.9,0-1.5,0.3-1.7,0.9
		c-0.3,0.6-0.6,2-1.1,4.1h-1.1v-23.1h1.1c1.5,6.8,4.4,11.9,8.8,15.4c4.3,3.5,9.6,5.2,15.9,5.2c4.7,0,8.4-0.9,11.2-2.6
		c2.8-1.8,4.8-3.9,5.9-6.4c1.1-2.5,1.6-5,1.6-7.5c0-5.2-1.6-9.4-4.7-12.7c-3.2-3.3-8-6.6-14.4-10.1c-4.4-2.4-7.7-4.3-9.8-5.6
		c-2.1-1.3-4.3-3.1-6.5-5.2c-2.2-2.1-3.9-4.6-5.2-7.6c-1.3-2.9-1.9-6.2-1.9-10c0-4.3,1.1-8.5,3.4-12.5c2.3-4,5.6-7.2,9.8-9.6
		c4.2-2.4,9-3.6,14.4-3.6c4.1,0,8.2,0.7,12.5,2.1c0.7,0.3,1.6,0.5,2.7,0.5c1.4,0,2.3-0.9,2.8-2.8h1L910.6,178L910.6,178z"/>
	<path class="st0" d="M965.4,159.1l27.6,79.1c1.5,4.1,2.8,7.1,4.1,8.9c1.3,1.8,2.5,3,3.7,3.5c1.2,0.5,2.7,0.8,4.5,1v1h-30.2v-1
		c3.1,0,5.5-0.3,7.1-0.9c1.7-0.6,2.5-2.2,2.5-4.8c0-1.4-0.4-3.3-1.2-5.7c-0.2-0.3-0.2-0.6-0.2-0.8l-8.2-24.5h-32l-7.3,22.7
		c-1,3.1-1.5,5.6-1.5,7.5c0,2.6,0.6,4.3,1.9,5.2c1.3,0.9,3.1,1.3,5.5,1.3v1h-21.7v-1c3.1-0.3,5.6-1.5,7.4-3.5
		c1.9-2.1,3.5-5.2,4.9-9.4l26.1-79.5L965.4,159.1L965.4,159.1L965.4,159.1z M944.4,211.6h29.4l-15-43.8h-0.3L944.4,211.6z"/>
	<path class="st0" d="M1081.1,160.2v1.1c-2.8,0-5.2,0.7-7.4,1.9c-2.2,1.3-3.8,2.6-5,3.9c-1.2,1.4-2.5,3-3.9,4.9l-21.6,32.5v37
		c0,3.3,1,5.8,3,7.4c2,1.6,4.4,2.5,7.2,2.6v1h-29.3v-1c3-0.1,5.3-0.9,7.1-2.5c1.7-1.6,2.6-4.1,2.6-7.5v-35.4l-23.5-35.2
		c-2.5-3.8-4.8-6.3-6.7-7.6c-2-1.3-4.7-1.9-8.1-2v-1.1h32.8v1.1c-3.3,0.1-5.5,0.8-6.4,2.2c-0.9,1.3-1.4,2.6-1.4,3.7
		c0,1.3,0.8,3.2,2.4,5.6l19.2,28.5l17.1-25.7c2.6-3.8,3.9-6.8,3.9-8.8c0-1.4-0.3-2.5-1-3.3c-0.7-0.8-1.4-1.3-2.1-1.6
		c-0.7-0.3-1.5-0.5-2.3-0.6v-1.1L1081.1,160.2L1081.1,160.2L1081.1,160.2z"/>
	<path class="st0" d="M1131.4,178h-1c-0.6-4.5-2.5-8.4-5.9-11.8c-3.3-3.4-7.7-5-13.1-5c-3.6,0-6.7,0.8-9.5,2.5
		c-2.8,1.7-4.9,3.9-6.4,6.8c-1.5,2.9-2.3,6.2-2.3,9.9c0,2.9,0.4,5.4,1.3,7.7c0.9,2.2,2.2,4.2,4,5.9c1.8,1.7,3.8,3.3,6.2,4.8
		c2.4,1.5,5.6,3.4,9.7,5.6c6.8,3.7,12,7.4,15.8,11.1c3.8,3.7,5.6,8.8,5.6,15.2c0,3.9-1,7.7-3,11.4c-2,3.7-5.1,6.7-9.2,9
		c-4.1,2.3-9.2,3.5-15.2,3.5c-3.8,0-7.2-0.4-10.1-1.2c-2.9-0.8-5.9-2-8.9-3.4c-1.3-0.4-2.1-0.6-2.6-0.6c-0.9,0-1.5,0.3-1.7,0.9
		c-0.3,0.6-0.6,2-1.1,4.1h-1.1v-23.1h1.1c1.5,6.8,4.4,11.9,8.8,15.4c4.3,3.5,9.6,5.2,15.9,5.2c4.7,0,8.4-0.9,11.3-2.6
		c2.8-1.8,4.8-3.9,5.9-6.4c1.1-2.5,1.6-5,1.6-7.5c0-5.2-1.6-9.4-4.7-12.7c-3.2-3.3-8-6.6-14.4-10.1c-4.4-2.4-7.7-4.3-9.8-5.6
		c-2.1-1.3-4.3-3.1-6.5-5.2c-2.2-2.1-3.9-4.6-5.2-7.6c-1.3-2.9-1.9-6.2-1.9-10c0-4.3,1.1-8.5,3.4-12.5c2.3-4,5.6-7.2,9.8-9.6
		c4.2-2.4,9-3.6,14.4-3.6c4.1,0,8.2,0.7,12.5,2.1c0.7,0.3,1.6,0.5,2.7,0.5c1.4,0,2.3-0.9,2.8-2.8h1L1131.4,178L1131.4,178
		L1131.4,178z"/>
	<path class="st0" d="M1287.8,206.5c0,8.7-2.1,16.7-6.4,24.1s-10.1,13.4-17.5,17.8c-7.4,4.4-15.6,6.6-24.6,6.6
		c-9,0-17.3-2.2-24.8-6.6c-7.5-4.4-13.4-10.4-17.8-17.8c-4.3-7.5-6.5-15.6-6.5-24.4c0-6.8,1.3-13.1,3.9-19.1
		c2.6-6,6.2-11.1,10.8-15.6c4.6-4.4,9.9-7.9,15.8-10.3c5.9-2.4,12.1-3.6,18.5-3.6c6.3,0,12.4,1.2,18.2,3.5c5.8,2.3,11,5.7,15.6,10.1
		c4.6,4.4,8.2,9.6,10.9,15.6C1286.5,192.7,1287.8,199.3,1287.8,206.5z M1276.8,206.8c0-12.3-2.2-21.9-6.5-28.8
		c-4.3-6.9-9.4-11.6-15-13.9c-5.7-2.4-11-3.5-16.1-3.5c-3.9,0-7.9,0.6-12.1,1.9c-4.2,1.3-8.2,3.6-12.2,7c-3.9,3.4-7.2,8.2-9.7,14.3
		s-3.8,13.7-3.8,22.8c0,7.9,1.1,14.9,3.2,20.8c2.1,5.9,5,10.7,8.7,14.5c3.7,3.7,7.8,6.4,12.2,8.1c4.4,1.7,9.1,2.5,13.9,2.5
		c4.3,0,8.7-0.8,13.1-2.3c4.4-1.5,8.4-4,12.1-7.5c3.7-3.4,6.6-8.1,8.9-14C1275.7,222.5,1276.8,215.3,1276.8,206.8z"/>
	<path class="st0" d="M1387.7,160.2v1.1c-2.3,0.3-4.2,0.7-5.5,1.3c-1.4,0.6-2.4,1.8-3.2,3.6c-0.8,1.8-1.1,4.3-1.1,7.7v81h-0.6
		l-70.9-79.1v56.8c0,4.7,0.2,8.2,0.6,10.5c0.4,2.3,0.9,4,1.6,5c1.5,2.2,4.2,3.3,8.1,3.5v1h-23.1v-1c2.6-0.1,4.6-0.7,6-1.7
		c1.4-1,2.5-2.8,3.1-5.4c0.6-2.6,0.9-6.6,0.9-11.8v-60.2l-3.1-3.4c-2.7-3.1-4.9-5-6.5-5.9c-1.6-0.8-3.7-1.4-6.1-1.8v-1.1h17.4
		l69.8,78.2v-59.6c0-4.5-0.2-7.8-0.5-10c-0.4-2.2-1.3-4-2.8-5.3c-1.5-1.3-3.9-2.1-7.2-2.2v-1.1L1387.7,160.2L1387.7,160.2z"/>
	<path class="st0" d="M311.8,303.8l27.6,79.1c1.5,4.1,2.8,7.1,4.1,8.9c1.3,1.8,2.5,3,3.7,3.5c1.2,0.5,2.7,0.8,4.5,1v1h-30.2v-1
		c3.1,0,5.5-0.3,7.1-0.9c1.7-0.6,2.5-2.2,2.5-4.8c0-1.4-0.4-3.3-1.2-5.7c-0.2-0.3-0.2-0.6-0.2-0.8l-8.2-24.5h-32l-7.3,22.7
		c-1,3.1-1.5,5.6-1.5,7.5c0,2.6,0.6,4.3,1.9,5.2c1.3,0.9,3.1,1.3,5.5,1.3v1h-21.7v-1c3.1-0.3,5.6-1.5,7.4-3.5
		c1.9-2.1,3.5-5.2,4.9-9.4l26.1-79.5L311.8,303.8L311.8,303.8z M290.8,356.3h29.4l-15-43.8h-0.2L290.8,356.3z"/>
	<path class="st0" d="M359.1,306.2h-1.3v-1.3h32c5.1,0,9.5,0.8,13.1,2.4c3.6,1.6,6.4,3.6,8.3,6c2,2.4,3.4,5,4.3,7.7
		c0.9,2.7,1.3,5.4,1.3,8c0,3.3-0.7,6.6-2.1,9.6c-1.4,3.1-3.6,5.7-6.5,7.9c-2.9,2.2-6.5,3.7-10.9,4.5v0.3c5.5,2.7,10.6,8,15.3,15.9
		l8.3,14.1c3.8,6.3,6.8,10.3,9.1,12c2.3,1.7,4.5,2.6,6.7,2.8v1H420c-0.7-0.9-1.4-1.8-2-2.7c-0.6-0.9-1.3-1.8-2-2.7
		c-0.4-0.6-1-1.6-1.8-2.9c-0.8-1.3-1.3-2-1.5-2.2l-11-18.2c-2.2-3.7-4.5-6.7-6.8-9.1c-2.3-2.3-4.5-4-6.5-5c-2-1-3.8-1.6-5.4-1.9
		c-1.6-0.3-3.5-0.4-5.7-0.4v33.8c0,6.6,3.3,9.9,10,10.2v1h-29.4v-1c1.8-0.1,3.5-0.4,4.9-1c1.4-0.6,2.6-1.6,3.5-3.1
		c0.9-1.5,1.4-3.5,1.4-6v-69.8c0-3.7-0.9-6.3-2.7-7.8C363.2,306.9,361.2,306.2,359.1,306.2z M377.2,349.8h5.3c5.5,0,10-0.8,13.6-2.4
		c3.5-1.6,6.1-3.9,7.7-6.8c1.6-2.9,2.4-6.6,2.4-10.8c0-3.6-0.7-7-2.1-10.4c-1.4-3.4-3.8-6.3-7.2-8.6c-3.4-2.3-8-3.5-13.8-3.5
		c-2.3,0-4.3,0.2-5.8,0.6L377.2,349.8L377.2,349.8z"/>
	<path class="st0" d="M513.3,325.6h-1.1c-0.8-4.5-2.9-8.3-6.4-11.5c-3.4-3.1-7.4-5.4-11.9-6.9c-4.5-1.4-8.7-2.2-12.5-2.2
		c-5.3,0-10.3,1.1-15,3.4c-4.7,2.2-8.7,5.4-12.1,9.5c-3.4,4.1-6,9-7.9,14.7c-1.9,5.7-2.8,11.9-2.8,18.6c0,6.5,0.9,12.5,2.7,18
		c1.8,5.5,4.5,10.3,8,14.4c3.5,4.1,7.5,7.2,12.1,9.2c4.6,2.1,9.7,3.1,15.3,3.1c4.7,0,9.8-1,15.4-2.9c5.6-1.9,10.7-5.1,15.2-9.5v3.6
		c-5.6,4.3-10.6,7.5-15.3,9.5c-4.6,2-10.4,3-17.3,3c-7.3,0-13.9-1.3-19.9-4c-6-2.7-11.1-6.2-15.2-10.7c-4.1-4.5-7.3-9.6-9.4-15.2
		c-2.1-5.6-3.2-11.5-3.2-17.4c0-9,2.2-17.3,6.6-25c4.4-7.7,10.4-13.8,18-18.3c7.6-4.5,15.8-6.7,24.6-6.7c5.5,0,11.3,0.8,17.5,2.4
		l6.5,1.8c1.3,0.3,2.3,0.4,3.2,0.4c1.6,0,2.7-0.2,3.3-0.7c0.5-0.5,1-1.3,1.3-2.6h1L513.3,325.6z"/>
	<path class="st0" d="M594.3,347.1v-30.9c0-3-0.8-5.5-2.4-7.4c-1.6-1.9-4.2-2.9-7.6-2.9v-1.1h29.4v1.1c-3.4,0-5.9,1-7.5,2.9
		c-1.6,1.9-2.4,4.4-2.4,7.4v69.8c0,6.8,3.3,10.2,9.9,10.2v1h-29.4v-1c3.1,0,5.6-0.8,7.4-2.5c1.8-1.7,2.7-4.2,2.7-7.5V350h-52.9v36.1
		c0,3.2,0.9,5.7,2.7,7.5c1.8,1.8,4.3,2.7,7.3,2.7v1h-29.4v-1c3.2,0,5.6-0.9,7.3-2.7c1.7-1.8,2.5-4.3,2.5-7.5v-69.8
		c0-6.9-3.3-10.3-9.8-10.3v-1.1h29.4v1.1c-3.5,0-6,1-7.6,2.9c-1.6,1.9-2.4,4.4-2.4,7.4v30.9L594.3,347.1L594.3,347.1z"/>
	<path class="st0" d="M651.9,304.9v1.1c-2.8,0-5.1,0.8-7,2.3c-1.9,1.5-2.9,4.1-2.9,7.7v70.1c0,3.6,1,6.1,3.1,7.7
		c2,1.6,4.3,2.4,6.8,2.4v1h-29.3v-1c2.7,0,5-0.8,6.9-2.3c1.9-1.6,2.9-4.2,2.9-7.8V316c0-3.8-1-6.5-2.9-7.9c-1.9-1.4-4.3-2.1-6.9-2.1
		v-1.1L651.9,304.9L651.9,304.9z"/>
	<path class="st0" d="M740.1,322.9h-1c-0.5-6-2.2-9.9-5.3-11.7c-3.1-1.8-6.8-2.7-11.3-2.7h-18.4v77.5c0,6.6,3.3,9.9,10,10.2v1h-29.4
		v-1c2.8-0.1,5.1-0.9,7-2.4c1.9-1.5,2.9-4.1,2.9-7.7v-77.5h-18.4c-4.5,0-8.2,0.9-11.3,2.7c-3,1.8-4.8,5.7-5.3,11.7h-1v-22.6h1
		c0.7,1,1.3,1.8,1.8,2.3c0.5,0.5,1.2,0.9,1.9,1.3c0.8,0.4,1.7,0.6,2.8,0.8c1.1,0.1,2.3,0.2,3.8,0.2h59.8c4,0,7.1-1.5,9.3-4.6h1
		L740.1,322.9L740.1,322.9z"/>
	<path class="st0" d="M746.8,305.9v-1.1h55v14.5H801c0-7.8-5.2-11.7-15.5-11.7h-19.2v41.9h16.9c3.3,0,6.3-0.5,9-1.6
		c2.6-1.1,4.1-3.6,4.5-7.5h0.9v20.9h-0.9c-0.4-2.4-1.1-4.2-2.1-5.5c-1-1.3-2.1-2.1-3.1-2.5c-1-0.4-1.9-0.6-2.7-0.6
		c-1.5-0.2-3.1-0.4-4.7-0.4h-17.7v32.8c0,2.5,0.5,4.6,1.4,6.4s3.1,2.7,6.6,2.7h13.7c3.3,0,6-0.5,8.1-1.4c2.1-1,3.8-2.3,5-4
		c1.2-1.7,2.3-3.8,3.1-6.2h0.9l-3.2,14.5h-55v-1h1.3c2,0,3.9-0.8,5.8-2.4c1.9-1.6,2.8-4.2,2.8-7.8v-69.6c0-2.8-0.6-5.3-1.9-7.4
		c-1.3-2.1-3.5-3.1-6.7-3.1L746.8,305.9L746.8,305.9L746.8,305.9z"/>
	<path class="st0" d="M895.7,325.6h-1.1c-0.8-4.5-2.9-8.3-6.4-11.5c-3.4-3.1-7.4-5.4-11.9-6.9c-4.5-1.4-8.7-2.2-12.5-2.2
		c-5.3,0-10.3,1.1-15,3.4c-4.7,2.2-8.7,5.4-12.1,9.5c-3.4,4.1-6,9-7.9,14.7c-1.9,5.7-2.8,11.9-2.8,18.6c0,6.5,0.9,12.5,2.7,18
		c1.8,5.5,4.5,10.3,8,14.4c3.5,4.1,7.5,7.2,12.1,9.2c4.6,2.1,9.7,3.1,15.3,3.1c4.7,0,9.8-1,15.4-2.9c5.6-1.9,10.7-5.1,15.2-9.5v3.6
		c-5.6,4.3-10.6,7.5-15.3,9.5c-4.6,2-10.4,3-17.3,3c-7.3,0-13.9-1.3-19.9-4c-6-2.7-11.1-6.2-15.2-10.7c-4.1-4.5-7.3-9.6-9.4-15.2
		c-2.1-5.6-3.2-11.5-3.2-17.4c0-9,2.2-17.3,6.6-25c4.4-7.7,10.4-13.8,18-18.3c7.6-4.5,15.8-6.7,24.6-6.7c5.5,0,11.3,0.8,17.5,2.4
		l6.5,1.8c1.3,0.3,2.3,0.4,3.2,0.4c1.6,0,2.7-0.2,3.3-0.7c0.5-0.5,1-1.3,1.3-2.6h1L895.7,325.6z"/>
	<path class="st0" d="M986.1,322.9h-1c-0.5-6-2.2-9.9-5.3-11.7c-3.1-1.8-6.8-2.7-11.3-2.7h-18.4v77.5c0,6.6,3.3,9.9,10,10.2v1h-29.4
		v-1c2.8-0.1,5.1-0.9,7-2.4c1.9-1.5,2.9-4.1,2.9-7.7v-77.5h-18.4c-4.5,0-8.2,0.9-11.3,2.7c-3,1.8-4.8,5.7-5.3,11.7h-1v-22.6h1
		c0.7,1,1.2,1.8,1.8,2.3c0.5,0.5,1.1,0.9,1.9,1.3c0.8,0.4,1.7,0.6,2.8,0.8c1.1,0.1,2.3,0.2,3.8,0.2h59.8c4,0,7.1-1.5,9.3-4.6h1
		L986.1,322.9L986.1,322.9z"/>
	<path class="st0" d="M1084.1,397.2h-19.4v-15.3l-0.3-0.3c-2.7,6.2-6.7,10.8-12,13.7c-5.3,2.9-10.9,4.3-16.7,4.3
		c-6.6,0-12.5-1.6-17.7-4.7c-5.2-3.1-9.1-7-11.6-11.6c-1.8-3.3-2.9-6.7-3.3-10.2c-0.5-3.5-0.7-7.2-0.7-11v-46c0-2.8-0.6-5.1-1.7-7
		c-1.1-1.9-3.8-3-7.9-3.3v-1.1h29v1.1c-4.3,0.5-7,1.7-8.1,3.7c-1.2,2-1.8,4.2-1.8,6.6v45.2c0,9.2,0.9,16,2.8,20.4c2,4.7,5,8.3,9,11
		c4,2.6,8.6,3.9,13.7,3.9c2.1,0,4.7-0.4,7.6-1.1c2.9-0.8,5.7-2,8.2-3.8c7.6-5.2,11.5-13.6,11.5-25.1v-50.5c0-2.5-0.6-4.8-1.8-6.8
		c-1.2-2-3.9-3.1-8.3-3.5v-1.1h29.5v1.1c-4.3,0.2-7,1.4-8.2,3.6c-1.2,2.2-1.8,4.4-1.8,6.6v70c0,2.4,0.4,4.3,1.2,5.7
		c0.8,1.4,1.9,2.4,3.4,3c1.4,0.6,3.2,1.1,5.3,1.4L1084.1,397.2L1084.1,397.2L1084.1,397.2z"/>
	<path class="st0" d="M1094.2,306.2h-1.3v-1.3h32c5.1,0,9.5,0.8,13.1,2.4c3.6,1.6,6.4,3.6,8.3,6c2,2.4,3.4,5,4.3,7.7
		c0.9,2.7,1.3,5.4,1.3,8c0,3.3-0.7,6.6-2.1,9.6c-1.4,3.1-3.6,5.7-6.5,7.9c-2.9,2.2-6.5,3.7-10.9,4.5v0.3c5.5,2.7,10.6,8,15.3,15.9
		l8.3,14.1c3.8,6.3,6.8,10.3,9.1,12c2.3,1.7,4.5,2.6,6.7,2.8v1H1155c-0.7-0.9-1.4-1.8-2-2.7c-0.6-0.9-1.3-1.8-2-2.7
		c-0.4-0.6-1-1.6-1.8-2.9c-0.8-1.3-1.3-2-1.5-2.2l-11-18.2c-2.2-3.7-4.5-6.7-6.8-9.1c-2.3-2.3-4.5-4-6.5-5c-2-1-3.8-1.6-5.4-1.9
		c-1.6-0.3-3.5-0.4-5.7-0.4v33.8c0,6.6,3.3,9.9,10,10.2v1h-29.4v-1c1.8-0.1,3.5-0.4,4.9-1c1.4-0.6,2.6-1.6,3.5-3.1
		c0.9-1.5,1.4-3.5,1.4-6v-69.8c0-3.7-0.9-6.3-2.7-7.8C1098.3,306.9,1096.3,306.2,1094.2,306.2z M1112.3,349.8h5.3
		c5.5,0,10-0.8,13.6-2.4c3.5-1.6,6.1-3.9,7.7-6.8c1.6-2.9,2.4-6.6,2.4-10.8c0-3.6-0.7-7-2.1-10.4c-1.4-3.4-3.8-6.3-7.2-8.6
		c-3.4-2.3-8-3.5-13.8-3.5c-2.3,0-4.3,0.2-5.8,0.6V349.8z"/>
	<path class="st0" d="M1177.2,305.9v-1.1h55v14.5h-0.9c0-7.8-5.2-11.7-15.5-11.7h-19.2v41.9h16.9c3.3,0,6.3-0.5,9-1.6
		c2.6-1.1,4.1-3.6,4.5-7.5h0.9v20.9h-0.9c-0.4-2.4-1.1-4.2-2.1-5.5c-1-1.3-2.1-2.1-3.1-2.5c-1-0.4-1.9-0.6-2.7-0.6
		c-1.5-0.2-3.1-0.4-4.7-0.4h-17.7v32.8c0,2.5,0.5,4.6,1.4,6.4c0.9,1.8,3.1,2.7,6.6,2.7h13.7c3.3,0,6-0.5,8.2-1.4c2.1-1,3.8-2.3,5-4
		c1.2-1.7,2.3-3.8,3.1-6.2h0.9l-3.2,14.5h-55v-1h1.3c2,0,3.9-0.8,5.8-2.4c1.9-1.6,2.8-4.2,2.8-7.8v-69.6c0-2.8-0.6-5.3-1.9-7.4
		c-1.3-2.1-3.5-3.1-6.7-3.1L1177.2,305.9L1177.2,305.9L1177.2,305.9z"/>
</g>
</svg>
