<?xml version="1.0" encoding="utf-8"?>
<!-- Generator: Adobe Illustrator 23.0.4, SVG Export Plug-In . SVG Version: 6.00 Build 0)  -->
<svg version="1.1" id="Layer_1" xmlns="http://www.w3.org/2000/svg" xmlns:xlink="http://www.w3.org/1999/xlink" x="0px" y="0px"
	 viewBox="0 0 222 160" style="enable-background:new 0 0 222 160;" xml:space="preserve">
<g>
	<path d="M50.41,49.02c0,4.38-3.28,7.84-7.29,7.84c-5.06,0-9.3-5.42-12.44-5.42c-1.28,0-2.19,0.91-2.19,2.1
		c0,0.36,0.09,0.91,0.5,1.19c0.41-0.91,1.32-1.6,2.32-1.6c1.09,0,2.01,0.82,2.01,1.87c0,1.09-1.09,1.64-2.1,1.64
		c-1.55,0-3.19-1.32-3.19-3.74c0-2.92,2.37-5.06,5.1-5.06c0.59,0,1.19,0.09,1.73,0.32c1.73-2.83,2.69-5.42,2.69-8.11
		c0-6.34-5.1-13.54-7.84-13.54c-0.64,0-1,0.41-1,0.87c0,2.19,7.52,5.93,7.52,12.94c0,3.97-2.42,5.7-4.65,5.7
		c-2.01,0-3.19-1.37-3.19-2.83c0-1.28,0.87-2.1,2.14-2.6l0.09,0.32c-1.14,0.5-1.82,1.23-1.82,2.32c0,1.37,1.09,2.1,2.6,2.1
		c1.73,0,2.6-0.96,2.6-2.01c0-2.78-5.97-6.43-5.97-13.45c0-3.33,1.32-5.42,4.79-5.42c2.14,0,3.78,0.82,5.01,2.1
		c1.23-1.05,3.15-2.19,4.88-2.19c3.33,0,3.92,4.19,5.47,4.19c0.55,0,1.19-0.5,1.19-0.96s-0.59-1.05-0.91-1.28L48.72,26
		c1,0.73,1.46,1.96,1.46,3.28c0,2.19-1.19,2.78-2.42,2.92l0.23,0.05c-1.41,0.5-2.73,1.46-2.73,3.19
		C45.26,38.86,50.41,43.55,50.41,49.02z M48.54,52.62c0-3.51-7.38-9.62-7.38-14.27c0-2.96,3.01-5.65,4.97-6.2
		c-4.28-0.77-3.78-6.11-6.47-6.11c-0.64,0-1.23,0.32-1.55,0.77c1.69,2.01,2.42,5.06,2.42,8.07c0,5.01-2.05,8.3-5.29,13.4
		c3.97,1.64,6.61,7.38,9.89,7.38C46.67,55.67,48.54,54.4,48.54,52.62z"/>
	<path d="M72.79,45.01c-0.36,4.88-4.1,11.94-9.89,11.94c-4.88,0-11.58-4.97-11.58-19.6c0-9.12,2.6-12.76,7.16-12.76
		c1.23,0,2.05,0.27,3.74,1.6c1.6-1.05,3.33-1.5,4.19-1.5h0.41c0.55,0.87,1.5,1.78,2.87,1.78c1.14,0,2.14-0.68,2.51-1.41l0.23,0.09
		c-0.23,2.23-1.64,5.24-4.15,5.24c-2.28,0-5.24-2.55-5.65-4.01c-0.55,0.14-1.73,0.82-1.73,2.55c0,2.19,1.91,4.42,3.97,6.79
		l4.79-4.01h0.14l2.69,3.6v0.14l-2.6,2.37h-0.09L67,34.48h-0.09l-1.73,1.55c2.46,2.83,5.1,5.79,5.1,8.98c0,3.24-2.69,5.47-5.38,5.47
		c-1.87,0-4.1-1.09-4.1-3.6c0-2.01,1.41-2.37,2.64-2.51l0.14,0.55c-0.87,0-2.46,0.32-2.46,1.82c0,1.19,1.05,2.51,2.96,2.51
		c1.46,0,2.64-0.73,2.64-2.46c0-4.56-8.2-7.79-8.2-14.31c0-2.83,1.5-4.79,3.28-6.02c-0.46-0.5-1.14-0.87-1.91-0.87
		c-2.51,0-3.6,3.74-3.6,11.44c0,14.77,4.06,18.09,7.79,18.09c4.56,0,7.57-5.01,8.43-10.12H72.79z"/>
	<path d="M96.63,52.21l0.27,0.32l-4.47,4.1h-0.18c-2.46-1.41-2.83-3.6-2.83-5.61V35.21l-1.14,0.27v0.59
		c0,6.29-3.42,15.82-8.07,20.65h-0.14c-0.68-0.91-1.78-1.73-3.19-1.73c-1.6,0-2.42,1.05-2.87,1.64l-0.18-0.14
		c0-3.19,1.64-5.61,5.1-5.61c1.19,0,2.73,0.27,4.1,1.28c0.68-0.96,1.78-3.65,1.78-7.84c0-7.88-4.01-16.91-8.61-17.91
		c-0.18-0.05-0.27-0.05-0.36-0.05c-0.68,0-0.87,0.23-0.87,0.73c0,3.28,7.89,5.7,7.89,12.81c0,4.38-2.96,6.06-4.88,6.06
		c-1.5,0-3.42-1-3.42-2.83c0-1.5,1.32-2.23,3.37-2.23v0.32c-1.6,0-2.96,0.77-2.96,1.78c0,0.91,1.09,2.14,2.92,2.14
		c1.64,0,2.19-1,2.19-2.37c0-4.56-6.34-6.65-6.34-13.04c0-3.46,1.87-5.51,5.29-5.51c1.91,0,3.65,0.64,5.06,1.78
		c0.96-0.82,2.69-1.69,4.65-1.69c4.47,0,3.6,4.79,6.38,4.79c0.82,0,1.23-0.41,1.23-1.37c0-0.32-0.05-0.36-0.05-0.59l0.32-0.09
		c0.32,1.09,0.5,2.1,0.5,2.96c0,1.96-0.96,3.19-3.05,3.24l-0.05,3.6v14.22c0,0.96,0.32,1.96,1,2.55L96.63,52.21z M83.04,52.53
		 M93.02,33.25l0.32-0.05c-4.79-0.5-4.97-7.34-7.57-7.34c-0.46,0-0.87,0.23-1.23,0.55c2.14,1.96,3.46,5.01,3.69,8.61L93.02,33.25z"
		/>
	<path d="M129.71,52.35l0.23,0.23l-4.51,4.24h-0.18c-2.46-1.41-3.51-3.6-3.56-5.61l-0.18-12.94c0-2.46,2.33-4.42,3.88-4.65
		c-4.15-0.96-4.65-7.98-8.48-7.98c-0.23,0-0.46,0.05-0.64,0.09c2.42,2.05,3.65,5.83,3.65,9.66c0,7.93-5.24,16.64-8.52,21.38h-0.14
		c-0.68-0.91-1.5-1.69-2.92-1.69c-1.6,0-2.69,1-3.15,1.6l-0.32-0.18c2.19-3.1,3.83-5.06,5.88-5.06c0.73,0,2.42,0.23,3.14,0.91
		c0.68-1.09,2.23-4.28,2.23-9.53c0-7.98-3.69-17.23-7.06-17.23c-0.36,0-0.77,0.09-1.14,0.27c2.01,1.64,3.6,4.69,3.6,9.84
		c0,7.29-3.15,15.91-7.52,21.01h-0.14c-0.68-0.91-1.78-1.37-3.33-1.37c-1.46,0-2.28,0.41-2.73,1l-0.18-0.14
		c0-1.64,0.87-5.33,5.29-5.33c1.37,0,2.37,0.36,3.69,1.37c0.68-0.87,1.82-2.83,1.82-7.11c0-8.39-4.42-19.23-8.43-19.23
		c-0.87,0-1.32,0.55-1.32,1.14c0,2.42,7.7,6.15,7.7,12.85c0,4.1-2.92,5.33-4.69,5.33c-1.73,0-3.92-1.19-3.92-3.1
		c0-1.41,1.19-2.73,3.24-2.73v0.32c-1.6,0-2.83,1.32-2.83,2.32c0,0.91,1,2.23,3.05,2.23c1.46,0,2.83-0.64,2.83-2.05
		c0-3.1-6.47-7.93-6.47-12.85c0-2.51,1.69-5.33,5.42-5.33c1.41,0,3.15,0.41,4.65,1.6c1.09-0.96,2.87-1.46,4.42-1.46
		c1.6,0,2.92,0.5,4.06,1.41c1.09-0.64,2.64-1.41,4.38-1.41c4.83,0,5.2,5.93,7.79,5.93c0.96,0,1.5-0.82,1.5-2.6h0.36
		c0.05,0.32,0.05,0.64,0.05,1c0,2.23-0.82,5.2-3.87,5.2h-0.14v3.33l0.36,14.22c0,1,0.64,2.01,1.5,2.69L129.71,52.35z M106.61,52.62"
		/>
	<path d="M139.38,24.5c5.47,0,11.26,4.47,11.26,17.91c0,9.89-3.14,14.08-6.88,14.08c-4.06,0-5.42-4.97-8.75-4.97
		c-1.6,0-2.42,1.14-2.42,2.1c0,0.36,0.14,0.68,0.36,0.91l0.05,0.05c0.23-1.32,0.96-1.69,2.05-1.69c1.55,0,1.92,0.82,1.92,1.69
		c0,1.55-1.23,2.01-2.01,2.01c-1.73,0-2.92-2.46-2.92-4.19c0-2.28,2.14-4.47,5.01-4.47c4.42,0,5.65,5.15,8.07,5.15
		c1.46,0,5.06-1.87,5.06-10.07c0-7.84-3.28-13.22-10.57-13.22c-3.01,0-4.29-0.91-4.29-2.96c0-0.32,0-0.64,0.09-0.91
		c-0.73,0.27-1.55,0.82-1.55,2.28c0,4.69,8.43,8.16,8.43,14.04c0,2.6-1.64,5.7-5.51,5.7c-2.92,0-4.24-1.73-4.24-3.33
		c0-2.19,2.42-2.78,3.01-2.78l-0.05,0.32c-0.73,0-2.64,0.64-2.64,2.32c0,1.55,1.64,2.64,3.14,2.64c1.64,0,2.69-1.23,2.69-2.78
		c0-3.83-6.52-6.11-6.52-12.81C132.18,26.64,135.6,24.5,139.38,24.5z"/>
	<path d="M174.52,52.53l-4.47,4.1h-0.18c-2.46-1.41-2.83-3.6-2.83-5.61V37.35c0-2.23,1.28-4.24,2.87-4.24
		c-4.24-1-4.51-7.25-6.97-7.25c-0.46,0-0.87,0.23-1.23,0.55c2.32,2.14,3.74,5.65,3.74,9.66c0,6.29-3.42,15.82-8.07,20.65h-0.14
		c-0.68-0.91-1.78-1.73-3.19-1.73c-1.59,0-2.42,1.05-2.87,1.64L151,56.49c0-3.19,1.64-5.61,5.1-5.61c1.19,0,2.74,0.27,4.1,1.28
		c0.64-0.96,1.78-3.69,1.78-7.75c0-4.92-1.64-15-8.61-18c-0.14-0.05-0.32-0.05-0.36-0.05c-0.68,0-0.87,0.27-0.87,0.77
		c0,3.24,7.88,5.65,7.88,12.76c0,4.38-2.96,6.06-4.88,6.06c-1.5,0-3.42-1.05-3.42-2.78c0-1.41,1.32-2.28,3.37-2.28v0.32
		c-1.64,0-2.96,0.64-2.96,1.73c0,0.96,1.05,2.19,2.92,2.19c1.64,0,2.19-1,2.19-2.37c0-4.56-6.33-6.65-6.33-13.04
		c0-3.46,1.87-5.51,5.29-5.51c1.91,0,3.65,0.64,5.06,1.78c0.96-0.82,2.69-1.69,4.65-1.69c4.47,0,3.6,4.79,6.38,4.79
		c0.82,0,1.23-0.41,1.23-1.37c0-0.32-0.05-0.36-0.05-0.59l0.32-0.09c0.32,1.09,0.5,2.1,0.5,2.96c0,1.82-0.82,3.01-2.6,3.19
		l-0.05,3.65v14.22c0,0.96,0.32,1.96,1,2.55l1.6-1.41L174.52,52.53z M160.21,52.53"/>
	<path d="M193.67,47.61c0.41,1.32,0.64,2.23,0.64,3.19c0,2.46-1.5,5.93-5.88,5.93c-5.33,0-7.98-5.2-10.67-5.2
		c-0.87,0-2.46,0.55-2.46,2.14c0,0.82,0.41,1.5,1,1.55c-0.27-1.05,0.27-2.19,1.55-2.19c1.14,0,1.78,0.82,1.82,2.01
		c0,0.27,0.05,1.32-1.78,1.32c-1.59,0-3.1-0.82-3.1-3.24c0-2.42,1.46-5.24,4.65-5.24c0.96,0,1.78,0.23,2.55,0.64l0.04-0.18
		c-1.73-1.37-2.51-3.78-2.51-5.97c0-0.55,0.05-1.55,0.46-2.42l0.36,0.27c-0.36,0.87-0.36,1.46-0.36,2.55c0,2.64,2.6,5.29,4.51,5.29
		c1.23,0,1.73-1.09,1.73-2.01c0-2.96-5.38-5.33-5.38-9.84c0-2.51,1.64-4.15,5.74-4.38v-0.18c-2.96-1.05-4.74-3.6-7.84-3.6
		c-1.69,0-2.42,0.77-2.42,2.05c0,1.69,1.23,2.51,2.6,2.51l-0.04,0.46c-1.32,0-3.6-0.73-3.6-3.69c0-3.14,2.51-5.1,5.1-5.1
		c3.83,0,7.66,4.38,11.21,4.38c1.78,0,2.19-1.14,2.19-2.42l0.36-0.09c1.14,3.42-1.23,5.97-4.97,5.97c-3.6,0-5.15,0.82-5.15,2.37
		c0,3.19,6.38,5.42,6.38,10.53c0,2.87-1.96,4.51-4.79,4.51c-0.96,0-1.82-0.18-2.51-0.5l-0.09,0.09c2.42,1.69,4.33,4.47,7.52,4.47
		c2.37,0,3.28-1.5,3.28-3.19c0-0.77-0.18-2.1-0.5-2.6L193.67,47.61z"/>
	<path d="M37.14,82.51h0.27c-0.36,4.88-4.1,11.94-9.89,11.94c-4.88,0-11.58-4.97-11.58-19.6c0-9.12,2.6-12.76,7.16-12.76
		c1.28,0,2.1,0.27,3.92,1.73c1.64-1.14,3.46-1.64,4.38-1.64h0.41c0.55,0.87,1.5,1.78,2.87,1.78c1.14,0,2.14-0.68,2.51-1.41
		l0.23,0.09c-0.23,2.23-1.64,5.24-4.15,5.24c-2.28,0-5.24-2.55-5.65-4.01c-0.55,0.14-1.73,0.82-1.73,2.55
		c0,4.83,9.39,10.07,9.39,16.09c0,3.24-2.69,5.47-5.38,5.47c-1.87,0-4.1-1.09-4.1-3.6c0-2.01,1.41-2.37,2.64-2.51l0.14,0.55
		c-0.87,0-2.46,0.32-2.46,1.82c0,1.19,1.05,2.51,2.96,2.51c1.46,0,2.64-0.73,2.64-2.46c0-4.56-8.2-7.79-8.2-14.31
		c0-2.69,1.37-4.6,3.05-5.83c-0.41-0.59-1.19-1.05-2.05-1.05c-2.51,0-3.6,3.74-3.6,11.44c0,14.77,4.06,18.09,7.79,18.09
		C33.27,92.63,36.28,87.62,37.14,82.51z"/>
	<path d="M61.26,89.71l0.27,0.32l-4.47,4.1h-0.18c-2.46-1.41-2.83-3.6-2.83-5.61V72.71l-1.14,0.27v0.59
		c0,6.29-3.42,15.82-8.07,20.65h-0.14c-0.68-0.91-1.78-1.73-3.19-1.73c-1.6,0-2.42,1.05-2.87,1.64L38.47,94
		c0-3.19,1.64-5.61,5.1-5.61c1.19,0,2.73,0.27,4.1,1.28c0.68-0.96,1.78-3.65,1.78-7.84c0-7.88-4.01-16.91-8.61-17.91
		c-0.18-0.05-0.27-0.05-0.36-0.05c-0.68,0-0.87,0.23-0.87,0.73c0,3.28,7.89,5.7,7.89,12.81c0,4.38-2.96,6.06-4.88,6.06
		c-1.5,0-3.42-1-3.42-2.83c0-1.5,1.32-2.23,3.37-2.23v0.32c-1.6,0-2.96,0.77-2.96,1.78c0,0.91,1.09,2.14,2.92,2.14
		c1.64,0,2.19-1,2.19-2.37c0-4.56-6.34-6.65-6.34-13.04c0-3.46,1.87-5.51,5.29-5.51c1.91,0,3.65,0.64,5.06,1.78
		c0.96-0.82,2.69-1.69,4.65-1.69c4.47,0,3.6,4.79,6.38,4.79c0.82,0,1.23-0.41,1.23-1.37c0-0.32-0.05-0.36-0.05-0.59l0.32-0.09
		c0.32,1.09,0.5,2.1,0.5,2.96c0,1.96-0.96,3.19-3.05,3.24l-0.05,3.6v14.22c0,0.96,0.32,1.96,1,2.55L61.26,89.71z M47.67,90.03
		 M57.65,70.75l0.32-0.05c-4.79-0.5-4.97-7.34-7.57-7.34c-0.46,0-0.87,0.23-1.23,0.55c2.14,1.96,3.46,5.01,3.69,8.61L57.65,70.75z"
		/>
	<path d="M84.14,82.51c-0.36,4.88-4.1,11.94-9.89,11.94c-4.88,0-11.58-4.97-11.58-19.6c0-9.12,2.6-12.76,7.16-12.76
		c1.23,0,2.05,0.27,3.74,1.6c1.6-1.05,3.33-1.5,4.19-1.5h0.41c0.55,0.87,1.5,1.78,2.87,1.78c1.14,0,2.14-0.68,2.51-1.41l0.23,0.09
		c-0.23,2.23-1.64,5.24-4.15,5.24c-2.28,0-5.24-2.55-5.65-4.01c-0.55,0.14-1.73,0.82-1.73,2.55c0,2.19,1.91,4.42,3.97,6.79
		l4.79-4.01h0.14l2.69,3.6v0.14l-2.6,2.37h-0.09l-2.78-3.33h-0.09l-1.73,1.55c2.46,2.83,5.1,5.79,5.1,8.98
		c0,3.24-2.69,5.47-5.38,5.47c-1.87,0-4.1-1.09-4.1-3.6c0-2.01,1.41-2.37,2.64-2.51l0.14,0.55c-0.87,0-2.46,0.32-2.46,1.82
		c0,1.19,1.05,2.51,2.96,2.51c1.46,0,2.64-0.73,2.64-2.46c0-4.56-8.2-7.79-8.2-14.31c0-2.83,1.5-4.79,3.28-6.02
		c-0.46-0.5-1.14-0.87-1.91-0.87c-2.51,0-3.6,3.74-3.6,11.44c0,14.77,4.06,18.09,7.79,18.09c4.56,0,7.57-5.01,8.43-10.12H84.14z"/>
	<path d="M109.43,90.03l-4.47,4.1h-0.18c-2.46-1.41-2.83-3.6-2.83-5.61V74.86c0-2.23,1.28-4.24,2.87-4.24
		c-4.24-1-4.51-7.25-6.97-7.25c-0.46,0-0.87,0.23-1.23,0.55c2.32,2.14,3.74,5.65,3.74,9.66c0,6.29-3.42,15.82-8.07,20.65h-0.14
		c-0.68-0.91-1.78-1.73-3.19-1.73c-1.6,0-2.42,1.05-2.87,1.64L85.92,94c0-3.19,1.64-5.61,5.1-5.61c1.19,0,2.73,0.27,4.1,1.28
		c0.64-0.96,1.78-3.69,1.78-7.75c0-4.92-1.64-15-8.61-18c-0.14-0.05-0.32-0.05-0.36-0.05c-0.68,0-0.87,0.27-0.87,0.77
		c0,3.24,7.88,5.65,7.88,12.76c0,4.38-2.96,6.06-4.88,6.06c-1.5,0-3.42-1.05-3.42-2.78c0-1.41,1.32-2.28,3.37-2.28v0.32
		c-1.64,0-2.96,0.64-2.96,1.73c0,0.96,1.05,2.19,2.92,2.19c1.64,0,2.19-1,2.19-2.37c0-4.56-6.34-6.65-6.34-13.04
		c0-3.46,1.87-5.51,5.29-5.51c1.91,0,3.65,0.64,5.06,1.78c0.96-0.82,2.69-1.69,4.65-1.69c4.47,0,3.6,4.79,6.38,4.79
		c0.82,0,1.23-0.41,1.23-1.37c0-0.32-0.05-0.36-0.05-0.59l0.32-0.09c0.32,1.09,0.5,2.1,0.5,2.96c0,1.82-0.82,3.01-2.6,3.19
		l-0.05,3.65v14.22c0,0.96,0.32,1.96,1,2.55l1.6-1.41L109.43,90.03z M95.12,90.03"/>
	<path d="M127.03,65.47c1.14,0,1.55-0.64,1.55-1.37c0-0.41-0.09-0.68-0.64-1.41l0.27-0.23c0.64,0.87,1,1.64,1,2.78
		c0,2.05-1.19,3.92-3.92,3.92c-3.55,0-4.38-3.15-7.52-3.15c-4.37,0-6.97,6.11-6.97,10.94c0,6.56,4.74,12.4,10.07,12.4
		c6.11,0,7.57-7.57,7.57-10.44c0-2.32-0.96-3.05-1.96-3.05c-3.51,0-0.87,8.84-6.43,8.84c-3.19,0-5.97-2.92-5.97-6.93
		c0-3.69,2.32-5.01,4.88-5.01v0.41c-3.05,0-4.38,1.82-4.38,4.47c0,1.28,0.32,3.65,2.64,3.65c4.24,0,1.55-8.2,6.7-8.2
		c2.92,0,5.33,2.83,5.33,9.02c0,5.42-1.87,11.94-8.07,11.94c-7.2,0-10.8-8.75-10.8-17.23c0-8.84,3.92-14.58,8.71-14.58
		C122.65,62.23,124.47,65.47,127.03,65.47z"/>
	<path d="M147.54,95l0.23,0.46c-1.82,1.05-5.15,2.32-7.75,2.32c-2.96,0-6.47-1.37-6.47-4.69c0-2.28,1.6-4.47,4.88-4.47
		c1.32,0,3.83,0.55,5.65,2.14c2.14-1.41,3.19-5.61,3.19-8.48c0-5.2-3.01-10.94-7.98-10.94c-1.59,0-2.46,0.59-3.05,1.14
		c1.91,2.96,4.69,5.97,4.69,9.48c0,3.28-2.42,5.88-6.02,5.88c-3.37,0-5.06-2.32-5.06-4.38c0-2.01,1.55-2.51,2.55-2.51
		c1.28,0,1.82,0.82,1.82,1.87s-0.5,1.41-1.18,1.64s-1.41,0.23-1.41,0.91c0,0.96,1.28,1.46,2.64,1.46c1.46,0,3.01-0.59,3.01-2.83
		c0-4.15-5.38-6.79-5.38-13.13c0-2.87,1.09-5.1,3.01-6.7c2.14-1.78,4.42-2.1,7.7-2.1c0.41,0.64,1.37,2.37,3.37,2.37
		c1.32,0,2.69-0.77,3.33-1.82l0.5,0.5c-0.5,1.91-2.73,4.6-5.33,4.6c-2.96,0-6.06-3.15-6.65-4.69c-1,0-3.28,2.05-3.28,4.83
		c0,1.41,0.59,2.78,1.46,4.19c1.37-1.73,3.65-3.42,5.97-3.42c2.87,0,8.29,2.55,8.29,9.39c0,7.98-7.52,15.5-9.48,16.04h-0.14
		c-1.59-1.55-2.64-2.01-3.83-2.01c-1.37,0-2.32,0.68-2.32,1.91c0,1.91,2.96,3.24,5.79,3.24C142.62,97.23,145.49,96.09,147.54,95z"/>
	<path d="M172.2,90.21L168.23,94h-0.37c-1.18-1.6-3.6-3.33-3.6-5.06v-0.77l-6.84,6.06h-0.32c-1.14-2.23-3.6-4.24-5.52-5.06v-0.18
		c3.15-2.96,8.11-6.61,8.11-14.54c0-7.89-4.97-10.3-6.15-10.3c-0.68,0-1.23,0.82-1.23,1.32c0,1.55,5.7,4.06,5.7,10.12
		c0,3.05-1.46,5.38-3.92,5.38c-1.55,0-2.32-0.96-2.32-1.91c0-0.68,0.41-1.41,1.14-2.1l0.23,0.27c-0.68,0.59-1.05,1.18-1.05,1.69
		s0.32,1.6,1.69,1.6c1.59,0,2.28-1.5,2.28-2.51c0-2.6-4.88-5.1-4.88-10.03c0-3.56,2.55-5.42,5.61-5.42c3.97,0,6.65,3.15,6.65,8.11
		c0,7.2-5.61,13.58-7.84,15.72c1.73,0.68,4.01,2.69,4.97,4.47v0.14l0.14-0.09l3.6-3.19l0.36-19.87c0-0.73-1.05-2.96-1.41-3.33
		l0.14-0.23l1.32,1.46c0.91-1.96,2.69-3.65,4.38-3.65c0.5,0,2.33,0.14,2.96,0.55l-0.05,0.23c-2.46,0-3.05,0.96-3.05,2.23v23.52
		l1.69,2.42l1.23-1.14L172.2,90.21z"/>
	<path d="M198.54,73.44c0,2.69,7.66,6.7,7.66,13.13c0,4.83-4.38,7.43-9.34,7.43c-2.83,0-4.28-0.82-5.42-1.82
		c-1.23,1.09-2.83,1.82-5.01,1.82c-5.65,0-7.11-4.92-10.71-4.92c-1.91,0-2.28,1.37-2.28,1.78c0,0.32,0.23,0.64,0.64,0.77
		c0.23-0.59,0.91-1.28,2-1.28c1.28,0,1.82,0.96,1.82,1.73c0,0.77-0.68,1.69-2.05,1.69c-2.05,0-3.19-1.96-3.19-3.56
		c0-2.6,2.96-4.88,5.33-4.97c3.01-2.92,4.28-5.15,4.28-8.75c0-7.06-4.88-12.03-7.52-12.03c-0.78,0-1.14,0.46-1.14,1.05
		c0,2.55,7.25,4.92,7.25,11.58c0,3.24-1.73,5.38-4.1,5.38c-1.32,0-3.01-0.64-3.01-2.37c0-0.96,0.5-1.64,1.5-2.1l0.09,0.32
		c-0.96,0.5-1.28,1-1.28,1.69c0,1.23,0.96,1.82,2.32,1.82c1.5,0,2.1-0.68,2.1-1.78c0-3.46-5.65-6.11-5.65-12.26
		c0-4.01,2.37-5.7,5.61-5.7c1.82,0,3.19,0.5,4.19,1.37c0.96-0.82,2.14-1.28,3.28-1.28c1.28,0,2.96,0.59,3.46,1.23
		c1.05-0.91,2.37-1.5,4.1-1.5c5.24,0,6.56,5.33,9.75,5.33c1,0,2.19-0.5,2.19-2.1c0-0.46-0.09-0.73-0.73-1.64l0.5-0.23
		c0.78,1,1.23,2.28,1.23,3.6c0,2.64-1.87,4.24-4.6,4.33C199.73,71.21,198.54,72.39,198.54,73.44z M189.93,91.35
		c2.05,0,3.33-1.78,3.33-3.42c0-3.78-6.7-9.94-6.7-17.14c0-2.32,0.68-5.2,2.46-7.06c-0.68-0.77-1.41-1.09-2.96-1.09
		c-1.73,0-2.32,0.41-3.05,1.14c1.91,1.91,2.42,5.01,2.42,7.66c0,6.2-2.73,9.66-6.93,13.81C182.32,85.57,186.28,91.35,189.93,91.35z
		 M195.31,75.95c0-1.82,1.28-3.74,4.33-5.06c-4.47-1.55-5.2-7.98-8.07-7.98c-1.55,0-2.78,1.78-2.78,3.28c0,3.37,6.2,9.12,6.2,15.77
		c0,0.5-0.05,3.05-0.87,5.65c1.64,2.05,5.88,4.24,7.84,4.24c1.69,0,2.23-1.55,2.23-2.64C204.19,84.88,195.31,80.69,195.31,75.95z"/>
	<path d="M30.88,104.38c0,1.05,0.64,2.51,1.55,4.28v-0.46c0-2.78,0.41-5.65,3.83-5.65c3.24,0,4.24,2.64,5.93,2.64
		c0.5,0,0.68-0.23,0.68-0.73c0-0.36-0.09-0.5-0.46-1.19l0.32-0.18c0.77,0.87,1.32,1.5,1.32,3.1c0,2.14-0.96,3.05-2.19,3.19
		c1.05,0.96,1.69,3.46,1.69,4.97l-0.05,9.98c0,2.19,1.6,4.42,1.91,4.42l1.32-1.23l0.18,0.46l-3.56,3.65h-0.14
		c-0.77,0-4.33-3.1-4.33-6.15l0.09-9.84c0-2.69-0.77-4.01-1.64-4.01l-2.64,1.5c1.41,2.96,2.64,6.29,2.64,9.8
		c0,5.7-3.37,8.8-6.52,8.8c-2.32,0-4.51-1.69-4.51-5.01c0-2.73,1.55-5.1,3.42-5.1c1.37,0,2.1,1.19,2.1,2.6
		c0,3.05-3.46,3.65-3.46,5.38c0,1.09,1.32,1.69,2.32,1.69c1.28,0,3.1-1.14,3.1-4.92c0-6.79-6.06-11.67-6.06-18.46
		c0-6.43,5.47-9.07,9.62-9.07c5.7,0,9.21,5.06,9.75,7.16c0.05,0.27,0.09,0.5,0.09,0.73c0,0.5-0.18,0.82-0.68,0.87
		c-0.73,0-0.96-0.64-1.18-1.37c-1.28-4.15-3.69-6.93-7.75-6.93C33.38,99.28,30.88,102.24,30.88,104.38z M32.88,109.53
		c0.55,1,1.09,2.1,1.64,3.19l6.29-3.42c-2.32-0.5-3.42-3.24-6.15-3.24c-1.46,0-1.87,0.73-1.87,2.1
		C32.79,108.58,32.84,109.03,32.88,109.53z"/>
	<path d="M69.48,120.02c-0.36,4.88-4.1,11.94-9.89,11.94c-4.88,0-11.58-4.97-11.58-19.6c0-9.12,2.6-12.76,7.16-12.76
		c1.23,0,2.05,0.27,3.74,1.6c1.6-1.05,3.33-1.5,4.19-1.5h0.41c0.55,0.87,1.5,1.78,2.87,1.78c1.14,0,2.14-0.68,2.51-1.41l0.23,0.09
		c-0.23,2.23-1.64,5.24-4.15,5.24c-2.28,0-5.24-2.55-5.65-4.01c-0.55,0.14-1.73,0.82-1.73,2.55c0,2.19,1.91,4.42,3.97,6.79
		l4.79-4.01h0.14l2.69,3.6v0.14l-2.6,2.37h-0.09l-2.78-3.33H63.6l-1.73,1.55c2.46,2.83,5.1,5.79,5.1,8.98
		c0,3.24-2.69,5.47-5.38,5.47c-1.87,0-4.1-1.09-4.1-3.6c0-2,1.41-2.37,2.64-2.51l0.14,0.55c-0.87,0-2.46,0.32-2.46,1.82
		c0,1.19,1.05,2.51,2.96,2.51c1.46,0,2.64-0.73,2.64-2.46c0-4.56-8.2-7.79-8.2-14.31c0-2.83,1.5-4.79,3.28-6.02
		c-0.46-0.5-1.14-0.87-1.91-0.87c-2.51,0-3.6,3.74-3.6,11.44c0,14.77,4.06,18.09,7.79,18.09c4.56,0,7.57-5.01,8.43-10.12H69.48z"/>
	<path d="M94.78,127.54l-4.47,4.1h-0.18c-2.46-1.41-2.83-3.6-2.83-5.61v-13.67c0-2.23,1.28-4.24,2.87-4.24
		c-4.24-1-4.51-7.25-6.97-7.25c-0.46,0-0.87,0.23-1.23,0.55c2.32,2.14,3.74,5.65,3.74,9.66c0,6.29-3.42,15.82-8.07,20.65H77.5
		c-0.68-0.91-1.78-1.73-3.19-1.73c-1.6,0-2.42,1.05-2.87,1.64l-0.18-0.14c0-3.19,1.64-5.61,5.1-5.61c1.19,0,2.73,0.27,4.1,1.28
		c0.64-0.96,1.78-3.69,1.78-7.75c0-4.92-1.64-15-8.61-18c-0.14-0.05-0.32-0.05-0.36-0.05c-0.68,0-0.87,0.27-0.87,0.77
		c0,3.24,7.88,5.65,7.88,12.76c0,4.38-2.96,6.06-4.88,6.06c-1.5,0-3.42-1.05-3.42-2.78c0-1.41,1.32-2.28,3.37-2.28v0.32
		c-1.64,0-2.96,0.64-2.96,1.73c0,0.96,1.05,2.19,2.92,2.19c1.64,0,2.19-1,2.19-2.37c0-4.56-6.33-6.65-6.33-13.04
		c0-3.46,1.87-5.51,5.29-5.51c1.91,0,3.65,0.64,5.06,1.78c0.96-0.82,2.69-1.69,4.65-1.69c4.47,0,3.6,4.79,6.38,4.79
		c0.82,0,1.23-0.41,1.23-1.37c0-0.32-0.05-0.36-0.05-0.59l0.32-0.09c0.32,1.09,0.5,2.1,0.5,2.96c0,1.82-0.82,3.01-2.6,3.19
		l-0.05,3.65v14.22c0,0.96,0.32,1.96,1,2.55l1.6-1.41L94.78,127.54z M80.47,127.54"/>
	<path d="M128.32,127.35l0.23,0.23l-4.51,4.24h-0.18c-2.46-1.41-3.51-3.6-3.56-5.61l-0.18-12.94c0-2.46,2.33-4.42,3.88-4.65
		c-4.15-0.96-4.65-7.98-8.48-7.98c-0.23,0-0.46,0.05-0.64,0.09c2.42,2.05,3.65,5.83,3.65,9.66c0,7.93-5.24,16.64-8.52,21.38h-0.14
		c-0.68-0.91-1.5-1.69-2.92-1.69c-1.6,0-2.69,1-3.15,1.6l-0.32-0.18c2.19-3.1,3.83-5.06,5.88-5.06c0.73,0,2.42,0.23,3.14,0.91
		c0.68-1.09,2.23-4.28,2.23-9.53c0-7.98-3.69-17.23-7.06-17.23c-0.36,0-0.77,0.09-1.14,0.27c2.01,1.64,3.6,4.69,3.6,9.85
		c0,7.29-3.15,15.91-7.52,21.01h-0.14c-0.68-0.91-1.78-1.37-3.33-1.37c-1.46,0-2.28,0.41-2.73,1l-0.18-0.14
		c0-1.64,0.87-5.33,5.29-5.33c1.37,0,2.37,0.37,3.69,1.37c0.68-0.87,1.82-2.83,1.82-7.11c0-8.39-4.42-19.23-8.43-19.23
		c-0.87,0-1.32,0.55-1.32,1.14c0,2.42,7.7,6.15,7.7,12.85c0,4.1-2.92,5.33-4.69,5.33c-1.73,0-3.92-1.18-3.92-3.1
		c0-1.41,1.19-2.73,3.24-2.73v0.32c-1.6,0-2.83,1.32-2.83,2.32c0,0.91,1,2.23,3.05,2.23c1.46,0,2.83-0.64,2.83-2.05
		c0-3.1-6.47-7.93-6.47-12.85c0-2.51,1.69-5.33,5.42-5.33c1.41,0,3.15,0.41,4.65,1.6c1.09-0.96,2.87-1.46,4.42-1.46
		c1.6,0,2.92,0.5,4.06,1.41c1.09-0.64,2.64-1.41,4.38-1.41c4.83,0,5.2,5.93,7.79,5.93c0.96,0,1.5-0.82,1.5-2.6h0.36
		c0.05,0.32,0.05,0.64,0.05,1c0,2.23-0.82,5.2-3.87,5.2h-0.14v3.33l0.36,14.22c0,1,0.64,2,1.5,2.69L128.32,127.35z M105.22,127.63"
		/>
	<path d="M137.08,99.51c5.47,0,11.26,4.47,11.26,17.91c0,9.89-3.14,14.08-6.88,14.08c-4.06,0-5.42-4.97-8.75-4.97
		c-1.6,0-2.42,1.14-2.42,2.1c0,0.36,0.14,0.68,0.36,0.91l0.05,0.05c0.23-1.32,0.96-1.69,2.05-1.69c1.55,0,1.92,0.82,1.92,1.69
		c0,1.55-1.23,2-2.01,2c-1.73,0-2.92-2.46-2.92-4.19c0-2.28,2.14-4.47,5.01-4.47c4.42,0,5.65,5.15,8.07,5.15
		c1.46,0,5.06-1.87,5.06-10.07c0-7.84-3.28-13.22-10.57-13.22c-3.01,0-4.29-0.91-4.29-2.96c0-0.32,0-0.64,0.09-0.91
		c-0.73,0.27-1.55,0.82-1.55,2.28c0,4.69,8.43,8.16,8.43,14.04c0,2.6-1.64,5.7-5.51,5.7c-2.92,0-4.24-1.73-4.24-3.33
		c0-2.19,2.42-2.78,3.01-2.78l-0.05,0.32c-0.73,0-2.64,0.64-2.64,2.33c0,1.55,1.64,2.64,3.14,2.64c1.64,0,2.69-1.23,2.69-2.78
		c0-3.83-6.52-6.11-6.52-12.81C129.88,101.65,133.29,99.51,137.08,99.51z"/>
	<path d="M172.58,127.22l0.27,0.32l-4.47,4.1h-0.18c-2.46-1.41-2.83-3.6-2.83-5.61v-15.82l-1.14,0.27v0.59
		c0,6.29-3.42,15.82-8.07,20.65h-0.14c-0.68-0.91-1.78-1.73-3.19-1.73c-1.59,0-2.42,1.05-2.87,1.64l-0.18-0.14
		c0-3.19,1.64-5.61,5.11-5.61c1.18,0,2.73,0.27,4.1,1.28c0.68-0.96,1.78-3.65,1.78-7.84c0-7.89-4.01-16.91-8.61-17.91
		c-0.18-0.05-0.27-0.05-0.36-0.05c-0.68,0-0.87,0.23-0.87,0.73c0,3.28,7.88,5.7,7.88,12.81c0,4.38-2.96,6.06-4.88,6.06
		c-1.5,0-3.42-1-3.42-2.83c0-1.5,1.32-2.23,3.37-2.23v0.32c-1.6,0-2.96,0.77-2.96,1.78c0,0.91,1.09,2.14,2.92,2.14
		c1.64,0,2.19-1,2.19-2.37c0-4.56-6.33-6.65-6.33-13.04c0-3.46,1.87-5.51,5.29-5.51c1.91,0,3.65,0.64,5.06,1.78
		c0.96-0.82,2.69-1.69,4.65-1.69c4.47,0,3.6,4.79,6.38,4.79c0.82,0,1.23-0.41,1.23-1.37c0-0.32-0.04-0.36-0.04-0.59l0.32-0.09
		c0.32,1.09,0.5,2.1,0.5,2.96c0,1.96-0.96,3.19-3.05,3.24l-0.05,3.6v14.22c0,0.96,0.32,1.96,1,2.55L172.58,127.22z M159,127.54
		 M168.98,108.26l0.32-0.04c-4.79-0.5-4.97-7.34-7.57-7.34c-0.46,0-0.87,0.23-1.23,0.55c2.14,1.96,3.46,5.01,3.69,8.61
		L168.98,108.26z"/>
	<path d="M195.46,120.02c-0.36,4.88-4.1,11.94-9.89,11.94c-4.88,0-11.58-4.97-11.58-19.6c0-9.12,2.6-12.76,7.16-12.76
		c1.23,0,2.05,0.27,3.74,1.6c1.6-1.05,3.33-1.5,4.19-1.5h0.41c0.55,0.87,1.5,1.78,2.87,1.78c1.14,0,2.14-0.68,2.51-1.41l0.23,0.09
		c-0.23,2.23-1.64,5.24-4.15,5.24c-2.28,0-5.24-2.55-5.65-4.01c-0.55,0.14-1.73,0.82-1.73,2.55c0,2.19,1.91,4.42,3.96,6.79
		l4.79-4.01h0.14l2.69,3.6v0.14l-2.6,2.37h-0.09l-2.78-3.33h-0.09l-1.73,1.55c2.46,2.83,5.1,5.79,5.1,8.98
		c0,3.24-2.69,5.47-5.38,5.47c-1.87,0-4.1-1.09-4.1-3.6c0-2,1.41-2.37,2.64-2.51l0.14,0.55c-0.87,0-2.46,0.32-2.46,1.82
		c0,1.19,1.05,2.51,2.96,2.51c1.46,0,2.64-0.73,2.64-2.46c0-4.56-8.2-7.79-8.2-14.31c0-2.83,1.5-4.79,3.28-6.02
		c-0.46-0.5-1.14-0.87-1.91-0.87c-2.51,0-3.6,3.74-3.6,11.44c0,14.77,4.06,18.09,7.79,18.09c4.56,0,7.57-5.01,8.43-10.12H195.46z"/>
</g>
</svg>
