<?xml version="1.0" encoding="utf-8"?>
<!-- Generator: Adobe Illustrator 23.0.4, SVG Export Plug-In . SVG Version: 6.00 Build 0)  -->
<svg version="1.1" id="Layer_1" xmlns="http://www.w3.org/2000/svg" xmlns:xlink="http://www.w3.org/1999/xlink" x="0px" y="0px"
	 viewBox="0 0 222 160" style="enable-background:new 0 0 222 160;" xml:space="preserve">
<style type="text/css">
	.st0{fill:#EEEEEE;}
</style>
<rect class="st0" width="222" height="160"/>
<g>
	<path d="M50.4,49c0,4.4-3.3,7.8-7.3,7.8c-5.1,0-9.3-5.4-12.4-5.4c-1.3,0-2.2,0.9-2.2,2.1c0,0.4,0.1,0.9,0.5,1.2
		c0.4-0.9,1.3-1.6,2.3-1.6c1.1,0,2,0.8,2,1.9c0,1.1-1.1,1.6-2.1,1.6c-1.5,0-3.2-1.3-3.2-3.7c0-2.9,2.4-5.1,5.1-5.1
		c0.6,0,1.2,0.1,1.7,0.3c1.7-2.8,2.7-5.4,2.7-8.1c0-6.3-5.1-13.5-7.8-13.5c-0.6,0-1,0.4-1,0.9c0,2.2,7.5,5.9,7.5,12.9
		c0,4-2.4,5.7-4.6,5.7c-2,0-3.2-1.4-3.2-2.8c0-1.3,0.9-2.1,2.1-2.6l0.1,0.3c-1.1,0.5-1.8,1.2-1.8,2.3c0,1.4,1.1,2.1,2.6,2.1
		c1.7,0,2.6-1,2.6-2c0-2.8-6-6.4-6-13.5c0-3.3,1.3-5.4,4.8-5.4c2.1,0,3.8,0.8,5,2.1c1.2-1,3.2-2.2,4.9-2.2c3.3,0,3.9,4.2,5.5,4.2
		c0.5,0,1.2-0.5,1.2-1s-0.6-1-0.9-1.3l0.3-0.3c1,0.7,1.5,2,1.5,3.3c0,2.2-1.2,2.8-2.4,2.9l0.2,0c-1.4,0.5-2.7,1.5-2.7,3.2
		C45.3,38.9,50.4,43.5,50.4,49z M48.5,52.6c0-3.5-7.4-9.6-7.4-14.3c0-3,3-5.7,5-6.2c-4.3-0.8-3.8-6.1-6.5-6.1
		c-0.6,0-1.2,0.3-1.5,0.8c1.7,2,2.4,5.1,2.4,8.1c0,5-2,8.3-5.3,13.4c4,1.6,6.6,7.4,9.9,7.4C46.7,55.7,48.5,54.4,48.5,52.6z"/>
	<path d="M72.8,45c-0.4,4.9-4.1,11.9-9.9,11.9c-4.9,0-11.6-5-11.6-19.6c0-9.1,2.6-12.8,7.2-12.8c1.2,0,2,0.3,3.7,1.6
		c1.6-1,3.3-1.5,4.2-1.5h0.4c0.6,0.9,1.5,1.8,2.9,1.8c1.1,0,2.1-0.7,2.5-1.4l0.2,0.1c-0.2,2.2-1.6,5.2-4.2,5.2c-2.3,0-5.2-2.5-5.7-4
		c-0.5,0.1-1.7,0.8-1.7,2.5c0,2.2,1.9,4.4,4,6.8l4.8-4h0.1l2.7,3.6v0.1l-2.6,2.4h-0.1L67,34.5h-0.1L65.2,36c2.5,2.8,5.1,5.8,5.1,9
		c0,3.2-2.7,5.5-5.4,5.5c-1.9,0-4.1-1.1-4.1-3.6c0-2,1.4-2.4,2.6-2.5l0.1,0.5c-0.9,0-2.5,0.3-2.5,1.8c0,1.2,1,2.5,3,2.5
		c1.5,0,2.6-0.7,2.6-2.5c0-4.6-8.2-7.8-8.2-14.3c0-2.8,1.5-4.8,3.3-6c-0.5-0.5-1.1-0.9-1.9-0.9c-2.5,0-3.6,3.7-3.6,11.4
		c0,14.8,4.1,18.1,7.8,18.1c4.6,0,7.6-5,8.4-10.1L72.8,45L72.8,45z"/>
	<path d="M96.6,52.2l0.3,0.3l-4.5,4.1h-0.2c-2.5-1.4-2.8-3.6-2.8-5.6V35.2l-1.1,0.3v0.6c0,6.3-3.4,15.8-8.1,20.7h-0.1
		c-0.7-0.9-1.8-1.7-3.2-1.7c-1.6,0-2.4,1-2.9,1.6l-0.2-0.1c0-3.2,1.6-5.6,5.1-5.6c1.2,0,2.7,0.3,4.1,1.3c0.7-1,1.8-3.7,1.8-7.8
		c0-7.9-4-16.9-8.6-17.9c-0.2,0-0.3,0-0.4,0c-0.7,0-0.9,0.2-0.9,0.7c0,3.3,7.9,5.7,7.9,12.8c0,4.4-3,6.1-4.9,6.1
		c-1.5,0-3.4-1-3.4-2.8c0-1.5,1.3-2.2,3.4-2.2v0.3c-1.6,0-3,0.8-3,1.8c0,0.9,1.1,2.1,2.9,2.1c1.6,0,2.2-1,2.2-2.4
		c0-4.6-6.3-6.7-6.3-13c0-3.5,1.9-5.5,5.3-5.5c1.9,0,3.7,0.6,5.1,1.8c1-0.8,2.7-1.7,4.7-1.7c4.5,0,3.6,4.8,6.4,4.8
		c0.8,0,1.2-0.4,1.2-1.4c0-0.3-0.1-0.4-0.1-0.6l0.3-0.1c0.3,1.1,0.5,2.1,0.5,3c0,2-1,3.2-3.1,3.2L94,36.9v14.2c0,1,0.3,2,1,2.5
		L96.6,52.2z M93,33.2l0.3,0c-4.8-0.5-5-7.3-7.6-7.3c-0.5,0-0.9,0.2-1.2,0.5c2.1,2,3.5,5,3.7,8.6L93,33.2z"/>
	<path d="M129.7,52.3l0.2,0.2l-4.5,4.2h-0.2c-2.5-1.4-3.5-3.6-3.6-5.6l-0.2-12.9c0-2.5,2.3-4.4,3.9-4.7c-4.2-1-4.7-8-8.5-8
		c-0.2,0-0.5,0-0.6,0.1c2.4,2,3.7,5.8,3.7,9.7c0,7.9-5.2,16.6-8.5,21.4h-0.1c-0.7-0.9-1.5-1.7-2.9-1.7c-1.6,0-2.7,1-3.2,1.6
		l-0.3-0.2c2.2-3.1,3.8-5.1,5.9-5.1c0.7,0,2.4,0.2,3.1,0.9c0.7-1.1,2.2-4.3,2.2-9.5c0-8-3.7-17.2-7.1-17.2c-0.4,0-0.8,0.1-1.1,0.3
		c2,1.6,3.6,4.7,3.6,9.8c0,7.3-3.2,15.9-7.5,21h-0.1c-0.7-0.9-1.8-1.4-3.3-1.4c-1.5,0-2.3,0.4-2.7,1l-0.2-0.1c0-1.6,0.9-5.3,5.3-5.3
		c1.4,0,2.4,0.4,3.7,1.4c0.7-0.9,1.8-2.8,1.8-7.1c0-8.4-4.4-19.2-8.4-19.2c-0.9,0-1.3,0.5-1.3,1.1c0,2.4,7.7,6.2,7.7,12.8
		c0,4.1-2.9,5.3-4.7,5.3c-1.7,0-3.9-1.2-3.9-3.1c0-1.4,1.2-2.7,3.2-2.7v0.3c-1.6,0-2.8,1.3-2.8,2.3c0,0.9,1,2.2,3.1,2.2
		c1.5,0,2.8-0.6,2.8-2c0-3.1-6.5-7.9-6.5-12.9c0-2.5,1.7-5.3,5.4-5.3c1.4,0,3.2,0.4,4.7,1.6c1.1-1,2.9-1.5,4.4-1.5
		c1.6,0,2.9,0.5,4.1,1.4c1.1-0.6,2.6-1.4,4.4-1.4c4.8,0,5.2,5.9,7.8,5.9c1,0,1.5-0.8,1.5-2.6h0.4c0.1,0.3,0.1,0.6,0.1,1
		c0,2.2-0.8,5.2-3.9,5.2h-0.1V37l0.4,14.2c0,1,0.6,2,1.5,2.7L129.7,52.3z"/>
	<path d="M139.4,24.5c5.5,0,11.3,4.5,11.3,17.9c0,9.9-3.1,14.1-6.9,14.1c-4.1,0-5.4-5-8.8-5c-1.6,0-2.4,1.1-2.4,2.1
		c0,0.4,0.1,0.7,0.4,0.9l0.1,0c0.2-1.3,1-1.7,2.1-1.7c1.6,0,1.9,0.8,1.9,1.7c0,1.5-1.2,2-2,2c-1.7,0-2.9-2.5-2.9-4.2
		c0-2.3,2.1-4.5,5-4.5c4.4,0,5.6,5.2,8.1,5.2c1.5,0,5.1-1.9,5.1-10.1c0-7.8-3.3-13.2-10.6-13.2c-3,0-4.3-0.9-4.3-3
		c0-0.3,0-0.6,0.1-0.9c-0.7,0.3-1.6,0.8-1.6,2.3c0,4.7,8.4,8.2,8.4,14c0,2.6-1.6,5.7-5.5,5.7c-2.9,0-4.2-1.7-4.2-3.3
		c0-2.2,2.4-2.8,3-2.8l-0.1,0.3c-0.7,0-2.6,0.6-2.6,2.3c0,1.5,1.6,2.6,3.1,2.6c1.6,0,2.7-1.2,2.7-2.8c0-3.8-6.5-6.1-6.5-12.8
		C132.2,26.6,135.6,24.5,139.4,24.5z"/>
	<path d="M174.5,52.5l-4.5,4.1h-0.2c-2.5-1.4-2.8-3.6-2.8-5.6V37.3c0-2.2,1.3-4.2,2.9-4.2c-4.2-1-4.5-7.2-7-7.2
		c-0.5,0-0.9,0.2-1.2,0.5c2.3,2.1,3.7,5.7,3.7,9.7c0,6.3-3.4,15.8-8.1,20.7h-0.1c-0.7-0.9-1.8-1.7-3.2-1.7c-1.6,0-2.4,1-2.9,1.6
		l-0.2-0.1c0-3.2,1.6-5.6,5.1-5.6c1.2,0,2.7,0.3,4.1,1.3c0.6-1,1.8-3.7,1.8-7.8c0-4.9-1.6-15-8.6-18c-0.1,0-0.3,0-0.4,0
		c-0.7,0-0.9,0.3-0.9,0.8c0,3.2,7.9,5.7,7.9,12.8c0,4.4-3,6.1-4.9,6.1c-1.5,0-3.4-1-3.4-2.8c0-1.4,1.3-2.3,3.4-2.3v0.3
		c-1.6,0-3,0.6-3,1.7c0,1,1.1,2.2,2.9,2.2c1.6,0,2.2-1,2.2-2.4c0-4.6-6.3-6.7-6.3-13c0-3.5,1.9-5.5,5.3-5.5c1.9,0,3.6,0.6,5.1,1.8
		c1-0.8,2.7-1.7,4.6-1.7c4.5,0,3.6,4.8,6.4,4.8c0.8,0,1.2-0.4,1.2-1.4c0-0.3-0.1-0.4-0.1-0.6l0.3-0.1c0.3,1.1,0.5,2.1,0.5,3
		c0,1.8-0.8,3-2.6,3.2l-0.1,3.7v14.2c0,1,0.3,2,1,2.5l1.6-1.4L174.5,52.5z"/>
	<path d="M193.7,47.6c0.4,1.3,0.6,2.2,0.6,3.2c0,2.5-1.5,5.9-5.9,5.9c-5.3,0-8-5.2-10.7-5.2c-0.9,0-2.5,0.5-2.5,2.1
		c0,0.8,0.4,1.5,1,1.5c-0.3-1,0.3-2.2,1.6-2.2c1.1,0,1.8,0.8,1.8,2c0,0.3,0.1,1.3-1.8,1.3c-1.6,0-3.1-0.8-3.1-3.2
		c0-2.4,1.5-5.2,4.6-5.2c1,0,1.8,0.2,2.6,0.6l0-0.2c-1.7-1.4-2.5-3.8-2.5-6c0-0.5,0.1-1.5,0.5-2.4l0.4,0.3c-0.4,0.9-0.4,1.5-0.4,2.5
		c0,2.6,2.6,5.3,4.5,5.3c1.2,0,1.7-1.1,1.7-2c0-3-5.4-5.3-5.4-9.8c0-2.5,1.6-4.2,5.7-4.4v-0.2c-3-1-4.7-3.6-7.8-3.6
		c-1.7,0-2.4,0.8-2.4,2c0,1.7,1.2,2.5,2.6,2.5l0,0.5c-1.3,0-3.6-0.7-3.6-3.7c0-3.1,2.5-5.1,5.1-5.1c3.8,0,7.7,4.4,11.2,4.4
		c1.8,0,2.2-1.1,2.2-2.4l0.4-0.1c1.1,3.4-1.2,6-5,6c-3.6,0-5.1,0.8-5.1,2.4c0,3.2,6.4,5.4,6.4,10.5c0,2.9-2,4.5-4.8,4.5
		c-1,0-1.8-0.2-2.5-0.5l-0.1,0.1c2.4,1.7,4.3,4.5,7.5,4.5c2.4,0,3.3-1.5,3.3-3.2c0-0.8-0.2-2.1-0.5-2.6L193.7,47.6z"/>
	<path d="M37.1,82.5h0.3c-0.4,4.9-4.1,11.9-9.9,11.9c-4.9,0-11.6-5-11.6-19.6c0-9.1,2.6-12.8,7.2-12.8c1.3,0,2.1,0.3,3.9,1.7
		c1.6-1.1,3.5-1.6,4.4-1.6h0.4c0.5,0.9,1.5,1.8,2.9,1.8c1.1,0,2.1-0.7,2.5-1.4l0.2,0.1c-0.2,2.2-1.6,5.2-4.2,5.2
		c-2.3,0-5.2-2.6-5.6-4c-0.5,0.1-1.7,0.8-1.7,2.6c0,4.8,9.4,10.1,9.4,16.1c0,3.2-2.7,5.5-5.4,5.5c-1.9,0-4.1-1.1-4.1-3.6
		c0-2,1.4-2.4,2.6-2.5l0.1,0.6c-0.9,0-2.5,0.3-2.5,1.8c0,1.2,1,2.5,3,2.5c1.5,0,2.6-0.7,2.6-2.5c0-4.6-8.2-7.8-8.2-14.3
		c0-2.7,1.4-4.6,3-5.8c-0.4-0.6-1.2-1-2-1c-2.5,0-3.6,3.7-3.6,11.4c0,14.8,4.1,18.1,7.8,18.1C33.3,92.6,36.3,87.6,37.1,82.5z"/>
	<path d="M61.3,89.7l0.3,0.3l-4.5,4.1h-0.2c-2.5-1.4-2.8-3.6-2.8-5.6V72.7L52.9,73v0.6c0,6.3-3.4,15.8-8.1,20.7h-0.1
		c-0.7-0.9-1.8-1.7-3.2-1.7c-1.6,0-2.4,1.1-2.9,1.6L38.5,94c0-3.2,1.6-5.6,5.1-5.6c1.2,0,2.7,0.3,4.1,1.3c0.7-1,1.8-3.7,1.8-7.8
		c0-7.9-4-16.9-8.6-17.9c-0.2,0-0.3,0-0.4,0c-0.7,0-0.9,0.2-0.9,0.7c0,3.3,7.9,5.7,7.9,12.8c0,4.4-3,6.1-4.9,6.1
		c-1.5,0-3.4-1-3.4-2.8c0-1.5,1.3-2.2,3.4-2.2v0.3c-1.6,0-3,0.8-3,1.8c0,0.9,1.1,2.1,2.9,2.1c1.6,0,2.2-1,2.2-2.4
		c0-4.6-6.3-6.7-6.3-13c0-3.5,1.9-5.5,5.3-5.5c1.9,0,3.7,0.6,5.1,1.8c1-0.8,2.7-1.7,4.7-1.7c4.5,0,3.6,4.8,6.4,4.8
		c0.8,0,1.2-0.4,1.2-1.4c0-0.3,0-0.4,0-0.6l0.3-0.1c0.3,1.1,0.5,2.1,0.5,3c0,2-1,3.2-3,3.2l0,3.6v14.2c0,1,0.3,2,1,2.6L61.3,89.7z
		 M57.7,70.8l0.3-0.1c-4.8-0.5-5-7.3-7.6-7.3c-0.5,0-0.9,0.2-1.2,0.5c2.1,2,3.5,5,3.7,8.6L57.7,70.8z"/>
	<path d="M84.1,82.5c-0.4,4.9-4.1,11.9-9.9,11.9c-4.9,0-11.6-5-11.6-19.6c0-9.1,2.6-12.8,7.2-12.8c1.2,0,2.1,0.3,3.7,1.6
		c1.6-1,3.3-1.5,4.2-1.5h0.4c0.6,0.9,1.5,1.8,2.9,1.8c1.1,0,2.1-0.7,2.5-1.4l0.2,0.1c-0.2,2.2-1.6,5.2-4.2,5.2c-2.3,0-5.2-2.6-5.7-4
		c-0.6,0.1-1.7,0.8-1.7,2.6c0,2.2,1.9,4.4,4,6.8l4.8-4h0.1l2.7,3.6v0.1l-2.6,2.4h-0.1L78.4,72h-0.1l-1.7,1.6c2.5,2.8,5.1,5.8,5.1,9
		c0,3.2-2.7,5.5-5.4,5.5c-1.9,0-4.1-1.1-4.1-3.6c0-2,1.4-2.4,2.6-2.5l0.1,0.6c-0.9,0-2.5,0.3-2.5,1.8c0,1.2,1.1,2.5,3,2.5
		c1.5,0,2.6-0.7,2.6-2.5c0-4.6-8.2-7.8-8.2-14.3c0-2.8,1.5-4.8,3.3-6c-0.5-0.5-1.1-0.9-1.9-0.9c-2.5,0-3.6,3.7-3.6,11.4
		c0,14.8,4.1,18.1,7.8,18.1c4.6,0,7.6-5,8.4-10.1L84.1,82.5L84.1,82.5z"/>
	<path d="M109.4,90l-4.5,4.1h-0.2c-2.5-1.4-2.8-3.6-2.8-5.6V74.9c0-2.2,1.3-4.2,2.9-4.2c-4.2-1-4.5-7.2-7-7.2
		c-0.5,0-0.9,0.2-1.2,0.5c2.3,2.1,3.7,5.6,3.7,9.7c0,6.3-3.4,15.8-8.1,20.7h-0.1c-0.7-0.9-1.8-1.7-3.2-1.7c-1.6,0-2.4,1.1-2.9,1.6
		L85.9,94c0-3.2,1.6-5.6,5.1-5.6c1.2,0,2.7,0.3,4.1,1.3c0.6-1,1.8-3.7,1.8-7.8c0-4.9-1.6-15-8.6-18c-0.1,0-0.3,0-0.4,0
		c-0.7,0-0.9,0.3-0.9,0.8c0,3.2,7.9,5.7,7.9,12.8c0,4.4-3,6.1-4.9,6.1c-1.5,0-3.4-1.1-3.4-2.8c0-1.4,1.3-2.3,3.4-2.3v0.3
		c-1.6,0-3,0.6-3,1.7c0,1,1.1,2.2,2.9,2.2c1.6,0,2.2-1,2.2-2.4c0-4.6-6.3-6.7-6.3-13c0-3.5,1.9-5.5,5.3-5.5c1.9,0,3.7,0.6,5.1,1.8
		c1-0.8,2.7-1.7,4.7-1.7c4.5,0,3.6,4.8,6.4,4.8c0.8,0,1.2-0.4,1.2-1.4c0-0.3-0.1-0.4-0.1-0.6l0.3-0.1c0.3,1.1,0.5,2.1,0.5,3
		c0,1.8-0.8,3-2.6,3.2l-0.1,3.7v14.2c0,1,0.3,2,1,2.6l1.6-1.4L109.4,90z"/>
	<path d="M127,65.5c1.1,0,1.6-0.6,1.6-1.4c0-0.4-0.1-0.7-0.6-1.4l0.3-0.2c0.6,0.9,1,1.6,1,2.8c0,2.1-1.2,3.9-3.9,3.9
		c-3.6,0-4.4-3.2-7.5-3.2c-4.4,0-7,6.1-7,10.9c0,6.6,4.7,12.4,10.1,12.4c6.1,0,7.6-7.6,7.6-10.4c0-2.3-1-3.1-2-3.1
		c-3.5,0-0.9,8.8-6.4,8.8c-3.2,0-6-2.9-6-6.9c0-3.7,2.3-5,4.9-5v0.4c-3.1,0-4.4,1.8-4.4,4.5c0,1.3,0.3,3.7,2.6,3.7
		c4.2,0,1.6-8.2,6.7-8.2c2.9,0,5.3,2.8,5.3,9c0,5.4-1.9,11.9-8.1,11.9c-7.2,0-10.8-8.8-10.8-17.2c0-8.8,3.9-14.6,8.7-14.6
		C122.7,62.2,124.5,65.5,127,65.5z"/>
	<path d="M147.5,95l0.2,0.5c-1.8,1.1-5.1,2.3-7.8,2.3c-3,0-6.5-1.4-6.5-4.7c0-2.3,1.6-4.5,4.9-4.5c1.3,0,3.8,0.6,5.6,2.1
		c2.1-1.4,3.2-5.6,3.2-8.5c0-5.2-3-10.9-8-10.9c-1.6,0-2.5,0.6-3.1,1.1c1.9,3,4.7,6,4.7,9.5c0,3.3-2.4,5.9-6,5.9
		c-3.4,0-5.1-2.3-5.1-4.4c0-2,1.6-2.5,2.6-2.5c1.3,0,1.8,0.8,1.8,1.9s-0.5,1.4-1.2,1.6s-1.4,0.2-1.4,0.9c0,1,1.3,1.5,2.6,1.5
		c1.5,0,3-0.6,3-2.8c0-4.2-5.4-6.8-5.4-13.1c0-2.9,1.1-5.1,3-6.7c2.1-1.8,4.4-2.1,7.7-2.1c0.4,0.6,1.4,2.4,3.4,2.4
		c1.3,0,2.7-0.8,3.3-1.8l0.5,0.5c-0.5,1.9-2.7,4.6-5.3,4.6c-3,0-6.1-3.2-6.6-4.7c-1,0-3.3,2-3.3,4.8c0,1.4,0.6,2.8,1.5,4.2
		c1.4-1.7,3.6-3.4,6-3.4c2.9,0,8.3,2.6,8.3,9.4c0,8-7.5,15.5-9.5,16h-0.1c-1.6-1.6-2.6-2-3.8-2c-1.4,0-2.3,0.7-2.3,1.9
		c0,1.9,3,3.2,5.8,3.2C142.6,97.2,145.5,96.1,147.5,95z"/>
	<path d="M172.2,90.2l-4,3.8h-0.4c-1.2-1.6-3.6-3.3-3.6-5.1v-0.8l-6.8,6.1h-0.3c-1.1-2.2-3.6-4.2-5.5-5.1V89c3.1-3,8.1-6.6,8.1-14.5
		c0-7.9-5-10.3-6.1-10.3c-0.7,0-1.2,0.8-1.2,1.3c0,1.6,5.7,4.1,5.7,10.1c0,3.1-1.5,5.4-3.9,5.4c-1.6,0-2.3-1-2.3-1.9
		c0-0.7,0.4-1.4,1.1-2.1l0.2,0.3c-0.7,0.6-1.1,1.2-1.1,1.7s0.3,1.6,1.7,1.6c1.6,0,2.3-1.5,2.3-2.5c0-2.6-4.9-5.1-4.9-10
		c0-3.6,2.6-5.4,5.6-5.4c4,0,6.6,3.2,6.6,8.1c0,7.2-5.6,13.6-7.8,15.7c1.7,0.7,4,2.7,5,4.5V91l0.1-0.1l3.6-3.2l0.4-19.9
		c0-0.7-1.1-3-1.4-3.3l0.1-0.2l1.3,1.5c0.9-2,2.7-3.7,4.4-3.7c0.5,0,2.3,0.1,3,0.5l-0.1,0.2c-2.5,0-3.1,1-3.1,2.2v23.5l1.7,2.4
		l1.2-1.1L172.2,90.2z"/>
	<path d="M198.5,73.4c0,2.7,7.7,6.7,7.7,13.1c0,4.8-4.4,7.4-9.3,7.4c-2.8,0-4.3-0.8-5.4-1.8c-1.2,1.1-2.8,1.8-5,1.8
		c-5.6,0-7.1-4.9-10.7-4.9c-1.9,0-2.3,1.4-2.3,1.8c0,0.3,0.2,0.6,0.6,0.8c0.2-0.6,0.9-1.3,2-1.3c1.3,0,1.8,1,1.8,1.7
		c0,0.8-0.7,1.7-2.1,1.7c-2.1,0-3.2-2-3.2-3.6c0-2.6,3-4.9,5.3-5c3-2.9,4.3-5.2,4.3-8.8c0-7.1-4.9-12-7.5-12c-0.8,0-1.1,0.5-1.1,1.1
		c0,2.6,7.2,4.9,7.2,11.6c0,3.2-1.7,5.4-4.1,5.4c-1.3,0-3-0.6-3-2.4c0-1,0.5-1.6,1.5-2.1l0.1,0.3c-1,0.5-1.3,1-1.3,1.7
		c0,1.2,1,1.8,2.3,1.8c1.5,0,2.1-0.7,2.1-1.8c0-3.5-5.6-6.1-5.6-12.3c0-4,2.4-5.7,5.6-5.7c1.8,0,3.2,0.5,4.2,1.4
		c1-0.8,2.1-1.3,3.3-1.3c1.3,0,3,0.6,3.5,1.2c1.1-0.9,2.4-1.5,4.1-1.5c5.2,0,6.6,5.3,9.8,5.3c1,0,2.2-0.5,2.2-2.1
		c0-0.5-0.1-0.7-0.7-1.6l0.5-0.2c0.8,1,1.2,2.3,1.2,3.6c0,2.6-1.9,4.2-4.6,4.3C199.7,71.2,198.5,72.4,198.5,73.4z M189.9,91.3
		c2.1,0,3.3-1.8,3.3-3.4c0-3.8-6.7-9.9-6.7-17.1c0-2.3,0.7-5.2,2.5-7.1c-0.7-0.8-1.4-1.1-3-1.1c-1.7,0-2.3,0.4-3.1,1.1
		c1.9,1.9,2.4,5,2.4,7.7c0,6.2-2.7,9.7-6.9,13.8C182.3,85.6,186.3,91.3,189.9,91.3z M195.3,75.9c0-1.8,1.3-3.7,4.3-5.1
		c-4.5-1.6-5.2-8-8.1-8c-1.6,0-2.8,1.8-2.8,3.3c0,3.4,6.2,9.1,6.2,15.8c0,0.5-0.1,3.1-0.9,5.7c1.6,2.1,5.9,4.2,7.8,4.2
		c1.7,0,2.2-1.6,2.2-2.6C204.2,84.9,195.3,80.7,195.3,75.9z"/>
	<path d="M30.9,104.4c0,1.1,0.6,2.5,1.6,4.3v-0.5c0-2.8,0.4-5.7,3.8-5.7c3.2,0,4.2,2.6,5.9,2.6c0.5,0,0.7-0.2,0.7-0.7
		c0-0.4-0.1-0.5-0.5-1.2l0.3-0.2c0.8,0.9,1.3,1.5,1.3,3.1c0,2.1-1,3.1-2.2,3.2c1,1,1.7,3.5,1.7,5l0,10c0,2.2,1.6,4.4,1.9,4.4
		l1.3-1.2l0.2,0.5l-3.6,3.6h-0.1c-0.8,0-4.3-3.1-4.3-6.2l0.1-9.8c0-2.7-0.8-4-1.6-4l-2.6,1.5c1.4,3,2.6,6.3,2.6,9.8
		c0,5.7-3.4,8.8-6.5,8.8c-2.3,0-4.5-1.7-4.5-5c0-2.7,1.5-5.1,3.4-5.1c1.4,0,2.1,1.2,2.1,2.6c0,3.1-3.5,3.7-3.5,5.4
		c0,1.1,1.3,1.7,2.3,1.7c1.3,0,3.1-1.1,3.1-4.9c0-6.8-6.1-11.7-6.1-18.5c0-6.4,5.5-9.1,9.6-9.1c5.7,0,9.2,5.1,9.8,7.2
		c0,0.3,0.1,0.5,0.1,0.7c0,0.5-0.2,0.8-0.7,0.9c-0.7,0-1-0.6-1.2-1.4c-1.3-4.2-3.7-6.9-7.8-6.9C33.4,99.3,30.9,102.2,30.9,104.4z
		 M32.9,109.5c0.5,1,1.1,2.1,1.6,3.2l6.3-3.4c-2.3-0.5-3.4-3.2-6.2-3.2c-1.5,0-1.9,0.7-1.9,2.1C32.8,108.6,32.8,109,32.9,109.5z"/>
	<path d="M69.5,120c-0.4,4.9-4.1,11.9-9.9,11.9c-4.9,0-11.6-5-11.6-19.6c0-9.1,2.6-12.8,7.2-12.8c1.2,0,2,0.3,3.7,1.6
		c1.6-1.1,3.3-1.5,4.2-1.5h0.4c0.6,0.9,1.5,1.8,2.9,1.8c1.1,0,2.1-0.7,2.5-1.4l0.2,0.1c-0.2,2.2-1.6,5.2-4.2,5.2
		c-2.3,0-5.2-2.6-5.7-4c-0.5,0.1-1.7,0.8-1.7,2.6c0,2.2,1.9,4.4,4,6.8l4.8-4h0.1l2.7,3.6v0.1l-2.6,2.4h-0.1l-2.8-3.3h-0.1l-1.7,1.6
		c2.5,2.8,5.1,5.8,5.1,9c0,3.2-2.7,5.5-5.4,5.5c-1.9,0-4.1-1.1-4.1-3.6c0-2,1.4-2.4,2.6-2.5l0.1,0.6c-0.9,0-2.5,0.3-2.5,1.8
		c0,1.2,1,2.5,3,2.5c1.5,0,2.6-0.7,2.6-2.5c0-4.6-8.2-7.8-8.2-14.3c0-2.8,1.5-4.8,3.3-6c-0.5-0.5-1.1-0.9-1.9-0.9
		c-2.5,0-3.6,3.7-3.6,11.4c0,14.8,4.1,18.1,7.8,18.1c4.6,0,7.6-5,8.4-10.1H69.5z"/>
	<path d="M94.8,127.5l-4.5,4.1h-0.2c-2.5-1.4-2.8-3.6-2.8-5.6v-13.7c0-2.2,1.3-4.2,2.9-4.2c-4.2-1-4.5-7.2-7-7.2
		c-0.5,0-0.9,0.2-1.2,0.6c2.3,2.1,3.7,5.7,3.7,9.7c0,6.3-3.4,15.8-8.1,20.6h-0.1c-0.7-0.9-1.8-1.7-3.2-1.7c-1.6,0-2.4,1.1-2.9,1.6
		l-0.2-0.1c0-3.2,1.6-5.6,5.1-5.6c1.2,0,2.7,0.3,4.1,1.3c0.6-1,1.8-3.7,1.8-7.8c0-4.9-1.6-15-8.6-18c-0.1-0.1-0.3-0.1-0.4-0.1
		c-0.7,0-0.9,0.3-0.9,0.8c0,3.2,7.9,5.7,7.9,12.8c0,4.4-3,6.1-4.9,6.1c-1.5,0-3.4-1.1-3.4-2.8c0-1.4,1.3-2.3,3.4-2.3v0.3
		c-1.6,0-3,0.6-3,1.7c0,1,1.1,2.2,2.9,2.2c1.6,0,2.2-1,2.2-2.4c0-4.6-6.3-6.7-6.3-13c0-3.5,1.9-5.5,5.3-5.5c1.9,0,3.7,0.6,5.1,1.8
		c1-0.8,2.7-1.7,4.7-1.7c4.5,0,3.6,4.8,6.4,4.8c0.8,0,1.2-0.4,1.2-1.4c0-0.3-0.1-0.4-0.1-0.6L94,102c0.3,1.1,0.5,2.1,0.5,3
		c0,1.8-0.8,3-2.6,3.2l-0.1,3.7v14.2c0,1,0.3,2,1,2.5l1.6-1.4L94.8,127.5z"/>
	<path d="M128.3,127.3l0.2,0.2l-4.5,4.2h-0.2c-2.5-1.4-3.5-3.6-3.6-5.6l-0.2-12.9c0-2.5,2.3-4.4,3.9-4.7c-4.2-1-4.7-8-8.5-8
		c-0.2,0-0.5,0.1-0.6,0.1c2.4,2.1,3.7,5.8,3.7,9.7c0,7.9-5.2,16.6-8.5,21.4h-0.1c-0.7-0.9-1.5-1.7-2.9-1.7c-1.6,0-2.7,1-3.2,1.6
		l-0.3-0.2c2.2-3.1,3.8-5.1,5.9-5.1c0.7,0,2.4,0.2,3.1,0.9c0.7-1.1,2.2-4.3,2.2-9.5c0-8-3.7-17.2-7.1-17.2c-0.4,0-0.8,0.1-1.1,0.3
		c2,1.6,3.6,4.7,3.6,9.8c0,7.3-3.2,15.9-7.5,21h-0.1c-0.7-0.9-1.8-1.4-3.3-1.4c-1.5,0-2.3,0.4-2.7,1l-0.2-0.1c0-1.6,0.9-5.3,5.3-5.3
		c1.4,0,2.4,0.4,3.7,1.4c0.7-0.9,1.8-2.8,1.8-7.1c0-8.4-4.4-19.2-8.4-19.2c-0.9,0-1.3,0.6-1.3,1.1c0,2.4,7.7,6.2,7.7,12.8
		c0,4.1-2.9,5.3-4.7,5.3c-1.7,0-3.9-1.2-3.9-3.1c0-1.4,1.2-2.7,3.2-2.7v0.3c-1.6,0-2.8,1.3-2.8,2.3c0,0.9,1,2.2,3.1,2.2
		c1.5,0,2.8-0.6,2.8-2.1c0-3.1-6.5-7.9-6.5-12.8c0-2.5,1.7-5.3,5.4-5.3c1.4,0,3.2,0.4,4.7,1.6c1.1-1,2.9-1.5,4.4-1.5
		c1.6,0,2.9,0.5,4.1,1.4c1.1-0.6,2.6-1.4,4.4-1.4c4.8,0,5.2,5.9,7.8,5.9c1,0,1.5-0.8,1.5-2.6h0.4c0.1,0.3,0.1,0.6,0.1,1
		c0,2.2-0.8,5.2-3.9,5.2h-0.1v3.3l0.4,14.2c0,1,0.6,2,1.5,2.7L128.3,127.3z"/>
	<path d="M137.1,99.5c5.5,0,11.3,4.5,11.3,17.9c0,9.9-3.1,14.1-6.9,14.1c-4.1,0-5.4-5-8.8-5c-1.6,0-2.4,1.1-2.4,2.1
		c0,0.4,0.1,0.7,0.4,0.9l0.1,0.1c0.2-1.3,1-1.7,2.1-1.7c1.6,0,1.9,0.8,1.9,1.7c0,1.6-1.2,2-2,2c-1.7,0-2.9-2.5-2.9-4.2
		c0-2.3,2.1-4.5,5-4.5c4.4,0,5.6,5.1,8.1,5.1c1.5,0,5.1-1.9,5.1-10.1c0-7.8-3.3-13.2-10.6-13.2c-3,0-4.3-0.9-4.3-3
		c0-0.3,0-0.6,0.1-0.9c-0.7,0.3-1.6,0.8-1.6,2.3c0,4.7,8.4,8.2,8.4,14c0,2.6-1.6,5.7-5.5,5.7c-2.9,0-4.2-1.7-4.2-3.3
		c0-2.2,2.4-2.8,3-2.8l-0.1,0.3c-0.7,0-2.6,0.6-2.6,2.3c0,1.6,1.6,2.6,3.1,2.6c1.6,0,2.7-1.2,2.7-2.8c0-3.8-6.5-6.1-6.5-12.8
		C129.9,101.7,133.3,99.5,137.1,99.5z"/>
	<path d="M172.6,127.2l0.3,0.3l-4.5,4.1h-0.2c-2.5-1.4-2.8-3.6-2.8-5.6v-15.8l-1.1,0.3v0.6c0,6.3-3.4,15.8-8.1,20.6H156
		c-0.7-0.9-1.8-1.7-3.2-1.7c-1.6,0-2.4,1.1-2.9,1.6l-0.2-0.1c0-3.2,1.6-5.6,5.1-5.6c1.2,0,2.7,0.3,4.1,1.3c0.7-1,1.8-3.7,1.8-7.8
		c0-7.9-4-16.9-8.6-17.9c-0.2-0.1-0.3-0.1-0.4-0.1c-0.7,0-0.9,0.2-0.9,0.7c0,3.3,7.9,5.7,7.9,12.8c0,4.4-3,6.1-4.9,6.1
		c-1.5,0-3.4-1-3.4-2.8c0-1.5,1.3-2.2,3.4-2.2v0.3c-1.6,0-3,0.8-3,1.8c0,0.9,1.1,2.1,2.9,2.1c1.6,0,2.2-1,2.2-2.4
		c0-4.6-6.3-6.7-6.3-13c0-3.5,1.9-5.5,5.3-5.5c1.9,0,3.6,0.6,5.1,1.8c1-0.8,2.7-1.7,4.6-1.7c4.5,0,3.6,4.8,6.4,4.8
		c0.8,0,1.2-0.4,1.2-1.4c0-0.3,0-0.4,0-0.6l0.3-0.1c0.3,1.1,0.5,2.1,0.5,3c0,2-1,3.2-3.1,3.2l-0.1,3.6v14.2c0,1,0.3,2,1,2.5
		L172.6,127.2z M169,108.3l0.3,0c-4.8-0.5-5-7.3-7.6-7.3c-0.5,0-0.9,0.2-1.2,0.6c2.1,2,3.5,5,3.7,8.6L169,108.3z"/>
	<path d="M195.5,120c-0.4,4.9-4.1,11.9-9.9,11.9c-4.9,0-11.6-5-11.6-19.6c0-9.1,2.6-12.8,7.2-12.8c1.2,0,2.1,0.3,3.7,1.6
		c1.6-1.1,3.3-1.5,4.2-1.5h0.4c0.6,0.9,1.5,1.8,2.9,1.8c1.1,0,2.1-0.7,2.5-1.4l0.2,0.1c-0.2,2.2-1.6,5.2-4.1,5.2
		c-2.3,0-5.2-2.6-5.6-4c-0.6,0.1-1.7,0.8-1.7,2.6c0,2.2,1.9,4.4,4,6.8l4.8-4h0.1l2.7,3.6v0.1l-2.6,2.4h-0.1l-2.8-3.3h-0.1l-1.7,1.6
		c2.5,2.8,5.1,5.8,5.1,9c0,3.2-2.7,5.5-5.4,5.5c-1.9,0-4.1-1.1-4.1-3.6c0-2,1.4-2.4,2.6-2.5l0.1,0.6c-0.9,0-2.5,0.3-2.5,1.8
		c0,1.2,1.1,2.5,3,2.5c1.5,0,2.6-0.7,2.6-2.5c0-4.6-8.2-7.8-8.2-14.3c0-2.8,1.5-4.8,3.3-6c-0.5-0.5-1.1-0.9-1.9-0.9
		c-2.5,0-3.6,3.7-3.6,11.4c0,14.8,4.1,18.1,7.8,18.1c4.6,0,7.6-5,8.4-10.1H195.5z"/>
</g>
</svg>
