<?xml version="1.0" encoding="utf-8"?>
<!-- Generator: Adobe Illustrator 23.0.4, SVG Export Plug-In . SVG Version: 6.00 Build 0)  -->
<svg version="1.1" id="Layer_1" xmlns="http://www.w3.org/2000/svg" xmlns:xlink="http://www.w3.org/1999/xlink" x="0px" y="0px"
	 viewBox="0 0 1887.86 1133.26" style="enable-background:new 0 0 1887.86 1133.26;" xml:space="preserve">
<path d="M393.53,427.39l-8,8c11,58,29,82,65,87c38,5,61-14,94-60c7-10,22-14,31-6c10,9,0,21-5,27l-172,219c-5,6-26,24-14,32
	c11,7,22-11,33-22l165-214h10l8,16c-2,177-15,198,62,213l2,3l-162,185l-4,2l-47,1c-88,0-63-73-8-181h-17c-63,79-102,134-125,160
	c-27,30-46,36-69,20c-27-19-19-41-3-61l220-263h-12c-46,60-106,78-145,76c-56-3-106-50-106-78v-11l305-363c89,0,259,21,295-33l27-2
	l8,11l-189,234H393.53z M775.53,669.39l-21-14l-152,180c-36,38-37,60-13,82c23,21,61,0,91-33l121-156h12c-54,143-37,189,7,189
	c47,0,131,0,167,0c41,0,316-170,316-487c0-81-18-180-112-213h-367l-209,261c0,112,225,44,154,159l21,15l128-150c18-20,36-51,36-73
	c0-72-187-83-187-111c0-8,15-16,33-16c95,0,396,223,396,374c0,40-21,67-64,67c-96,0-189-132-151-248c3-4-1-16-5-19c-8-6-15,1-18,5
	l-193,233c-4,7-15,15-21,10c-5-4,0-15,6-24L775.53,669.39z M1483.53,217.39h176l23,21l-367,454c-5,6-26,24-14,32c11,7,22-11,33-22
	l191-239h15l6,11c-1,154,27,279,152,271l6,10l-126,162l-210,2c-88,0-39-119-8-192h-17c-63,79-102,134-125,160c-29,32-52,32-69,20
	c-26-19-13-50,3-70l322-385l28-35l-11,25l-8-15c-41,0-106,0-147,0l-9-6L1483.53,217.39z"/>
</svg>
