<?xml version="1.0" encoding="utf-8"?>
<!-- Generator: Adobe Illustrator 23.0.4, SVG Export Plug-In . SVG Version: 6.00 Build 0)  -->
<svg version="1.1" id="Layer_1" xmlns="http://www.w3.org/2000/svg" xmlns:xlink="http://www.w3.org/1999/xlink" x="0px" y="0px"
	 viewBox="0 0 630.6 335.9" style="enable-background:new 0 0 630.6 335.9;" xml:space="preserve">
<style type="text/css">
	.st0{fill:#FFFFFF;}
</style>
<polygon class="st0" points="81.7,326.9 39.2,326.9 30.8,318.5 30.8,192.5 40.5,181.8 5,181.8 14.9,192.5 14.9,318.4 5,329.1 
	96.9,329.1 102.7,299.4 "/>
<polygon class="st0" points="194,326.9 136.2,326.9 136.2,251.8 173.4,251.8 185.6,275.3 185.6,226.1 173.4,249.6 136.2,249.6 
	136.2,184.1 192.6,184.1 207,210 207,181.8 110.4,181.8 120.3,192.5 120.3,318.4 110.4,329.1 209.3,329.1 215.1,299.4 "/>
<polygon class="st0" points="81.7,151.3 39.2,151.3 30.8,142.9 30.8,17 40.5,6.3 5,6.3 14.9,16.9 14.9,142.9 5,153.5 96.9,153.5 
	102.7,123.8 "/>
<polygon class="st0" points="192.4,151.3 134.6,151.3 134.6,76.3 171.8,76.3 183.9,99.8 183.9,50.5 171.8,74 134.6,74 134.6,8.5 
	191,8.5 205.4,34.5 205.4,6.3 108.8,6.3 118.7,16.9 118.7,142.9 108.8,153.5 207.7,153.5 213.5,123.8 "/>
<path class="st0" d="M285.6,3.5c-41.8,0-72.1,32.2-72.1,76.7c0,44.2,30.3,76.2,72.1,76.2s72.1-32.2,72.1-76.7
	C357.7,35.5,327.4,3.5,285.6,3.5z M294.2,152.4c-41.1,0-62.5-44.3-62.5-88.1c0-33.1,20.1-58,46.7-58c40.1,0,61,44.9,61,89.2
	C339.4,128.5,320.4,152.4,294.2,152.4z"/>
<polygon class="st0" points="457.4,6.3 469,21.5 469,115.4 463.7,115.4 383.2,6.3 359.8,6.3 371.1,21.7 371.1,138 361,153.5 
	386.1,153.5 374.6,138.1 374.6,31.4 379.9,31.4 469.8,155.7 472.5,155.7 472.5,21.5 483.1,6.3 "/>
<path class="st0" d="M561.8,156.4h1.4c14.8,0,28.3-5.9,40.1-17.5l2.7-2.6l14,19.2h1.6V88.1h-26.5l9.8,8.3v35.8l-1.3,1
	C594,140.4,583,144,570.1,144c-36,0-64.3-30.5-64.3-69.5c0-40.9,22.1-68.8,54.9-69.5c30.1,0,43.4,18.2,53.4,37.9l0.8,1.7h1.3V4.3
	h-1.6l-6,8.9l-2.5-1.2C594.2,6.3,580,3.5,564,3.5c-41.8,0-72.1,32.2-72.1,76.7C491.9,125,520.7,156.4,561.8,156.4z"/>
<path class="st0" d="M287.2,179c-41.8,0-72.1,32.2-72.1,76.7c0,44.2,30.3,76.2,72.1,76.2s72.1-32.2,72.1-76.7
	C359.3,211.1,329,179,287.2,179z M295.8,328c-41.1,0-62.5-44.3-62.5-88.1c0-33.1,20.1-58,46.7-58c40.1,0,61,44.9,61,89.2
	C341.1,304,322,328,295.8,328z"/>
<polygon class="st0" points="459.1,181.8 470.6,197 470.6,290.9 465.3,290.9 384.8,181.8 361.5,181.8 372.7,197.3 372.7,313.6 
	362.6,329.1 387.7,329.1 376.2,313.7 376.2,207 381.5,207 471.4,331.3 474.1,331.3 474.1,197.1 484.7,181.8 "/>
<path class="st0" d="M561.8,331.9h1.4c14.8,0,28.3-5.9,40.1-17.5l2.7-2.6l14,19.2h1.6v-67.4h-26.5l9.8,8.3v35.8l-1.3,1
	c-9.6,7.3-20.6,10.8-33.5,10.8c-36,0-64.3-30.5-64.3-69.5c0-40.9,22.1-68.8,54.9-69.5c30.1,0,43.4,18.2,53.4,37.9l0.8,1.7h1.3v-40.3
	h-1.6l-6,8.9l-2.5-1.2c-11.9-5.7-26.1-8.6-42.1-8.6c-41.8,0-72.1,32.2-72.1,76.7C491.9,300.6,520.7,331.9,561.8,331.9z"/>
</svg>
