<?xml version="1.0" encoding="utf-8"?>
<!-- Generator: Adobe Illustrator 16.0.0, SVG Export Plug-In . SVG Version: 6.00 Build 0)  -->
<!DOCTYPE svg PUBLIC "-//W3C//DTD SVG 1.1//EN" "http://www.w3.org/Graphics/SVG/1.1/DTD/svg11.dtd">
<svg version="1.1" id="Layer_1" xmlns="http://www.w3.org/2000/svg" xmlns:xlink="http://www.w3.org/1999/xlink" x="0px" y="0px"
	 width="382.834px" height="203.937px" viewBox="0 0 382.834 203.937" enable-background="new 0 0 382.834 203.937"
	 xml:space="preserve">
<polygon points="47.615,200.798 21.207,200.798 16.004,195.596 16.004,117.39 22.017,110.748 0,110.748 6.154,117.375 
	6.154,195.555 0,202.184 57.08,202.184 60.672,183.714 "/>
<polygon points="117.365,200.798 81.453,200.798 81.453,154.2 104.557,154.2 112.099,168.79 112.099,138.222 104.557,152.815 
	81.453,152.815 81.453,112.13 116.479,112.13 125.402,128.244 125.402,110.748 65.449,110.748 71.604,117.375 71.604,195.555 
	65.447,202.184 126.829,202.184 130.422,183.714 "/>
<polygon points="47.617,91.798 21.208,91.798 16.005,86.596 16.005,8.39 22.016,1.748 0.001,1.748 6.155,8.375 6.155,86.555 
	0,93.184 57.08,93.184 60.671,74.714 "/>
<polygon points="116.367,91.798 80.454,91.798 80.454,45.2 103.559,45.2 111.098,59.79 111.098,29.222 103.559,43.815 
	80.454,43.815 80.454,3.13 115.481,3.13 124.404,19.244 124.404,1.748 64.45,1.748 70.604,8.375 70.604,86.555 64.449,93.184 
	125.83,93.184 129.421,74.714 "/>
<path d="M174.196,0c-25.944,0-44.775,20.019-44.775,47.6c0,27.422,18.831,47.327,44.775,47.327
	c25.945,0,44.776-20.016,44.776-47.598C218.973,19.905,200.142,0,174.196,0z M179.573,92.468c-25.487,0-38.823-27.507-38.823-54.681
	c0-20.523,12.473-36,29.011-36c24.87,0,37.882,27.848,37.882,55.356C207.644,77.613,195.838,92.468,179.573,92.468z"/>
<polygon points="280.904,1.748 288.052,11.178 288.052,69.484 284.778,69.484 234.78,1.748 220.306,1.748 227.302,11.33 
	227.302,83.541 221.026,93.184 236.633,93.184 229.491,83.609 229.491,17.377 232.776,17.377 288.554,94.528 290.241,94.528 
	290.241,11.224 296.812,1.748 "/>
<path d="M345.721,94.927l0.848,0.01c9.166,0,17.544-3.652,24.903-10.864l1.65-1.614l8.691,11.933h1.021v-41.84h-16.44l6.054,5.144
	v22.213l-0.793,0.601c-5.983,4.523-12.796,6.721-20.826,6.721c-22.373,0-39.898-18.941-39.898-43.124
	c0-25.37,13.694-42.7,34.077-43.124c18.663-0.001,26.954,11.313,33.137,23.542l0.527,1.055h0.803V0.538h-0.973l-3.729,5.518
	l-1.551-0.739C365.812,1.789,357.012,0,347.063,0c-25.944,0-44.775,20.019-44.775,47.6
	C302.288,75.467,320.148,94.927,345.721,94.927z"/>
<path d="M175.196,109c-25.944,0-44.774,20.019-44.774,47.6c0,27.422,18.83,47.327,44.774,47.327
	c25.943,0,44.775-20.016,44.775-47.598C219.972,128.905,201.14,109,175.196,109z M180.573,201.468
	c-25.488,0-38.825-27.507-38.825-54.681c0-20.523,12.474-36,29.013-36c24.869,0,37.882,27.848,37.882,55.356
	C208.643,186.613,196.836,201.468,180.573,201.468z"/>
<polygon points="281.904,110.748 289.053,120.178 289.053,178.484 285.776,178.484 235.781,110.748 221.305,110.748 228.301,120.33 
	228.301,192.541 222.027,202.184 237.632,202.184 230.491,192.609 230.491,126.377 233.776,126.377 289.553,203.528 291.24,203.528 
	291.24,120.224 297.812,110.748 "/>
<path d="M345.719,203.927l0.849,0.01c9.166,0,17.543-3.652,24.904-10.864l1.649-1.614l8.693,11.933h1.018v-41.84h-16.439
	l6.054,5.144v22.213l-0.794,0.601c-5.982,4.523-12.795,6.721-20.825,6.721c-22.372,0-39.898-18.941-39.898-43.124
	c0-25.37,13.696-42.7,34.079-43.124c18.662-0.001,26.952,11.313,33.137,23.542l0.527,1.055h0.803v-25.039H378.5l-3.728,5.518
	l-1.551-0.739c-7.409-3.528-16.211-5.317-26.159-5.317c-25.942,0-44.774,20.019-44.774,47.6
	C302.288,184.467,320.147,203.927,345.719,203.927z"/>
</svg>
