<?xml version="1.0" encoding="utf-8"?>
<!-- Generator: Adobe Illustrator 20.0.0, SVG Export Plug-In . SVG Version: 6.00 Build 0)  -->
<svg version="1.1" id="Layer_1" xmlns="http://www.w3.org/2000/svg" xmlns:xlink="http://www.w3.org/1999/xlink" x="0px" y="0px"
	 viewBox="0 0 1064.3 330" style="enable-background:new 0 0 1064.3 330;" xml:space="preserve">
<g>
	<path d="M228,285.6H114.3c29.3-1,48.9-16.9,62.7-56.9C182.5,268.7,198.7,284.6,228,285.6z M139.8,44.4h118.9
		c-24.1,1-37.6,13.4-37.6,44.5c0,3.8,0.3,7.9,0.7,12.4c-9-15.2-18.3-26.9-27.2-35.5l-3.8,35.5C185.3,61.3,169.1,45.4,139.8,44.4z
		 M183.9,165.7c4.1,8.3,6.5,15.2,5.5,25.2c-1,9-4.5,20.3-12.1,36.9c-4.1-16.5-5.5-27.9-4.5-36.9C173.9,180.9,177.7,174,183.9,165.7z
		 M195,139.2c-1,10-4.8,16.9-11,25.2c-4.1-8.3-6.5-15.2-5.5-25.2c1-9,4.5-20.3,12.1-36.9C194.6,118.8,196,130.2,195,139.2z
		 M222.2,102.3c17.9,24.8,23.8,37.9,23.8,48.9c0,4.5-1,8.6-2.4,13.1C227.7,148.8,221.1,137.1,222.2,102.3z M265.6,227.7
		c-17.9-24.8-23.8-37.9-23.8-48.9c0-4.5,1-8.6,2.4-13.1C260.1,181.2,266.6,192.9,265.6,227.7z M284.2,251.2l18.3-22.4l-10.7,56.9
		h-15.2l-10.7-56.9L284.2,251.2z M324.2,165.7c1.4,4.5,2.4,8.6,2.4,13.1c0,11-5.9,24.1-23.8,48.9
		C301.8,192.9,308.3,181.2,324.2,165.7z M309.7,44.4h118.9c-29.3,1-45.5,16.9-51,56.9l-3.8-35.5c-9,8.6-18.3,20.3-27.2,35.5
		c0.3-4.5,0.7-8.6,0.7-12.4C347.3,57.8,333.8,45.4,309.7,44.4z M322.4,151.2c0-11,5.9-24.1,23.8-48.9c1,34.8-5.5,46.5-21.4,62
		C323.5,159.8,322.4,155.7,322.4,151.2z M454.1,285.6H340.4c29.3-1,45.5-16.9,51-56.9C405.1,268.7,424.8,284.6,454.1,285.6z
		 M384.5,164.3c-6.2-8.3-10-15.2-11-25.2c-1-9,0.3-20.3,4.5-36.9c7.6,16.5,11,27.9,12.1,36.9C391,149.2,388.6,156.1,384.5,164.3z
		 M379,190.9c-1-10,1.4-16.9,5.5-25.2c6.2,8.3,10,15.2,11,25.2c1,9-0.3,20.3-4.5,36.9C383.4,211.2,380,199.8,379,190.9z"/>
	<path d="M380.3,141.2c0-12.1,5.5-25.2,20.3-38.9c-3.1,23.4-2.4,44.5-13.8,62C383.1,157.1,380.3,149.5,380.3,141.2z M380.3,188.8
		c0-8.3,2.8-15.9,6.5-23.1c11.4,17.6,10.7,38.6,13.8,62C385.9,213.9,380.3,200.8,380.3,188.8z M576.8,101.3
		c-31-34.5-64.1-37.2-87.5-37.2c-23.8,0-56.9,2.8-87.9,37.2c11.7-32.7,46.9-59.6,87.5-59.6h0.3C529.9,41.7,565,68.5,576.8,101.3z
		 M576.8,228.8c-11.7,32.7-46.9,59.6-87.5,59.6h-0.3c-40.7,0-75.8-26.9-87.5-59.6c31,34.5,64.1,37.2,87.9,37.2
		C512.7,266,545.7,263.2,576.8,228.8z M597.8,141.2c0,8.3-2.8,15.9-6.5,23.1c-11.4-17.6-10.7-38.6-13.8-62
		C592.3,116.1,597.8,129.2,597.8,141.2z M591.2,165.7c3.8,7.2,6.5,14.8,6.5,23.1c0,12.1-5.5,25.2-20.3,38.9
		C580.5,204.3,579.9,183.3,591.2,165.7z"/>
	<path d="M529.5,44.4h113.7c-29.3,1-47.2,16.9-56.9,56.9C576.7,61.3,558.8,45.4,529.5,44.4z M707.7,212.9v72.7H529.5
		c29.3-1,47.2-16.9,56.9-56.9c0,28.3,17.6,44.5,52,44.5C689.4,273.2,706.3,250.1,707.7,212.9z M594.7,139.2c0,10-3.1,16.9-8.3,25.2
		c-5.2-8.3-8.3-15.2-8.3-25.2c0-9,2.4-20.3,8.3-36.9C592.3,118.8,594.7,130.2,594.7,139.2z M578.1,190.9c0-10,3.1-16.9,8.3-25.2
		c5.2,8.3,8.3,15.2,8.3,25.2c0,9-2.4,20.3-8.3,36.9C580.5,211.2,578.1,199.8,578.1,190.9z"/>
	<path d="M684.9,44.4h111c53.1,0,81.7,25.5,93.4,56.9c-27.9-36.5-57.5-41.7-96.1-41.7c-37.6,0-51.3,13.4-51.3,41.7
		C732.2,61.3,714.2,45.4,684.9,44.4z M741.8,228.8c0,28.3,13.8,41.7,51.3,41.7c38.6,0,68.2-5.2,96.1-41.7
		c-11.7,31.4-40.3,56.9-93.4,56.9h-111C714.2,284.6,732.2,268.7,741.8,228.8z M733.5,139.2c0-9,2.4-20.3,8.3-36.9
		c5.9,16.5,8.3,27.9,8.3,36.9c0,10-3.1,16.9-8.3,25.2C736.6,156.1,733.5,149.2,733.5,139.2z M733.5,190.9c0-10,3.1-16.9,8.3-25.2
		c5.2,8.3,8.3,15.2,8.3,25.2c0,9-2.4,20.3-8.3,36.9C735.9,211.2,733.5,199.8,733.5,190.9z M889.6,102.3
		c14.8,13.8,20.3,26.9,20.3,38.9c0,8.3-2.8,15.9-6.5,23.1C892,146.7,892.7,125.7,889.6,102.3z M903.4,165.7
		c3.8,7.2,6.5,14.8,6.5,23.1c0,12.1-5.5,25.2-20.3,38.9C892.7,204.3,892,183.3,903.4,165.7z"/>
</g>
</svg>
