<?xml version="1.0" encoding="utf-8"?>
<!-- Generator: Adobe Illustrator 21.1.0, SVG Export Plug-In . SVG Version: 6.00 Build 0)  -->
<svg version="1.1" id="Layer_1" xmlns="http://www.w3.org/2000/svg" xmlns:xlink="http://www.w3.org/1999/xlink" x="0px" y="0px"
	 viewBox="0 0 1000 466.2" style="enable-background:new 0 0 1000 466.2;" xml:space="preserve">
<style type="text/css">
	.st0{fill:#020202;}
</style>
<path class="st0" d="M83.5,77.2l104.9,108l0-77.8c0-16.7-8.4-24.1-24.3-24.3v-5.8l53.7,0V83c-17.7,0.8-21.7,11.3-21.7,31.4l0,77.4
	c0,7,3,19.5,3,24.3h-10.7c-2.6-4.6-10.5-14.3-15.7-19.5L88.6,109l0,77.2c0,14.7,9,21.5,24.7,22.3v5.8l-56.3,0v-5.8
	c14.7,1,23.9-8.2,23.9-22.3l0-84.4l-7.8-8C65,85.3,61.4,83.6,53.8,83v-5.8L83.5,77.2z"/>
<path class="st0" d="M248.3,203.5c3.2,3.2,9,7.2,17.9,7.2c14.9,0,25.7-12.7,25.7-30.2c0-9.7-2.4-33.4-15.3-46.2
	c-3.8-3.8-9.7-6.6-16.3-6.6c-12.7,0-27.3,7.9-27.3,32.8C233,173.1,238,193.2,248.3,203.5 M262.6,121.8c25.5,0,45,20.3,45,46.6
	c0,26.9-19.5,48.1-44.6,48.1c-26.1,0-45.6-20.1-45.6-47.2C217.3,142.2,236.8,121.8,262.6,121.8"/>
<path class="st0" d="M375.2,211.5c-8,3-18.9,5-25.5,5c-14.5,0-19.7-7-19.7-20.5l0-64.9h-16.1v-4.6c13.1-3.6,21.7-10.9,26.7-22.3l5,0
	v19.7l27.7,0v7.2l-27.7,0l0,62.1c0,10.1,3,13.7,13.5,13.7c4.4,0,9-0.4,16.1-1.6V211.5z"/>
<path class="st0" d="M407.3,138.9c11.9-11.5,23.1-17.1,34.8-17.1c15.9,0,26.5,10.5,26.5,27.7l0,43.6c0,11.9,3,15.9,14.1,15.9l0,5.2
	l-43.6,0v-5.2c11.3,0,13.9-4.4,13.9-17.3v-36.6c0-14.7-5.6-21.9-18.1-21.9c-9.2,0-19.1,4.2-27.5,11.9l0,46.4
	c0,13.3,2.4,17.5,14.9,17.5l0,5.2l-45.4,0v-5.2c10.3,0,14.9-2.8,14.9-14.5l0-101.3l-14.1-6.6v-3l29.8-8.8L407.3,138.9z"/>
<path class="st0" d="M512.5,74.8c5.6,0,10.3,4.6,10.3,10.3c0,5.6-4.6,10.3-10.3,10.3c-5.6,0-10.3-4.6-10.3-10.3
	C502.2,79.4,506.9,74.8,512.5,74.8 M520.5,121.8V192c0,12.7,2.6,17.1,14.1,17.1v5.2l-45.4,0v-5.2c13.3,0,15.7-3.4,15.7-17.9l0-51.1
	l-14.7-6.6v-3L520.5,121.8z"/>
<path class="st0" d="M572.6,121.8l0,17.3c10.1-10.1,21.9-17.3,34.8-17.3c15.3,0,26.7,10.1,26.7,29.2v41.6c0,12.7,3,16.5,14.7,16.5
	v5.2l-46,0v-5.2c13.1,0.2,15.7-4.4,15.7-17.3l0-39.6c0-10.7-7-18.5-18.1-18.5c-9.5,0-19.7,4.4-27.7,12.1v45.6
	c0,12.9,1.4,18.1,16.1,17.7v5.2l-46.8,0v-5.2c11.5-0.2,15.1-2.8,15.1-17.5v-51.3l-14.3-6.6v-2.8L572.6,121.8z"/>
<path class="st0" d="M720.4,151c0-14.3-6.8-22.7-18.3-22.7c-18.9,0-21.1,22.3-21.1,30c0,12.7,7,20.9,17.9,20.9
	C712,179.1,720.4,168.1,720.4,151 M718.2,214.1c-7.2,1-12.9,1.6-26.9,1.6c-20.9,0-28.1,2.4-28.1,11.3c0,10.1,16.9,18.1,38.4,18.1
	c16.3,0,28.3-6,28.3-14.5C729.9,225.2,726.5,220.6,718.2,214.1 M656,139.9v-11.7c3.2,0.2,5.6,0.4,9,0.4c12.7,0,10.9-1.8,16.8-3.4
	c5.6-1.8,10.3-3.4,19.1-3.4c20.3,0,36,14.1,36,32.6c0,11.5-6.4,21.5-16.7,26.3c14.1,12.1,16.7,16.1,16.7,21.1
	c0,4.6-4.2,8.4-11.5,10.5c10.9,7.6,16.9,15.7,16.9,22.1c0,12.7-18.1,19.1-36.8,19.1c-30.6,0-53.1-13.7-53.1-32.4
	c0-13.1,10.9-20.5,32.2-20.7h15.9c16.9,0,22.3-1.8,22.3-6.2c0-2.6-3.2-6.4-8.6-10.7c-3,1.2-7.8,2-13.1,2
	c-20.1,0-35.8-13.7-35.8-31.2c0-5.8,1.6-12.1,5-16.3l-0.4-0.4"/>
<path class="st0" d="M816.1,74.8c5.6,0,10.3,4.6,10.3,10.3c0,5.6-4.6,10.3-10.3,10.3c-5.6,0-10.3-4.6-10.3-10.3
	C805.8,79.4,810.4,74.8,816.1,74.8 M824.1,121.8l0,70.2c0,12.7,2.6,17.1,14.1,17.1l0,5.2h-45.4v-5.2c13.3,0,15.7-3.4,15.7-17.9
	v-51.1l-14.7-6.6v-3L824.1,121.8z"/>
<path class="st0" d="M876.2,121.8v17.3c10.1-10.1,21.9-17.3,34.8-17.3c15.3,0,26.7,10.1,26.7,29.2v41.6c0,12.7,3,16.5,14.7,16.5
	l0,5.2l-46,0v-5.2c13.1,0.2,15.7-4.4,15.7-17.3v-39.6c0-10.7-7-18.5-18.1-18.5c-9.4,0-19.7,4.4-27.7,12.1v45.6
	c0,12.9,1.4,18.1,16.1,17.7v5.2l-46.8,0v-5.2c11.5-0.2,15.1-2.8,15.1-17.5l0-51.3l-14.3-6.6v-2.8L876.2,121.8z"/>
<path class="st0" d="M220.5,353.3l-0.6,29.4c-13.5,7.4-35.8,12.5-55.1,12.5c-44.2,0-75.4-29-75.4-69.8c0-46.8,40.8-72.2,77.8-72.2
	c15.7,0,34,3.4,47,9.3l5.2,30.4h-6.6C201.2,270.2,187,260,165.7,260c-16.5,0-28.7,6-36.6,13.9c-12.3,12.3-17.9,30-17.9,49.1
	c0,21.7,6.6,38.2,20.3,51.9c8.6,8.6,21.1,13.5,35.8,13.5c24.5,0,39.8-11.3,47-35H220.5z"/>
<path class="st0" d="M263.2,381.8c3.2,3.2,9,7.2,17.9,7.2c14.9,0,25.7-12.7,25.7-30.2c0-9.7-2.4-33.4-15.3-46.2
	c-3.8-3.8-9.7-6.6-16.3-6.6c-12.7,0-27.3,7.9-27.3,32.8C247.9,351.5,253,371.6,263.2,381.8 M277.5,300.2c25.5,0,45,20.3,45,46.6
	c0,26.9-19.5,48.1-44.6,48.1c-26.1,0-45.6-20.1-45.6-47.2C232.3,320.5,251.8,300.2,277.5,300.2"/>
<path class="st0" d="M365.4,300.2v15.9c9.2-10.1,21.5-15.9,33-15.9c12.5,0,22.9,7,25.5,17.1c11.3-11.7,22.3-17.1,34.4-17.1
	c10.7,0,26.9,6.4,26.9,24.3l0,46.1c0,12.1,2,16.9,14.5,16.9v5.2h-44v-5.2c9.2,0.2,13.9-3.6,13.9-15.9v-37.2c0-12.7-4-22.1-19.7-22.1
	c-8.2,0-17.1,3.8-24.5,10.7l0,48.5c0,11.5,2.8,16.5,14.5,16.1v5.2h-45v-5.2c11.9,0.2,14.9-4.2,14.9-17.1V330
	c0-10.7-7.6-17.5-19.5-17.5c-8.4,0-17.5,3.8-24.7,10.5l0,47.9c0,12.9,2.8,16.7,14.3,16.7v5.2l-45.8,0v-5.2
	c13.7,0,15.9-3.8,15.9-18.7v-50.1l-13.9-6.8v-3L365.4,300.2z"/>
<path class="st0" d="M537,300.2v15.9c9.2-10.1,21.5-15.9,33-15.9c12.5,0,22.9,7,25.5,17.1c11.3-11.7,22.3-17.1,34.4-17.1
	c10.7,0,26.9,6.4,26.9,24.3v46.1c0,12.1,2,16.9,14.5,16.9v5.2l-44,0v-5.2c9.2,0.2,13.9-3.6,13.9-15.9v-37.2c0-12.7-4-22.1-19.7-22.1
	c-8.2,0-17.1,3.8-24.5,10.7l0,48.5c0,11.5,2.8,16.5,14.5,16.1v5.2h-45v-5.2c11.9,0.2,14.9-4.2,14.9-17.1V330
	c0-10.7-7.6-17.5-19.5-17.5c-8.4,0-17.5,3.8-24.7,10.5v47.9c0,12.9,2.8,16.7,14.3,16.7v5.2l-45.8,0l0-5.2c13.7,0,15.9-3.8,15.9-18.7
	v-50.1l-13.9-6.8v-3L537,300.2z"/>
<path class="st0" d="M709.2,381.8c3.2,3.2,9,7.2,17.9,7.2c14.9,0,25.7-12.7,25.7-30.2c0-9.7-2.4-33.4-15.3-46.2
	c-3.8-3.8-9.7-6.6-16.3-6.6c-12.7,0-27.3,7.9-27.3,32.8C693.9,351.5,698.9,371.6,709.2,381.8 M723.4,300.2c25.5,0,45,20.3,45,46.6
	c0,26.9-19.5,48.1-44.6,48.1c-26.1,0-45.6-20.1-45.6-47.2C678.2,320.5,697.7,300.2,723.4,300.2"/>
<path class="st0" d="M807.3,300.2v17.3c10.1-10.1,21.9-17.3,34.8-17.3c15.3,0,26.7,10.1,26.7,29.2V371c0,12.7,3,16.5,14.7,16.5v5.2
	h-46v-5.2c13.1,0.2,15.7-4.4,15.7-17.3v-39.6c0-10.7-7-18.5-18.1-18.5c-9.5,0-19.7,4.4-27.7,12.1l0,45.6c0,12.9,1.4,18.1,16.1,17.7
	v5.2h-46.8v-5.2c11.5-0.2,15.1-2.8,15.1-17.5v-51.3l-14.3-6.6v-2.8L807.3,300.2z"/>
</svg>
