<?xml version="1.0" encoding="utf-8"?>
<!-- Generator: Adobe Illustrator 23.0.4, SVG Export Plug-In . SVG Version: 6.00 Build 0)  -->
<svg version="1.1" id="Layer_1" xmlns="http://www.w3.org/2000/svg" xmlns:xlink="http://www.w3.org/1999/xlink" x="0px" y="0px"
	 viewBox="0 0 315 213.9" style="enable-background:new 0 0 315 213.9;" xml:space="preserve">
<style type="text/css">
	.st0{fill:#FFFFFF;}
</style>
<g>
	<path class="st0" d="M30.1,50.8H38l22.9,36.6V50.8h5.4v42.4H58L35.5,56.6v36.5h-5.4C30.1,93.1,30.1,50.8,30.1,50.8z"/>
	<path class="st0" d="M71.8,50.8h5.3v5.9h-5.3V50.8z M71.8,64.2h5.3v28.9h-5.3V64.2z"/>
	<path class="st0" d="M82.1,50.8h5.3v25.6L100,64.2h6.9L93,77.2l16.3,16h-6.9l-15-14.3v14.3h-5.3C82.1,93.1,82.1,50.8,82.1,50.8z"/>
	<path class="st0" d="M132.9,84.6c-0.8,4-5.3,9.2-12.1,9.2c-9.7,0-13.9-7.3-13.9-15.1c0-7.9,4.6-15.2,13.3-15.2
		c8.4,0,13.2,6.6,13.2,15.4c0,0.4,0,0.9-0.1,1.1h-21c0.1,4.7,2.5,9.7,8.3,9.7c4.6,0,6.7-3.4,7.3-6.2L132.9,84.6z M127.8,75.8
		c0-3.9-2.5-8.2-7.6-8.2c-5,0-7.8,3.7-7.8,8.2H127.8z"/>
	<path class="st0" d="M137.3,50.8h5.8v37.5h21.6v4.9h-27.4V50.8z"/>
	<path class="st0" d="M185.4,93.1c-0.1-0.3-0.4-2.2-0.4-4.2c-1.7,3.5-5.2,4.9-9,4.9c-6.2,0-9.8-3.9-9.8-8.4c0-6.9,5.4-8.4,11.8-9.5
		c0.8-0.1,2.9-0.4,3.8-0.6c3.3-0.6,3.5-1.8,3.5-3.4s-1.1-4.4-6.1-4.4c-3.8,0-6.4,1.9-6.7,6.1l-5.4-1c0.5-2.7,1.7-4.9,3.6-6.4
		c2.2-1.8,5.1-2.8,8.5-2.8c6.3,0,11.2,2.3,11.2,9.5v13.2c0,4,0.4,6.6,0.4,6.9L185.4,93.1L185.4,93.1z M176.8,89.7
		c2.7,0,8.2-1.3,8.2-7.6v-3.8c-0.8,0.4-2.6,0.7-4.4,1.1l-2,0.4c-3.7,0.7-7,1.5-7,5.4C171.6,87.8,174.1,89.7,176.8,89.7z"/>
	<path class="st0" d="M195.4,50.8h5.3v17.6c1.3-2.6,4.9-4.9,8.9-4.9c9.6,0,13.2,8.3,13.2,15.2c0,5.4-2.9,15.2-13.6,15.2
		c-3.6,0-7.5-2.3-8.7-5.2v4.4h-5.2V50.8z M217.5,78.7c0-6.6-3.4-11-8.6-11c-3.1,0-8.2,2.1-8.2,10.9s5.3,10.9,8.2,10.9
		C215.1,89.6,217.5,83.8,217.5,78.7z"/>
</g>
<rect x="30.1" y="35.8" class="st0" width="5.5" height="4"/>
<rect x="137.4" y="35.8" class="st0" width="5.9" height="4"/>
<rect x="237.1" y="35.8" class="st0" width="5.9" height="4"/>
<rect x="278.9" y="35.8" class="st0" width="5.9" height="4"/>
<rect x="30.1" y="171.1" class="st0" width="5.5" height="4"/>
<rect x="137.4" y="171.1" class="st0" width="5.9" height="4"/>
<rect x="237.1" y="171.1" class="st0" width="5.9" height="4"/>
<rect x="278.9" y="171.1" class="st0" width="5.9" height="4"/>
<path class="st0" d="M271.8,115.6c0,0,0.1,0.2,0.3,0.6s0.4,0.8,0.6,1.4c0.3,0.6,0.5,1.3,0.8,2.1c0.3,0.8,0.6,1.6,0.8,2.5
	c0.3,0.9,0.5,1.8,0.6,2.8c0.2,1,0.2,1.9,0.2,2.9c0,1.4-0.2,2.6-0.6,3.6c-0.4,1-0.9,1.9-1.6,2.6c-0.7,0.7-1.4,1.2-2.4,1.6
	c-0.9,0.4-1.9,0.5-3,0.5c-1.1,0-2.3-0.2-3.5-0.6s-2.4-0.9-3.6-1.5c-1.2-0.6-2.4-1.3-3.5-2.1c-1.1-0.8-2.1-1.5-3.1-2.3
	c-0.9-0.7-1.7-1.4-2.4-2.1s-1.2-1.1-1.5-1.5c1.8,0.9,3.4,1.6,4.7,2c1.3,0.4,2.5,0.6,3.5,0.6c1.1,0,2.1-0.2,2.9-0.6
	c0.8-0.4,1.4-0.9,1.9-1.6c0.5-0.7,0.9-1.4,1.1-2.3c0.2-0.9,0.3-1.7,0.3-2.7c0-0.4,0-0.8-0.1-1.2s-0.1-0.8-0.2-1.2
	c-0.1-0.4-0.2-0.8-0.2-1.2c-0.1-0.4-0.2-0.7-0.2-1c-0.2-0.7-0.8-2.8-1.8-6.5c-0.4-1.6-1-3.5-1.6-5.9c-0.6-2.4-1.4-5.2-2.4-8.6
	c-0.9-3.4-2.1-7.4-3.3-12c-1.3-4.6-2.7-9.8-4.4-15.8L271.8,115.6z"/>
</svg>
