<?xml version="1.0" encoding="utf-8"?>
<!-- Generator: Adobe Illustrator 23.0.4, SVG Export Plug-In . SVG Version: 6.00 Build 0)  -->
<svg version="1.1" id="Layer_1" xmlns="http://www.w3.org/2000/svg" xmlns:xlink="http://www.w3.org/1999/xlink" x="0px" y="0px"
	 viewBox="0 0 315.03 213.88" style="enable-background:new 0 0 315.03 213.88;" xml:space="preserve">
<g>
	<path d="M30.11,50.76h7.92l22.86,36.6v-36.6h5.4v42.36h-8.34L35.51,56.58v36.54h-5.4V50.76z"/>
	<path d="M71.81,50.76h5.34v5.94h-5.34V50.76z M71.81,64.2h5.34v28.92h-5.34V64.2z"/>
	<path d="M82.07,50.76h5.34v25.56l12.6-12.12h6.9L92.99,77.16l16.32,15.96h-6.9l-15-14.34v14.34h-5.34V50.76z"/>
	<path d="M132.95,84.6c-0.84,3.96-5.28,9.24-12.12,9.24c-9.72,0-13.92-7.32-13.92-15.12c0-7.92,4.56-15.24,13.26-15.24
		c8.4,0,13.2,6.6,13.2,15.36c0,0.42,0,0.9-0.06,1.14h-21c0.06,4.74,2.46,9.72,8.28,9.72c4.56,0,6.66-3.42,7.26-6.18L132.95,84.6z
		 M127.79,75.84c0-3.9-2.52-8.22-7.62-8.22c-4.98,0-7.8,3.72-7.8,8.22H127.79z"/>
	<path d="M137.33,50.76h5.76v37.5h21.6v4.86h-27.36V50.76z"/>
	<path d="M185.45,93.12c-0.06-0.3-0.42-2.22-0.42-4.2c-1.68,3.54-5.16,4.92-9,4.92c-6.24,0-9.84-3.9-9.84-8.4
		c0-6.9,5.4-8.4,11.76-9.48c0.78-0.12,2.94-0.42,3.78-0.6c3.3-0.6,3.48-1.8,3.48-3.36s-1.08-4.38-6.06-4.38
		c-3.78,0-6.42,1.92-6.72,6.12l-5.4-1.02c0.48-2.7,1.74-4.86,3.6-6.42c2.16-1.8,5.1-2.82,8.52-2.82c6.3,0,11.22,2.28,11.22,9.54
		v13.2c0,3.96,0.36,6.6,0.42,6.9H185.45z M176.81,89.7c2.7,0,8.22-1.26,8.22-7.56v-3.78c-0.78,0.36-2.64,0.72-4.38,1.08l-1.98,0.36
		c-3.72,0.72-7.02,1.5-7.02,5.4C171.65,87.78,174.05,89.7,176.81,89.7z"/>
	<path d="M195.41,50.76h5.34V68.4c1.26-2.64,4.92-4.92,8.94-4.92c9.6,0,13.2,8.34,13.2,15.18c0,5.4-2.88,15.18-13.62,15.18
		c-3.6,0-7.5-2.34-8.7-5.16v4.44h-5.16V50.76z M217.49,78.72c0-6.6-3.36-10.98-8.64-10.98c-3.12,0-8.22,2.1-8.22,10.92
		s5.28,10.92,8.22,10.92C215.09,89.58,217.49,83.82,217.49,78.72z"/>
</g>
<rect x="30.09" y="35.85" width="5.47" height="4"/>
<rect x="137.35" y="35.76" width="5.85" height="4"/>
<rect x="237.05" y="35.76" width="5.85" height="4"/>
<rect x="278.93" y="35.76" width="5.85" height="4"/>
<rect x="30.09" y="171.15" width="5.47" height="4"/>
<rect x="137.35" y="171.06" width="5.85" height="4"/>
<rect x="237.05" y="171.06" width="5.85" height="4"/>
<rect x="278.93" y="171.06" width="5.85" height="4"/>
<path d="M257.5,126.88c0,0,3.19,1.69,5.96,1.69c0,0,6.51,0.15,6.51-6.57v-0.92c0,0,0.43-1.35-6.51-24.62v5.89l-7.31,0.31l7.31,2.76
	l0,4.24l-17.75-6.69l0-4.05l5.1,1.84l-5.1-4.36l0-12.77l2.95,1.11l0,4.36l3.75,1.35l0-4.05l3.32,1.29v3.99l4.36,1.6v-4.79l1.29,0.37
	c0,0-4.48-17.38-4.97-19.22c0,0,23.47,49.52,23.47,57.63c0,0,0.05,7.83-6.34,7.83C273.53,135.08,267.57,135.97,257.5,126.88z
	 M262.23,98.24l-16.05-5.94l6.71,6.3L262.23,98.24z M245.71,107.94l17.75,6.59v-4.09l-17.75-6.63L245.71,107.94z M263.46,126.28
	v-4.09l-7.74-2.95l7.74,0.33v-4.34l-17.75-6.63v4.05l7.84,3.03l-7.84-0.49l0,4.38L263.46,126.28z M267.55,123.2
	c0.16,0,0.3,0.04,0.44,0.12c0.14,0.08,0.24,0.19,0.32,0.32c0.08,0.14,0.12,0.28,0.12,0.44c0,0.16-0.04,0.3-0.12,0.44
	c-0.08,0.14-0.19,0.24-0.32,0.32c-0.14,0.08-0.28,0.12-0.44,0.12c-0.16,0-0.3-0.04-0.44-0.12c-0.14-0.08-0.24-0.19-0.32-0.32
	c-0.08-0.14-0.12-0.28-0.12-0.44c0-0.16,0.04-0.3,0.12-0.44c0.08-0.14,0.18-0.24,0.32-0.32C267.25,123.24,267.39,123.2,267.55,123.2
	z M267.55,123.37c-0.2,0-0.36,0.07-0.5,0.21c-0.14,0.14-0.21,0.3-0.21,0.5c0,0.19,0.07,0.36,0.21,0.5c0.14,0.14,0.3,0.21,0.5,0.21
	c0.19,0,0.36-0.07,0.5-0.21c0.14-0.14,0.21-0.3,0.21-0.5c0-0.2-0.07-0.36-0.21-0.5C267.91,123.44,267.74,123.37,267.55,123.37z
	 M267.08,124.47v-0.42c0-0.12,0.02-0.2,0.07-0.26c0.05-0.05,0.11-0.08,0.19-0.08c0.06,0,0.12,0.02,0.16,0.06
	c0.05,0.04,0.08,0.1,0.1,0.19c0.01-0.04,0.03-0.06,0.04-0.08c0.02-0.02,0.05-0.05,0.1-0.07c0,0,0.09-0.05,0.27-0.15v0.28
	c-0.18,0.09-0.29,0.15-0.32,0.18c-0.03,0.03-0.05,0.06-0.05,0.09c0,0.01,0,0.02,0,0.03h0.37v0.23H267.08z M267.48,124.24v-0.1
	c0-0.07-0.01-0.12-0.03-0.14c-0.02-0.03-0.05-0.04-0.08-0.04c-0.04,0-0.06,0.01-0.08,0.04c-0.02,0.03-0.03,0.07-0.03,0.14v0.11
	H267.48z M246.58,81c0.16,0,0.3,0.04,0.44,0.12c0.14,0.08,0.24,0.19,0.32,0.32c0.08,0.14,0.12,0.28,0.12,0.44
	c0,0.16-0.04,0.3-0.12,0.44c-0.08,0.14-0.19,0.24-0.32,0.32c-0.14,0.08-0.28,0.12-0.44,0.12c-0.16,0-0.3-0.04-0.44-0.12
	c-0.14-0.08-0.24-0.19-0.32-0.32c-0.08-0.14-0.12-0.28-0.12-0.44c0-0.16,0.04-0.3,0.12-0.44c0.08-0.14,0.19-0.24,0.32-0.32
	C246.28,81.04,246.43,81,246.58,81z M246.58,81.17c-0.2,0-0.36,0.07-0.5,0.21c-0.14,0.14-0.21,0.3-0.21,0.5
	c0,0.19,0.07,0.36,0.21,0.5c0.14,0.14,0.3,0.21,0.5,0.21c0.19,0,0.36-0.07,0.5-0.21c0.14-0.14,0.21-0.3,0.21-0.5
	c0-0.2-0.07-0.36-0.21-0.5C246.95,81.24,246.78,81.17,246.58,81.17z M246.12,82.28v-0.42c0-0.12,0.02-0.2,0.07-0.26
	c0.05-0.05,0.11-0.08,0.19-0.08c0.06,0,0.12,0.02,0.16,0.06c0.05,0.04,0.08,0.1,0.1,0.19c0.01-0.04,0.03-0.06,0.04-0.08
	c0.02-0.02,0.05-0.05,0.1-0.07c0,0,0.09-0.05,0.27-0.15v0.28c-0.18,0.09-0.28,0.15-0.32,0.18c-0.03,0.03-0.05,0.06-0.05,0.09
	c0,0.01,0,0.02,0,0.03h0.37v0.23H246.12z M246.51,82.05v-0.1c0-0.07-0.01-0.12-0.03-0.14c-0.02-0.03-0.05-0.04-0.09-0.04
	c-0.03,0-0.06,0.01-0.09,0.04c-0.02,0.03-0.03,0.07-0.03,0.14v0.11H246.51z"/>
</svg>
