<?xml version="1.0" encoding="utf-8"?>
<!-- Generator: Adobe Illustrator 24.0.1, SVG Export Plug-In . SVG Version: 6.00 Build 0)  -->
<svg version="1.1" id="Layer_1" xmlns="http://www.w3.org/2000/svg" xmlns:xlink="http://www.w3.org/1999/xlink" x="0px" y="0px"
	 viewBox="0 0 1248 700" style="enable-background:new 0 0 1248 700;" xml:space="preserve">
<style type="text/css">
	.st0{fill:#FFFFFF;}
</style>
<path class="st0" d="M1058.11,273.34c41.34,0,68.91,10.34,89.58,19.81v68.91h-10.34c-8.61-52.54-45.65-68.05-90.44-68.05
	c-38.76,0-70.63,18.95-70.63,58.57c0,33.59,18.09,51.68,88.72,84.41c72.35,32.73,96.47,61.15,96.47,111.11
	c0,68.91-59.43,103.36-124.89,103.36c-31.87,0-72.35-12.06-99.91-30.15v-68.91H947c2.58,37.9,38.76,79.24,98.19,79.24
	c46.51,0,84.41-24.12,84.41-70.63c0-35.31-27.56-61.15-93.89-90.44c-63.74-25.84-91.3-56.85-91.3-101.64
	C944.42,304.35,1005.57,273.34,1058.11,273.34z M844.5,193.24c8.61-6.03,37.9-34.45,42.21-43.07c5.17,8.61,33.59,37.04,43.07,43.07
	c-9.47,4.31-37.9,33.59-43.07,42.21C882.4,227.69,853.12,198.41,844.5,193.24z M953.89,646.3c-16.37,0-26.7-1.72-64.6-1.72
	c-34.45,0-48.23,0-64.6,0v-9.47c37.04,0,44.79-0.86,44.79-39.62V331.91c0-26.7-16.37-34.45-62.88-31.01l18.09-11.2l84.41-10.34
	v316.11c0,24.12,17.23,39.62,44.79,39.62V646.3z M775.59,300.04h-61.15V285.4l61.15-2.58v-75.8
	c-1.72-83.55,55.13-138.67,142.12-138.67c36.18,0,66.32,9.47,83.55,19.81v69.77h-10.34c-7.75-52.54-37.04-73.21-77.52-73.21
	c-61.15,0-97.33,40.48-97.33,111.11v86.13c38.76,0,66.32-1.72,93.02-4.31v22.39h-93.02v295.44c0,38.76,14.64,39.62,51.68,39.62v9.47
	c-17.23,0-29.29,0-72.35,0c-34.45,0-37.04,0-52.54,0v-9.47c15.5,0,32.73,2.58,32.73-39.62V300.04z M688.6,300.04v-17.23v-95.61
	c0-81.83,56.85-138.67,142.12-138.67c36.18,0,66.32,9.47,101.64,28.42l-53.4,10.34c17.23-1.72-12.06-22.39-52.54-22.39
	c-61.15,0-97.33,40.48-97.33,111.11v105.94c38.76,0,55.99-1.72,82.69-4.31l18.09,22.39H729.08v295.44
	c0,34.45,10.34,39.62,34.45,39.62v9.47c-18.09,0-12.06,0-54.26,0c-34.45,0-48.23,2.58-64.6,2.58V635.1
	c16.37,0,43.93-3.45,43.93-39.62V300.04z M387.99,629.93c132.65,0,229.98-107.67,229.98-252.37
	c0-166.24-108.53-286.82-254.96-286.82c-132.65,0-229.98,107.67-229.98,252.37C133.04,508.49,241.57,629.93,387.99,629.93z
	 M86.53,360.34c0-167.1,121.45-289.41,289.41-289.41c167.1-2.58,289.41,120.59,288.55,289.41c0,167.1-121.45,289.41-288.55,289.41
	C207.98,649.74,86.53,527.44,86.53,360.34z"/>
</svg>
