<?xml version="1.0" encoding="utf-8"?>
<!-- Generator: Adobe Illustrator 20.0.0, SVG Export Plug-In . SVG Version: 6.00 Build 0)  -->
<svg version="1.1" id="Layer_1" xmlns="http://www.w3.org/2000/svg" xmlns:xlink="http://www.w3.org/1999/xlink" x="0px" y="0px"
	 viewBox="0 0 520.7 677.6" style="enable-background:new 0 0 520.7 677.6;" xml:space="preserve">
<style type="text/css">
	.st0{fill:none;stroke:#000000;stroke-width:0.5;stroke-miterlimit:10;}
</style>
<g>
	<path class="st0" d="M0.5,676.8c28.1,0,56.3,0,84.5,0c44.5,0,89.1,0,133.6,0c7,0,14.3,0.6,21.3,0c9.6-0.8,9.5-4.2,6.8-13.3
		c-2.8-9.4-7.8-18.1-12.2-26.8c-6.2-12.2-18.2-23.2-28.5-32.1c-16.1-13.9-29-26.3-40-45.3c-19.4-33.7-21.3-68-21.2-105.8
		c0-7.2,0-14.5,0-21.7c0-17.7-1.7-27.5-9.7-43.7c-12.1-24.5-24.9-46.3-24.9-74c0-28.4,6.4-56.1,19.2-81.5
		c9.2-18.1,17-36.9,24.6-55.7c10.8-26.4,7.3-53.6,7.3-81.4c0-12,0.9-19.2,5.5-29.8c3.3-7.6,8-15.7,9.7-23.8
		c2.7-12.5,2.1-25.8,5-38.3 M0.5,7.4v669.4 M182.5,7.4H0.5"/>
	<path class="st0" d="M383.7,126.3c0.6,0.6,1.1,1,1.2,1.9c0.1,0.9-0.4,1.9,0,2.7c0.5,1,0.9,1,1,2.2c0.1,1.4,0.6,1.1,1.2,2.2
		c0.3,0.6,0.1,1.5,0.5,2.2c0.6,1.3,1.3,1.6,1.4,3.1c0.1,1.2,0.5,1.8,0.8,2.8c0.1,0.5-0.1,1.1,0,1.6c0.2,0.8,0.6,1,1,1.7
		c0.6,1.1,0.2,2.3,0.5,3.5c0.1,0.5,0.3,0.8,0.5,1.2c0.2,0.7,0,1.9,0.4,2.6c0.2,0.5,0.9,0.7,1.1,1.1c0.2,0.5,0,1.4,0,1.9
		c0.1,1,0,2.1,0.1,3.1c0.1,1.4,0.1,3.1,0.5,4.4c0.7,1.8,1.3,2.2,1.1,4.1c-0.3,2.8,0.9,5,1,7.7c0.1,2,1,4,0.6,6
		c-0.3,1.4-0.4,3-1.2,4.2c-1.5,2.2-2.2,4.4-3.4,6.7 M329,106.6c-1.4,0.4-2.8,0.9-3.5,2.3c-0.6,1.1-0.5,2.4-1.5,3.4
		c-1,1-1.8,1.1-2.3,2.6c-0.3,0.9-0.1,1.2-0.6,2c-0.3,0.5-0.8,0.8-1.1,1.1c-1.4,1.7-1.2,3-1.7,5c-0.3,1.4-1.5,2.3-2.4,3.4
		c-1.3,1.5-1.5,3.9-1.6,5.9 M366.3,93.4c2,0.8,4.4,1.6,5.9,3.2 M358.9,95c2.3,0.2,5.6,1.1,7.3,2.5c1.1,0.9,1.6,2,2.3,3
		c0.8,1.1,1.2,1.1,2.3,1.8c1,0.6,1.4,1.6,2.2,2.2c0.7,0.5,1.8,1,2.5,1.6c1.4,1.2,4.5,3.6,4,5.6 M358.9,100.1
		c1.3,0.5,2.7,0.3,4.1,0.8c1.7,0.7,1.6,1.5,2.4,3c1.5,2.5,4.6,2.3,5.7,5c0.7,1.7,1.7,2.8,3.3,3.8c0.5,0.3,1.6,0.6,1.9,1
		c0.6,0.7,0.2,1,0.6,1.6c0.7,1.3,2.3,1.9,3.4,3.2c0.8,1,1.4,2.2,2,3.4 M431.6,6.7c-0.4,11.8,3.9,23.8,5.2,35.5
		c1.8,16.2,1.7,32.4,1.6,48.7c-0.3,25-1.7,50.2-0.8,75.3c0.4,10.4,2.7,15.3,14.3,16.5c6.9,0.7,9-1.9,13.9-6.2
		c8.2-7.2,8.7-13.6,8.6-24.2c0-11.8,1.5-23.1,1.5-34.9c0-7.9-5.8-45.2,10.3-41.3c4.5,7.2,1.1,15.8,1,24.8c-0.2,18-0.5,36.1-0.8,54.1
		c-0.2,17.5,1.5,34.6,1.5,52.2c-0.1,38.8,4.5,77.6,4.5,116.7c0,26.9-0.2,53.9-1.5,80.8c-0.3,6.9-2.3,20.8,0.2,27.4
		c1.6,4.1,9.6,8.1,14.2,6.9c14.5-3.7,13.4-28,13.5-39.5c0-23.8,2.9-47.1,0.3-70.8c-2.5-22.9-1.6-46.3-2.6-69.1
		c-0.5-12.7-1.5-25.3-1.5-38.5 M515.7,7.4v212.1 M431.6,7.4h84.1 M191,90.7c19-11.9,37.1-26,56.8-37.4c33.4-19.4,60.8-43.8,99.6-52
		c10.6-2.2,24.9-0.5,29.5,10.9c3.4,8.4-5,14.2-9.5,21c-12.8,19.6-34.6,33.7-54,47c-13.3,9.1-30.1,21.3-32.9,38.6
		c-1.1,6.8,0,14.8-0.4,21.7c-0.3,6.7-2.2,18.2,1.8,24c1.4,2.1,5.1,3,6.8,4.9c2.7,3,4.5,7.4,6.5,10.8c2.7,4.7,4.9,10.2,8.6,13.7
		c11.3,10.4,26,17.6,39.9,23.8c12.8,5.7,22,7,35.7,7c14.8,0,33.1-1.5,47.1,3.9c16.1,6.2,15.5,18.5,18,33.6
		c1.6,9.6,4.1,17.9,9.2,26.3c4.8,7.9,9,7.5,16.9,11.6c-1.7,6.4,0.2,14.7,0.3,21c0.1,5.9-0.8,11.3-1.9,16.2
		c-1.1,5.4-0.1,11.7-1.3,17.3c-0.9,4.2-3.7,5.8-4.5,9.2 M388.4,153.6c6.7,31.7-3.4,60.7-22.5,64.7c-19.1,4-40-18.4-46.7-50.1
		c-6.7-31.7,3.4-60.7,22.5-64.7C360.8,99.4,381.7,121.9,388.4,153.6z M271.3,201.5l244.4,471.6 M293.1,673.1h222.6 M134.4,337.6
		c-2.7,3.1-5.3,10.5-3.7,14.7c2.9,7.4,11.7,5,17.6,3.4c11.4-3.2,21.7-12.2,31.2-19.1c7.1-5.1,17.2-17.5,25.5-19.6
		c4.1-10.9,27.5-28.3,39-22.1c3.8,30.3-16.7,47.5-38.3,64.7c-11.8,9.4-27.4,20.3-33.9,33.8c-6.4,13.3-7.9,30.3-6.6,45.1
		c0.3,3.8,2,6.6,2.3,10.5c0.6,6.6-2.1,13.7-0.6,20.2c1.9,8.5,6.9,17.8,10.5,25.7c3.1,6.9,3.3,12.6,4.7,19.9
		c2.1,10.7,10.1,21.7,14.9,31.3c9.8,19.8,20.2,36.6,34,53.3c11.6,14,26.1,26.5,41.1,36c7.8,4.9,12.4,9,15.1,17.8
		c1.9,6.2,0.5,15.5,5.8,19.9 M271.3,201.5L134.4,338.4 M182.5,96.2L456.3,370"/>
</g>
<path class="st0" d="M492.6,513.3l17.7,38.2 M514,513.3l-21.4,38.2 M483.4,532.9h32.3 M501.7,470.2v102.3"/>
</svg>
