<?xml version="1.0" encoding="utf-8"?>
<!-- Generator: Adobe Illustrator 23.0.4, SVG Export Plug-In . SVG Version: 6.00 Build 0)  -->
<svg version="1.1" id="Layer_1" xmlns="http://www.w3.org/2000/svg" xmlns:xlink="http://www.w3.org/1999/xlink" x="0px" y="0px"
	 viewBox="0 0 875.42 612" style="enable-background:new 0 0 875.42 612;" xml:space="preserve">
<style type="text/css">
	.st0{fill:#020202;}
</style>
<path class="st0" d="M579.25,331.75h18.48c0.38,17.91,14.31,29,36.54,29h2c14.81,0,29.75-6.73,29.75-21.75
	c0-11.7-7.18-18.61-22.6-21.73l-22.4-4.6c-23.09-4.74-34.8-17.75-34.8-38.67c0-22.74,20.71-39.25,49.25-39.25
	c30.2,0,49.68,16.26,51.02,42.5h-18.52c-1.32-15.58-13.89-26-31.5-26h-2c-17.24,0-29.75,9.48-29.75,22.55
	c0,10.67,6.85,17.7,19.81,20.34l22.4,4.4c24.95,4.95,37.6,18.29,37.6,39.66c0,23.72-20.04,39.05-51.05,39.05
	c-16.53,0-29.65-3.94-39.02-11.7C584.99,357.71,579.88,346.34,579.25,331.75z M554.52,375.25v-138.5h-18.5v117.92l-66.19-117.92
	h-26.81v138.5h18.5V257.33l66.19,117.92H554.52z M72.65,365.55c9.37,7.76,22.5,11.7,39.02,11.7c31.01,0,51.05-15.33,51.05-39.05
	c0-21.37-12.65-34.72-37.6-39.66l-22.4-4.4c-12.96-2.64-19.81-9.67-19.81-20.34c0-13.07,12.51-22.55,29.75-22.55h2
	c17.61,0,30.17,10.42,31.5,26h18.52c-1.34-26.24-20.81-42.5-51.02-42.5c-28.54,0-49.25,16.51-49.25,39.25
	c0,20.91,11.71,33.92,34.8,38.67l22.4,4.6c15.42,3.12,22.6,10.03,22.6,21.73c0,15.02-14.94,21.75-29.75,21.75h-2
	c-22.24,0-36.17-11.09-36.54-29H57.45C58.08,346.34,63.2,357.71,72.65,365.55z M801.72,312.25v-16.5h-70v-42.5h82v-16.5h-100.5
	v138.5h102.5v-16.5h-84v-46.5H801.72z M195.85,365.55c9.37,7.76,22.5,11.7,39.02,11.7c31.01,0,51.05-15.33,51.05-39.05
	c0-21.37-12.65-34.72-37.6-39.66l-22.4-4.4c-12.96-2.64-19.81-9.67-19.81-20.34c0-13.07,12.51-22.55,29.75-22.55h2
	c17.61,0,30.17,10.42,31.5,26h18.52c-1.34-26.24-20.81-42.5-51.02-42.5c-28.54,0-49.25,16.51-49.25,39.25
	c0,20.91,11.71,33.92,34.8,38.67l22.4,4.6c15.42,3.12,22.6,10.03,22.6,21.73c0,15.02-14.94,21.75-29.75,21.75h-2
	c-22.24,0-36.17-11.09-36.54-29h-18.48C181.28,346.34,186.39,357.71,195.85,365.55z M403.12,312.25v-16.5h-70v-42.5h82v-16.5h-100.5
	v138.5h102.5v-16.5h-84v-46.5H403.12z"/>
</svg>
