<?xml version="1.0" encoding="utf-8"?>
<!-- Generator: Adobe Illustrator 23.0.4, SVG Export Plug-In . SVG Version: 6.00 Build 0)  -->
<svg version="1.1" id="Layer_1" xmlns="http://www.w3.org/2000/svg" xmlns:xlink="http://www.w3.org/1999/xlink" x="0px" y="0px"
	 viewBox="0 0 875.4 612" style="enable-background:new 0 0 875.4 612;" xml:space="preserve">
<style type="text/css">
	.st0{fill:#FFFFFF;}
</style>
<g>
	<g>
		<path class="st0" d="M121.9,254h2c18.9,0,33.1,11,34.2,28.5h16.3c-1-26.6-20.7-43.3-51-43.3c-30.7,0-49.8,17.9-49.8,41.3
			c0,20.5,12.6,32.9,34.6,37.4l22.8,4.7c17.1,3.5,25.2,10.8,25.2,23.2c0,14-11.4,25-32.3,25h-2c-23,0-39-11.2-39-31.5H66.4
			c0.4,29.9,20.5,46.4,55.3,46.4c30.7,0,50.6-15.5,50.6-40.7c0-21.8-13.8-33.8-37.6-38.6l-22.8-4.7c-13.6-2.9-22.2-9.8-22.2-22
			C89.7,265.2,103,254,121.9,254 M243.7,254h2c18.9,0,33.1,11,34.2,28.5h16.3c-1-26.6-20.7-43.3-51-43.3
			c-30.7,0-49.8,17.9-49.8,41.3c0,20.5,12.6,32.9,34.6,37.4l22.8,4.7c17.1,3.5,25.2,10.8,25.2,23.2c0,14-11.4,25-32.3,25h-2
			c-23,0-39-11.2-39-31.5h-16.3c0.4,29.9,20.5,46.4,55.3,46.4c30.7,0,50.6-15.5,50.6-40.7c0-21.8-13.8-33.8-37.6-38.6l-22.8-4.7
			c-13.6-2.9-22.2-9.8-22.2-22C211.6,265.2,224.8,254,243.7,254 M629.9,254h2c18.9,0,33.1,11,34.2,28.5h16.3
			c-1-26.6-20.7-43.3-51-43.3c-30.7,0-49.8,17.9-49.8,41.3c0,20.5,12.6,32.9,34.6,37.4l22.8,4.7c17.1,3.5,25.2,10.8,25.2,23.2
			c0,14-11.4,25-32.3,25h-2c-23,0-39-11.2-39-31.5h-16.3c0.4,29.9,20.5,46.4,55.3,46.4c30.7,0,50.6-15.5,50.6-40.7
			c0-21.8-13.8-33.8-37.6-38.6l-22.8-4.7c-13.6-2.9-22.2-9.8-22.2-22C597.8,265.2,611,254,629.9,254 M334.6,317.7H407v-14.8h-72.4
			v-46.8h84.6v-14.8H318.4v142.3h102.9v-14.8h-86.6L334.6,317.7L334.6,317.7z M537.8,360.6l-74.2-119.4H442v142.3h16.3v-121
			l74.8,121h20.9V241.2h-16.3V360.6z M720.4,368.7v-51h72.4v-14.8h-72.4v-46.8H805v-14.8H704.2v142.3h102.9v-14.8L720.4,368.7
			L720.4,368.7z"/>
	</g>
</g>
</svg>
