<?xml version="1.0" encoding="utf-8"?>
<!-- Generator: Adobe Illustrator 20.0.0, SVG Export Plug-In . SVG Version: 6.00 Build 0)  -->
<svg version="1.1" id="Layer_1" xmlns="http://www.w3.org/2000/svg" xmlns:xlink="http://www.w3.org/1999/xlink" x="0px" y="0px"
	 viewBox="0 0 801 153" style="enable-background:new 0 0 801 153;" xml:space="preserve">
<g>
	<path d="M142.5,93h10.8c0,14,10.7,21.5,26,21.5h1.4c14,0,21.5-7.5,21.5-16.5c0-8.4-5.4-13.3-16.8-15.6l-15.2-3.1
		c-14.6-3-23-11-23-25.3c0-14.9,12.7-27.1,32.9-27.1c20.5,0,33.6,11.4,34.3,29.4h-10.8c-0.7-11.9-10.2-19.5-22.8-19.5h-1.4
		c-12.6,0-21.4,7.5-21.4,17.1c0,8.1,5.7,12.9,14.8,14.6l15.2,3c15.9,3.1,25.1,11.4,25.1,26c0,16.7-13.3,27-33.7,27
		C156.2,124.4,142.8,113.2,142.5,93z"/>
	<path d="M226.7,93h10.8c0,14,10.7,21.5,26,21.5h1.4c14,0,21.5-7.5,21.5-16.5c0-8.4-5.4-13.3-16.8-15.6l-15.2-3.1
		c-14.6-3-23-11-23-25.3c0-14.9,12.7-27.1,32.9-27.1c20.5,0,33.6,11.4,34.3,29.4h-10.8c-0.7-11.9-10.2-19.5-22.8-19.5h-1.4
		c-12.6,0-21.4,7.5-21.4,17.1c0,8.1,5.7,12.9,14.8,14.6l15.2,3c15.9,3.1,25.1,11.4,25.1,26c0,16.7-13.3,27-33.7,27
		C240.4,124.4,226.9,113.2,226.7,93z"/>
	<path d="M318.3,28.2h67.2v9.9h-56.4v31.2h48.2v9.9h-48.2v34h57.7v9.9h-68.6V28.2z"/>
	<path d="M480.3,28.2v94.9h-14l-49.9-80.6v80.6h-10.8V28.2H420l49.5,79.5V28.2H480.3z"/>
	<path d="M498.6,93h10.8c0,14,10.7,21.5,26,21.5h1.4c14,0,21.5-7.5,21.5-16.5c0-8.4-5.4-13.3-16.8-15.6l-15.2-3.1
		c-14.6-3-23-11-23-25.3c0-14.9,12.7-27.1,32.9-27.1c20.5,0,33.6,11.4,34.3,29.4h-10.8c-0.7-11.9-10.2-19.5-22.8-19.5h-1.4
		c-12.6,0-21.4,7.5-21.4,17.1c0,8.1,5.7,12.9,14.8,14.6l15.2,3c15.9,3.1,25.1,11.4,25.1,26c0,16.7-13.3,27-33.7,27
		C512.3,124.4,498.9,113.2,498.6,93z"/>
	<path d="M590.2,28.2h67.2v9.9h-56.4v31.2h48.2v9.9h-48.2v34h57.7v9.9h-68.6V28.2z"/>
</g>
</svg>
