<?xml version="1.0" encoding="utf-8"?>
<!-- Generator: Adobe Illustrator 23.0.4, SVG Export Plug-In . SVG Version: 6.00 Build 0)  -->
<svg version="1.1" id="Layer_1" xmlns="http://www.w3.org/2000/svg" xmlns:xlink="http://www.w3.org/1999/xlink" x="0px" y="0px"
	 viewBox="0 0 1292.2 911.6" style="enable-background:new 0 0 1292.2 911.6;" xml:space="preserve">
<style type="text/css">
	.st0{fill:#EEEEEE;}
	.st1{fill:#020202;}
</style>
<rect class="st0" width="1292.2" height="911.6"/>
<polygon class="st1" points="78,415.4 78,424.7 99.1,424.7 99.1,479.4 109.8,479.4 109.8,424.7 130.8,424.7 130.8,415.4 "/>
<g>
	<path class="st1" d="M136.5,451.9h23.1c-0.7-8-5.4-12-11.5-12C141.9,439.9,137.4,444,136.5,451.9 M158.8,465.6h10.5
		c-1.7,8.2-9.1,15.1-21,15.1c-13.9,0-22.1-10-22.1-24.7c0-13.5,8.1-23.7,21.9-23.7c10.4,0,18,6,20.5,15.6c0.9,2.9,1.3,6.3,1.3,10.7
		h-33.5c0.4,10.4,5.6,14.6,12,14.6C154.1,473.2,157.9,470,158.8,465.6"/>
	<path class="st1" d="M220.4,450.2h-10.7c-0.4-5.9-4.3-9.8-9.9-9.8c-7.2,0-11.4,6.1-11.4,16.1c0,10,4.2,16.1,11.4,16.1
		c5.6,0,9.4-4.4,9.8-10.6h10.8c-0.9,11.1-8.8,18.7-20.6,18.7c-13.5,0-22.2-9.4-22.2-24.2c0-14.8,8.7-24.2,22.2-24.2
		C211.5,432.4,219.5,439.8,220.4,450.2"/>
	<path class="st1" d="M240.4,439.1c3.2-4.4,8-6.5,13.1-6.5c10.3,0,16.6,6.3,16.6,18.8v28H260v-27.1c0-8.2-3.5-11.4-9.3-11.4
		c-5.9,0-10.4,4.4-10.4,13.1v25.4H230v-64.1h10.2v23.8L240.4,439.1L240.4,439.1z"/>
	<path class="st1" d="M295.5,446.1h6.6c1.8,0,2.8,0.7,2.8,2.1c0,1.4-0.9,2.1-2.8,2.1h-17.8c-1.8,0-2.8-0.7-2.8-2.1
		c0-1.4,0.9-2.1,2.8-2.1h6.5v-24.6l-5.4,3.4c-0.8,0.5-1.4,0.8-2,0.8c-0.6,0-1.2-0.2-1.6-0.6c-0.4-0.4-0.6-1-0.6-1.6
		c0-0.9,0.4-1.7,1.3-2.2l8.9-5.8c0.7-0.6,1.3-0.9,1.8-0.9c0.4,0,0.8,0.1,1,0.2c0.8,0.3,1.1,1.2,1.1,2.5L295.5,446.1z"/>
	<path class="st1" d="M319.5,447.5v-32.2c0.6-0.8,1.4-1.2,2.3-1.2c0.5,0,1.1,0.1,1.5,0.5c0.5,0.4,0.8,1.2,0.8,2.5v20.2h3.4
		c1.7,0,2.6,0.8,2.6,2.2c0,0.7-0.2,1.3-0.7,1.7c-0.5,0.4-1.1,0.6-1.9,0.6h-3.4v5.7c0,0.8-0.2,1.5-0.6,2c-0.4,0.5-1,0.8-1.8,0.8
		s-1.3-0.3-1.7-0.8C319.7,449,319.5,448.3,319.5,447.5 M315.9,420.1l-0.1,7.9l-5.9,9.2h6.1v4.5h-9.6c-1.2,0-2-0.3-2.5-1
		c-0.2-0.4-0.3-0.8-0.3-1.2c0-0.6,0.1-1.1,0.5-1.5L315.9,420.1z"/>
	<path class="st1" d="M352.1,446.3h11.1c9.1,0,13.1-4.1,13.1-11c0-6.8-4-10.9-13.1-10.9h-11.1V446.3z M364.5,415.4
		c15.1,0,22.9,8,22.9,20c0,12-7.8,20.1-22.9,20.1h-12.3v24h-10.8v-64L364.5,415.4L364.5,415.4z"/>
	<path class="st1" d="M421.6,457.7c-3.1,0.2-7.5,0.6-10.5,1.2c-6.6,1.1-9,3.1-9,7.2c0,4,2.9,6.8,8.1,6.8c3.1,0,6.2-1,8.3-3.1
		c2.4-2.5,3.1-5,3.1-9.8V457.7z M431.5,450.2v17.1c0,5.4,0.5,9.2,1.2,12h-9.3c-0.5-2-0.6-4.2-0.6-6.4h-0.2
		c-3.3,4.9-8.5,7.4-15.4,7.4c-9.5,0-15.5-5.8-15.5-13.6c0-7.5,4.4-12.3,17.5-14.4c3.7-0.6,9.1-1.2,12.3-1.4v-1.8
		c0-6.8-3.7-9.4-8.9-9.4c-5.7,0-8.7,3.1-9,8h-10.1c0.5-8.6,6.7-15.5,19.1-15.5C424.7,432.4,431.5,438.3,431.5,450.2"/>
	<path class="st1" d="M483.2,450.2h-10.7c-0.5-5.9-4.3-9.8-9.9-9.8c-7.2,0-11.4,6.1-11.4,16.1c0,10,4.2,16.1,11.4,16.1
		c5.6,0,9.4-4.4,9.8-10.6h10.8c-0.9,11.1-8.8,18.7-20.6,18.7c-13.5,0-22.2-9.4-22.2-24.2c0-14.8,8.7-24.2,22.2-24.2
		C474.3,432.4,482.3,439.8,483.2,450.2"/>
</g>
<polygon class="st1" points="521,479.4 503.2,457.3 503.1,457.3 503.1,479.4 492.8,479.4 492.8,415.4 503.1,415.4 503.1,452.4 
	503.2,452.4 519.9,433.7 531.8,433.7 513,454.6 534,479.4 "/>
<g>
	<path class="st1" d="M554.4,438.1v-4.2c1.8-0.3,3.2-1.2,4.2-2.6c1-1.4,1.4-3.1,1.4-5.2c0-2.1-0.5-3.9-1.4-5.2s-2.3-2.2-4.2-2.5
		v-4.2c3.2,0.4,5.8,1.7,7.6,4c1.8,2.3,2.7,5.3,2.7,9.1v10c0,4-1.2,7.3-3.4,9.8s-5.3,3.7-8.9,3.7c-4.9,0-8.5-1.8-10.7-5.5
		c-0.3-0.6-0.5-1.1-0.5-1.7c0-0.7,0.2-1.2,0.7-1.7s1-0.7,1.6-0.7c1,0,1.7,0.5,2.2,1.5c1.3,2.5,3.5,3.8,6.6,3.8
		c2.4,0,4.3-0.9,5.7-2.7s2-4.2,2-7.1v-2.1c-0.3,0.7-1,1.4-2,2.1C556.9,437.4,555.7,437.9,554.4,438.1 M550.8,433.9v4.2
		c-3.1-0.4-5.6-1.6-7.5-3.7s-2.8-4.8-2.8-8.3c0-3.3,0.9-6,2.8-8.2c1.9-2.1,4.4-3.4,7.5-3.8v4.2c-1.8,0.3-3.2,1.2-4.2,2.6
		c-1,1.4-1.4,3.1-1.4,5.2c0,2.1,0.5,3.9,1.4,5.2C547.6,432.7,549,433.6,550.8,433.9"/>
	<path class="st1" d="M629.7,437.3h-10.9c-0.9-8.5-6.6-13.7-15.1-13.7c-10.9,0-17.5,9-17.5,23.8c0,14.8,6.6,23.8,17.3,23.8
		c8.5,0,14.3-5.2,15.5-13.9H630c-1.3,14.7-11.2,23.6-26.5,23.6c-17.6,0-28.4-12.7-28.4-33.4s10.9-33.4,28.7-33.4
		C619.4,414,629.1,423.7,629.7,437.3"/>
	<path class="st1" d="M648.2,456.5c0,9.9,4.5,16.1,11.8,16.1s11.8-6.2,11.8-16.1s-4.5-16.1-11.8-16.1
		C652.7,440.4,648.2,446.6,648.2,456.5 M682.4,456.5c0,14.8-8.6,24.2-22.5,24.2s-22.6-9.4-22.6-24.2c0-14.8,8.7-24.2,22.6-24.2
		C673.8,432.4,682.4,441.7,682.4,456.5"/>
</g>
<rect x="691.3" y="415.4" class="st1" width="10.2" height="64"/>
<rect x="713.5" y="415.4" class="st1" width="10.2" height="64"/>
<g>
	<path class="st1" d="M742.7,451.9h23.1c-0.7-8-5.4-12-11.5-12C748.1,439.9,743.6,444,742.7,451.9 M765,465.6h10.5
		c-1.7,8.2-9.1,15.1-21,15.1c-13.9,0-22.1-10-22.1-24.7c0-13.5,8.1-23.7,21.9-23.7c10.4,0,18,6,20.5,15.6c0.9,2.9,1.3,6.3,1.3,10.7
		h-33.5c0.4,10.4,5.6,14.6,12,14.6C760.3,473.2,764.1,470,765,465.6"/>
	<path class="st1" d="M826.3,450.2h-10.7c-0.5-5.9-4.3-9.8-9.9-9.8c-7.2,0-11.4,6.1-11.4,16.1c0,10,4.2,16.1,11.4,16.1
		c5.6,0,9.3-4.4,9.8-10.6h10.8c-0.9,11.1-8.8,18.7-20.6,18.7c-13.5,0-22.2-9.4-22.2-24.2c0-14.8,8.7-24.2,22.2-24.2
		C817.4,432.4,825.4,439.8,826.3,450.2"/>
	<path class="st1" d="M858.8,471.1v8c-1.5,0.5-3.9,0.8-5.8,0.8c-9.6,0-13.8-4-13.8-14v-24.4h-7.6v-7.8h7.6v-11.4h10.2v11.4h8.9v7.8
		h-8.9v22.9c0,5.1,1.7,7.2,6.2,7.2C856.8,471.6,858.1,471.4,858.8,471.1"/>
</g>
<path class="st1" d="M869.7,479.4v-45.7h10.2v45.7H869.7z M869.7,415.4h10.2v9.8h-10.2V415.4z"/>
<g>
	<path class="st1" d="M900.5,456.5c0,9.9,4.5,16.1,11.8,16.1s11.8-6.2,11.8-16.1s-4.5-16.1-11.8-16.1
		C904.9,440.4,900.5,446.6,900.5,456.5 M934.7,456.5c0,14.8-8.6,24.2-22.5,24.2s-22.6-9.4-22.6-24.2c0-14.8,8.7-24.2,22.6-24.2
		C926.1,432.4,934.7,441.7,934.7,456.5"/>
	<path class="st1" d="M984.4,451.4v28h-10.2v-27.1c0-8.2-3.5-11.4-9.3-11.4c-5.8,0-10.4,4.4-10.4,13.1v25.4h-10.2v-45.7h9.7v5.9h0.2
		c2.9-4.1,7.6-7,13.7-7C978.1,432.6,984.4,438.9,984.4,451.4"/>
	<path class="st1" d="M1010.8,446.1h6.6c1.8,0,2.8,0.7,2.8,2.1c0,1.4-0.9,2.1-2.8,2.1h-17.8c-1.8,0-2.8-0.7-2.8-2.1
		c0-1.4,0.9-2.1,2.8-2.1h6.5v-24.6l-5.4,3.4c-0.8,0.5-1.4,0.8-2,0.8c-0.7,0-1.2-0.2-1.6-0.6c-0.4-0.4-0.6-1-0.6-1.6
		c0-0.9,0.4-1.7,1.3-2.2l8.9-5.8c0.7-0.6,1.3-0.9,1.8-0.9c0.4,0,0.8,0.1,1,0.2c0.8,0.3,1.2,1.2,1.2,2.5L1010.8,446.1L1010.8,446.1z"
		/>
	<path class="st1" d="M1037.2,446.1h6.6c1.8,0,2.8,0.7,2.8,2.1c0,1.4-0.9,2.1-2.8,2.1h-17.8c-1.8,0-2.8-0.7-2.8-2.1
		c0-1.4,0.9-2.1,2.8-2.1h6.5v-24.6l-5.4,3.4c-0.8,0.5-1.4,0.8-2,0.8c-0.7,0-1.2-0.2-1.6-0.6c-0.4-0.4-0.6-1-0.6-1.6
		c0-0.9,0.4-1.7,1.3-2.2l8.9-5.8c0.7-0.6,1.3-0.9,1.8-0.9c0.4,0,0.8,0.1,1.1,0.2c0.8,0.3,1.2,1.2,1.2,2.5L1037.2,446.1L1037.2,446.1
		z"/>
	<path class="st1" d="M1096.3,472.2c0,0-0.4,0.2-1.1,0.5s-1.6,0.8-2.8,1.2s-2.5,1-4,1.6s-3.2,1.1-4.9,1.6c-1.7,0.5-3.6,0.9-5.4,1.2
		c-1.9,0.3-3.8,0.5-5.6,0.5c-2.7,0-5-0.4-7-1.1c-2-0.7-3.7-1.7-5-3c-1.3-1.3-2.3-2.8-3-4.6c-0.7-1.8-1-3.7-1-5.8
		c0-2.2,0.4-4.4,1.2-6.8s1.8-4.7,3-7c1.2-2.3,2.6-4.6,4.1-6.7c1.5-2.2,2.9-4.1,4.4-6s2.8-3.4,4-4.7s2.2-2.3,2.8-2.9
		c-1.8,3.5-3,6.6-3.8,9.2s-1.1,4.8-1.1,6.7c0,2.2,0.4,4.1,1.2,5.6c0.8,1.5,1.8,2.8,3.1,3.8c1.3,1,2.8,1.7,4.4,2.1
		c1.7,0.4,3.4,0.7,5.2,0.7c0.7,0,1.5,0,2.3-0.1s1.6-0.2,2.4-0.4c0.8-0.1,1.6-0.3,2.3-0.5c0.7-0.2,1.4-0.3,2-0.5
		c1.3-0.4,5.5-1.5,12.6-3.5c3-0.9,6.8-1.9,11.4-3.2c4.6-1.3,10.2-2.8,16.7-4.7c6.6-1.8,14.3-4,23.2-6.4c8.8-2.5,19.1-5.3,30.7-8.5
		L1096.3,472.2z"/>
	<path class="st1" d="M1201.8,440.4c0-1.7,0.8-2.5,2.2-2.6c0.8,0,1.3,0.2,1.7,0.6s0.6,1,0.7,2c0.7,4.1,2.9,6.2,6.8,6.2
		c2.3,0,4.1-0.7,5.3-2.2s1.8-3.5,1.8-6c0-2.3-0.6-4.2-1.8-5.5s-2.9-2-5.2-2c-2.4,0-4.7,1-6.9,2.8c-0.4,0.4-0.9,0.6-1.5,0.6
		c-0.6,0-1.2-0.2-1.6-0.6c-0.5-0.4-0.7-1.1-0.7-2c0-0.2,0-0.4,0-0.6l1.9-14.2c0.1-0.7,0.4-1.2,1-1.7c0.5-0.5,1.2-0.7,1.8-0.7h13.8
		c1.6,0,2.4,0.7,2.4,2.1c0,1.4-0.8,2.1-2.4,2.1h-12.6l-1.2,9.6c0.5-0.4,1.3-0.8,2.5-1.1c1.2-0.3,2.3-0.5,3.3-0.5c3.3,0,6.1,1,8.4,3
		c2.2,2,3.4,4.9,3.4,8.6s-1.1,6.7-3.2,9s-5,3.5-8.5,3.5c-3.3,0-6-1-8.2-2.9C1202.8,445.9,1201.8,443.5,1201.8,440.4"/>
</g>
</svg>
