<?xml version="1.0" encoding="utf-8"?>
<!-- Generator: Adobe Illustrator 23.0.4, SVG Export Plug-In . SVG Version: 6.00 Build 0)  -->
<svg version="1.1" id="Layer_1" xmlns="http://www.w3.org/2000/svg" xmlns:xlink="http://www.w3.org/1999/xlink" x="0px" y="0px"
	 viewBox="0 0 1292.2 911.58" style="enable-background:new 0 0 1292.2 911.58;" xml:space="preserve">
<style type="text/css">
	.st0{fill:#020202;}
</style>
<polygon class="st0" points="78.02,415.35 78.02,424.7 99.06,424.7 99.07,479.39 109.77,479.39 109.77,424.7 130.81,424.7 
	130.81,415.35 "/>
<g>
	<path class="st0" d="M136.48,451.87h23.11c-0.72-8.01-5.4-11.96-11.51-11.96C141.88,439.9,137.38,443.95,136.48,451.87
		 M158.78,465.63h10.52c-1.71,8.18-9.08,15.11-21.04,15.11c-13.94,0-22.12-9.98-22.12-24.74c0-13.49,8.09-23.66,21.94-23.66
		c10.43,0,17.99,6.03,20.51,15.56c0.9,2.88,1.26,6.3,1.26,10.7H136.3c0.36,10.35,5.58,14.57,11.96,14.57
		C154.11,473.18,157.88,470.04,158.78,465.63"/>
	<path class="st0" d="M220.39,450.25h-10.7c-0.45-5.94-4.32-9.81-9.89-9.81c-7.19,0-11.42,6.12-11.42,16.1
		c0,9.99,4.23,16.1,11.42,16.1c5.58,0,9.35-4.41,9.8-10.61h10.79c-0.9,11.06-8.81,18.71-20.59,18.71c-13.49,0-22.21-9.35-22.21-24.2
		c0-14.84,8.72-24.2,22.21-24.2C211.49,432.35,219.49,439.81,220.39,450.25"/>
	<path class="st0" d="M240.45,439.09c3.24-4.41,8-6.48,13.13-6.48c10.34,0,16.64,6.3,16.64,18.8l0,27.98h-10.25l0-27.08
		c0-8.19-3.51-11.42-9.26-11.42c-5.85,0-10.43,4.41-10.43,13.13v25.37h-10.25l0-64.05h10.25l0,23.75H240.45z"/>
	<path class="st0" d="M295.53,446.09h6.6c1.84,0,2.76,0.7,2.75,2.09c-0.01,1.39-0.92,2.09-2.75,2.09h-17.75
		c-1.84,0-2.76-0.7-2.76-2.09c0-1.39,0.92-2.09,2.76-2.09h6.47v-24.57l-5.4,3.41c-0.75,0.51-1.41,0.77-1.99,0.77
		c-0.65,0-1.17-0.21-1.58-0.63c-0.41-0.42-0.61-0.95-0.61-1.58c0-0.92,0.44-1.67,1.33-2.23l8.91-5.83c0.67-0.58,1.27-0.86,1.82-0.86
		c0.41,0,0.76,0.07,1.05,0.22c0.77,0.33,1.15,1.16,1.15,2.49L295.53,446.09z"/>
	<path class="st0" d="M319.49,447.5v-32.19c0.58-0.82,1.36-1.24,2.34-1.24c0.55,0,1.06,0.15,1.54,0.45c0.55,0.38,0.81,1.2,0.8,2.46
		l0,20.24h3.43c1.73,0,2.59,0.75,2.59,2.24c0,0.72-0.23,1.27-0.68,1.66c-0.46,0.39-1.09,0.58-1.9,0.58h-3.43v5.74
		c0,0.8-0.21,1.47-0.64,2.01c-0.42,0.54-1.01,0.82-1.76,0.82c-0.75,0-1.32-0.26-1.7-0.77C319.68,448.98,319.49,448.32,319.49,447.5
		 M315.93,420.1l-0.14,7.94l-5.94,9.18h6.07v4.48h-9.57c-1.22,0-2.04-0.34-2.45-1.01c-0.2-0.39-0.3-0.79-0.3-1.2
		c0-0.58,0.15-1.08,0.45-1.5L315.93,420.1z"/>
	<path class="st0" d="M352.14,446.29h11.06c9.08,0,13.13-4.14,13.13-10.97c0-6.75-4.05-10.88-13.13-10.88h-11.06L352.14,446.29z
		 M364.46,415.35c15.11,0,22.93,8.01,22.93,19.97c0,12.05-7.82,20.06-22.93,20.06h-12.32l0,24.02h-10.79l0-64.04H364.46z"/>
	<path class="st0" d="M421.57,457.71c-3.06,0.18-7.46,0.63-10.52,1.17c-6.57,1.08-8.99,3.06-8.99,7.2c0,4.05,2.88,6.75,8.09,6.75
		c3.15,0,6.21-0.99,8.27-3.06c2.43-2.52,3.15-4.95,3.15-9.8V457.71z M431.46,450.25v17.09c0,5.4,0.45,9.18,1.17,12.05h-9.26
		c-0.45-1.98-0.63-4.23-0.63-6.39h-0.18c-3.33,4.86-8.45,7.38-15.38,7.38c-9.53,0-15.47-5.76-15.47-13.58
		c0-7.47,4.41-12.32,17.54-14.39c3.69-0.63,9.08-1.17,12.32-1.35v-1.8c0-6.75-3.69-9.44-8.9-9.44c-5.67,0-8.72,3.15-8.99,8.01H393.6
		c0.45-8.64,6.74-15.47,19.07-15.47C424.72,432.35,431.46,438.28,431.46,450.25"/>
	<path class="st0" d="M483.18,450.25h-10.7c-0.45-5.94-4.32-9.81-9.89-9.81c-7.19,0-11.42,6.12-11.42,16.1
		c0,9.99,4.23,16.1,11.42,16.1c5.58,0,9.35-4.41,9.8-10.61h10.79c-0.9,11.06-8.81,18.71-20.59,18.71c-13.49,0-22.21-9.35-22.21-24.2
		c0-14.84,8.72-24.2,22.21-24.2C474.27,432.35,482.28,439.81,483.18,450.25"/>
</g>
<polygon class="st0" points="521.04,479.39 503.24,457.26 503.06,457.26 503.06,479.39 492.81,479.39 492.8,415.35 503.06,415.35 
	503.06,452.41 503.24,452.41 519.87,433.7 531.83,433.7 512.95,454.56 533.99,479.39 "/>
<g>
	<path class="st0" d="M554.39,438.1v-4.18c1.85-0.33,3.25-1.19,4.2-2.58c0.95-1.39,1.42-3.12,1.42-5.19c0-2.11-0.48-3.86-1.44-5.25
		c-0.96-1.39-2.35-2.24-4.19-2.54v-4.18c3.24,0.38,5.76,1.7,7.58,3.96c1.82,2.26,2.72,5.3,2.72,9.14l0,9.96
		c0,4.05-1.15,7.32-3.44,9.81c-2.29,2.49-5.27,3.74-8.93,3.74c-4.93,0-8.48-1.83-10.65-5.5c-0.33-0.58-0.51-1.14-0.52-1.67
		c0-0.68,0.24-1.24,0.72-1.68c0.48-0.44,1.03-0.66,1.64-0.66c0.95,0,1.69,0.5,2.24,1.51c1.33,2.54,3.52,3.82,6.57,3.82
		c2.44,0,4.33-0.91,5.68-2.73s2.02-4.21,2.02-7.15v-2.14c-0.3,0.71-0.98,1.42-2.04,2.13C556.92,437.4,555.72,437.87,554.39,438.1
		 M550.83,433.92l0,4.18c-3.09-0.38-5.57-1.61-7.45-3.68c-1.88-2.07-2.83-4.83-2.83-8.26c0-3.3,0.94-6.03,2.83-8.18
		c1.88-2.15,4.37-3.41,7.46-3.8v4.18c-1.84,0.33-3.23,1.2-4.18,2.59c-0.95,1.39-1.42,3.13-1.42,5.2c0,2.11,0.47,3.85,1.42,5.22
		C547.59,432.74,548.99,433.59,550.83,433.92"/>
	<path class="st0" d="M629.73,437.29h-10.88c-0.9-8.45-6.57-13.67-15.11-13.67c-10.88,0-17.54,8.99-17.54,23.75
		c0,14.75,6.57,23.75,17.27,23.75c8.54,0,14.3-5.22,15.47-13.94H630c-1.26,14.66-11.15,23.57-26.53,23.57
		c-17.63,0-28.42-12.68-28.42-33.37c0-20.69,10.88-33.37,28.69-33.37C619.38,414,629.1,423.71,629.73,437.29"/>
	<path class="st0" d="M648.17,456.54c0,9.89,4.5,16.1,11.78,16.1s11.78-6.21,11.78-16.1c0-9.89-4.5-16.1-11.78-16.1
		C652.66,440.44,648.17,446.65,648.17,456.54 M682.43,456.54c0,14.84-8.63,24.2-22.48,24.2c-13.85,0-22.57-9.35-22.57-24.2
		c0-14.84,8.72-24.2,22.57-24.2C673.8,432.35,682.43,441.7,682.43,456.54"/>
</g>
<rect x="691.34" y="415.35" class="st0" width="10.25" height="64.04"/>
<rect x="713.46" y="415.35" class="st0" width="10.25" height="64.04"/>
<g>
	<path class="st0" d="M742.69,451.87h23.11c-0.72-8.01-5.4-11.96-11.51-11.96C748.09,439.9,743.59,443.95,742.69,451.87 M765,465.63
		h10.52c-1.71,8.18-9.08,15.11-21.04,15.11c-13.94,0-22.12-9.98-22.12-24.74c0-13.49,8.09-23.66,21.94-23.66
		c10.43,0,17.99,6.03,20.5,15.56c0.9,2.88,1.26,6.3,1.26,10.7h-33.54c0.36,10.35,5.58,14.57,11.96,14.57
		C760.32,473.18,764.1,470.04,765,465.63"/>
	<path class="st0" d="M826.34,450.25h-10.7c-0.45-5.94-4.32-9.81-9.89-9.81c-7.19,0-11.42,6.12-11.42,16.1
		c0,9.99,4.23,16.1,11.42,16.1c5.58,0,9.35-4.41,9.8-10.61h10.79c-0.9,11.06-8.81,18.71-20.59,18.71c-13.49,0-22.21-9.35-22.21-24.2
		c0-14.84,8.72-24.2,22.21-24.2C817.43,432.35,825.44,439.81,826.34,450.25"/>
	<path class="st0" d="M858.81,471.12v8c-1.53,0.45-3.87,0.81-5.76,0.81c-9.62,0-13.85-4.05-13.85-14.03l0-24.38h-7.64v-7.82h7.64
		v-11.42h10.25v11.42h8.9v7.82h-8.9l0,22.85c0,5.13,1.71,7.2,6.21,7.2C856.83,471.56,858.09,471.39,858.81,471.12"/>
</g>
<path class="st0" d="M869.69,479.39l0-45.69h10.25l0,45.69H869.69z M869.69,415.35h10.25v9.8h-10.25V415.35z"/>
<g>
	<path class="st0" d="M900.45,456.54c0,9.89,4.5,16.1,11.78,16.1c7.28,0,11.78-6.21,11.78-16.1c0-9.89-4.5-16.1-11.78-16.1
		C904.94,440.44,900.45,446.65,900.45,456.54 M934.71,456.54c0,14.84-8.63,24.2-22.48,24.2c-13.85,0-22.57-9.35-22.57-24.2
		c0-14.84,8.72-24.2,22.57-24.2C926.08,432.35,934.71,441.7,934.71,456.54"/>
	<path class="st0" d="M984.36,451.42l0,27.98h-10.25v-27.08c0-8.19-3.51-11.42-9.26-11.42c-5.85,0-10.43,4.41-10.43,13.13v25.37
		h-10.25l0-45.7h9.71v5.94h0.18c2.88-4.14,7.64-7.02,13.67-7.02C978.06,432.62,984.36,438.91,984.36,451.42"/>
	<path class="st0" d="M1010.75,446.09h6.6c1.84,0,2.76,0.7,2.75,2.09c-0.01,1.39-0.92,2.09-2.75,2.09H999.6
		c-1.84,0-2.76-0.7-2.76-2.09c0-1.39,0.92-2.09,2.76-2.09h6.47v-24.57l-5.4,3.41c-0.75,0.51-1.41,0.77-1.99,0.77
		c-0.65,0-1.17-0.21-1.58-0.63c-0.41-0.42-0.61-0.95-0.61-1.58c0-0.92,0.44-1.67,1.33-2.23l8.91-5.83c0.67-0.58,1.27-0.86,1.81-0.86
		c0.41,0,0.76,0.07,1.05,0.22c0.77,0.33,1.15,1.16,1.15,2.49V446.09z"/>
	<path class="st0" d="M1037.24,446.09h6.6c1.84,0,2.76,0.7,2.75,2.09c-0.01,1.39-0.93,2.09-2.75,2.09h-17.75
		c-1.84,0-2.76-0.7-2.76-2.09c0-1.39,0.92-2.09,2.76-2.09h6.47v-24.57l-5.4,3.41c-0.75,0.51-1.41,0.77-1.99,0.77
		c-0.65,0-1.17-0.21-1.58-0.63c-0.41-0.42-0.61-0.95-0.61-1.58c0-0.92,0.44-1.67,1.33-2.23l8.91-5.83c0.67-0.58,1.27-0.86,1.81-0.86
		c0.41,0,0.76,0.07,1.06,0.22c0.77,0.33,1.15,1.16,1.15,2.49V446.09z"/>
	<path class="st0" d="M1096.29,472.2c-0.04,0-0.4,0.17-1.1,0.51c-0.7,0.34-1.62,0.75-2.77,1.25c-1.15,0.5-2.49,1.03-4.03,1.6
		c-1.54,0.57-3.17,1.1-4.92,1.6c-1.74,0.5-3.56,0.9-5.44,1.22c-1.88,0.32-3.75,0.48-5.6,0.48c-2.65,0-4.98-0.36-6.98-1.09
		c-2.01-0.73-3.67-1.73-4.99-3.01c-1.33-1.28-2.33-2.8-3.01-4.58c-0.68-1.77-1.02-3.69-1.02-5.75c0-2.16,0.38-4.42,1.15-6.76
		c0.77-2.34,1.76-4.67,2.98-7c1.22-2.32,2.57-4.57,4.05-6.73c1.48-2.17,2.94-4.15,4.37-5.96c1.43-1.81,2.76-3.37,4-4.68
		c1.24-1.31,2.19-2.27,2.85-2.88c-1.78,3.55-3.04,6.61-3.79,9.18c-0.75,2.57-1.12,4.82-1.12,6.73c0,2.2,0.39,4.07,1.18,5.61
		c0.79,1.54,1.83,2.8,3.14,3.75c1.31,0.96,2.79,1.66,4.45,2.1c1.66,0.44,3.37,0.66,5.15,0.66c0.73,0,1.5-0.04,2.3-0.13
		c0.8-0.09,1.6-0.2,2.41-0.35c0.8-0.14,1.57-0.3,2.3-0.48c0.73-0.18,1.39-0.34,1.99-0.48c1.29-0.35,5.47-1.51,12.55-3.46
		c3.03-0.85,6.83-1.91,11.4-3.17c4.57-1.26,10.15-2.81,16.74-4.66c6.59-1.84,14.31-3.99,23.17-6.44c8.85-2.45,19.07-5.29,30.65-8.52
		L1096.29,472.2z"/>
	<path class="st0" d="M1201.75,440.44c0-1.69,0.75-2.55,2.24-2.56c0.77,0,1.33,0.19,1.69,0.56c0.36,0.37,0.61,1.04,0.74,2
		c0.68,4.1,2.95,6.16,6.81,6.16c2.34,0,4.1-0.74,5.27-2.22c1.17-1.48,1.76-3.49,1.76-6.03c0-2.34-0.61-4.16-1.83-5.47
		c-1.22-1.31-2.95-1.96-5.2-1.96c-2.44,0-4.73,0.95-6.86,2.84c-0.44,0.38-0.94,0.57-1.49,0.57c-0.64,0-1.18-0.21-1.63-0.64
		c-0.46-0.42-0.68-1.08-0.68-1.96c0-0.17,0.01-0.38,0.03-0.62l1.92-14.16c0.1-0.68,0.42-1.24,0.96-1.69
		c0.54-0.45,1.16-0.67,1.85-0.67h13.84c1.62,0,2.44,0.7,2.44,2.09c0,1.39-0.81,2.09-2.44,2.09h-12.55l-1.22,9.58
		c0.47-0.41,1.31-0.79,2.52-1.12c1.2-0.33,2.31-0.5,3.32-0.5c3.33,0,6.12,1.01,8.36,3.04c2.24,2.02,3.36,4.88,3.36,8.58
		s-1.06,6.69-3.18,8.99c-2.12,2.3-4.97,3.45-8.53,3.45c-3.28,0-6.01-0.97-8.2-2.9C1202.84,445.94,1201.75,443.46,1201.75,440.44"/>
</g>
</svg>
