<?xml version="1.0" encoding="utf-8"?>
<!-- Generator: Adobe Illustrator 20.0.0, SVG Export Plug-In . SVG Version: 6.00 Build 0)  -->
<svg version="1.1" id="Layer_1" xmlns="http://www.w3.org/2000/svg" xmlns:xlink="http://www.w3.org/1999/xlink" x="0px" y="0px"
	 viewBox="0 0 1163 407" style="enable-background:new 0 0 1163 407;" xml:space="preserve">
<title>Group</title>
<desc>Created with Sketch.</desc>
<g id="Welcome">
	<g id="Desktop-HD-Copy-2" transform="translate(-113.000000, -2959.000000)">
		<g id="Group" transform="translate(113.000000, 2959.000000)">
			<path id="Shape" d="M1013.6,97.4v-0.9c-31.6,10.5-41.3,39.1-41.3,62.4c0,27.7,13.6,41.7,33.4,58.9c19.8,17.1,33,25,33,47
				c0,10.5-3.1,23.7-26.4,43.9v0.9c24.6-21.1,27.3-34.3,27.3-45.2c0-24.2-12.7-34.7-34.7-54.9c-25.5-22.8-31.6-35.6-31.6-51.8
				C973.1,137.9,981.9,108,1013.6,97.4L1013.6,97.4z"/>
			<path id="Shape_1_" d="M1087.4,93.9c-23.3,0-45.7-9.2-90.1-25c-52.7-18.9-71.6-24.2-89.7-24.2c-26.4,0-72.5,11.4-72.5,59.7
				c0,39.1,30.8,59.7,60.7,65.5V169c-34.3-7-59.8-28.6-59.8-65c0-48.3,45.3-57.1,66.4-57.1c25.9,0,54.5,13.6,89.7,25.5
				c32.5,11,67.2,23.7,93.6,23.7c29,0,69-15.8,76.9-54.9v-0.9C1151.6,82.5,1113.8,93.9,1087.4,93.9L1087.4,93.9z"/>
			<path id="Shape_2_" d="M642.6,361c-93.6,0-149-70.3-149-174c0-67.2,22-142.3,75.2-142.3c24.4,0,34.7,12.5,48.7,28.6
				c-11.7,15.8-21,38-21,66.3c0,87.9,61.1,83,61.1,137.1c0,9.7-5.3,23.3-23.3,36.9v0.9c18.5-14.1,24.2-27.2,24.2-37.8
				c0-54-55.8-49.2-55.8-137.5c0-52.7,29-83.5,46.6-91.8c9.7,16.3,32.5,36.5,59.8,36.5c28.1,0,44.8-17.1,49.7-29.9h-0.9
				c-5.7,14.9-23.7,29-48.8,29c-27.3,0-50.1-21.1-59.8-36.5c-9.1,3.9-21.1,12.7-31.3,26.3c-12.8-16.3-26.2-28.9-48.7-28.9
				c-54.9,0-81.8,76-81.8,144.1c0,103.7,62,174,155.2,174c73,0,114.7-45.7,117.8-75.6h-0.9C756,315.8,715.6,361,642.6,361L642.6,361
				z"/>
			<path id="Shape_3_" d="M385,216c-18-14.1-32.1-29-32.1-43.9c0-35.1,36.5-38.2,47.9-38.7v-0.9c-0.9,0-21.1,2.6-21.1-33.8
				c0-29-24.6-56.2-61.5-56.2c-46.2,0-65.5,28.6-65.5,54c0,26.4,22.4,59.3,49.7,59.3V155c-27.3,0-48.8-32.5-48.8-58.9
				c0-25,18.9-52.7,65.1-52.7c36.9,0,56.3,29.9,56.3,59.3c0,28.9,13.1,30.7,20,30.5c-12.8,0.9-42.9,6.3-42.9,38.9
				c0,21.1,12.3,35.1,31.6,50.1c12.3,9.7,30.3,20.6,30.3,58.4c0,40.4-35.2,76.9-84,76.9c-20.7,0-37.4-11.9-50.5-19.3
				c-13.6-7.9-22.4-13.6-49.2-13.6c-13.6,0-23.5,4.3-32.8,9.9c27.7-22.7,61.8-71.2,61.8-142.5c0-72-25.5-145-89.2-145
				c-33,0-73,19.3-73,71.2c0,50.1,28.1,63.7,38.7,71.2c25.1,18,41.3,25.9,41.3,47.4c0,12.7-10.5,26.4-24.6,33.8v0.9
				c14.1-7.5,25.5-19.8,25.5-34.7c0-22-15.4-35.6-42.2-54.9c-9.7-7-37.8-23.3-37.8-64.6c0-51.8,41.3-69.4,72.1-69.4
				c64.6,0,83.5,72.9,83.5,147.2c0,87-40,129.6-68.1,147.2v0.1c-12.8,8.4-26.6,16.6-49.2,16.6c-21.5,0-36-11-48.8-19.8
				c-10.6-7.2-22.4-15.9-36.1-18.3c18.6-1.8,38.8-11.8,38.8-40.6V90.8c0-36-36.5-39.1-46.6-39.1c-20.7,0-38.2,13.2-38.2,39.1
				c0,26.4,14.1,43.1,26.4,60.2c17.1,23.7,22.4,32.1,22.4,47c0,35.6-38.2,51.8-41.3,56.2v0.9c4-5.7,42.2-21.5,42.2-57.5
				c0-22-12.3-40-21.5-53.6C17.6,120.3,6.2,104.9,6.2,86.9c0-15.4,12.7-34.3,37.4-34.3c7.5,0,41.8,1.8,41.8,41.7v188.9
				c0,22.4-11.9,36.9-38.7,36.9v0.1c-0.7,0-1.5-0.1-2.2-0.1c-27.3,0-39.6,18.9-44,33.4v0.9C5.3,339.5,17.6,321,42.6,321
				c15.4,0,29.4,15.4,36.9,19.8c12.3,7.5,26.8,18.9,54.9,18.9c25.2,0,39.4-8.8,52.3-17.5c1.7-1,3.4-2.2,5.1-3.4
				c10.7-7.1,21.3-13.3,37.5-13.3c18.9,0,32.1,9.2,42.2,14.9c12.3,7,30.8,18,56.7,18c52.7,0,86.6-37.3,86.6-78.6
				C414.9,240.2,401.7,229.2,385,216L385,216z M398.2,133h1.3c-0.6,0-1.4,0-2.4,0.1C397.5,133,397.9,133,398.2,133L398.2,133z"/>
			<path id="Shape_4_" d="M1093.6,356.6c-20.7,0-38.7-7.9-87.5-33.4c-16.7-8.8-44.4-23.3-75.2-23.3c-33.8,0-54.9,18-72.5,51.4v1.3
				c18-36.5,41.3-50.1,66.8-50.1c25.5,0,54.5,13.6,74.3,23.7c32.5,16.7,58.5,32.1,90.1,32.1c46.6,0,64.6-32.9,72.5-58.9v-1.3
				C1153.8,324.6,1135.3,356.6,1093.6,356.6L1093.6,356.6z"/>
			<path id="Shape_5_" d="M706.3,140.5c-49.2,0-36.5,58-69,67.7v0.9c31.6-8.3,18.9-63.7,72.5-63.7c28.6,0,38.7,15.4,44.4,34.3h0.9
				C751.2,163.8,737.5,140.5,706.3,140.5L706.3,140.5z"/>
		</g>
	</g>
</g>
</svg>
