<?xml version="1.0" encoding="UTF-8" standalone="no"?>
<svg width="1163px" height="322px" viewBox="0 0 1163 322" version="1.1" xmlns="http://www.w3.org/2000/svg" xmlns:xlink="http://www.w3.org/1999/xlink">
    <!-- Generator: Sketch 3.8.3 (29802) - http://www.bohemiancoding.com/sketch -->
    <title>Group</title>
    <desc>Created with Sketch.</desc>
    <defs></defs>
    <g id="Welcome" stroke="none" stroke-width="1" fill="none" fill-rule="evenodd">
        <g id="Desktop-HD-Copy-2" transform="translate(-113.000000, -2959.000000)" fill="#000000">
            <g id="Group" transform="translate(113.000000, 2959.000000)">
                <path d="M1013.56021,57.4372442 L1013.56021,56.558663 C981.913955,67.1016371 972.244265,95.6555252 972.244265,118.937926 C972.244265,146.613233 985.869738,160.670532 1005.64865,177.802865 C1025.42756,194.935198 1038.6135,202.842428 1038.6135,224.806958 C1038.6135,235.349932 1035.53678,248.528649 1012.24162,268.736016 L1012.24162,269.614598 C1036.85538,248.528649 1039.49256,235.349932 1039.49256,224.367667 C1039.49256,200.206685 1026.74615,189.663711 1004.76959,169.456344 C979.276767,146.613233 973.123328,133.873806 973.123328,117.620055 C973.123328,97.8519782 981.913955,67.9802183 1013.56021,57.4372442 L1013.56021,57.4372442 Z" id="Shape"></path>
                <path d="M1087.40148,53.9229195 C1064.10632,53.9229195 1041.69022,44.6978172 997.297553,28.8833561 C944.553789,9.99386085 925.653061,4.72237381 907.632275,4.72237381 C881.260393,4.72237381 835.109599,16.1439291 835.109599,64.4658936 C835.109599,103.562756 865.876795,124.209413 895.764928,129.920191 L895.764928,129.04161 C861.481481,122.01296 835.988662,100.487722 835.988662,64.026603 C835.988662,15.7046385 881.260393,6.91882674 902.357899,6.91882674 C928.290249,6.91882674 956.860667,20.5368349 992.023177,32.3976808 C1024.5485,43.3799454 1059.27148,56.1193724 1085.64336,56.1193724 C1114.65243,56.1193724 1154.64978,40.3049113 1162.56135,1.20804911 L1162.56135,0.32946794 C1151.57306,42.5013643 1113.77337,53.9229195 1087.40148,53.9229195 L1087.40148,53.9229195 Z" id="Shape"></path>
                <path d="M642.596618,321.011596 C548.976437,321.011596 493.595485,250.725102 493.595485,147.052524 C493.595485,79.8410641 515.572053,4.72237381 568.755348,4.72237381 C593.18582,4.72237381 603.491073,17.2320518 617.459819,33.3526985 C605.761692,49.1794598 596.445385,71.3530914 596.445385,99.6091405 C596.445385,187.467258 657.540245,182.635061 657.540245,236.667804 C657.540245,246.332196 652.265869,259.950205 634.245083,273.568213 L634.245083,274.446794 C652.7054,260.389495 658.419308,247.210778 658.419308,236.667804 C658.419308,182.635061 602.598824,187.467258 602.598824,99.1698499 C602.598824,46.4549795 631.607895,15.7046385 649.189149,7.35811733 C658.858839,23.611869 681.714471,43.819236 708.965415,43.819236 C737.095423,43.819236 753.797615,26.6869031 758.63246,13.9474761 L757.753397,13.9474761 C752.039489,28.8833561 734.018703,42.9406548 708.965415,42.9406548 C681.714471,42.9406548 658.858839,21.8547067 649.189149,6.47953615 C640.05349,10.3347503 628.105269,19.1618554 617.89056,32.7794243 C605.133162,16.5107367 591.660207,3.84379263 569.19444,3.84379263 C514.253019,3.84379263 487.441606,79.8410641 487.441606,147.931105 C487.441606,251.603683 549.415529,321.890177 642.596179,321.890177 C715.558386,321.890177 757.313866,276.203956 760.390585,246.332196 L759.511523,246.332196 C755.995711,275.764666 715.558825,321.011596 642.596618,321.011596 L642.596618,321.011596 Z" id="Shape"></path>
                <path d="M385.029478,176.045703 C367.008692,161.988404 352.943689,147.052524 352.943689,132.116644 C352.943689,96.973397 389.424792,93.8983629 400.852608,93.4590723 L400.852608,92.5804911 C399.973545,92.5804911 379.755102,95.2162347 379.755102,58.755116 C379.755102,29.7619372 355.141345,2.52592087 318.220711,2.52548158 C272.069917,2.52548158 252.730537,31.0793697 252.730537,56.5582237 C252.730537,82.9156589 275.146636,115.862453 302.397581,115.862453 L302.397581,114.983872 C275.146636,114.983872 253.609599,82.4763683 253.609599,56.1189332 C253.609599,31.0793697 272.509448,3.40406276 318.660242,3.40406276 C355.580877,3.40450205 374.920257,33.2762619 374.920257,62.7087312 C374.920257,91.6386521 388.053015,93.3988895 394.96948,93.1836371 C382.209006,94.0604611 352.064626,99.4958035 352.064626,132.116644 C352.064626,153.202592 364.371504,167.259891 383.710884,182.195771 C396.017763,191.860164 414.038549,202.842428 414.038549,240.621419 C414.038549,281.036153 378.876039,317.497271 330.088057,317.497271 C309.430083,317.497271 292.727891,305.636426 279.54195,298.168486 C265.916478,290.261255 257.12585,284.550477 230.314437,284.550477 C216.746983,284.550477 206.777093,288.86519 197.497267,294.431001 C225.191259,271.684974 259.323507,223.214969 259.323507,151.88472 C259.323507,79.8406248 233.830688,6.91838745 170.098639,6.91838745 C137.133787,6.91838745 97.1364324,26.2471733 97.1364324,78.0834625 C97.1364324,128.163029 125.26644,141.781037 135.815193,149.248977 C160.868481,167.259891 177.131141,175.167121 177.131141,196.69236 C177.131141,209.431787 166.582389,223.049795 152.517385,230.517735 L152.517385,231.396317 C166.582389,223.928377 178.010204,211.62824 178.010204,196.69236 C178.010204,174.727831 162.626606,161.109823 135.815193,141.781037 C126.145503,134.752387 98.0154951,118.498196 98.0154951,77.2048813 C98.0154951,25.3685921 139.331444,7.79696862 170.098639,7.79696862 C234.709751,7.79696862 253.609599,80.719206 253.609599,154.959754 C253.609599,241.939291 213.612245,284.550477 185.482237,302.122101 L185.482237,302.189312 C172.730553,310.583277 158.874766,318.815143 136.254724,318.815143 C114.717687,318.815143 100.213152,307.832879 87.4667423,299.047067 C76.9021663,291.881798 65.0400937,283.104772 51.3280336,280.761157 C69.9641636,279.005312 90.1039305,268.912611 90.1039305,240.182128 L90.1039305,50.8474461 C90.1039305,14.825618 53.6228269,11.7505839 43.5131659,11.7505839 C22.8551916,11.7505839 5.27393689,24.9293015 5.27393689,50.8474461 C5.27393689,77.2048813 19.3389407,93.8979236 31.645819,111.030256 C48.7879819,134.752387 54.0623583,143.098909 54.0623583,158.034789 C54.0623583,193.617326 15.8226897,209.870638 12.7459701,214.263544 L12.7459701,215.142126 C16.7017525,209.431348 54.941421,193.617326 54.941421,157.595498 C54.941421,135.630969 42.6341032,117.619615 33.4039444,104.001607 C17.5808152,80.2799154 6.15299962,64.9047449 6.15299962,46.8938308 C6.15299962,31.5186603 18.8994093,12.6291651 43.5131659,12.6291651 C50.9851992,12.6291651 85.2690854,14.3863274 85.2690854,54.3617708 L85.2690854,243.257162 C85.2690854,265.660982 73.4017385,280.157132 46.5898855,280.157132 L46.5898855,280.224783 C45.8620215,280.184808 45.1306413,280.157132 44.3922286,280.157132 C17.1412838,280.157132 4.83440552,299.046628 0.439091837,313.543217 L0.439091837,314.421798 C5.27393689,299.485918 17.5808152,281.035714 42.6341032,281.035714 C58.0181406,281.035714 72.0831444,296.410884 79.5551776,300.804229 C91.8620559,308.272169 106.366591,319.693724 134.496599,319.693724 C159.676032,319.693724 173.89707,310.887266 186.782371,302.203809 C188.436328,301.16928 190.143467,300.01702 191.888407,298.758892 C202.546603,291.631842 213.16656,285.429059 229.435374,285.429059 C248.335223,285.429059 261.521164,294.654161 271.630385,300.364939 C283.937264,307.393588 302.397581,318.375853 328.329932,318.375853 C381.073696,318.375853 414.917611,281.036153 414.917611,239.742838 C414.917611,200.206685 401.73167,189.22442 385.029478,176.045703 L385.029478,176.045703 Z M398.21542,93.0197817 L399.534014,93.0197817 C398.943723,93.0197817 398.114327,93.0312075 397.097691,93.0779495 C397.532388,93.0452301 397.909945,93.0197817 398.21542,93.0197817 L398.21542,93.0197817 Z" id="Shape"></path>
                <path d="M1093.55492,316.61869 C1072.89695,316.61869 1054.87616,308.71146 1006.08818,283.232606 C989.385989,274.446794 961.695512,259.950205 930.927438,259.950205 C897.083522,259.950205 875.986017,277.961119 858.404762,311.347203 L858.404762,312.665075 C876.425548,276.203956 899.720711,262.585948 925.21353,262.585948 C950.707228,262.585948 979.716299,276.203956 999.49521,286.30764 C1032.02053,303.000682 1057.95288,318.375853 1089.59914,318.375853 C1136.18947,318.375853 1154.21025,285.429059 1162.12182,259.511793 L1162.12182,258.193921 C1153.77072,284.550477 1135.3104,316.61869 1093.55492,316.61869 L1093.55492,316.61869 Z" id="Shape"></path>
                <path d="M706.328667,100.487722 C657.101153,100.487722 669.847563,158.474079 637.322242,168.138472 L637.322242,169.017053 C668.9685,160.670532 656.222091,105.319918 709.844918,105.319918 C738.414457,105.319918 748.523678,120.695089 754.237586,139.584584 L755.116649,139.584584 C751.160866,123.770123 737.535394,100.487722 706.328667,100.487722 L706.328667,100.487722 Z" id="Shape"></path>
            </g>
        </g>
    </g>
</svg>