<?xml version="1.0" encoding="utf-8"?>
<!-- Generator: Adobe Illustrator 20.0.0, SVG Export Plug-In . SVG Version: 6.00 Build 0)  -->
<svg version="1.1" id="Layer_1" xmlns="http://www.w3.org/2000/svg" xmlns:xlink="http://www.w3.org/1999/xlink" x="0px" y="0px"
	 viewBox="0 0 416 166" style="enable-background:new 0 0 416 166;" xml:space="preserve">
<path d="M152.7,86.1L163,60.8c3.7-10.6,7.8-18.7,7.8-23.9c0-6.1-2.8-6.9-19.8-6.9v-0.3h30.3v0.3c-5.3,0-6.2,3.7-9.4,11.4l-18.6,45.9
	l18.6,43.7l28.6-70.3c3.7-10.6,7.8-18.7,7.8-23.9c0-6.1-2.8-6.9-19.8-6.9v-0.3h30.3v0.3c-5.3,0-6.2,3.7-9.4,11.4l-36.9,91.1
	c-0.8,0.9-1.6,2.2-2,3l-0.2-0.2l-18.7-43.9L135,132.5c-0.8,0.9-1.6,2.2-2,3l-0.2-0.2L93,41.5c-3.1-7.3-6.2-10.9-12.5-11.1v-0.6h23.9
	v0.6c-7.3,0-11.6,3-8.3,10.6l38.3,90.1L151.1,90l-20.6-48.6c-3.1-7.3-6.2-10.9-12.5-11.1v-0.6h23.9v0.6c-7.3,0-11.6,3-8.3,10.6
	L152.7,86.1z"/>
<path d="M272.1,70.7h6.9V54.6c0.5-0.3,2.2-1.9,3-3.4h0.2v19.5h23.6v1.1h-23.6v47.8c0,11.2,3.4,15.2,10.5,15.2
	c7.5,0,11.9-3.9,14.4-5.8l0.2,0.2c-3.3,3-8.9,7.2-15.2,7.2c-10.2,0-13-5.5-13-17.7V71.7h-6.9V70.7z"/>
<path d="M263.4,121.4c-3.4,4.4-15.3,12.5-27.5,12.5c-18.6,0-31.6-14.2-31.6-33.4c0-4.5,0.8-8.7,2.3-12.7l0.3-0.8
	c4.5-11.1,13.7-18.7,26.4-18.7c13.3,0,21.6,8.1,21.6,15.9c0,1.9-0.6,2.8-3.6,2.8h-29.9v0.8h37.1v-0.8c-1.3-14.5-15-19.7-24.2-19.7
	c-18.1,0-32.5,15.6-32.5,35.3c0,21.7,15.5,33.6,32.3,33.6c14.2,0,26.2-10.8,29.5-14.7L263.4,121.4z"/>
<path d="M221.4,87.1c0,0-6.8-0.4-11.7,5c-2.9,3.1-5.1,8.2-5.1,16.3l0,0c0,0,0-9.6,5.4-15.7c2.5-2.8,6.1-4.8,11.5-4.8V87.1z"/>
</svg>
